# Blender v2.90.0 OBJ File: ''
# www.blender.org
mtllib cliff2.mtl
o cliff2
v 8.000000 15.999999 8.000003
v -1.573560 16.000000 -2.062777
v -8.000000 15.999999 8.000003
v 8.000000 16.000002 -7.999998
v -1.573560 0.000000 -2.062780
v 8.000000 0.000001 -8.000000
v -8.000000 -0.000001 8.000000
vt -38.000000 127.000000
vt -36.205002 125.112999
vt -35.000000 127.000000
vt -38.000000 124.000000
vt 33.907600 3.799930
vt 36.019699 1.999990
vt 36.019600 3.799930
vt 33.907600 1.999990
vt -37.837200 2.000010
vt -40.075802 3.799970
vt -40.075802 2.000010
vt -37.837200 3.799960
vn -0.0000 1.0000 0.0000
vn -0.5270 0.0000 -0.8498
vn -0.8428 0.0000 -0.5382
usemtl _3
s 1
f 1/1/1 2/2/1 3/3/1
f 2/2/1 1/1/1 4/4/1
usemtl _44.001
f 4/5/2 5/6/2 2/7/2
f 5/6/2 4/5/2 6/8/2
f 7/9/3 2/10/3 5/11/3
f 2/10/3 7/9/3 3/12/3
