# Blender v2.90.0 OBJ File: ''
# www.blender.org
mtllib factory1.mtl
o factory1
v -4.014920 29.505600 2.365135
v -1.862740 13.360499 3.607692
v -4.014920 13.360500 2.365132
v -1.862740 29.505600 3.607695
v -4.014920 29.505600 4.850255
v -4.014920 13.360499 4.850252
v 2.532670 33.041401 -5.783315
v 2.532670 13.360500 -2.753958
v 2.532670 13.360501 -5.783318
v 2.532670 33.041401 -2.753954
v -0.090833 33.041401 -4.268635
v -0.090833 13.360501 -4.268638
v 24.000000 -0.000004 24.000000
v -24.000000 6.619996 24.000002
v -24.000000 -0.000004 24.000000
v 24.000000 6.619996 24.000002
v 24.000000 0.000004 -24.000000
v 24.000000 6.620004 -23.999998
v -24.000000 6.620004 -23.999998
v -24.000000 0.000004 -24.000000
v -24.000000 0.000001 -7.841660
v -24.000000 6.620001 -7.841659
v -22.952400 6.620001 -7.841659
v -22.952400 0.000001 -7.841660
v -22.952400 0.000004 -22.952400
v -22.952400 6.620004 -22.952398
v 22.952400 0.000004 -22.952400
v 22.952400 6.620004 -22.952398
v 22.952400 -0.000004 22.952400
v 22.952400 6.619996 22.952402
v -22.952400 6.619996 22.952402
v -22.952400 -0.000004 22.952400
v -22.952400 -0.000000 1.591480
v -22.952400 6.619999 1.591481
v -24.000000 6.619999 1.591481
v -24.000000 -0.000000 1.591480
v 22.952400 6.619997 19.520002
v -7.047630 9.819999 7.270001
v -17.047600 6.619997 19.520002
v 12.952400 9.819999 7.270001
v 12.952400 9.820001 -8.229998
v 22.952400 6.620003 -20.479998
v 22.952400 0.000003 -20.480000
v 22.952400 -0.000003 19.520000
v -17.047600 -0.000003 19.520000
v -17.047600 6.620003 -20.479998
v -17.047600 0.000003 -20.480000
v -7.047630 9.820001 -8.229998
v -7.047630 17.420002 -8.229997
v 12.952400 17.420002 -8.229997
v 12.952400 20.340000 -0.479997
v -7.047630 20.340000 -0.479997
v -7.047630 17.419998 7.270003
v 12.952400 17.419998 7.270003
v -17.180000 4.956700 -1.268389
v -17.180000 0.000001 -6.151610
v -17.180000 0.000000 -1.268390
v -17.180000 4.956701 -6.151609
v 24.000000 -0.000004 24.000000
v -24.000000 0.000004 -24.000000
v -24.000000 -0.000004 24.000000
v 24.000000 0.000004 -24.000000
vt 1.000000 6.496730
vt 1.500000 -0.000000
vt 1.000000 -0.000000
vt 1.500000 6.496730
vt 2.000000 -0.000000
vt 2.000000 6.496730
vt 1.000000 6.496730
vt 1.500000 -0.000000
vt 1.000000 -0.000000
vt 1.500000 6.496730
vt 2.000000 -0.000000
vt 2.000000 6.496730
vt -121.564003 153.832993
vt -121.387001 154.141006
vt -121.741997 154.141006
vt -120.654999 153.205002
vt -120.222000 153.205002
vt -120.439003 153.580002
vt -122.581001 150.173996
vt -120.772003 154.460007
vt -122.581001 155.888000
vt -120.772003 151.602997
vt -73.807198 158.908997
vt -72.307297 154.944000
vt -72.307198 157.158005
vt -73.807198 153.194000
vt -68.809303 103.935997
vt -70.617897 108.222000
vt -70.617996 102.508003
vt -68.809196 106.792999
vt -69.103897 103.935997
vt -67.920700 106.792999
vt -69.103897 106.792999
vt -67.920799 103.935997
vt -118.178001 154.460007
vt -119.361000 151.602997
vt -118.178001 151.602997
vt -119.361000 154.460007
vt -119.206001 105.202003
vt -117.706001 101.237999
vt -117.706001 103.452003
vt -119.206001 99.487701
vt 10.462800 0.999999
vt 1.887190 2.041570
vt 1.887190 1.000000
vt 10.462800 2.041570
vt 17.966400 0.999997
vt 9.390820 2.041570
vt 9.390820 0.999999
vt 17.966400 2.041570
vt 3.449210 1.000000
vt 12.024800 2.041570
vt 3.449210 2.041570
vt 12.024800 1.000000
vt 13.482300 1.000000
vt 10.595500 2.041570
vt 10.595500 1.000000
vt 13.482300 2.041570
vt 13.669500 2.041570
vt 13.669500 1.000000
vt -10.772000 1.000000
vt -13.471600 2.041580
vt -13.471600 1.000000
vt -10.772000 2.041580
vt -4.000000 1.000000
vt -12.201200 2.041580
vt -12.201200 1.000000
vt -4.000000 2.041580
vt 4.201230 1.000000
vt 4.201230 2.041570
vt 3.129290 1.000000
vt 11.330500 2.041570
vt 3.129290 2.041570
vt 11.330500 0.999998
vt -15.156900 1.000000
vt -18.973200 2.041580
vt -18.973200 1.000000
vt -15.156900 2.041580
vt -5.065520 1.000000
vt -4.878350 2.041580
vt -5.065520 2.041580
vt -4.878350 1.000000
vt 4.388400 1.000000
vt 0.384949 2.041570
vt 0.384949 1.000000
vt 4.388400 2.041570
vt 4.201230 2.228740
vt 0.384949 2.228740
vt 2.074360 2.228740
vt 10.275600 2.228740
vt 17.779200 2.228740
vt 9.577980 2.228740
vt -11.333500 2.041580
vt -2.945070 2.228740
vt -11.146300 2.228740
vt -2.757900 2.041580
vt 13.482300 2.228740
vt 10.782700 2.228740
vt 29.000000 0.993070
vt 35.000000 0.000138
vt 35.000000 0.993139
vt 29.000000 0.000069
vt 23.000000 -0.000000
vt 23.000000 0.993000
vt 17.000000 0.993004
vt 17.000000 -0.000000
vt 11.000000 -0.000019
vt 11.000000 0.992985
vt 19.000000 2.980640
vt 16.419399 1.999980
vt 19.000000 2.000000
vt 16.419399 2.980630
vt 20.000000 3.357420
vt 21.000000 2.000000
vt 21.000000 2.980640
vt 23.580601 2.980670
vt 23.580601 2.000030
vt 14.419400 2.980610
vt 14.419400 1.999970
vt 15.419400 3.357390
vt -28.968100 5.000000
vt -31.000000 4.000000
vt -28.968100 4.000000
vt -31.000000 5.000000
vt -477.903992 638.223022
vt -471.000000 631.318970
vt -471.000000 638.223022
vt -477.903992 631.318970
vn 0.5000 0.0000 -0.8660
vn -1.0000 0.0000 0.0000
vn 0.5000 -0.0000 0.8660
vn 1.0000 0.0000 0.0000
vn -0.5000 0.0000 -0.8660
vn -0.5000 -0.0000 0.8660
vn 0.0000 1.0000 0.0000
vn 0.0000 0.9675 0.2527
vn 0.3048 0.9524 0.0000
vn 0.0000 0.9675 -0.2527
vn 0.0000 0.9358 -0.3526
vn 0.0000 0.9358 0.3526
vn -0.3048 0.9524 0.0000
vn 0.0000 -0.0000 1.0000
vn 0.0000 0.0000 -1.0000
usemtl _21
s 1
f 1/1/1 2/2/1 3/3/1
f 2/2/1 1/1/1 4/4/1
f 1/1/2 6/5/2 5/6/2
f 6/5/2 1/1/2 3/3/2
f 6/5/3 4/4/3 5/6/3
f 4/4/3 6/5/3 2/2/3
f 7/7/4 8/8/4 9/9/4
f 8/8/4 7/7/4 10/10/4
f 7/7/5 12/11/5 11/12/5
f 12/11/5 7/7/5 9/9/5
f 12/11/6 10/10/6 11/12/6
f 10/10/6 12/11/6 8/8/6
usemtl _5.009
f 4/13/7 1/14/7 5/15/7
f 10/16/7 7/17/7 11/18/7
f 37/19/8 38/20/8 39/21/8
f 38/20/8 37/19/8 40/22/8
f 37/23/9 41/24/9 40/25/9
f 41/24/9 37/23/9 42/26/9
f 48/27/10 42/28/10 46/29/10
f 42/28/10 48/27/10 41/30/10
f 49/31/11 51/32/11 50/33/11
f 51/32/11 49/31/11 52/34/11
f 52/35/12 54/36/12 51/37/12
f 54/36/12 52/35/12 53/38/12
f 46/39/13 38/40/13 48/41/13
f 38/40/13 46/39/13 39/42/13
usemtl _6.003
f 13/43/14 14/44/14 15/45/14
f 14/44/14 13/43/14 16/46/14
f 17/47/4 16/48/4 13/49/4
f 16/48/4 17/47/4 18/50/4
f 17/51/15 19/52/15 18/53/15
f 19/52/15 17/51/15 20/54/15
f 21/55/2 19/56/2 20/57/2
f 19/56/2 21/55/2 22/58/2
f 21/55/14 23/59/14 22/58/14
f 23/59/14 21/55/14 24/60/14
f 25/61/4 23/62/4 24/63/4
f 23/62/4 25/61/4 26/64/4
f 27/65/14 26/66/14 25/67/14
f 26/66/14 27/65/14 28/68/14
f 29/69/2 28/68/2 27/65/2
f 28/68/2 29/69/2 30/70/2
f 29/71/15 31/72/15 30/73/15
f 31/72/15 29/71/15 32/74/15
f 33/75/4 31/76/4 32/77/4
f 31/76/4 33/75/4 34/78/4
f 33/79/15 35/80/15 34/81/15
f 35/80/15 33/79/15 36/82/15
f 15/83/2 35/84/2 36/85/2
f 35/84/2 15/83/2 14/86/2
f 31/87/7 35/84/7 14/86/7
f 35/84/7 31/87/7 34/88/7
f 16/46/7 31/89/7 14/44/7
f 31/89/7 16/46/7 30/90/7
f 16/48/7 28/91/7 30/92/7
f 28/91/7 16/48/7 18/50/7
f 18/93/7 26/94/7 28/95/7
f 26/94/7 18/93/7 19/96/7
f 19/56/7 23/97/7 26/98/7
f 23/97/7 19/56/7 22/58/7
usemtl _7.002
f 37/99/4 43/100/4 42/101/4
f 43/100/4 37/99/4 44/102/4
f 37/99/14 45/103/14 44/102/14
f 45/103/14 37/99/14 39/104/14
f 46/105/2 45/103/2 39/104/2
f 45/103/2 46/105/2 47/106/2
f 46/105/15 43/107/15 47/106/15
f 43/107/15 46/105/15 42/108/15
f 49/109/15 41/110/15 48/111/15
f 41/110/15 49/109/15 50/112/15
f 48/111/2 52/113/2 49/109/2
f 38/114/2 52/113/2 48/111/2
f 52/113/2 38/114/2 53/115/2
f 38/114/14 54/116/14 53/115/14
f 54/116/14 38/114/14 40/117/14
f 41/110/4 54/118/4 40/119/4
f 54/118/4 41/110/4 51/120/4
f 51/120/4 41/110/4 50/112/4
usemtl _23.010
f 55/121/2 56/122/2 57/123/2
f 56/122/2 55/121/2 58/124/2
usemtl _2.013
f 59/125/7 60/126/7 61/127/7
f 60/126/7 59/125/7 62/128/7
