# Blender v2.90.0 OBJ File: ''
# www.blender.org
mtllib hangar1.mtl
o hangar1
v -8.000000 4.956701 -5.558389
v -8.000000 0.000002 -10.441600
v -8.000000 0.000001 -5.558390
v -8.000000 4.956702 -10.441599
v 24.100000 6.429998 8.000001
v -7.900000 -0.000001 8.000000
v 24.100000 -0.000001 8.000000
v -7.900000 6.429998 8.000001
v -7.900000 12.280000 -0.002630
v 24.100000 12.280000 -0.002630
v 24.100000 0.000004 -24.000000
v 24.100000 12.280003 -15.997398
v 24.100000 6.430004 -23.999998
v -7.900000 0.000004 -24.000000
v -7.900000 6.430004 -23.999998
v -7.900000 12.280003 -15.997398
v -5.247730 16.500000 -4.002627
v -5.247730 16.500002 -11.997397
v 20.100000 16.500000 -4.002627
v 20.100000 16.500002 -11.997397
vt -28.968100 5.000000
vt -31.000000 4.000000
vt -28.968100 4.000000
vt -31.000000 5.000000
vt 6.000000 1.004690
vt 1.000000 0.000000
vt 6.000000 0.000000
vt 1.000000 1.004690
vt -14.000000 1.004690
vt -9.000000 -0.000000
vt -12.749600 1.918750
vt -14.000000 -0.000000
vt -10.250400 1.918750
vt -9.000000 1.004690
vt -4.000000 0.000000
vt -4.000000 1.004690
vt -2.749590 1.918750
vt -0.250411 1.918750
vt -119.714996 137.807007
vt -118.570999 142.378998
vt -119.714996 142.378998
vt -118.570999 137.807007
vt -118.000000 142.000000
vt -116.286003 142.378998
vt -116.858002 142.000000
vt -118.000000 138.378998
vt -116.858002 138.378998
vt -116.286003 137.807007
vt -115.142998 142.378998
vt -115.142998 137.807007
vt 4.000000 1.000000
vt 0.686094 0.311832
vt 4.473420 0.311832
vt 1.000000 1.000000
vt 123.527000 0.311859
vt 127.000000 1.000000
vt 124.000000 1.000000
vt 127.314003 0.311859
vn -1.0000 0.0000 0.0000
vn 0.0000 -0.0000 1.0000
vn 1.0000 0.0000 0.0000
vn 0.0000 0.0000 -1.0000
vn 0.0000 0.8073 0.5901
vn -0.8467 0.5321 0.0000
vn 0.0000 1.0000 0.0000
vn 0.7258 0.6879 0.0000
vn 0.0000 0.8073 -0.5901
vn 0.0000 0.6879 0.7258
vn 0.0000 0.6879 -0.7258
usemtl _23.007
s 1
f 1/1/1 2/2/1 3/3/1
f 2/2/1 1/1/1 4/4/1
usemtl _28
f 5/5/2 6/6/2 7/7/2
f 6/6/2 5/5/2 8/8/2
f 5/9/3 11/10/3 10/11/3
f 11/10/3 5/9/3 7/12/3
f 10/11/3 11/10/3 12/13/3
f 12/13/3 11/10/3 13/14/3
f 14/15/4 13/14/4 11/10/4
f 13/14/4 14/15/4 15/16/4
f 14/15/1 16/17/1 15/16/1
f 14/15/1 9/18/1 16/17/1
f 6/6/1 9/18/1 14/15/1
f 9/18/1 6/6/1 8/8/1
usemtl _5.007
f 5/19/5 9/20/5 8/21/5
f 9/20/5 5/19/5 10/22/5
f 17/23/6 16/24/6 9/20/6
f 16/24/6 17/23/6 18/25/6
f 19/26/7 18/25/7 17/23/7
f 18/25/7 19/26/7 20/27/7
f 19/26/8 12/28/8 20/27/8
f 12/28/8 19/26/8 10/22/8
f 12/28/9 15/29/9 16/24/9
f 15/29/9 12/28/9 13/30/9
usemtl _7.001
f 19/31/10 9/32/10 10/33/10
f 9/32/10 19/31/10 17/34/10
f 12/35/11 18/36/11 20/37/11
f 18/36/11 12/35/11 16/38/11
