# Blender v2.90.0 OBJ File: ''
# www.blender.org
mtllib hopital1.mtl
o hopital1
v -16.015301 10.148296 20.505001
v -16.015301 6.653326 24.000002
v -16.015301 10.148296 24.000002
v -16.015301 6.653327 20.505001
v -24.000000 3.264804 -24.000000
v -24.000000 3.264802 -13.999999
v -23.094601 3.264804 -22.996500
v -24.000000 0.000004 -24.000000
v -16.000000 0.000004 -24.000000
v -16.000000 3.264804 -24.000000
v -16.000000 3.264804 -22.996500
v -16.000000 0.000004 -22.996500
v -23.094601 0.000004 -22.996500
v -23.094601 0.000002 -14.000000
v -23.094601 3.264802 -13.999999
v -24.000000 0.000002 -14.000000
v -24.000000 3.264796 24.000000
v -23.094601 3.264798 15.290001
v -24.000000 3.264798 15.290001
v -23.094601 3.264796 22.996500
v -16.000000 3.264796 24.000000
v -16.000000 3.264796 22.996500
v -16.000000 -0.000004 22.996500
v -23.094601 -0.000004 22.996500
v -23.094601 -0.000002 15.290000
v -24.000000 -0.000002 15.290000
v -24.000000 -0.000004 24.000000
v -16.000000 -0.000004 24.000000
v -24.000000 3.264801 -3.460000
v -23.094601 0.000001 -3.460000
v -24.000000 0.000001 -3.460000
v -23.094601 3.264801 -3.460000
v -24.000000 3.264798 11.300001
v -23.094601 3.264798 11.300001
v -23.094601 -0.000002 11.300000
v -24.000000 -0.000002 11.300000
v 24.000000 0.000004 -24.000000
v 24.000000 11.169996 24.000002
v 24.000000 -0.000004 24.000000
v 24.000000 11.169997 19.645002
v 24.000000 15.289997 19.645002
v 24.000000 11.170003 -18.999998
v 24.000000 11.170004 -23.999998
v -16.000000 11.170004 -23.999998
v -16.000000 0.000004 -24.000000
v -16.000000 0.000002 -14.000000
v -16.000000 11.170002 -13.999998
v 3.510000 0.000002 -14.000000
v 3.510000 11.170002 -13.999998
v 3.510000 -0.000002 15.290000
v 3.510000 15.290003 -18.999998
v 3.510000 11.169997 15.290002
v 3.510000 11.169997 19.645002
v 3.510000 15.289997 19.645002
v -16.000000 11.169996 24.000002
v -16.000000 11.169997 15.290002
v -16.000000 -0.000002 15.290000
v -16.000000 -0.000004 24.000000
v 24.000000 15.290003 -18.999998
v 3.510000 11.170003 -18.999998
v -16.015301 10.148304 -24.039999
v -16.015301 6.653333 -20.544998
v -16.015301 10.148304 -20.544998
v -16.015301 6.653334 -24.039999
v 3.480000 4.956701 -4.913389
v 3.480000 0.000002 -9.796610
v 3.480000 0.000001 -4.913390
v 3.480000 4.956701 -9.796609
v -24.000000 0.000004 -24.000000
v 24.000000 -0.000002 11.300000
v 24.000000 -0.000004 24.000000
vt -17.000000 3.000000
vt -16.000000 2.000000
vt -16.000000 3.000000
vt -17.000000 2.000000
vt -17.000000 3.000000
vt -16.000000 2.000000
vt -16.000000 3.000000
vt -17.000000 2.000000
vt -20.820000 2.041580
vt -24.010300 2.041580
vt -21.140200 1.752730
vt -20.820000 1.000000
vt -19.390699 1.000000
vt -19.390699 2.041580
vt -20.658300 1.862300
vt -19.390699 1.862300
vt -24.046600 2.041580
vt -21.783100 2.041580
vt -24.046600 1.000000
vt -21.783100 1.000000
vt -48.323399 1.000010
vt -48.323399 2.041580
vt -45.453201 1.000000
vt -45.453201 2.041580
vt -21.783100 2.041580
vt -21.494301 2.041580
vt -21.783100 1.000000
vt -24.010300 1.752730
vt -21.494301 1.000000
vt -24.010300 1.000000
vt -20.820000 2.041580
vt -23.598801 1.752730
vt -23.598801 2.041580
vt -21.140200 1.752730
vt -19.390699 2.041580
vt -20.658300 1.862300
vt -19.390699 1.862300
vt -24.046600 1.000000
vt -21.783100 2.041580
vt -24.046600 2.041580
vt -21.783100 1.000000
vt -45.864700 1.000000
vt -48.323399 2.041580
vt -48.323399 1.000010
vt -45.864700 2.041580
vt -21.783100 1.000000
vt -21.494301 2.041580
vt -21.783100 2.041580
vt -21.494301 1.000000
vt -20.820000 1.000000
vt -23.598801 1.000000
vt -19.390699 1.000000
vt -21.494301 2.041580
vt -21.783100 1.000000
vt -21.494301 1.000000
vt -21.783100 2.041580
vt -19.767200 2.041580
vt -24.476101 1.752730
vt -24.476101 2.041580
vt -19.767200 1.752730
vt -20.820000 2.041580
vt -20.531200 1.000000
vt -20.531200 2.041580
vt -20.820000 1.000000
vt -19.767200 1.000000
vt -24.476101 1.000000
vt -44.987400 1.000000
vt -49.696301 2.041580
vt -49.696301 1.000010
vt -44.987400 2.041580
vt 24.631201 0.999996
vt 15.031300 3.234000
vt 15.031300 0.999998
vt 15.902300 3.234000
vt 15.902300 4.057990
vt 23.631201 3.233990
vt 24.631201 3.233990
vt -12.000000 1.000000
vt -4.000000 3.234000
vt -12.000000 3.234000
vt -4.000000 1.000000
vt -3.166720 1.000000
vt -5.166720 3.234000
vt -5.166720 1.000000
vt -3.166720 3.234000
vt 1.902000 0.999999
vt -2.000000 3.234000
vt -2.000000 1.000000
vt 1.902000 3.234000
vt -2.000000 1.000000
vt 3.857990 1.000000
vt -2.000000 3.234000
vt -3.000000 4.058000
vt 3.857990 3.234000
vt 4.728990 3.234000
vt 4.728990 4.058000
vt 11.804000 3.234000
vt 15.902000 4.057990
vt 11.804000 4.057990
vt 15.902000 3.234000
vt 1.999990 1.000000
vt 5.901990 3.234000
vt 2.000000 3.234000
vt 5.901990 0.999999
vt 7.643990 0.999999
vt 7.643990 3.234000
vt 7.901990 0.999999
vt 15.902000 3.234000
vt 7.901990 3.234000
vt 15.902000 0.999998
vt 23.631201 4.057990
vt -12.000000 3.234000
vt -7.902000 4.058000
vt -12.000000 4.058000
vt -7.902000 3.234000
vt -3.000000 3.234000
vt -4.451400 32.458000
vt -7.025940 33.005199
vt -7.025940 32.458000
vt -2.000000 33.005199
vt -2.000000 31.910801
vt -4.451400 31.910801
vt -7.025940 32.458000
vt -4.451400 27.602301
vt -4.451400 32.458000
vt -7.025940 27.602301
vt -7.025940 26.974100
vt -4.451400 27.602301
vt -7.025940 27.602301
vt -2.000000 26.974100
vt -2.000000 28.230600
vt -4.451400 28.230600
vt -465.950012 667.739990
vt -477.950012 658.914978
vt -465.950012 658.914978
vt -477.950012 667.739990
vt -28.968100 5.000000
vt -31.000000 4.000000
vt -28.968100 4.000000
vt -31.000000 5.000000
vt 13.995000 233.000000
vt 7.645010 209.000000
vt 13.995000 209.000000
vt 7.645020 233.000000
vn -1.0000 0.0000 0.0000
vn -0.0000 1.0000 0.0000
vn 0.0000 0.0000 -1.0000
vn 0.0000 0.0000 1.0000
vn 1.0000 0.0000 0.0000
usemtl _14
s 1
f 1/1/1 2/2/1 3/3/1
f 2/2/1 1/1/1 4/4/1
f 61/5/1 62/6/1 63/7/1
f 62/6/1 61/5/1 64/8/1
usemtl _6.002
f 5/9/2 6/10/2 7/11/2
f 5/9/1 8/12/1 6/10/1
f 8/12/3 5/9/3 9/13/3
f 10/14/3 9/13/3 5/9/3
f 5/9/2 7/15/2 10/14/2
f 11/16/2 10/14/2 7/15/2
f 11/17/4 7/18/4 12/19/4
f 13/20/4 12/19/4 7/18/4
f 13/21/5 7/22/5 14/23/5
f 15/24/5 14/23/5 7/22/5
f 15/25/4 6/26/4 14/27/4
f 15/28/2 7/11/2 6/10/2
f 16/29/4 14/27/4 6/26/4
f 16/30/1 6/10/1 8/12/1
f 17/31/2 18/32/2 19/33/2
f 18/32/2 17/31/2 20/34/2
f 21/35/2 20/36/2 17/31/2
f 20/36/2 21/35/2 22/37/2
f 23/38/3 20/39/3 22/40/3
f 20/39/3 23/38/3 24/41/3
f 25/42/5 20/43/5 24/44/5
f 20/43/5 25/42/5 18/45/5
f 25/46/3 19/47/3 18/48/3
f 19/47/3 25/46/3 26/49/3
f 27/50/1 19/33/1 26/51/1
f 19/33/1 27/50/1 17/31/1
f 28/52/4 17/31/4 27/50/4
f 17/31/4 28/52/4 21/35/4
f 29/53/3 30/54/3 31/55/3
f 30/54/3 29/53/3 32/56/3
f 33/57/2 32/58/2 29/59/2
f 32/58/2 33/57/2 34/60/2
f 33/61/4 35/62/4 34/63/4
f 35/62/4 33/61/4 36/64/4
f 29/59/1 36/65/1 33/57/1
f 36/65/1 29/59/1 31/66/1
f 30/67/5 34/68/5 35/69/5
f 34/68/5 30/67/5 32/70/5
usemtl _9.001
f 37/71/5 38/72/5 39/73/5
f 38/72/5 37/71/5 40/74/5
f 40/74/5 37/71/5 41/75/5
f 41/75/5 37/71/5 42/76/5
f 42/76/5 37/71/5 43/77/5
f 37/78/3 44/79/3 43/80/3
f 44/79/3 37/78/3 45/81/3
f 46/82/1 44/83/1 45/84/1
f 44/83/1 46/82/1 47/85/1
f 48/86/4 47/87/4 46/88/4
f 47/87/4 48/86/4 49/89/4
f 48/90/1 50/91/1 49/92/1
f 50/91/1 51/93/1 49/92/1
f 52/94/1 51/93/1 50/91/1
f 53/95/1 51/93/1 52/94/1
f 51/93/1 53/95/1 54/96/1
f 53/97/4 41/98/4 54/99/4
f 41/98/4 53/97/4 40/100/4
f 50/101/3 56/102/3 52/103/3
f 56/102/3 50/101/3 57/104/3
f 58/105/1 56/102/1 57/104/1
f 56/102/1 58/105/1 55/106/1
f 58/107/4 38/108/4 55/109/4
f 38/108/4 58/107/4 39/110/4
f 59/111/5 41/75/5 42/76/5
f 42/112/3 51/113/3 59/114/3
f 51/113/3 42/112/3 60/115/3
f 49/92/1 51/93/1 60/116/1
usemtl _2.012
f 53/117/2 38/118/2 40/119/2
f 53/117/2 55/120/2 38/118/2
f 55/120/2 53/117/2 56/121/2
f 52/122/2 56/121/2 53/117/2
f 41/123/2 51/124/2 54/125/2
f 51/124/2 41/123/2 59/126/2
f 43/127/2 60/128/2 42/129/2
f 44/130/2 60/128/2 43/127/2
f 60/128/2 44/130/2 47/131/2
f 60/128/2 47/131/2 49/132/2
f 36/133/2 37/134/2 69/135/2
f 37/134/2 36/133/2 70/136/2
usemtl _23.009
f 65/137/1 66/138/1 67/139/1
f 66/138/1 65/137/1 68/140/1
usemtl _1.009
f 36/141/2 71/142/2 70/143/2
f 71/142/2 36/141/2 27/144/2
