# Blender v2.90.0 OBJ File: ''
# www.blender.org
mtllib house3.mtl
o house3
v -8.000000 4.956702 -15.078399
v -8.000000 0.000003 -17.481600
v -8.000000 0.000002 -15.078400
v -8.000000 4.956703 -17.481600
v 8.070000 17.329998 8.000003
v -7.930000 17.330006 -39.999996
v -7.930000 17.329998 8.000003
v 8.070000 17.330006 -39.999996
v 8.070000 0.000007 -40.000000
v 8.070000 -0.000001 8.000000
v -7.930000 -0.000001 8.000000
v -7.930000 0.000007 -40.000000
vt -30.000000 5.000000
vt -31.000000 4.000000
vt -30.000000 4.000000
vt -31.000000 5.000000
vt -119.286003 137.856995
vt -121.570999 144.714005
vt -121.570999 137.856995
vt -119.286003 144.714005
vt -20.483900 4.014280
vt -12.135100 1.000000
vt -12.135100 4.014280
vt -20.483900 1.000000
vt 1.779650 4.014270
vt -1.003300 1.000000
vt 1.779640 1.000000
vt -1.003300 4.014270
vt -9.352120 4.014280
vt -9.352130 1.000000
vn -1.0000 0.0000 0.0000
vn 0.0000 1.0000 0.0000
vn 1.0000 -0.0000 0.0000
vn 0.0000 -0.0000 1.0000
vn 0.0000 0.0000 -1.0000
usemtl _23.002
s 1
f 1/1/1 2/2/1 3/3/1
f 2/2/1 1/1/1 4/4/1
usemtl _5.002
f 5/5/2 6/6/2 7/7/2
f 6/6/2 5/5/2 8/8/2
usemtl _42.002
f 5/9/3 9/10/3 8/11/3
f 9/10/3 5/9/3 10/12/3
f 5/13/4 11/14/4 10/15/4
f 11/14/4 5/13/4 7/16/4
f 6/17/1 11/14/1 7/16/1
f 11/14/1 6/17/1 12/18/1
f 6/17/5 9/10/5 12/18/5
f 9/10/5 6/17/5 8/11/5
