# Blender v2.90.0 OBJ File: ''
# www.blender.org
mtllib parc1.mtl
o parc1
v -22.952400 3.264796 22.952400
v -24.000000 3.264800 -0.601161
v -24.000000 3.264796 24.000000
v -22.952400 3.264800 -0.601161
v -22.952400 0.000000 -0.601162
v -22.952400 -0.000004 22.952400
v 22.952400 -0.000004 22.952400
v 22.952400 3.264796 22.952400
v 24.000000 3.264796 24.000000
v 24.000000 -0.000004 24.000000
v -24.000000 -0.000004 24.000000
v -24.000000 0.000000 -0.601162
v 24.000000 -0.000001 8.969350
v 24.000000 3.264799 8.969351
v 22.952400 -0.000001 8.969350
v 22.952400 3.264799 8.969351
v 22.952400 0.000004 -22.952400
v -22.952400 3.264804 -22.952400
v -22.952400 0.000004 -22.952400
v 22.952400 3.264804 -22.952400
v 22.952400 0.000000 -0.601162
v 22.952400 3.264800 -0.601161
v 24.000000 3.264800 -0.601161
v 24.000000 0.000000 -0.601162
v 24.000000 0.000004 -24.000000
v 24.000000 3.264804 -24.000000
v -24.000000 3.264804 -24.000000
v -24.000000 0.000004 -24.000000
v -24.000000 0.000002 -10.171700
v -24.000000 3.264802 -10.171699
v -22.952400 3.264802 -10.171699
v -22.952400 0.000002 -10.171700
v 14.010000 -0.434443 13.600200
v -13.210000 -0.434439 -14.829800
v -13.210000 -0.434443 13.600200
v 14.010000 -0.434439 -14.829800
v 13.863700 0.000001 -8.126160
v 0.830061 -4.070000 -0.601163
v 13.863700 -0.000001 6.923840
v 0.830061 0.000003 -15.651200
v 0.830061 0.000003 -19.742201
v 17.406700 0.000002 -10.171700
v 17.406700 -0.000001 8.969350
v 0.830061 -0.000002 14.448800
v 0.830061 -0.000003 18.539900
v -12.203600 -0.000001 6.923840
v -15.746600 -0.000001 8.969350
v -15.746600 0.000000 -0.601162
v -15.746600 0.000002 -10.171700
v -12.203600 0.000001 -8.126160
v -24.000000 0.000004 -24.000000
v -24.000000 0.000002 -10.171700
v -24.000000 0.000000 -0.601162
v -24.000000 -0.000004 24.000000
v 24.000000 -0.000004 24.000000
v 24.000000 -0.000001 8.969350
v 17.406700 0.000000 -0.601162
v 24.000000 0.000000 -0.601162
v 4.108940 -1.182421 3.670270
v -1.528100 -0.000000 2.403010
v -2.448820 -1.182421 3.670270
v 3.188220 -0.000000 2.403010
v 4.645650 0.000000 -2.082480
v 6.135400 -1.182420 -2.566530
v 0.830061 0.000001 -4.854670
v 0.830061 -1.182419 -6.421080
v -2.985530 0.000000 -2.082480
v -4.475280 -1.182420 -2.566530
v 2.009140 -0.000002 13.768100
v -0.349021 -0.000000 2.403010
v -0.349021 -0.000002 13.768100
v 2.009140 -0.000000 2.403010
v 0.830061 -0.000002 14.448800
vt 4.201230 2.228740
vt -0.006782 2.041570
vt 4.388400 2.041570
vt -0.006782 2.228740
vt -18.973200 2.041580
vt -14.765200 1.000000
vt -14.765200 2.041580
vt -18.973200 1.000000
vt 11.330500 2.041570
vt 3.129290 1.000000
vt 11.330500 0.999998
vt 3.129290 2.041570
vt 2.074360 2.228740
vt 10.462800 2.041570
vt 10.275600 2.228740
vt 1.887190 2.041570
vt 10.462800 0.999999
vt 1.887190 1.000000
vt 4.388400 1.000000
vt -0.006783 1.000000
vt -4.878350 2.041580
vt -5.065520 1.000000
vt -4.878350 1.000000
vt -5.065520 2.041580
vt 12.076200 0.999998
vt 9.390820 2.041570
vt 9.390820 0.999999
vt 12.076200 2.041570
vt 3.129290 1.000000
vt 2.942120 2.041570
vt 2.942120 1.000000
vt 3.129290 2.041570
vt -195.904007 1.000040
vt -198.401993 2.041610
vt -198.401993 1.000040
vt -195.904007 2.041610
vt 12.076200 2.228740
vt 9.577980 2.228740
vt -4.000000 1.000000
vt -12.201200 2.041580
vt -12.201200 1.000000
vt -4.000000 2.041580
vt -0.006783 1.000000
vt -0.006783 2.041570
vt 0.594299 1.000000
vt 0.781467 2.041570
vt 0.594300 2.041570
vt 0.781467 1.000000
vt 17.966400 0.999997
vt 13.786000 2.041570
vt 13.786000 0.999998
vt 17.966400 2.041570
vt 3.449210 1.000000
vt 12.024800 2.041570
vt 3.449210 2.041570
vt 12.024800 1.000000
vt 13.066000 1.000000
vt 10.595500 2.041570
vt 10.595500 1.000000
vt 13.066000 2.041570
vt 13.482300 1.000000
vt 13.669500 2.041570
vt 13.482300 2.041570
vt 13.669500 1.000000
vt -10.772000 1.000000
vt -13.055400 2.041580
vt -13.055400 1.000000
vt -10.772000 2.041580
vt 13.066000 2.228740
vt 10.782700 2.228740
vt -2.945070 2.228740
vt -11.333500 2.041580
vt -2.757900 2.041580
vt -11.146300 2.228740
vt 17.779200 2.228740
vt 13.786000 2.228740
vt -57.606201 58.944302
vt -60.328201 61.787300
vt -60.328201 58.944302
vt -57.606201 61.787300
vt -86.058800 -29.831900
vt -84.504501 -32.523899
vt -82.950302 -29.831900
vt -87.612999 -32.523899
vt -86.058800 -35.215900
vt -82.950302 -35.215900
vt -89.337402 -37.652302
vt -86.481201 -35.947701
vt -88.457901 -32.523899
vt -86.481201 -37.652302
vt -84.504501 -35.947701
vt -84.504501 -37.652302
vt -82.527802 -35.947701
vt -79.423401 -37.652302
vt -80.551102 -32.523899
vt -79.423401 -27.738400
vt -82.527802 -29.100201
vt -82.527802 -27.738400
vt -84.504501 -27.738400
vt -86.481201 -29.100201
vt -84.504501 -29.100201
vt -89.337402 -27.738400
vt -81.396103 -32.523899
vt -84.005203 -33.244900
vt -84.733597 -33.081200
vt -84.852600 -33.244900
vt -84.124199 -33.081200
vt -83.935898 -32.501598
vt -83.743401 -32.438999
vt -84.428902 -32.143299
vt -84.428902 -31.940901
vt -84.921997 -32.501598
vt -85.114502 -32.438999
vt -422.993988 647.132996
vt -422.000000 651.927002
vt -422.993988 651.353027
vt -422.000000 646.559021
vt -422.000000 642.338989
vt -422.000000 647.705994
vt -422.993988 642.911987
vt -422.993988 638.692017
vt -422.000000 643.486023
vt -422.000000 638.117981
vt -422.993988 634.471985
vt -422.000000 639.265991
vt -422.000000 633.898010
vt -422.993988 659.794006
vt -422.000000 657.684021
vt -422.000000 660.367981
vt -422.000000 655.000000
vt -422.993988 655.573975
vt -422.000000 650.780029
vt -422.000000 656.146973
vt -419.686005 655.000000
vt -419.686005 657.684021
vt -420.151001 642.338989
vt -422.000000 645.023010
vt -420.151001 645.023010
vt 18.000000 9.180540
vt 17.000000 14.000000
vt 17.000000 9.180540
vt 18.000000 14.000000
vt 17.500000 8.891860
vn 0.0000 1.0000 0.0000
vn 1.0000 0.0000 0.0000
vn 0.0000 0.0000 -1.0000
vn 0.0000 0.0000 1.0000
vn -1.0000 0.0000 0.0000
vn -0.2981 0.9545 0.0000
vn -0.1490 0.9545 0.2581
vn 0.2981 0.9545 0.0000
vn 0.1490 0.9545 0.2581
vn 0.1490 0.9545 -0.2581
vn -0.1490 0.9545 -0.2581
vn 0.0000 0.7312 0.6822
vn 0.6488 0.7312 0.2108
vn 0.4010 0.7312 -0.5519
vn -0.4010 0.7312 -0.5519
vn -0.6488 0.7312 0.2108
usemtl _6
s 1
f 1/1/1 2/2/1 3/3/1
f 2/2/1 1/1/1 4/4/1
f 1/5/2 5/6/2 4/7/2
f 5/6/2 1/5/2 6/8/2
f 1/9/3 7/10/3 6/11/3
f 7/10/3 1/9/3 8/12/3
f 1/13/1 9/14/1 8/15/1
f 9/14/1 1/13/1 3/16/1
f 3/16/4 10/17/4 9/14/4
f 10/17/4 3/16/4 11/18/4
f 2/2/5 11/19/5 3/3/5
f 11/19/5 2/2/5 12/20/5
f 2/21/3 5/22/3 12/23/3
f 5/22/3 2/21/3 4/24/3
f 13/25/2 9/26/2 10/27/2
f 9/26/2 13/25/2 14/28/2
f 15/29/3 14/30/3 13/31/3
f 14/30/3 15/29/3 16/32/3
f 7/33/5 16/34/5 15/35/5
f 16/34/5 7/33/5 8/36/5
f 9/26/1 16/37/1 8/38/1
f 16/37/1 9/26/1 14/28/1
f 17/39/4 18/40/4 19/41/4
f 18/40/4 17/39/4 20/42/4
f 21/43/5 20/42/5 17/39/5
f 20/42/5 21/43/5 22/44/5
f 21/45/4 23/46/4 22/47/4
f 23/46/4 21/45/4 24/48/4
f 25/49/2 23/50/2 24/51/2
f 23/50/2 25/49/2 26/52/2
f 25/53/3 27/54/3 26/55/3
f 27/54/3 25/53/3 28/56/3
f 29/57/5 27/58/5 28/59/5
f 27/58/5 29/57/5 30/60/5
f 29/61/4 31/62/4 30/63/4
f 31/62/4 29/61/4 32/64/4
f 19/65/2 31/66/2 32/67/2
f 31/66/2 19/65/2 18/68/2
f 27/58/1 31/69/1 18/70/1
f 31/69/1 27/58/1 30/60/1
f 18/71/1 26/72/1 27/73/1
f 26/72/1 18/71/1 20/74/1
f 20/75/1 23/50/1 26/52/1
f 23/50/1 20/75/1 22/76/1
usemtl _16
f 33/77/1 34/78/1 35/79/1
f 34/78/1 33/77/1 36/80/1
usemtl _4
f 37/81/6 38/82/6 39/83/6
f 37/81/7 40/84/7 38/82/7
f 38/82/8 50/85/8 46/86/8
f 40/84/9 50/85/9 38/82/9
f 51/87/1 49/88/1 41/89/1
f 49/88/1 51/87/1 52/90/1
f 48/91/1 53/92/1 47/93/1
f 54/94/1 47/93/1 53/92/1
f 47/93/1 54/94/1 45/95/1
f 45/95/1 54/94/1 55/96/1
f 45/95/1 55/96/1 43/97/1
f 43/97/1 55/96/1 56/98/1
f 58/99/1 42/100/1 57/101/1
f 25/102/1 42/100/1 58/99/1
f 25/102/1 41/89/1 42/100/1
f 51/87/1 41/89/1 25/102/1
f 38/82/10 46/86/10 44/103/10
f 39/83/11 38/82/11 44/103/11
f 59/104/12 60/105/12 61/106/12
f 60/105/12 59/104/12 62/107/12
f 59/104/13 63/108/13 62/107/13
f 63/108/13 59/104/13 64/109/13
f 64/109/14 65/110/14 63/108/14
f 65/110/14 64/109/14 66/111/14
f 66/111/15 67/112/15 65/110/15
f 67/112/15 66/111/15 68/113/15
f 61/106/16 67/112/16 68/113/16
f 67/112/16 61/106/16 60/105/16
f 60/105/1 65/110/1 67/112/1
f 65/110/1 60/105/1 62/107/1
f 65/110/1 62/107/1 63/108/1
usemtl _2.010
f 37/114/1 41/115/1 40/116/1
f 41/115/1 37/114/1 42/117/1
f 37/114/1 43/118/1 42/119/1
f 43/118/1 37/114/1 39/120/1
f 44/121/1 43/122/1 39/120/1
f 43/122/1 44/121/1 45/123/1
f 46/124/1 45/125/1 44/121/1
f 45/125/1 46/124/1 47/126/1
f 46/127/1 48/128/1 47/129/1
f 48/128/1 46/127/1 49/130/1
f 49/130/1 46/127/1 50/131/1
f 41/132/1 50/131/1 40/116/1
f 50/131/1 41/132/1 49/133/1
f 52/134/1 48/128/1 49/130/1
f 48/128/1 52/134/1 53/135/1
f 56/136/1 57/137/1 43/118/1
f 57/137/1 56/136/1 58/138/1
f 42/119/1 43/118/1 57/137/1
usemtl _26
f 69/139/1 70/140/1 71/141/1
f 70/140/1 69/139/1 72/142/1
f 69/139/1 71/141/1 73/143/1
