# Blender v2.90.0 OBJ File: ''
# www.blender.org
mtllib port1.mtl
o port1
v -8.000000 17.330004 -21.939999
v -5.930000 0.000004 -21.940001
v -8.000000 0.000004 -21.940001
v -5.930000 17.330004 -21.939999
v -5.930000 17.330004 -19.999998
v -5.930000 0.000003 -20.000000
v -8.000000 0.000003 -20.000000
v -8.000000 17.330004 -19.999998
v 53.930000 17.330004 -21.939999
v 56.000000 0.000004 -21.940001
v 53.930000 0.000004 -21.940001
v 56.000000 17.330004 -21.939999
v 56.000000 17.330004 -19.999998
v 56.000000 0.000003 -20.000000
v 53.930000 0.000003 -20.000000
v 53.930000 17.330004 -19.999998
v -12.230000 20.350004 -21.939997
v -12.230000 17.330004 -19.999998
v -12.230000 20.350004 -19.999996
v -12.230000 17.330004 -21.939999
v 57.840000 17.330004 -21.939999
v 57.840000 20.350004 -21.939997
v 57.840000 20.350004 -19.999996
v 57.840000 17.330004 -19.999998
v 56.000000 6.619996 22.952402
v 56.000000 -0.000004 24.000000
v 56.000000 6.619996 24.000002
v 56.000000 -0.000004 22.952400
v 70.952400 -0.000004 22.952400
v 70.952400 6.619996 22.952402
v 72.000000 6.619996 24.000002
v 72.000000 -0.000004 24.000000
v 72.000000 0.000004 -24.000000
v 72.000000 6.620004 -23.999998
v 70.952400 6.620004 -23.999998
v 70.952400 0.000004 -24.000000
v 70.952400 6.620004 -22.952398
v 1.591480 6.619996 22.952402
v 40.158298 -0.000004 22.952400
v 1.591480 -0.000004 22.952400
v 40.158298 6.619996 22.952402
v 40.158298 6.619996 24.000002
v 1.591480 6.619996 24.000002
v 1.591480 -0.000004 24.000000
v 40.158298 -0.000004 24.000000
v -22.952400 6.619996 22.952402
v -7.841660 -0.000004 22.952400
v -22.952400 -0.000004 22.952400
v -7.841660 6.619996 22.952402
v -7.841660 6.619996 24.000002
v -24.000000 6.619996 24.000002
v -24.000000 6.620004 -23.999998
v -22.952400 6.620004 -22.952398
v -22.952400 0.000004 -24.000000
v -22.952400 6.620004 -23.999998
v -24.000000 0.000004 -24.000000
v -24.000000 -0.000004 24.000000
v -7.841660 -0.000004 24.000000
v 8.000000 6.050002 -7.999999
v 12.000000 0.000001 -8.000000
v 8.000000 0.000001 -8.000000
v 12.000000 6.050002 -7.999999
v 12.000000 6.049999 8.000001
v 8.000000 6.049999 8.000001
v 8.000000 -0.000001 8.000000
v 12.000000 -0.000001 8.000000
v 54.872398 4.956698 12.103401
v 54.872398 -0.000002 9.700180
v 54.872398 -0.000002 12.103400
v 54.872398 4.956698 9.700181
v 54.952400 17.580002 -14.651397
v 70.952400 0.000002 -14.651400
v 54.952400 0.000002 -14.651400
v 70.952400 17.580002 -14.651397
v 70.952400 17.579996 22.952404
v 54.952400 17.579996 22.952404
v 54.952400 -0.000004 22.952400
v 70.952400 -0.000004 22.952400
v 16.000000 6.050004 -23.999998
v 20.000000 0.000004 -24.000000
v 16.000000 0.000004 -24.000000
v 20.000000 6.050004 -23.999998
v 20.000000 6.050002 -7.999999
v 16.000000 6.050002 -7.999999
v 16.000000 0.000001 -8.000000
v 20.000000 0.000001 -8.000000
v 20.000000 6.050002 -7.999999
v 24.000000 0.000001 -8.000000
v 20.000000 0.000001 -8.000000
v 24.000000 6.050002 -7.999999
v 24.000000 6.049999 8.000001
v 20.000000 6.049999 8.000001
v 20.000000 -0.000001 8.000000
v 24.000000 -0.000001 8.000000
v 8.000000 6.050004 -23.999998
v 12.000000 0.000004 -24.000000
v 8.000000 0.000004 -24.000000
v 12.000000 6.050004 -23.999998
v 12.000000 6.050002 -7.999999
v 8.000000 6.050002 -7.999999
v 8.000000 0.000001 -8.000000
v 12.000000 0.000001 -8.000000
v 20.000000 12.100004 -23.999998
v 24.000000 6.050004 -23.999998
v 20.000000 6.050004 -23.999998
v 24.000000 12.100004 -23.999998
v 24.000000 12.100001 -7.999998
v 20.000000 12.100001 -7.999998
v 20.000000 6.050002 -7.999999
v 24.000000 6.050002 -7.999999
v -20.699100 6.050004 -23.999998
v -16.699100 0.000004 -24.000000
v -20.699100 0.000004 -24.000000
v -16.699100 6.050004 -23.999998
v -16.699100 6.050002 -7.999999
v -20.699100 6.050002 -7.999999
v -20.699100 0.000001 -8.000000
v -16.699100 0.000001 -8.000000
v 24.000000 0.000004 -24.000000
v 24.000000 6.050004 -23.999998
v 24.000000 6.050002 -7.999999
v 24.000000 0.000001 -8.000000
v 16.000000 0.000004 -24.000000
v 16.000000 6.050004 -23.999998
v 16.000000 6.050002 -7.999999
v 16.000000 0.000001 -8.000000
v 16.000000 12.100004 -23.999998
v 16.000000 6.050004 -23.999998
v 16.000000 12.100001 -7.999998
v 16.000000 6.050002 -7.999999
v 24.000000 6.050002 -7.999999
v 28.000000 0.000001 -8.000000
v 24.000000 0.000001 -8.000000
v 28.000000 6.050002 -7.999999
v 28.000000 6.049999 8.000001
v 24.000000 6.049999 8.000001
v 24.000000 -0.000001 8.000000
v 28.000000 -0.000001 8.000000
v 12.000000 12.100004 -23.999998
v 16.000000 6.050004 -23.999998
v 12.000000 6.050004 -23.999998
v 16.000000 12.100004 -23.999998
v 16.000000 12.100001 -7.999998
v 12.000000 12.100001 -7.999998
v 12.000000 6.050002 -7.999999
v 16.000000 6.050002 -7.999999
v 4.000000 -0.000004 24.000000
v 0.000000 -0.000003 16.000000
v -4.000000 -0.000004 24.000000
v 4.000000 -0.000003 20.000000
v 44.000000 -0.000004 24.000000
v 44.000000 -0.000003 20.000000
v 52.000000 -0.000004 24.000000
v 48.000000 -0.000003 16.000000
v 52.000000 0.000003 -20.000000
v 72.000000 0.000004 -24.000000
v 36.000000 0.000003 -20.000000
v 36.000000 0.000004 -24.000000
v 28.000000 0.000002 -12.000000
v 28.000000 0.000004 -24.000000
v 4.000000 -0.000002 12.000000
v 4.000000 0.000004 -24.000000
v -4.000000 0.000004 -24.000000
v -7.841660 -0.000004 24.000000
v -24.000000 0.000004 -24.000000
v -24.000000 -0.000004 24.000000
v 44.000000 -0.000002 12.000000
v 44.000000 0.000002 -12.000000
v 72.000000 -0.000004 24.000000
vt -219.000000 4.686730
vt -220.037994 -4.000000
vt -219.000000 -4.000000
vt -220.037994 4.686730
vt -223.005005 4.686730
vt -222.033005 -4.000000
vt -222.033005 4.686730
vt -223.005005 -4.000000
vt -223.972000 4.686730
vt -225.009995 -4.000000
vt -223.972000 -4.000000
vt -225.009995 4.686730
vt -217.972000 4.686730
vt -217.000000 -4.000000
vt -217.000000 4.686730
vt -217.972000 -4.000000
vt -219.000000 4.686730
vt -220.037994 -4.000000
vt -219.000000 -4.000000
vt -220.037994 4.686730
vt -223.005005 4.686730
vt -222.033005 -4.000000
vt -222.033005 4.686730
vt -223.005005 -4.000000
vt -223.972000 4.686730
vt -225.009995 -4.000000
vt -223.972000 -4.000000
vt -225.009995 4.686730
vt -217.972000 4.686730
vt -217.000000 -4.000000
vt -217.000000 4.686730
vt -217.972000 -4.000000
vt -227.130005 7.172950
vt -228.102997 8.686740
vt -228.102997 7.172950
vt -227.130005 8.686740
vt -192.007004 8.686740
vt -192.007004 7.172950
vt -192.007004 6.200520
vt -227.130005 6.200520
vt -227.130005 4.686730
vt -192.007004 4.686730
vt -192.007004 3.714300
vt -227.130005 3.714300
vt 396.175995 4.686730
vt 395.204010 6.200520
vt 395.204010 4.686730
vt 396.175995 6.200520
vt -5.065520 2.041580
vt -4.878350 1.000000
vt -4.878350 2.041580
vt -5.065520 1.000000
vt -16.301901 2.041580
vt -18.973200 1.000000
vt -16.301901 1.000000
vt -18.973200 2.041580
vt 1.529880 2.228740
vt 4.388400 2.041570
vt 4.201230 2.228740
vt 1.529880 2.041570
vt 1.529880 1.000000
vt 4.388400 1.000000
vt 10.462800 0.999999
vt 1.887190 2.041570
vt 1.887190 1.000000
vt 10.462800 2.041570
vt 0.815248 1.000000
vt 1.002420 2.041570
vt 0.815248 2.041570
vt 1.002420 1.000000
vt 2.942120 1.000000
vt 3.129290 2.041570
vt 2.942120 2.041570
vt 11.330500 0.999998
vt 11.330500 2.041570
vt 10.275600 2.228740
vt 2.074360 2.228740
vt 9.390820 2.041570
vt 9.577980 2.041570
vt 9.577980 2.228740
vt -15.156900 2.041580
vt -22.047199 1.000000
vt -15.156900 1.000000
vt -22.047199 2.041580
vt 0.384949 2.228740
vt 7.275210 2.041570
vt 7.275210 2.228740
vt 0.384949 2.041570
vt -5.065520 2.041580
vt -4.878350 1.000000
vt -4.878350 2.041580
vt -5.065520 1.000000
vt 7.275200 1.000000
vt 0.384949 1.000000
vt 13.669500 1.000000
vt 13.482300 2.041570
vt 13.482300 1.000000
vt 13.669500 2.041570
vt -10.772000 2.041580
vt -13.471600 1.000000
vt -10.772000 1.000000
vt -13.471600 2.041580
vt 10.782700 2.228740
vt 13.482300 2.041570
vt 13.482300 2.228740
vt 10.595500 2.041570
vt -2.945070 2.228740
vt -11.333500 2.041580
vt -2.757900 2.041580
vt -11.146300 2.228740
vt -12.201200 2.041580
vt -3.812830 1.000000
vt -4.000000 2.041580
vt -12.201200 1.000000
vt -3.812830 2.041580
vt 17.779200 0.999997
vt 17.966400 2.041570
vt 17.779200 2.041570
vt 17.966400 0.999997
vt 12.024800 1.000000
vt 3.449210 2.041570
vt 3.449210 1.000000
vt 12.024800 2.041570
vt 10.595500 1.000000
vt 13.482300 1.000000
vt 13.669500 1.000000
vt 13.669500 2.041570
vt 26.354799 2.041570
vt 26.542000 2.041570
vt 26.354799 2.228740
vt -1.000000 10.933900
vt -2.000000 12.917400
vt -2.000000 10.933900
vt -0.999999 12.917400
vt -2.000000 3.000000
vt -1.000000 3.000000
vt -0.999998 20.851200
vt -2.000000 20.851200
vt -1.000000 10.933900
vt -2.000000 12.917400
vt -2.000000 10.933900
vt -0.999999 12.917400
vt -2.000000 3.000000
vt -1.000000 3.000000
vt -0.999998 20.851200
vt -2.000000 20.851200
vt -1.000000 10.933900
vt -2.000000 12.917400
vt -2.000000 10.933900
vt -0.999999 12.917400
vt -2.000000 3.000000
vt -1.000000 3.000000
vt -0.999998 20.851200
vt -2.000000 20.851200
vt -1.000000 10.933900
vt -2.000000 12.917400
vt -2.000000 10.933900
vt -0.999999 12.917400
vt -2.000000 3.000000
vt -1.000000 3.000000
vt -0.999998 20.851200
vt -2.000000 20.851200
vt -1.000000 10.933900
vt -2.000000 12.917400
vt -2.000000 10.933900
vt -0.999999 12.917400
vt -2.000000 3.000000
vt -1.000000 3.000000
vt -0.999998 20.851200
vt -2.000000 20.851200
vt -1.000000 10.933900
vt -2.000000 12.917400
vt -2.000000 10.933900
vt -0.999999 12.917400
vt -2.000000 3.000000
vt -1.000000 3.000000
vt -0.999998 20.851200
vt -2.000000 20.851200
vt -1.000000 10.933900
vt -2.000000 12.917400
vt -2.000000 10.933900
vt -0.999999 12.917400
vt -2.000000 3.000000
vt -1.000000 3.000000
vt -0.999998 20.851200
vt -2.000000 20.851200
vt -1.000000 10.933900
vt -2.000000 12.917400
vt -2.000000 10.933900
vt -0.999999 12.917400
vt -2.000000 3.000000
vt -1.000000 3.000000
vt -0.999998 20.851200
vt -2.000000 20.851200
vt -1.000000 10.933900
vt -2.000000 12.917400
vt -2.000000 10.933900
vt -0.999999 12.917400
vt -2.000000 3.000000
vt -1.000000 3.000000
vt -0.999998 20.851200
vt -2.000000 20.851200
vt -1.000000 10.933900
vt -2.000000 12.917400
vt -2.000000 10.933900
vt -0.999999 12.917400
vt -2.000000 3.000000
vt -1.000000 3.000000
vt -0.999998 20.851200
vt -2.000000 20.851200
vt -1.000000 10.933900
vt -2.000000 12.917400
vt -2.000000 10.933900
vt -0.999999 12.917400
vt -2.000000 3.000000
vt -1.000000 3.000000
vt -0.999998 20.851200
vt -2.000000 20.851200
vt -117.000000 143.570999
vt -119.286003 143.000000
vt -117.000000 143.000000
vt -119.286003 143.570999
vt -114.300003 144.000000
vt -119.000000 142.000000
vt -114.300003 142.000000
vt -119.000000 144.000000
vt -117.000000 143.570999
vt -119.286003 143.000000
vt -117.000000 143.000000
vt -119.286003 143.570999
vt -117.000000 143.570999
vt -119.286003 143.000000
vt -117.000000 143.000000
vt -119.286003 143.570999
vt -117.000000 143.570999
vt -119.286003 143.000000
vt -117.000000 143.000000
vt -119.286003 143.570999
vt -117.000000 143.570999
vt -119.286003 143.000000
vt -117.000000 143.000000
vt -119.286003 143.570999
vt -117.000000 143.570999
vt -119.286003 143.000000
vt -117.000000 143.000000
vt -119.286003 143.570999
vt -117.000000 143.570999
vt -119.286003 143.000000
vt -117.000000 143.000000
vt -119.286003 143.570999
vt -117.000000 143.570999
vt -119.286003 143.000000
vt -117.000000 143.000000
vt -119.286003 143.570999
vt -117.000000 143.570999
vt -119.286003 143.000000
vt -117.000000 143.000000
vt -119.286003 143.570999
vt -117.000000 143.570999
vt -119.286003 143.000000
vt -117.000000 143.000000
vt -119.286003 143.570999
vt -117.000000 143.570999
vt -119.286003 143.000000
vt -117.000000 143.000000
vt -119.286003 143.570999
vt 1.000000 2.000000
vt 3.000000 3.000000
vt 1.000000 3.000000
vt 3.000000 2.000000
vt 1.000000 2.000000
vt 3.000000 3.000000
vt 1.000000 3.000000
vt 3.000000 2.000000
vt 1.000000 2.000000
vt 3.000000 3.000000
vt 1.000000 3.000000
vt 3.000000 2.000000
vt 1.000000 2.000000
vt 3.000000 3.000000
vt 1.000000 3.000000
vt 3.000000 2.000000
vt 1.000000 2.000000
vt 3.000000 3.000000
vt 1.000000 3.000000
vt 3.000000 2.000000
vt 1.000000 2.000000
vt 3.000000 3.000000
vt 1.000000 3.000000
vt 3.000000 2.000000
vt 1.000000 2.000000
vt 3.000000 3.000000
vt 1.000000 3.000000
vt 3.000000 2.000000
vt 1.000000 2.000000
vt 3.000000 3.000000
vt 1.000000 3.000000
vt 3.000000 2.000000
vt 1.000000 2.000000
vt 3.000000 3.000000
vt 1.000000 3.000000
vt 3.000000 2.000000
vt 1.000000 2.000000
vt 3.000000 3.000000
vt 1.000000 3.000000
vt 3.000000 2.000000
vt 1.000000 2.000000
vt 3.000000 3.000000
vt 1.000000 3.000000
vt 3.000000 2.000000
vt -30.000000 5.000000
vt -31.000000 4.000000
vt -30.000000 4.000000
vt -31.000000 5.000000
vt -3.488080 4.270050
vt -6.464240 1.000000
vt -3.488080 1.000000
vt -6.464240 4.270060
vt -7.506610 4.270060
vt -0.511922 1.000000
vt -0.511920 4.270050
vt -7.506610 1.000000
vt -12.416600 1.000010
vt -9.440400 4.270060
vt -12.416600 4.270060
vt -9.440400 1.000000
vt -2.445720 0.999999
vt -2.445720 4.270050
vt -15.000000 189.000000
vt -16.000000 191.000000
vt -17.000000 189.000000
vt -15.000000 190.000000
vt -15.000000 189.000000
vt -17.000000 190.000000
vt -17.000000 189.000000
vt -16.000000 191.000000
vt -15.000000 200.000000
vt -17.000000 193.000000
vt -15.000000 196.000000
vt -17.000000 194.000000
vt -15.000000 193.000000
vt -15.000000 201.000000
vt -15.000000 192.000000
vt -17.000000 201.000000
vt -15.000000 188.000000
vt -17.000000 188.000000
vt -16.000000 187.000000
vt -15.000000 198.000000
vt -17.000000 198.000000
vt -16.000000 199.000000
vt -17.000000 192.000000
vt -17.000000 198.000000
vt -17.000000 192.000000
vt -15.000000 194.000000
vt -17.000000 196.000000
vt -15.000000 190.000000
vt -456.000000 677.000000
vt -457.000000 667.000000
vt -456.000000 667.000000
vt -457.000000 677.000000
vt -452.000000 680.000000
vt -457.000000 679.000000
vt -457.000000 668.000000
vt -461.000000 679.000000
vt -461.000000 680.000000
vt -463.000000 680.000000
vt -469.000000 671.000000
vt -463.000000 677.000000
vt -469.000000 680.000000
vt -471.000000 680.000000
vt -471.959991 668.000000
vt -471.000000 668.000000
vt -476.000000 680.000000
vt -476.000000 668.000000
vt -459.000000 671.000000
vt -459.000000 677.000000
vt -452.000000 668.000000
vn 0.0000 0.0000 -1.0000
vn 1.0000 -0.0000 0.0000
vn 0.0000 -0.0000 1.0000
vn -1.0000 0.0000 0.0000
vn 0.0000 1.0000 0.0000
vn 0.0000 -1.0000 0.0000
usemtl _21
s 1
f 1/1/1 2/2/1 3/3/1
f 2/2/1 1/1/1 4/4/1
f 5/5/2 2/6/2 4/7/2
f 2/6/2 5/5/2 6/8/2
f 5/9/3 7/10/3 6/11/3
f 7/10/3 5/9/3 8/12/3
f 1/13/4 7/14/4 8/15/4
f 7/14/4 1/13/4 3/16/4
f 9/17/1 10/18/1 11/19/1
f 10/18/1 9/17/1 12/20/1
f 13/21/2 10/22/2 12/23/2
f 10/22/2 13/21/2 14/24/2
f 13/25/3 15/26/3 14/27/3
f 15/26/3 13/25/3 16/28/3
f 9/29/4 15/30/4 16/31/4
f 15/30/4 9/29/4 11/32/4
f 17/33/4 18/34/4 19/35/4
f 18/34/4 17/33/4 20/36/4
f 17/33/1 21/37/1 20/36/1
f 21/37/1 17/33/1 22/38/1
f 17/33/5 23/39/5 22/38/5
f 23/39/5 17/33/5 19/40/5
f 18/41/3 23/39/3 19/40/3
f 23/39/3 18/41/3 24/42/3
f 18/41/6 21/43/6 24/42/6
f 21/43/6 18/41/6 20/44/6
f 21/45/2 23/46/2 24/47/2
f 23/46/2 21/45/2 22/48/2
usemtl _6
f 25/49/4 26/50/4 27/51/4
f 26/50/4 25/49/4 28/52/4
f 25/53/1 29/54/1 28/55/1
f 29/54/1 25/53/1 30/56/1
f 25/57/5 31/58/5 30/59/5
f 31/58/5 25/57/5 27/60/5
f 26/61/3 31/58/3 27/60/3
f 31/58/3 26/61/3 32/62/3
f 33/63/2 31/64/2 32/65/2
f 31/64/2 33/63/2 34/66/2
f 33/67/1 35/68/1 34/69/1
f 35/68/1 33/67/1 36/70/1
f 36/71/4 37/72/4 35/73/4
f 29/74/4 37/72/4 36/71/4
f 37/72/4 29/74/4 30/75/4
f 31/64/5 37/76/5 30/77/5
f 37/76/5 31/64/5 34/66/5
f 34/78/5 35/79/5 37/80/5
f 38/81/1 39/82/1 40/83/1
f 39/82/1 38/81/1 41/84/1
f 38/85/5 42/86/5 41/87/5
f 42/86/5 38/85/5 43/88/5
f 38/89/4 44/90/4 43/91/4
f 44/90/4 38/89/4 40/92/4
f 45/93/3 43/88/3 44/94/3
f 43/88/3 45/93/3 42/86/3
f 39/95/2 42/96/2 45/97/2
f 42/96/2 39/95/2 41/98/2
f 46/99/1 47/100/1 48/101/1
f 47/100/1 46/99/1 49/102/1
f 46/103/5 50/104/5 49/105/5
f 50/104/5 46/103/5 51/106/5
f 46/107/5 52/108/5 51/109/5
f 52/108/5 46/107/5 53/110/5
f 46/111/2 54/112/2 53/113/2
f 54/112/2 46/111/2 48/114/2
f 53/113/2 54/112/2 55/115/2
f 54/116/1 52/117/1 55/118/1
f 52/117/1 54/116/1 56/119/1
f 57/120/4 52/121/4 56/122/4
f 52/121/4 57/120/4 51/123/4
f 57/124/3 50/104/3 51/106/3
f 50/104/3 57/124/3 58/125/3
f 47/126/2 50/104/2 58/125/2
f 50/104/2 47/126/2 49/127/2
f 55/128/5 52/129/5 53/130/5
usemtl _35
f 59/131/1 60/132/1 61/133/1
f 60/132/1 59/131/1 62/134/1
f 59/131/4 65/135/4 64/136/4
f 65/135/4 59/131/4 61/133/4
f 60/132/2 63/137/2 66/138/2
f 63/137/2 60/132/2 62/134/2
f 79/139/1 80/140/1 81/141/1
f 80/140/1 79/139/1 82/142/1
f 79/139/4 85/143/4 84/144/4
f 85/143/4 79/139/4 81/141/4
f 80/140/2 83/145/2 86/146/2
f 83/145/2 80/140/2 82/142/2
f 87/147/1 88/148/1 89/149/1
f 88/148/1 87/147/1 90/150/1
f 87/147/4 93/151/4 92/152/4
f 93/151/4 87/147/4 89/149/4
f 88/148/2 91/153/2 94/154/2
f 91/153/2 88/148/2 90/150/2
f 95/155/1 96/156/1 97/157/1
f 96/156/1 95/155/1 98/158/1
f 95/155/4 101/159/4 100/160/4
f 101/159/4 95/155/4 97/157/4
f 96/156/2 99/161/2 102/162/2
f 99/161/2 96/156/2 98/158/2
f 103/163/1 104/164/1 105/165/1
f 104/164/1 103/163/1 106/166/1
f 103/163/4 109/167/4 108/168/4
f 109/167/4 103/163/4 105/165/4
f 104/164/2 107/169/2 110/170/2
f 107/169/2 104/164/2 106/166/2
f 111/171/1 112/172/1 113/173/1
f 112/172/1 111/171/1 114/174/1
f 111/171/4 117/175/4 116/176/4
f 117/175/4 111/171/4 113/173/4
f 112/172/2 115/177/2 118/178/2
f 115/177/2 112/172/2 114/174/2
f 82/179/1 119/180/1 80/181/1
f 119/180/1 82/179/1 120/182/1
f 82/179/4 86/183/4 83/184/4
f 86/183/4 82/179/4 80/181/4
f 119/180/2 121/185/2 122/186/2
f 121/185/2 119/180/2 120/182/2
f 98/187/1 123/188/1 96/189/1
f 123/188/1 98/187/1 124/190/1
f 98/187/4 102/191/4 99/192/4
f 102/191/4 98/187/4 96/189/4
f 123/188/2 125/193/2 126/194/2
f 125/193/2 123/188/2 124/190/2
f 127/195/1 105/196/1 128/197/1
f 105/196/1 127/195/1 103/198/1
f 127/195/4 130/199/4 129/200/4
f 130/199/4 127/195/4 128/197/4
f 105/196/2 108/201/2 109/202/2
f 108/201/2 105/196/2 103/198/2
f 131/203/1 132/204/1 133/205/1
f 132/204/1 131/203/1 134/206/1
f 131/203/4 137/207/4 136/208/4
f 137/207/4 131/203/4 133/205/4
f 132/204/2 135/209/2 138/210/2
f 135/209/2 132/204/2 134/206/2
f 139/211/1 140/212/1 141/213/1
f 140/212/1 139/211/1 142/214/1
f 139/211/4 145/215/4 144/216/4
f 145/215/4 139/211/4 141/213/4
f 140/212/2 143/217/2 146/218/2
f 143/217/2 140/212/2 142/214/2
usemtl _5
f 59/219/5 63/220/5 62/221/5
f 63/220/5 59/219/5 64/222/5
f 71/223/5 75/224/5 74/225/5
f 75/224/5 71/223/5 76/226/5
f 79/227/5 83/228/5 82/229/5
f 83/228/5 79/227/5 84/230/5
f 87/231/5 91/232/5 90/233/5
f 91/232/5 87/231/5 92/234/5
f 95/235/5 99/236/5 98/237/5
f 99/236/5 95/235/5 100/238/5
f 103/239/5 107/240/5 106/241/5
f 107/240/5 103/239/5 108/242/5
f 111/243/5 115/244/5 114/245/5
f 115/244/5 111/243/5 116/246/5
f 82/247/5 121/248/5 120/249/5
f 121/248/5 82/247/5 83/250/5
f 98/251/5 125/252/5 124/253/5
f 125/252/5 98/251/5 99/254/5
f 127/255/5 108/256/5 103/257/5
f 108/256/5 127/255/5 129/258/5
f 131/259/5 135/260/5 134/261/5
f 135/260/5 131/259/5 136/262/5
f 139/263/5 143/264/5 142/265/5
f 143/264/5 139/263/5 144/266/5
usemtl _43
f 65/267/3 63/268/3 64/269/3
f 63/268/3 65/267/3 66/270/3
f 85/271/3 83/272/3 84/273/3
f 83/272/3 85/271/3 86/274/3
f 93/275/3 91/276/3 92/277/3
f 91/276/3 93/275/3 94/278/3
f 101/279/3 99/280/3 100/281/3
f 99/280/3 101/279/3 102/282/3
f 109/283/3 107/284/3 108/285/3
f 107/284/3 109/283/3 110/286/3
f 117/287/3 115/288/3 116/289/3
f 115/288/3 117/287/3 118/290/3
f 86/291/3 121/292/3 83/293/3
f 121/292/3 86/291/3 122/294/3
f 102/295/3 125/296/3 99/297/3
f 125/296/3 102/295/3 126/298/3
f 130/299/3 108/300/3 129/301/3
f 108/300/3 130/299/3 109/302/3
f 137/303/3 135/304/3 136/305/3
f 135/304/3 137/303/3 138/306/3
f 145/307/3 143/308/3 144/309/3
f 143/308/3 145/307/3 146/310/3
usemtl _23
f 67/311/4 68/312/4 69/313/4
f 68/312/4 67/311/4 70/314/4
usemtl _19
f 71/315/1 72/316/1 73/317/1
f 72/316/1 71/315/1 74/318/1
f 71/319/4 77/320/4 76/321/4
f 77/320/4 71/319/4 73/322/4
f 77/323/3 75/324/3 76/325/3
f 75/324/3 77/323/3 78/326/3
f 72/327/2 75/324/2 78/326/2
f 75/324/2 72/327/2 74/328/2
usemtl _1
f 147/329/5 148/330/5 149/331/5
f 148/330/5 147/329/5 150/332/5
f 153/333/5 152/334/5 151/335/5
f 152/334/5 153/333/5 154/336/5
f 154/336/5 153/333/5 155/337/5
f 158/338/5 159/339/5 157/340/5
f 159/339/5 158/338/5 160/341/5
f 162/342/5 148/330/5 161/343/5
f 162/342/5 149/331/5 148/330/5
f 149/331/5 162/342/5 163/344/5
f 150/345/5 161/346/5 148/347/5
f 161/346/5 150/345/5 152/348/5
f 161/346/5 152/348/5 167/349/5
f 167/349/5 152/348/5 154/350/5
f 155/337/5 167/351/5 154/336/5
f 167/351/5 155/337/5 168/352/5
f 157/353/5 168/354/5 155/355/5
f 168/354/5 157/353/5 159/356/5
usemtl _2
f 151/357/5 150/358/5 147/359/5
f 150/358/5 151/357/5 152/360/5
f 156/361/5 155/362/5 153/363/5
f 156/361/5 157/364/5 155/362/5
f 157/364/5 156/361/5 158/365/5
f 160/366/5 161/367/5 159/368/5
f 161/367/5 160/366/5 162/369/5
f 163/370/5 164/371/5 149/372/5
f 165/373/5 164/371/5 163/370/5
f 164/371/5 165/373/5 166/374/5
f 159/368/5 167/375/5 168/376/5
f 159/368/5 161/367/5 167/375/5
f 156/361/5 153/363/5 169/377/5
