# Blender v2.90.0 OBJ File: ''
# www.blender.org
mtllib road5.mtl
o road5
v 8.000000 0.000001 -6.000000
v -8.000000 0.000002 -10.000000
v -8.000000 0.000001 -6.000000
v 8.000000 0.000002 -10.000000
v -8.000000 0.000003 -20.000000
v 8.000000 0.000003 -20.000000
v -8.000000 0.000004 -24.000000
v 8.000000 0.000004 -24.000000
v 8.000000 -0.000001 4.000000
v -8.000000 -0.000001 4.000000
v 8.000000 -0.000001 8.000000
v -8.000000 -0.000001 8.000000
vt -10.666700 120.333000
vt -12.000000 115.000000
vt -10.666700 115.000000
vt -12.000000 120.333000
vt -15.000000 197.000000
vt -17.000000 193.800003
vt -15.000000 193.800003
vt -17.000000 197.000000
vt -17.000000 193.800003
vt -15.000000 197.000000
vt -17.000000 197.000000
vt -15.000000 193.800003
vt -459.000000 671.000000
vt -460.000000 667.000000
vt -459.000000 667.000000
vt -460.000000 671.000000
vt -457.000000 668.000000
vt -456.000000 672.000000
vt -457.000000 672.000000
vt -456.000000 668.000000
vn 0.0000 1.0000 0.0000
usemtl _3
s 1
f 1/1/1 2/2/1 3/3/1
f 2/2/1 1/1/1 4/4/1
usemtl _1.004
f 4/5/1 5/6/1 2/7/1
f 5/6/1 4/5/1 6/8/1
f 3/9/1 9/10/1 1/11/1
f 9/10/1 3/9/1 10/12/1
usemtl _2.004
f 6/13/1 7/14/1 5/15/1
f 7/14/1 6/13/1 8/16/1
f 10/17/1 11/18/1 9/19/1
f 11/18/1 10/17/1 12/20/1
