# Blender v2.90.0 OBJ File: ''
# www.blender.org
mtllib road2.mtl
o road2
v -4.000000 0.000001 -4.000000
v -8.000000 0.000001 -8.000000
v -8.000000 0.000001 -4.000000
v -4.000000 0.000001 -8.000000
v 0.000000 0.000000 -0.000000
v 4.000000 0.000001 -8.000000
v 4.000000 0.000001 -4.000000
v 8.000000 -0.000001 4.000000
v -8.000000 -0.000001 4.000000
v 8.000000 -0.000001 8.000000
v -8.000000 -0.000001 8.000000
v 8.000000 0.000001 -4.000000
v 8.000000 0.000001 -8.000000
vt -459.000000 668.000000
vt -460.000000 667.000000
vt -459.000000 667.000000
vt -459.000000 667.000000
vt -459.000000 666.000000
vt -457.000000 668.000000
vt -456.000000 672.000000
vt -457.000000 672.000000
vt -456.000000 668.000000
vt -460.000000 671.000000
vt -459.000000 670.000000
vt -459.000000 671.000000
vt -456.000000 668.000000
vt -457.000000 668.000000
vt -457.000000 667.000000
vt -16.000000 191.000000
vt -17.000000 193.000000
vt -17.000000 192.000000
vt -15.000000 193.000000
vt -15.000000 192.000000
vt -16.000000 195.000000
vt -15.000000 197.000000
vt -17.000000 196.000000
vt -17.000000 193.000000
vt -15.000000 193.000000
vt -17.000000 194.000000
vt -17.000000 197.000000
vn 0.0000 1.0000 0.0000
vn 0.0000 1.0000 0.0001
vn 0.0001 1.0000 0.0000
usemtl _2.001
s 1
f 1/1/1 2/2/1 3/3/2
f 4/4/1 2/2/1 1/5/1
f 9/6/1 10/7/1 8/8/2
f 10/7/1 9/6/1 11/9/1
f 13/10/1 7/11/1 12/12/1
f 13/13/1 6/14/1 7/15/1
usemtl _1.001
f 5/16/3 4/17/1 1/18/1
f 4/17/1 5/16/3 6/19/1
f 6/19/1 5/16/3 7/20/1
f 5/21/3 8/22/2 7/23/1
f 3/24/2 8/22/2 5/21/3
f 8/22/2 3/24/2 9/25/1
f 3/24/2 5/21/3 1/26/1
f 7/23/1 8/22/2 12/27/1
