# Blender v2.90.0 OBJ File: ''
# www.blender.org
mtllib road6.mtl
o road6
v -20.000000 -0.000001 4.000000
v -24.000000 0.000001 -6.000000
v -24.000000 -0.000001 4.000000
v -20.000000 0.000001 -6.000000
v -10.000000 -0.000001 4.000000
v -10.000000 -0.000001 8.000000
v -20.000000 -0.000001 8.000000
v -24.000000 -0.000001 8.000000
v -6.000000 -0.000001 8.000000
v -6.000000 -0.000001 4.000000
v 4.000000 -0.000001 8.000000
v 4.000000 -0.000001 4.000000
v 8.000000 -0.000001 8.000000
v 8.000000 -0.000001 4.000000
v 4.000000 0.000001 -6.000000
v -20.000000 0.000002 -10.000000
v 4.000000 0.000002 -10.000000
v 8.000000 0.000001 -6.000000
v 8.000000 0.000002 -10.000000
v 4.000000 0.000003 -20.000000
v -6.000000 0.000003 -20.000000
v -10.000000 0.000003 -20.000000
v -20.000000 0.000003 -20.000000
v -24.000000 0.000003 -20.000000
v -24.000000 0.000002 -10.000000
v -24.000000 0.000004 -24.000000
v -20.000000 0.000004 -24.000000
v -10.000000 0.000004 -24.000000
v -6.000000 0.000004 -24.000000
v 4.000000 0.000004 -24.000000
v 8.000000 0.000004 -24.000000
v 8.000000 0.000003 -20.000000
vt -15.000000 188.199997
vt -17.000000 187.399994
vt -15.000000 187.399994
vt -17.000000 188.199997
vt -15.000000 190.199997
vt -17.000000 197.800003
vt -15.000000 197.000000
vt -15.000000 197.800003
vt -17.000000 197.000000
vt -15.000000 197.000000
vt -17.000000 197.800003
vt -17.000000 197.000000
vt -15.000000 197.800003
vt -17.000000 193.000000
vt -15.000000 193.000000
vt -15.000000 193.800003
vt -15.000000 191.000000
vt -17.000000 194.501007
vt -18.000401 188.498001
vt -17.000000 188.498001
vt -18.000401 194.501007
vt -17.000000 193.000000
vt -15.000000 193.000000
vt -15.000000 193.800003
vt -17.000000 191.000000
vt -17.000000 190.199997
vt -17.000000 188.199997
vt -15.000000 188.199997
vt -17.000000 187.399994
vt -15.000000 187.399994
vt -15.000000 193.000000
vt -17.000000 193.800003
vt -17.000000 193.000000
vt -15.000000 193.800003
vt -15.000000 193.000000
vt -17.000000 193.800003
vt -17.000000 193.000000
vt -15.000000 193.800003
vt -17.000000 193.800003
vt -17.000000 193.800003
vt -459.000000 672.000000
vt -460.000000 671.000000
vt -459.000000 671.000000
vt -457.000000 673.000000
vt -457.000000 672.000000
vt -456.000000 672.000000
vt -456.000000 676.500000
vt -457.000000 675.500000
vt -456.000000 675.500000
vt -457.000000 676.500000
vt -456.000000 672.000000
vt -457.000000 673.000000
vt -457.000000 672.000000
vt -457.000000 668.000000
vt -457.000000 667.000000
vt -456.000000 668.000000
vt -459.500000 680.000000
vt -460.500000 679.000000
vt -459.500000 679.000000
vt -460.500000 680.000000
vt -460.500000 672.000000
vt -459.500000 673.000000
vt -460.500000 673.000000
vt -459.500000 672.000000
vt -459.000000 672.000000
vt -460.000000 671.000000
vt -459.000000 671.000000
vt -459.000000 667.000000
vt -460.000000 667.000000
vt -459.000000 666.000000
vt -463.000000 676.500000
vt -464.000000 675.500000
vt -463.000000 675.500000
vt -464.000000 676.500000
vt -456.000000 668.000000
vt -457.000000 668.000000
vt -457.000000 667.000000
vt -460.000000 667.000000
vt -459.000000 666.000000
vt -459.000000 667.000000
vn 0.0000 1.0000 0.0000
usemtl _1.005
s 1
f 1/1/1 2/2/1 3/3/1
f 2/2/1 1/1/1 4/4/1
f 4/4/1 1/1/1 5/5/1
f 1/6/1 6/7/1 5/8/1
f 6/7/1 1/6/1 7/9/1
f 11/10/1 10/11/1 9/12/1
f 10/11/1 11/10/1 12/13/1
f 15/14/1 12/15/1 14/16/1
f 15/14/1 10/17/1 12/15/1
f 15/14/1 5/5/1 10/17/1
f 4/4/1 5/5/1 15/14/1
f 15/18/1 16/19/1 4/20/1
f 16/19/1 15/18/1 17/21/1
f 20/22/1 17/23/1 19/24/1
f 21/25/1 17/23/1 20/22/1
f 22/26/1 17/23/1 21/25/1
f 23/27/1 17/23/1 22/26/1
f 23/27/1 16/28/1 17/23/1
f 24/29/1 16/28/1 23/27/1
f 16/28/1 24/29/1 25/30/1
f 22/31/1 27/32/1 23/33/1
f 27/32/1 22/31/1 28/34/1
f 20/35/1 29/36/1 21/37/1
f 29/36/1 20/35/1 30/38/1
f 20/22/1 19/24/1 32/39/1
f 15/14/1 14/16/1 18/40/1
usemtl _2.005
f 1/41/1 8/42/1 7/43/1
f 1/44/1 3/45/1 8/46/1
f 9/47/1 5/48/1 6/49/1
f 5/48/1 9/47/1 10/50/1
f 13/51/1 12/52/1 11/53/1
f 14/54/1 12/55/1 13/56/1
f 18/57/1 17/58/1 15/59/1
f 17/58/1 18/57/1 19/60/1
f 25/61/1 4/62/1 16/63/1
f 4/62/1 25/61/1 2/64/1
f 23/65/1 26/66/1 24/67/1
f 27/68/1 26/69/1 23/70/1
f 21/71/1 28/72/1 22/73/1
f 28/72/1 21/71/1 29/74/1
f 31/75/1 30/76/1 20/77/1
f 31/78/1 20/79/1 32/80/1
