# Blender v2.90.0 OBJ File: ''
# www.blender.org
mtllib road1.mtl
o road1
v 8.000000 0.000001 -4.000000
v -8.000000 0.000001 -8.000000
v -8.000000 0.000001 -4.000000
v 8.000000 0.000001 -8.000000
v 8.000000 -0.000001 4.000000
v -8.000000 -0.000001 4.000000
v 8.000000 -0.000001 8.000000
v -8.000000 -0.000001 8.000000
vt -459.000000 671.000000
vt -460.000000 667.000000
vt -459.000000 667.000000
vt -460.000000 671.000000
vt -457.000000 668.000000
vt -456.000000 672.000000
vt -457.000000 672.000000
vt -456.000000 668.000000
vt -17.000000 193.000000
vt -15.000000 197.000000
vt -17.000000 197.000000
vt -15.000000 193.000000
vn 0.0000 1.0000 0.0000
usemtl _2
s 1
f 1/1/1 2/2/1 3/3/1
f 2/2/1 1/1/1 4/4/1
f 6/5/1 7/6/1 5/7/1
f 7/6/1 6/5/1 8/8/1
usemtl _1
f 3/9/1 5/10/1 1/11/1
f 5/10/1 3/9/1 6/12/1
