# Blender v2.90.0 OBJ File: ''
# www.blender.org
mtllib sandslope1.mtl
o sandslope1
v -0.000000 3.289999 8.000001
v -8.000000 0.000001 -8.000000
v -8.000000 -0.000001 8.000000
v -0.000000 3.290001 -8.000000
v 8.000000 7.999999 8.000001
v 8.000000 8.000001 -7.999999
vt -56.500000 -11.000000
vt -58.000000 -8.000000
vt -58.000000 -11.000000
vt -56.500000 -8.000000
vt -55.000000 -11.000000
vt -55.000000 -8.000000
vn -0.3803 0.9248 0.0000
vn -0.5073 0.8617 0.0000
usemtl _11
s 1
f 1/1/1 2/2/1 3/3/1
f 2/2/1 1/1/1 4/4/1
f 5/5/2 4/4/2 1/1/2
f 4/4/2 5/5/2 6/6/2
