# Blender v2.90.0 OBJ File: ''
# www.blender.org
mtllib sandslope2.mtl
o sandslope2
v 8.000000 -0.000001 8.000000
v -0.000000 3.290001 -8.000000
v -8.000000 0.000001 -8.000000
v 8.000000 3.290000 0.000001
v 8.000000 8.000001 -7.999999
v -8.000000 -0.000001 8.000000
vt -55.000000 -14.000000
vt -56.500000 -11.000000
vt -58.000000 -11.000000
vt -55.000000 -12.500000
vt -55.000000 -11.000000
vt -58.000000 -14.000000
vn -0.3555 0.8644 0.3555
vn -0.4524 0.7685 0.4524
vn 0.0000 1.0000 0.0000
usemtl _11.001
s 1
f 1/1/1 2/2/1 3/3/1
f 2/2/1 1/1/1 4/4/1
f 5/5/2 2/2/2 4/4/2
f 1/1/3 3/3/3 6/6/3
