# Blender v2.90.0 OBJ File: ''
# www.blender.org
mtllib shop1.mtl
o shop1
v -7.740000 4.956699 2.441611
v -7.740000 0.000000 -2.441610
v -7.740000 -0.000000 2.441610
v -7.740000 4.956700 -2.441609
v -7.610000 8.160001 -7.999999
v 8.390000 8.159999 8.000001
v 8.390000 8.160001 -7.999999
v -7.610000 8.159999 8.000001
v -7.610000 -0.000001 8.000000
v -7.610000 0.000001 -8.000000
v 8.390000 0.000001 -8.000000
v 8.390000 -0.000001 8.000000
v -8.000000 5.000700 3.954681
v -8.000000 9.340701 -3.785319
v -8.000000 5.000700 -3.785319
v -8.000000 9.340699 3.954681
vt -28.968100 5.000000
vt -31.000000 4.000000
vt -28.968100 4.000000
vt -31.000000 5.000000
vt -121.570999 147.000000
vt -119.286003 144.714005
vt -119.286003 147.000000
vt -121.570999 144.714005
vt -180.500000 0.816418
vt -177.500000 0.000000
vt -177.500000 0.816418
vt -180.500000 0.000000
vt 126.050003 0.999956
vt 123.050003 0.000000
vt 126.050003 0.000000
vt 123.050003 0.999957
vt 121.088997 0.999937
vt 121.088997 -0.000020
vt -43.000000 0.999999
vt -46.000000 0.000000
vt -43.000000 0.000000
vt -46.000000 1.000000
vt -482.000000 2.000000
vt -483.000000 3.000000
vt -483.000000 2.000000
vt -482.000000 3.000000
vn -1.0000 0.0000 0.0000
vn 0.0000 1.0000 0.0000
vn 0.0000 0.0000 -1.0000
vn 1.0000 -0.0000 0.0000
vn 0.0000 -0.0000 1.0000
usemtl _23.003
s 1
f 1/1/1 2/2/1 3/3/1
f 2/2/1 1/1/1 4/4/1
usemtl _5.003
f 5/5/2 6/6/2 7/7/2
f 6/6/2 5/5/2 8/8/2
usemtl _12
f 5/9/1 9/10/1 8/11/1
f 9/10/1 5/9/1 10/12/1
usemtl _7
f 5/13/3 11/14/3 10/15/3
f 11/14/3 5/13/3 7/16/3
f 6/17/4 11/14/4 7/16/4
f 11/14/4 6/17/4 12/18/4
f 6/19/5 9/20/5 12/21/5
f 9/20/5 6/19/5 8/22/5
usemtl _31
f 13/23/1 14/24/1 15/25/1
f 14/24/1 13/23/1 16/26/1
