# Blender v2.90.0 OBJ File: ''
# www.blender.org
mtllib shop2.mtl
o shop2
v -8.130000 4.956699 2.441611
v -8.130000 0.000000 -2.441610
v -8.130000 -0.000000 2.441610
v -8.130000 4.956700 -2.441609
v -8.130000 4.956699 3.870001
v -8.130000 9.296700 -3.869998
v -8.130000 4.956700 -3.869999
v -8.130000 9.296699 3.870001
v -8.000000 8.160001 -7.999999
v 8.000000 8.159999 8.000001
v 8.000000 8.160001 -7.999999
v -8.000000 8.159999 8.000001
v -8.000000 -0.000001 8.000000
v -8.000000 0.000001 -8.000000
v 8.000000 0.000001 -8.000000
v 8.000000 -0.000001 8.000000
vt -28.968100 5.000000
vt -31.000000 4.000000
vt -28.968100 4.000000
vt -31.000000 5.000000
vt -490.000000 1.000000
vt -491.000000 2.000000
vt -491.000000 1.000000
vt -490.000000 2.000000
vt -121.570999 147.000000
vt -119.286003 144.714005
vt -119.286003 147.000000
vt -121.570999 144.714005
vt -466.500000 2.103930
vt -463.500000 1.000000
vt -463.500000 2.103930
vt -466.500000 1.000000
vt -465.500000 2.102380
vt -468.500000 1.000000
vt -465.500000 1.000000
vt -468.500000 2.102380
vt -206.500000 2.103840
vt -203.500000 1.000000
vt -203.500000 2.103840
vt -206.500000 1.000000
vt -633.500000 2.102420
vt -636.500000 1.000000
vt -633.500000 1.000000
vt -636.500000 2.102420
vn -1.0000 -0.0000 0.0000
vn 0.0000 1.0000 0.0000
vn 0.0000 0.0000 -1.0000
vn 1.0000 -0.0000 0.0000
vn 0.0000 -0.0000 1.0000
usemtl _23.004
s 1
f 1/1/1 2/2/1 3/3/1
f 2/2/1 1/1/1 4/4/1
usemtl _32
f 5/5/1 6/6/1 7/7/1
f 6/6/1 5/5/1 8/8/1
usemtl _5.004
f 9/9/2 10/10/2 11/11/2
f 10/10/2 9/9/2 12/12/2
usemtl _29
f 9/13/1 13/14/1 12/15/1
f 13/14/1 9/13/1 14/16/1
f 9/17/3 15/18/3 14/19/3
f 15/18/3 9/17/3 11/20/3
f 10/21/4 15/22/4 11/23/4
f 15/22/4 10/21/4 16/24/4
f 10/25/5 13/26/5 16/27/5
f 13/26/5 10/25/5 12/28/5
