# Blender v2.90.0 OBJ File: ''
# www.blender.org
mtllib wall1.mtl
o wall1
v -6.952370 6.619998 8.000001
v -8.000000 6.620001 -7.999999
v -8.000000 6.619998 8.000001
v -6.952370 6.620001 -7.999999
v -6.952370 0.000001 -8.000000
v -6.952370 -0.000001 8.000000
v -8.000000 -0.000001 8.000000
v -8.000000 0.000001 -8.000000
v 8.000000 -0.000001 8.000000
v -8.000000 0.000001 -8.000000
v -8.000000 -0.000001 8.000000
v 8.000000 0.000001 -8.000000
vt -8.474960 2.228740
vt -11.333500 2.041580
vt -8.474960 2.041580
vt -11.333500 2.228740
vt -6.671360 2.041580
vt -3.812830 1.000000
vt -3.812830 2.041580
vt -6.671360 1.000000
vt 10.782700 2.041570
vt 10.595500 1.000000
vt 10.782700 1.000000
vt 10.595500 2.041570
vt 3.449210 2.041570
vt 6.307730 1.000000
vt 6.307730 2.041570
vt 3.449210 1.000000
vt 17.966400 2.041570
vt 17.779200 0.999997
vt 17.966400 0.999997
vt 17.779200 2.041570
vt -44.275799 -75.117699
vt -47.580399 -78.422302
vt -44.275799 -78.422302
vt -47.580399 -75.117699
vn 0.0000 1.0000 0.0000
vn 1.0000 0.0000 0.0000
vn 0.0000 -0.0000 1.0000
vn -1.0000 0.0000 0.0000
vn 0.0000 0.0000 -1.0000
usemtl _6.001
s 1
f 1/1/1 2/2/1 3/3/1
f 2/2/1 1/1/1 4/4/1
f 1/5/2 5/6/2 4/7/2
f 5/6/2 1/5/2 6/8/2
f 1/9/3 7/10/3 6/11/3
f 7/10/3 1/9/3 3/12/3
f 2/13/4 7/14/4 3/15/4
f 7/14/4 2/13/4 8/16/4
f 2/17/5 5/18/5 8/19/5
f 5/18/5 2/17/5 4/20/5
usemtl _3
f 9/21/1 10/22/1 11/23/1
f 10/22/1 9/21/1 12/24/1
