# Blender v2.90.0 OBJ File: ''
# www.blender.org
mtllib jukebox.mtl
o jukebox
v -0.159192 0.090123 0.397833
v -0.265219 0.244594 0.397833
v -0.318384 0.228235 0.397833
v -0.127157 0.124813 0.397833
v -0.000000 0.031691 0.397833
v -0.000000 0.078140 0.397833
v 0.159192 0.090123 0.397833
v 0.127157 0.124813 0.397833
v 0.265219 0.244594 0.397833
v 0.318384 0.228235 0.397833
v 0.318384 0.736916 0.397834
v 0.265219 0.736916 0.397834
v 0.318384 0.986215 0.397834
v -0.265219 0.736916 0.397834
v -0.318384 0.986215 0.397834
v -0.318384 0.736916 0.397834
v 0.395849 0.926812 0.387834
v -0.395849 0.020000 0.387834
v 0.395849 0.020000 0.387834
v -0.395849 0.926812 0.387834
v 0.189786 1.152300 0.387834
v -0.189786 1.152300 0.387834
v -0.000000 1.240170 0.387834
v 0.475200 0.020000 -0.377834
v 0.475200 0.957608 0.377833
v 0.475200 0.020000 0.377834
v 0.475200 0.957608 -0.377834
v 0.237600 1.217610 -0.377834
v 0.237600 1.217610 0.377834
v -0.000000 1.327610 0.377834
v -0.000000 1.327610 -0.377834
v -0.237600 1.217610 -0.377834
v -0.237600 1.217610 0.377834
v -0.475200 0.957608 -0.377834
v -0.475200 0.957608 0.377834
v -0.475200 0.020000 -0.377834
v -0.475200 0.020000 0.377834
v -0.395849 0.926812 0.377834
v -0.395849 0.020000 0.377834
v 0.395849 0.926812 0.377834
v 0.395849 0.020000 0.377834
v 0.189786 1.152300 0.377834
v -0.000000 1.240170 0.377834
v -0.189786 1.152300 0.377834
vt 0.832475 0.000000
vt 0.278019 1.000000
vt 0.000000 0.894098
vt 1.000000 0.224576
vt -3.450840 -0.399361
vt -2.000000 -0.000000
vt -1.927300 -0.465777
vt -3.216950 0.053051
vt -1.927300 -0.465777
vt -2.000000 0.000000
vt -1.523300 -0.425883
vt 0.201780 0.000000
vt -1.437670 -0.000000
vt 0.367065 -0.425883
vt 5.298630 -0.453652
vt 0.000000 -0.000000
vt -0.176063 -0.453652
vt 5.298630 -0.000000
vt -0.176063 -0.453652
vt 5.298630 0.000000
vt 5.298630 -0.453652
vt -0.000000 0.000000
vt 5.184290 -0.453652
vt -0.000000 -0.000000
vt -0.176063 -0.453652
vt 5.184290 -0.000000
vt 5.184290 0.000000
vt -0.176063 -0.453652
vt 0.000000 0.000000
vt 5.184290 -0.453652
vt 0.367065 -0.425883
vt -1.437670 -0.000000
vt 0.201780 -0.000000
vt -1.523300 -0.425883
vt -1.927300 -0.465777
vt -3.216950 0.053051
vt -2.000000 -0.000000
vt -3.450840 -0.399361
vt -1.927300 -0.465777
vt -2.000000 0.000000
vt 0.367065 -0.425883
vt -1.437670 -0.000000
vt -1.523300 -0.425883
vt 0.201780 0.000000
vt -0.000000 1.000000
vt -0.083492 0.000000
vt -0.000000 0.000000
vt -0.916508 0.000000
vt -1.000000 1.000000
vt -1.000000 0.000000
vt 0.641945 -2.141310
vt 0.749685 0.749685
vt -0.749685 -0.749685
vt 1.370780 -2.089640
vt 1.862140 -1.862140
vt 2.089640 -1.370780
vt 2.141310 -0.641945
vt 3.154830 -0.425242
vt -0.184300 -8.074530
vt 3.154830 -8.074510
vt -0.184297 -0.425243
vt 2.285720 1.476850
vt 0.684813 1.476850
vt 1.485270 2.218010
vt -0.999999 4.133170
vt 0.000001 2.892400
vt 0.000001 4.133170
vt -0.999999 2.892400
vt -0.999999 2.426300
vt 0.000001 2.426300
vt 0.000001 2.079820
vt -0.999999 2.079820
vt -1.000000 1.733330
vt 0.000000 1.733330
vt -1.000000 1.267240
vt 0.000000 1.267240
vt -1.000000 0.026467
vt 0.000000 0.026467
vt -0.184300 -8.074530
vt 3.154830 -0.425242
vt -0.184297 -0.425243
vt 3.154830 -8.074510
vt 2.285720 1.476850
vt 0.684813 1.476850
vt 1.485270 2.218010
vn -0.0000 -0.0000 1.0000
vn 1.0000 0.0000 0.0000
vn 0.7382 0.6746 0.0000
vn 0.4201 0.9075 0.0000
vn -0.4201 0.9075 0.0000
vn -0.7382 0.6746 0.0000
vn -1.0000 -0.0000 0.0000
usemtl _1.001
s 1
f 1/1/1 2/2/1 3/3/1
f 2/2/1 1/1/1 4/4/1
usemtl _1_1_
f 5/5/1 4/6/1 1/7/1
f 4/6/1 5/5/1 6/8/1
f 7/9/1 6/8/1 5/5/1
f 6/8/1 7/9/1 8/10/1
f 7/11/1 9/12/1 8/13/1
f 9/12/1 7/11/1 10/14/1
f 11/15/1 9/16/1 10/17/1
f 9/16/1 11/15/1 12/18/1
f 3/19/1 14/20/1 16/21/1
f 14/20/1 3/19/1 2/22/1
f 37/23/1 38/24/1 35/25/1
f 38/24/1 37/23/1 39/26/1
f 41/27/1 25/28/1 40/29/1
f 25/28/1 41/27/1 26/30/1
f 25/31/1 42/32/1 40/33/1
f 42/32/1 25/31/1 29/34/1
f 29/35/1 43/36/1 42/37/1
f 43/36/1 29/35/1 30/38/1
f 33/39/1 43/36/1 30/38/1
f 43/36/1 33/39/1 44/40/1
f 35/41/1 44/42/1 33/43/1
f 44/42/1 35/41/1 38/44/1
usemtl _.002
f 13/45/1 12/46/1 11/47/1
f 13/45/1 14/48/1 12/46/1
f 15/49/1 14/48/1 13/45/1
f 14/48/1 15/49/1 16/50/1
usemtl _2
f 2/51/1 12/52/1 14/53/1
f 12/52/1 2/51/1 4/54/1
f 12/52/1 4/54/1 6/55/1
f 12/52/1 6/55/1 8/56/1
f 12/52/1 8/56/1 9/57/1
usemtl _6
f 17/58/1 18/59/1 19/60/1
f 18/59/1 17/58/1 20/61/1
f 20/61/1 17/58/1 21/62/1
f 20/61/1 21/62/1 22/63/1
f 22/63/1 21/62/1 23/64/1
usemtl _8.002
f 24/65/2 25/66/2 26/67/2
f 25/66/2 24/65/2 27/68/2
f 28/69/3 25/66/3 27/68/3
f 25/66/3 28/69/3 29/70/3
f 28/69/4 30/71/4 29/70/4
f 30/71/4 28/69/4 31/72/4
f 32/73/5 30/71/5 31/72/5
f 30/71/5 32/73/5 33/74/5
f 34/75/6 33/74/6 32/73/6
f 33/74/6 34/75/6 35/76/6
f 36/77/7 35/76/7 34/75/7
f 35/76/7 36/77/7 37/78/7
usemtl _3.001
f 39/79/1 40/80/1 38/81/1
f 40/80/1 39/79/1 41/82/1
f 38/81/1 42/83/1 44/84/1
f 38/81/1 40/80/1 42/83/1
f 44/84/1 42/83/1 43/85/1
