# Blender v2.90.0 OBJ File: ''
# www.blender.org
mtllib pilotwingsislandsky.mtl
o pilotwingsislandsky
v 46.576401 49.440002 -33.605892
v -22.423599 0.000012 -72.698303
v 69.146400 0.000012 -72.698303
v 0.146397 49.440002 -33.605892
v 23.361401 82.500000 6.603693
v 69.791397 49.439999 6.603688
v 46.576401 49.439991 46.813210
v 114.931000 -0.000001 6.603680
v 69.146400 -0.000014 85.905602
v 0.146397 49.439991 46.813210
v -22.423599 -0.000014 85.905602
v -68.208603 -0.000001 6.603680
v -23.068600 49.439999 6.603688
vt 2.300800 16.084801
vt 4.255410 12.634800
vt 4.255410 17.213301
vt 2.300800 13.763300
vt 0.290317 14.924100
vt 0.290317 17.245600
vt -1.720160 16.084801
vt 0.290317 19.502600
vt -3.674780 17.213301
vt -1.720160 13.763300
vt -3.674780 12.634800
vt 0.290317 10.345600
vt 0.290317 12.602600
vn 0.0000 -0.6202 0.7844
vn 0.0000 -0.7724 0.6351
vn -0.5500 -0.7724 0.3175
vn -0.5500 -0.7724 -0.3175
vn -0.6793 -0.6202 -0.3922
vn 0.0000 -0.6202 -0.7844
vn 0.6793 -0.6202 -0.3922
vn 0.6793 -0.6202 0.3922
vn 0.5500 -0.7724 0.3175
vn 0.5500 -0.7724 -0.3175
vn 0.0000 -0.7724 -0.6351
vn -0.6793 -0.6202 0.3922
usemtl _14
s 1
f 1/1/1 2/2/1 3/3/1
f 2/2/1 1/1/1 4/4/1
f 1/1/2 5/5/2 4/4/2
f 6/6/3 5/5/3 1/1/3
f 6/6/4 7/7/4 5/5/4
f 8/8/5 7/7/5 6/6/5
f 7/7/5 8/8/5 9/9/5
f 9/9/6 10/10/6 7/7/6
f 10/10/6 9/9/6 11/11/6
f 12/12/7 10/10/7 11/11/7
f 10/10/7 12/12/7 13/13/7
f 12/12/8 4/4/8 13/13/8
f 4/4/8 12/12/8 2/2/8
f 5/5/9 13/13/9 4/4/9
f 5/5/10 10/10/10 13/13/10
f 7/7/11 10/10/11 5/5/11
f 1/1/12 8/8/12 6/6/12
f 8/8/12 1/1/12 3/3/12
