# Blender v2.90.0 OBJ File: ''
# www.blender.org
mtllib plane1.mtl
o plane1
v 0.074795 0.067222 0.000000
v 0.032573 0.005000 -0.555000
v -0.017427 0.045000 -0.555000
v 0.152573 0.005000 0.000000
v 0.032573 0.005000 0.555000
v -0.017427 0.045000 0.555000
v 0.012573 0.005000 0.000000
v -0.057427 0.005000 0.555000
v -0.012427 -0.025000 0.555000
v 0.082573 -0.045000 -0.000000
v -0.012427 -0.025000 -0.555000
v -0.057427 0.005000 -0.555000
v 0.052500 0.150000 0.000000
v 0.310000 0.050000 0.085000
v 0.185000 0.150000 0.000000
v -0.080000 0.050000 0.085000
v -0.370000 0.050000 0.085000
v -0.290000 0.070000 0.000000
v -0.370000 0.050000 -0.085000
v -0.080000 0.050000 -0.085000
v 0.310000 0.050000 -0.085000
v -0.490000 0.255587 0.000000
v -0.490000 0.055000 0.000000
v 0.370000 -0.050000 -0.000000
v -0.370000 -0.040000 0.085000
v -0.370000 -0.050000 -0.000000
v 0.370000 -0.040000 0.085000
v 0.480000 0.005000 0.000000
v 0.370000 0.005000 0.115000
v 0.370000 0.050000 0.085000
v 0.370000 0.070000 0.000000
v 0.370000 0.050000 -0.085000
v 0.370000 0.005000 -0.115000
v -0.370000 0.005000 -0.115000
v 0.370000 -0.040000 -0.085000
v -0.370000 -0.040000 -0.085000
v -0.490000 0.055000 0.000000
v -0.370000 0.005000 0.115000
v -0.370000 0.050000 0.085000
v -0.370000 0.070000 0.000000
v -0.475000 0.242387 -0.185000
v -0.430000 0.225587 -0.185000
v -0.475000 0.187187 -0.185000
v -0.430000 0.225587 0.185000
v -0.475000 0.242387 0.185000
v -0.520000 0.225587 -0.185000
v -0.520000 0.225587 0.185000
v -0.475000 0.187187 0.185000
v 0.239449 -0.044706 -0.045000
v 0.239449 -0.019506 -0.000000
v 0.239449 -0.102306 -0.000000
v 0.239449 -0.044706 0.045000
v -0.195227 -0.102306 -0.000000
v -0.195227 -0.044706 0.045000
v -0.195227 -0.019506 -0.000000
v -0.195227 -0.044706 -0.045000
vt 6.000000 0.880652
vt 5.445540 -4.064890
vt 5.801980 -4.064890
vt 5.445540 0.880652
vt 5.445540 5.826200
vt 5.801980 5.826200
vt 5.445540 0.880652
vt 5.445540 5.826200
vt 5.178220 5.826200
vt 5.000000 0.880652
vt 5.178220 -4.064890
vt 5.445540 -4.064890
vt -5.333330 -1.312500
vt -6.166670 -4.833330
vt -6.166670 -2.416670
vt -6.000000 -4.166670
vt -6.166670 -4.833330
vt -6.166670 -2.416670
vt -4.453440 -5.833330
vt -6.125000 -5.833330
vt -7.000000 1.333330
vt -6.916670 -4.833330
vt -7.000000 -4.833330
vt -6.916670 1.333330
vt -6.541670 2.250000
vt -6.541670 1.333330
vt -6.166670 1.333330
vt -6.000000 1.333330
vt -6.166670 1.333330
vt -6.541670 1.333330
vt -6.541670 -4.833330
vt -6.916670 1.333330
vt -6.916670 -4.833330
vt -6.125000 -5.833330
vt -6.541670 -4.833330
vt -6.166670 -4.833330
vt -6.000000 -4.833330
vt 7.500000 5.217010
vt 7.000000 3.702310
vt 7.500000 4.437600
vt 7.000000 5.996420
vt 8.000000 3.702310
vt 8.000000 5.996420
vt -4.578750 0.669551
vt -4.578750 1.175290
vt -4.578750 0.400435
vt 0.578742 1.175290
vt 0.578742 0.669549
vt -4.578750 0.000000
vt 0.578742 0.000000
vt 0.578742 0.400434
vt 6.000000 -4.336320
vt 6.234540 -4.300220
vt 6.000000 -4.000000
vt 6.234540 -3.699780
vt 6.000000 -3.663680
vt 4.000000 -4.000000
vt 4.000000 -3.663680
vt 3.765460 -3.699780
vt 3.673680 -3.918620
vt 4.000000 -4.336320
vn 0.6191 0.7738 -0.1339
vn 0.6191 0.7738 0.1339
vn -0.7043 0.7043 -0.0888
vn -0.5533 -0.8300 -0.0698
vn -0.5798 -0.8117 -0.0700
vn 0.5504 -0.8256 0.1240
vn 0.5767 -0.8074 0.1247
vn 0.5767 -0.8074 -0.1247
vn 0.5504 -0.8256 -0.1240
vn -0.5798 -0.8117 0.0700
vn -0.5533 -0.8300 0.0698
vn -0.7043 0.7043 0.0888
vn 0.0000 0.0000 -1.0000
vn 0.0000 0.0000 1.0000
vn 0.0000 0.6476 0.7619
vn -0.2274 0.9737 0.0151
vn -0.2274 0.9737 -0.0151
vn 0.0000 0.6476 -0.7619
vn 0.5279 0.5689 -0.6307
vn 0.5279 0.5689 0.6307
vn -0.5780 0.0000 0.8160
vn -0.5780 0.0000 -0.8160
vn 0.0000 -0.9932 0.1168
vn 0.4448 -0.8895 0.1046
vn 0.6563 -0.4185 0.6278
vn 0.6563 0.4185 0.6278
vn 0.4986 0.8438 0.1985
vn 0.4986 0.8438 -0.1985
vn 0.6563 0.4185 -0.6278
vn 0.0000 0.5547 -0.8321
vn 0.0000 -0.5547 -0.8321
vn 0.0000 -0.9932 -0.1168
vn 0.4448 -0.8895 -0.1046
vn 0.6563 -0.4185 -0.6278
vn -0.6559 -0.7496 -0.0882
vn -0.6559 -0.7496 0.0882
vn -0.7170 -0.3867 0.5800
vn 0.0000 -0.5547 0.8321
vn 0.0000 0.5547 0.8321
vn 0.0000 0.9734 0.2290
vn 0.0000 0.9734 -0.2290
vn -0.1208 0.9663 -0.2274
vn -0.4927 0.4827 -0.7240
vn -0.7170 -0.3867 -0.5800
vn -0.1208 0.9663 0.2274
vn -0.4927 0.4827 0.7240
vn 0.6247 0.7809 0.0000
vn 0.3498 0.9368 0.0000
vn -0.3498 0.9368 0.0000
vn -0.6491 -0.7607 -0.0000
vn 0.6491 -0.7607 -0.0000
vn 1.0000 0.0000 0.0000
vn 0.0000 -0.6156 0.7880
vn -1.0000 -0.0000 0.0000
vn 0.0000 -0.6156 -0.7880
usemtl _10
s 1
f 1/1/1 2/2/1 3/3/1
f 2/2/1 1/1/1 4/4/1
f 1/1/2 5/5/2 4/4/2
f 5/5/2 1/1/2 6/6/2
f 7/7/3 6/6/3 1/1/3
f 6/6/3 7/7/3 8/8/3
f 7/7/4 9/9/4 8/8/4
f 10/10/5 9/9/5 7/7/5
f 10/10/6 5/5/6 9/9/6
f 4/4/7 5/5/7 10/10/7
f 4/4/8 10/10/8 2/2/8
f 10/10/9 11/11/9 2/2/9
f 10/10/10 7/7/10 11/11/10
f 7/7/11 12/12/11 11/11/11
f 7/7/12 3/3/12 12/12/12
f 3/3/12 7/7/12 1/1/12
f 2/2/13 12/12/13 3/3/13
f 12/12/13 2/2/13 11/11/13
f 5/5/14 8/8/14 9/9/14
f 8/8/14 5/5/14 6/6/14
f 13/13/15 17/14/15 16/15/15
f 13/13/16 18/16/16 17/14/16
f 13/13/17 19/17/17 18/16/17
f 13/13/18 20/18/18 19/17/18
f 22/19/19 18/16/19 19/17/19
f 22/19/20 17/14/20 18/16/20
f 22/19/21 23/20/21 17/14/21
f 22/19/22 19/17/22 23/20/22
f 24/21/23 25/22/23 26/23/23
f 25/22/23 24/21/23 27/24/23
f 28/25/24 27/24/24 24/21/24
f 28/25/25 29/26/25 27/24/25
f 28/25/26 30/27/26 29/26/26
f 28/25/27 31/28/27 30/27/27
f 28/25/28 32/29/28 31/28/28
f 33/30/29 32/29/29 28/25/29
f 33/30/30 19/17/30 32/29/30
f 19/17/30 33/30/30 34/31/30
f 35/32/31 34/31/31 33/30/31
f 34/31/31 35/32/31 36/33/31
f 35/32/32 26/23/32 36/33/32
f 26/23/32 35/32/32 24/21/32
f 28/25/33 24/21/33 35/32/33
f 33/30/34 28/25/34 35/32/34
f 26/23/35 37/34/35 36/33/35
f 25/22/36 37/34/36 26/23/36
f 37/34/37 25/22/37 38/35/37
f 25/22/38 29/26/38 38/35/38
f 29/26/38 25/22/38 27/24/38
f 30/27/39 38/35/39 29/26/39
f 38/35/39 30/27/39 39/36/39
f 30/27/40 40/37/40 39/36/40
f 40/37/40 30/27/40 31/28/40
f 31/28/41 19/17/41 40/37/41
f 19/17/41 31/28/41 32/29/41
f 19/17/42 37/34/42 40/37/42
f 37/34/43 19/17/43 34/31/43
f 34/31/44 36/33/44 37/34/44
f 40/37/45 37/34/45 39/36/45
f 37/34/46 38/35/46 39/36/46
usemtl _4
f 13/38/15 14/39/15 15/40/15
f 13/38/15 16/41/15 14/39/15
f 13/38/18 21/42/18 20/43/18
f 15/40/18 21/42/18 13/38/18
f 21/42/47 15/40/47 14/39/47
usemtl _1.001
f 41/44/13 42/45/13 43/46/13
f 41/44/48 44/47/48 42/45/48
f 44/47/48 41/44/48 45/48/48
f 46/49/49 45/48/49 41/44/49
f 45/48/49 46/49/49 47/50/49
f 43/46/50 47/50/50 46/49/50
f 47/50/50 43/46/50 48/51/50
f 42/45/51 48/51/51 43/46/51
f 48/51/51 42/45/51 44/47/51
f 45/48/14 48/51/14 44/47/14
f 45/48/14 47/50/14 48/51/14
f 41/44/13 43/46/13 46/49/13
f 49/52/52 50/53/52 51/54/52
f 50/55/52 52/56/52 51/54/52
f 52/56/53 53/57/53 51/54/53
f 53/57/53 52/56/53 54/58/53
f 53/57/54 54/58/54 55/59/54
f 56/60/54 53/57/54 55/59/54
f 56/61/55 51/54/55 53/57/55
f 51/54/55 56/61/55 49/52/55
