# Blender v2.90.0 OBJ File: ''
# www.blender.org
mtllib food1.mtl
o food1
v 2.861870 0.886600 -1.652300
v 0.000000 0.886601 -3.304600
v 0.000000 0.000000 0.000000
v -2.861870 0.886600 -1.652300
v -2.861870 0.886600 1.652300
v 0.000000 0.886599 3.304600
v 2.861870 0.886600 1.652300
v -0.350000 0.623676 1.572320
v -0.763468 0.623676 2.288460
v -0.209421 1.211090 1.964370
v -0.209421 1.211089 2.612150
v -0.000000 0.623676 3.004610
v 0.890404 0.623676 2.288460
v 0.353392 1.211090 1.964370
v 0.476936 0.623676 1.572320
v 1.343100 0.524519 -0.454782
v 0.929635 0.524519 0.261366
v 1.483680 1.111940 -0.062725
v 1.483680 1.111940 0.585052
v 1.693100 0.524519 0.977513
v 2.583510 0.524519 0.261366
v 2.046490 1.111940 -0.062725
v 2.170040 0.524519 -0.454782
v -0.641214 0.386013 -1.946310
v -0.439084 0.449577 -1.355150
v -0.540980 1.035400 -1.941840
v -0.185248 1.149420 -1.733900
v 0.307148 0.691012 -1.792340
v 0.325507 0.699529 -2.800220
v -0.280790 1.120460 -2.433600
v -0.258919 0.510989 -2.668840
v -0.636410 0.111878 -1.483520
v -1.165650 0.111878 -0.887974
v -0.456469 1.286710 -1.157490
v -0.456469 1.286710 -0.618796
v -0.188410 0.111878 -0.292426
v 0.951307 0.111878 -0.887974
v 0.263931 1.286710 -1.157490
v 0.422068 0.111878 -1.483520
v -0.759333 0.360179 -0.341501
v -1.300980 0.360179 0.596653
v -0.575175 1.129690 0.172093
v -0.575175 1.129690 1.020680
v -0.300833 0.360179 1.534810
v 0.865596 0.360179 0.596653
v 0.162110 1.129690 0.172093
v 0.323953 0.360179 -0.341501
v -2.293830 0.417086 0.762621
v -2.091700 0.480649 1.353780
v -2.193600 1.066480 0.767088
v -1.837870 1.180490 0.975029
v -1.345470 0.722085 0.916586
v -1.327110 0.730602 -0.091290
v -1.933410 1.151540 0.275332
v -1.911540 0.542062 0.040088
vt -594.655029 55.645302
vt -594.789978 55.411800
vt -594.520020 55.411800
vt -594.250000 55.411800
vt -594.385010 55.645302
vt -594.655029 55.645302
vt -594.789978 55.411800
vt -594.385010 55.645302
vt -594.250000 55.411800
vt 118.271004 -8.581590
vt 117.871002 -9.275380
vt 118.406998 -8.961410
vt 118.406998 -9.588960
vt 118.610001 -9.969170
vt 119.473000 -9.275380
vt 118.953003 -8.961410
vt 119.071999 -8.581590
vt 118.271004 -8.581590
vt 117.871002 -9.275380
vt 118.406998 -8.961410
vt 118.406998 -9.588960
vt 118.610001 -9.969170
vt 119.473000 -9.275380
vt 118.953003 -8.961410
vt 119.071999 -8.581590
vt 118.271004 -8.581590
vt 117.871002 -9.275380
vt 118.406998 -8.961410
vt 118.406998 -9.588960
vt 118.610001 -9.969170
vt 119.473000 -9.275380
vt 118.953003 -8.961410
vt 119.071999 -8.581590
vt 118.271004 -8.581590
vt 117.871002 -9.275380
vt 118.406998 -8.961410
vt 118.406998 -9.588960
vt 118.610001 -9.969170
vt 119.473000 -9.275380
vt 118.953003 -8.961410
vt 119.071999 -8.581590
vt 118.271004 -8.581590
vt 117.871002 -9.275380
vt 118.406998 -8.961410
vt 118.406998 -9.588960
vt 118.610001 -9.969170
vt 119.473000 -9.275380
vt 118.953003 -8.961410
vt 119.071999 -8.581590
vt 118.271004 -8.581590
vt 117.871002 -9.275380
vt 118.406998 -8.961410
vt 118.406998 -9.588960
vt 118.610001 -9.969170
vt 119.473000 -9.275380
vt 118.953003 -8.961410
vt 119.071999 -8.581590
vn -0.1480 0.9552 0.2563
vn 0.1480 0.9552 0.2563
vn 0.2959 0.9552 0.0000
vn 0.1480 0.9552 -0.2563
vn -0.1480 0.9552 -0.2563
vn -0.2959 0.9552 0.0000
vn -0.7617 0.4758 -0.4398
vn -0.7275 0.6861 0.0000
vn -0.6647 0.2365 0.7087
vn 0.5028 0.5969 0.6252
vn 0.5201 0.7248 0.4519
vn 0.7697 0.4584 -0.4444
vn 0.0000 0.5551 -0.8318
vn 0.0000 1.0000 0.0000
vn 0.7697 0.4585 -0.4444
vn -0.7835 0.2759 0.5568
vn -0.5466 0.5432 0.6373
vn 0.0111 0.2946 0.9556
vn 0.4449 0.8543 -0.2687
vn 0.2832 0.9016 -0.3270
vn -0.0305 0.5034 -0.8635
vn -0.8030 0.4893 -0.3402
vn -0.8030 0.4893 -0.3403
vn -0.3065 0.9519 0.0025
vn -0.6912 0.6746 -0.2593
vn -0.6911 0.6746 -0.2593
vn -0.5615 0.8275 -0.0000
vn -0.7477 0.4156 0.5179
vn 0.4431 0.8219 0.3579
vn 0.4062 0.8845 0.2293
vn 0.7059 0.6570 -0.2648
vn 0.0000 0.8488 -0.5288
vn 0.0110 0.2946 0.9556
vn 0.2833 0.9016 -0.3270
vn -0.0305 0.5033 -0.8635
vn -0.0305 0.5033 -0.8636
usemtl _63
s 1
f 1/1/1 2/2/1 3/3/1
f 2/4/2 4/5/2 3/3/2
f 3/3/3 4/5/3 5/6/3
f 3/3/4 5/6/4 6/7/4
f 7/8/5 3/3/5 6/9/5
f 1/1/6 3/3/6 7/8/6
usemtl _216
f 8/10/7 9/11/7 10/12/7
f 10/12/8 9/11/8 11/13/8
f 11/13/9 9/11/9 12/14/9
f 11/13/10 12/14/10 13/15/10
f 13/15/11 14/16/11 11/13/11
f 15/17/12 14/16/12 13/15/12
f 15/17/13 10/12/13 14/16/13
f 10/12/13 15/17/13 8/10/13
f 14/16/14 10/12/14 11/13/14
f 16/18/7 17/19/7 18/20/7
f 18/20/8 17/19/8 19/21/8
f 19/21/9 17/19/9 20/22/9
f 19/21/10 20/22/10 21/23/10
f 21/23/11 22/24/11 19/21/11
f 23/25/15 22/24/15 21/23/15
f 23/25/13 18/20/13 22/24/13
f 18/20/13 23/25/13 16/18/13
f 22/24/14 18/20/14 19/21/14
f 24/26/16 25/27/16 26/28/16
f 26/28/17 25/27/17 27/29/17
f 27/29/18 25/27/18 28/30/18
f 27/29/19 28/30/19 29/31/19
f 29/31/20 30/32/20 27/29/20
f 31/33/21 30/32/21 29/31/21
f 31/33/22 26/28/22 30/32/23
f 26/28/22 31/33/22 24/26/22
f 30/32/24 26/28/24 27/29/24
f 32/34/25 33/35/25 34/36/26
f 34/36/27 33/35/27 35/37/27
f 35/37/28 33/35/28 36/38/28
f 35/37/29 36/38/29 37/39/29
f 37/39/30 38/40/30 35/37/30
f 39/41/31 38/40/31 37/39/31
f 39/41/32 34/36/32 38/40/32
f 34/36/32 39/41/32 32/34/32
f 38/40/14 34/36/14 35/37/14
f 40/42/7 41/43/7 42/44/7
f 42/44/8 41/43/8 43/45/8
f 43/45/9 41/43/9 44/46/9
f 43/45/10 44/46/10 45/47/10
f 45/47/11 46/48/11 43/45/11
f 47/49/15 46/48/15 45/47/15
f 47/49/13 42/44/13 46/48/13
f 42/44/13 47/49/13 40/42/13
f 46/48/14 42/44/14 43/45/14
f 48/50/16 49/51/16 50/52/16
f 50/52/17 49/51/17 51/53/17
f 51/53/33 49/51/33 52/54/33
f 51/53/19 52/54/19 53/55/19
f 53/55/34 54/56/34 51/53/20
f 55/57/35 54/56/36 53/55/21
f 55/57/22 50/52/22 54/56/23
f 50/52/22 55/57/22 48/50/23
f 54/56/24 50/52/24 51/53/24
