# Blender v2.90.0 OBJ File: ''
# www.blender.org
mtllib foodshop.mtl
o foodshop
v 0.250000 7.270000 2.871251
v 0.250000 -0.000001 4.530000
v 0.250000 7.269999 4.530001
v 0.250000 1.720000 2.871250
v 1.855970 1.720000 2.871250
v 1.855970 7.270000 2.871251
v 1.647120 7.269999 4.530001
v 1.859620 -0.000001 4.530000
v 1.831980 0.000001 -8.032890
v 1.831980 1.720001 -8.032890
v 0.250000 1.720001 -8.000000
v 0.250000 0.000001 -8.000000
v 0.000000 8.159999 8.000001
v 8.180000 -0.000001 8.000000
v 0.000000 -0.000001 8.000000
v 8.180000 8.159999 8.000001
v 0.090000 8.160001 -7.999999
v -7.820000 8.159999 8.000001
v -7.820000 8.160001 -7.999999
v -7.820000 0.000001 -8.000000
v -7.820000 -0.000001 8.000000
v 0.090000 0.000001 -8.000000
v 8.180000 0.000001 -8.000000
v 8.180000 8.160001 -7.999999
v 1.915970 8.159999 8.000001
v 0.000000 8.160001 -7.999999
v 0.000000 8.159999 8.000001
v 1.915970 8.160001 -7.999999
v 1.915970 5.926111 -7.999999
v 1.915970 5.926108 8.000001
v 0.000000 5.926108 8.000001
v 0.000000 5.926111 -7.999999
v 6.261610 3.563001 -8.000000
v 3.922540 3.563001 -6.505400
v 6.261610 3.563001 -6.505400
v 3.922540 3.563001 -8.000000
v 3.922540 1.680001 -8.000000
v 3.922540 1.680001 -6.505400
v 6.261610 1.680001 -6.505400
v 6.261610 1.680001 -8.000000
v 8.180000 3.562999 4.992671
v 6.685400 3.562999 2.653600
v 6.685400 3.562999 4.992671
v 8.180000 3.562999 2.653600
v 8.180000 1.679999 2.653600
v 6.685400 1.679999 2.653600
v 6.685400 1.679999 4.992671
v 8.180000 1.679999 4.992671
v -7.780000 7.137650 -2.718559
v -7.780000 -0.000000 2.701810
v -7.780000 0.000000 -2.718560
v -7.780000 7.137650 2.701811
v 8.180000 0.000000 -1.506890
v 6.310000 4.370000 -1.506889
v 6.310000 0.000000 -1.506890
v 8.180000 4.370000 -1.506889
v 8.180000 4.370000 -3.376889
v 6.310000 4.370000 -3.376889
v 6.310000 0.000001 -3.376890
v 8.180000 0.000001 -3.376890
v 6.310000 2.419440 -1.946920
v 6.040000 1.657970 -1.766920
v 6.310000 2.419440 -1.646920
v 6.590000 -0.000001 5.857110
v 6.590000 1.680000 0.760000
v 6.590000 -0.000000 0.760000
v 6.590000 1.679999 5.857111
v 3.556890 1.679999 5.857111
v 3.556890 -0.000001 5.857110
v 3.556890 -0.000001 8.000000
v 3.556890 1.679999 8.000000
v 4.284670 1.679999 7.624821
v 6.474670 1.679999 7.624821
v 8.180000 1.679999 8.000000
v 8.180000 1.680000 0.760000
v 6.474670 1.679999 6.214820
v 4.284670 1.679999 6.214820
v 4.722890 0.749999 6.496960
v 4.722890 0.749999 7.384840
v 6.101950 0.749999 7.384840
v 6.101950 0.749999 6.496960
v 8.180000 -0.000000 0.760000
v 6.310000 4.370000 0.760001
v 6.310000 -0.000000 0.760000
v 8.180000 4.370000 0.760001
v 8.180000 4.370000 -1.109999
v 6.310000 4.370000 -1.109999
v 6.310000 0.000000 -1.110000
v 8.180000 0.000000 -1.110000
v 6.310000 2.419440 0.319971
v 6.040000 1.657970 0.499971
v 6.310000 2.419440 0.619971
v 6.037110 0.000001 -6.410000
v 0.940000 1.680001 -6.409999
v 0.940000 0.000001 -6.410000
v 6.037110 1.680001 -6.409999
v 6.037110 1.680001 -3.376890
v 6.037110 0.000001 -3.376890
v 8.180000 0.000001 -3.376890
v 8.180000 1.680001 -3.376890
v 7.804820 1.680001 -4.104670
v 7.804820 1.680001 -6.294670
v 8.180000 1.680001 -8.000000
v 0.940000 1.680001 -8.000000
v 6.394820 1.680001 -6.294670
v 6.394820 1.680001 -4.104670
v 6.676960 0.750001 -4.542890
v 7.564840 0.750001 -4.542890
v 7.564840 0.750001 -5.921950
v 6.676960 0.750001 -5.921950
vt 156.207001 9.959960
vt 152.000000 9.000000
vt 156.207001 9.000000
vt 152.994995 9.959960
vt 152.994995 11.053400
vt 156.207001 11.053400
vt 156.235001 7.064330
vt 156.207993 8.034390
vt 153.024002 6.974640
vt 153.947006 7.996760
vt 157.130005 9.055760
vt 152.923004 8.926110
vt 156.207001 8.048770
vt 152.000000 7.904090
vt 177.029999 9.000000
vt 170.720001 9.995400
vt 169.759995 9.000000
vt 177.029999 9.995400
vt 145.914001 9.000000
vt 152.205002 9.995410
vt 145.914001 9.995410
vt 153.164993 9.000000
vt 152.177994 9.000000
vt 149.227997 9.972260
vt 149.227997 9.000000
vt 152.177994 9.972260
vt 153.932999 9.972260
vt 153.932999 9.000000
vt 155.173004 9.000000
vt 155.173004 9.972260
vt 152.177994 9.000000
vt 149.227997 9.972260
vt 149.227997 9.000000
vt 152.177994 9.972260
vt 153.932999 9.972260
vt 153.932999 9.000000
vt 155.173004 9.000000
vt 155.173004 9.972260
vt -0.999994 -3.246170
vt 0.000000 -9.000000
vt -0.014936 -3.228760
vt -1.000000 -9.000000
vt 64.022499 1.020000
vt 63.000000 -0.000000
vt 64.022499 -0.000000
vt 63.000000 1.020000
vt 61.000000 1.020000
vt 61.000000 -0.000000
vt 59.988800 0.000000
vt 59.988800 1.020000
vt 305.701996 -65.397102
vt 305.813995 -65.824699
vt 305.889008 -65.397102
vt 4.000000 -10.000000
vt 3.824920 -9.711320
vt 3.000000 -10.000000
vt 3.824920 -8.842640
vt 4.000000 -8.166210
vt 3.000000 -8.796890
vt 4.000000 -6.275150
vt 3.000000 -9.000000
vt 4.000000 -10.145600
vt 3.000000 -6.275150
vt 3.166930 -8.842640
vt 3.166930 -9.711320
vt 305.701996 -65.397102
vt 305.813995 -65.824699
vt 305.889008 -65.397102
vt 4.000000 -10.000000
vt 3.824920 -9.711320
vt 3.000000 -10.000000
vt 3.824920 -8.842640
vt 4.000000 -8.166210
vt 3.000000 -8.796890
vt 4.000000 -6.275150
vt 3.000000 -9.000000
vt 4.000000 -10.145600
vt 3.000000 -6.275150
vt 3.166930 -8.842640
vt 3.166930 -9.711320
vt -235.007996 -508.144012
vt -231.016006 -508.121002
vt -235.007996 -506.102997
vt -235.007996 -510.095001
vt -231.016006 -510.095001
vt -234.996002 -247.959000
vt -231.003006 -246.007004
vt -234.996002 -246.007004
vt -231.003998 -247.981003
vt -234.996002 -250.000000
vt -231.003998 -250.000000
vt -231.016006 -506.102997
vt -466.500000 2.103930
vt -463.500000 1.000000
vt -463.500000 2.103930
vt -466.500000 1.000000
vt -467.558014 1.000000
vt -467.558014 2.103930
vt -462.429993 2.103930
vt -462.429993 1.000000
vt -540.453979 1.087070
vt -541.567993 1.983740
vt -541.567993 1.087070
vt -540.453979 1.983740
vt -540.453979 1.087070
vt -541.567993 1.983740
vt -541.567993 1.087070
vt -540.453979 1.983740
vt -228.000000 -46.984402
vt -229.000000 -42.808899
vt -229.000000 -46.984402
vt -228.000000 -42.808899
vt -89.000000 3.242820
vt -90.000000 -0.338382
vt -89.000000 -0.338382
vt -90.000000 3.242820
vt -229.949997 -47.458500
vt -231.182999 -42.310501
vt -231.182999 -47.458500
vt -229.949997 -42.310501
vt -487.000000 0.004016
vt -491.000000 1.000000
vt -491.000000 0.004014
vt -487.000000 1.000000
vt 3.000000 1.000000
vt 2.000000 3.101590
vt 2.000000 1.000000
vt 3.000000 3.101590
vt 3.000000 4.793410
vt 2.000000 4.793410
vt 2.000000 -0.691824
vt 3.000000 -0.691824
vt 3.000000 1.000000
vt 2.000000 3.101590
vt 2.000000 1.000000
vt 3.000000 3.101590
vt 3.000000 4.793410
vt 2.000000 4.793410
vt 2.000000 -0.691824
vt 3.000000 -0.691824
vt 2.889730 6.087830
vt 2.177850 6.364420
vt 1.999770 6.087830
vt 2.738260 6.364420
vt 2.738260 7.234860
vt 2.889730 7.470110
vt 2.177850 7.234860
vt 1.999770 7.470110
vt 2.889730 6.087830
vt 2.177850 6.364420
vt 1.999770 6.087830
vt 2.738260 6.364420
vt 2.738260 7.234860
vt 2.889730 7.470110
vt 2.177850 7.234860
vt 1.999770 7.470110
vt -28.968100 5.000000
vt -31.000000 4.000000
vt -28.968100 4.000000
vt -31.000000 5.000000
vt -336.144012 3.000000
vt -337.000000 5.000000
vt -337.000000 3.000000
vt -336.144012 5.000000
vt -338.000000 6.000000
vt -337.000000 6.000000
vt -338.000000 5.000000
vt -338.855988 5.000000
vt -338.000000 3.000000
vt -338.855988 3.000000
vt -336.144012 3.000000
vt -337.000000 5.000000
vt -337.000000 3.000000
vt -336.144012 5.000000
vt -338.000000 6.000000
vt -337.000000 6.000000
vt -338.000000 5.000000
vt -338.855988 5.000000
vt -338.000000 3.000000
vt -338.855988 3.000000
vn -1.0000 0.0000 0.0000
vn 0.0000 0.0000 -1.0000
vn 0.9922 0.0000 0.1249
vn 0.9992 0.0292 0.0281
vn 0.0000 -0.0000 1.0000
vn 1.0000 0.0000 -0.0022
vn 0.0000 1.0000 0.0000
vn -0.9425 0.3342 0.0000
vn 0.0000 -1.0000 -0.0000
vn 1.0000 -0.0000 0.0000
vn 0.9046 0.4263 0.0000
vn 0.0000 0.2499 -0.9683
vn -0.9282 0.3720 0.0000
vn 0.0000 0.2903 0.9569
vn 0.0000 0.4263 -0.9046
vn -0.9683 0.2499 0.0000
vn 0.0000 0.3720 0.9282
vn 0.9569 0.2903 0.0000
usemtl _59
s 1
f 1/1/1 2/2/1 3/3/1
f 2/2/1 1/1/1 4/4/1
f 1/1/2 5/5/2 4/4/2
f 5/5/2 1/1/2 6/6/2
f 6/7/3 7/8/3 5/9/3
f 5/10/4 7/11/4 8/12/4
f 7/13/5 2/2/5 8/14/5
f 2/2/5 7/13/5 3/3/5
f 9/15/6 5/16/6 8/17/6
f 5/16/6 9/15/6 10/18/6
f 12/19/1 4/20/1 11/21/1
f 4/20/1 12/19/1 2/22/1
f 64/23/1 65/24/1 66/25/1
f 65/24/1 64/23/1 67/26/1
f 64/23/2 68/27/2 67/26/2
f 68/27/2 64/23/2 69/28/2
f 70/29/1 68/27/1 69/28/1
f 68/27/1 70/29/1 71/30/1
f 93/31/5 94/32/5 95/33/5
f 94/32/5 93/31/5 96/34/5
f 93/31/1 97/35/1 96/34/1
f 97/35/1 93/31/1 98/36/1
f 99/37/5 97/35/5 98/36/5
f 97/35/5 99/37/5 100/38/5
usemtl _60
f 11/39/7 5/40/7 10/41/7
f 5/40/7 11/39/7 4/42/7
f 13/43/2 14/44/2 15/45/2
f 14/44/2 13/43/2 16/46/2
f 14/44/1 24/47/1 23/48/1
f 24/47/1 14/44/1 16/46/1
f 22/49/5 24/47/5 17/50/5
f 24/47/5 22/49/5 23/48/5
f 61/51/8 62/52/8 63/53/8
f 71/54/7 72/55/7 68/56/7
f 71/54/7 73/57/7 72/55/7
f 74/58/7 73/57/7 71/54/7
f 73/57/7 74/58/7 67/59/7
f 75/60/7 67/61/7 74/62/7
f 67/61/7 75/60/7 65/63/7
f 73/57/7 67/59/7 76/64/7
f 68/56/7 76/64/7 67/59/7
f 76/64/7 68/56/7 77/65/7
f 77/65/7 68/56/7 72/55/7
f 90/66/8 91/67/8 92/68/8
f 100/69/7 101/70/7 97/71/7
f 100/69/7 102/72/7 101/70/7
f 103/73/7 102/72/7 100/69/7
f 102/72/7 103/73/7 96/74/7
f 104/75/7 96/76/7 103/77/7
f 96/76/7 104/75/7 94/78/7
f 102/72/7 96/74/7 105/79/7
f 97/71/7 105/79/7 96/74/7
f 105/79/7 97/71/7 106/80/7
f 106/80/7 97/71/7 101/70/7
usemtl _2
f 13/81/9 17/82/9 16/83/9
f 18/84/9 17/82/9 13/81/9
f 17/82/9 18/84/9 19/85/9
f 15/86/7 20/87/7 21/88/7
f 20/87/7 15/86/7 22/89/7
f 22/89/7 15/86/7 14/90/7
f 22/89/7 14/90/7 23/91/7
f 16/83/9 17/82/9 24/92/9
usemtl _29
f 18/93/10 20/94/10 19/95/10
f 20/94/10 18/93/10 21/96/10
f 18/93/2 15/97/2 21/96/2
f 15/97/2 18/93/2 13/98/2
f 17/99/5 20/94/5 22/100/5
f 20/94/5 17/99/5 19/95/5
f 39/101/5 34/102/5 38/103/5
f 34/102/5 39/101/5 35/104/5
f 47/105/1 42/106/1 46/107/1
f 42/106/1 47/105/1 43/108/1
usemtl _50
f 25/109/7 26/110/7 27/111/7
f 26/110/7 25/109/7 28/112/7
f 25/113/10 29/114/10 28/115/10
f 29/114/10 25/113/10 30/116/10
f 31/117/9 29/118/9 30/119/9
f 29/118/9 31/117/9 32/120/9
usemtl _32
f 31/121/1 26/122/1 32/123/1
f 26/122/1 31/121/1 27/124/1
usemtl _52
f 33/125/7 34/126/7 35/127/7
f 34/126/7 33/125/7 36/128/7
f 37/129/1 34/126/1 36/128/1
f 34/126/1 37/129/1 38/130/1
f 39/131/10 33/125/10 35/127/10
f 33/125/10 39/131/10 40/132/10
f 41/133/7 42/134/7 43/135/7
f 42/134/7 41/133/7 44/136/7
f 45/137/2 42/134/2 44/136/2
f 42/134/2 45/137/2 46/138/2
f 47/139/5 41/133/5 43/135/5
f 41/133/5 47/139/5 48/140/5
f 72/141/11 78/142/11 77/143/11
f 78/142/11 72/141/11 79/144/11
f 72/141/12 80/145/12 79/144/12
f 80/145/12 72/141/12 73/146/12
f 73/146/13 81/147/13 80/145/13
f 81/147/13 73/146/13 76/148/13
f 76/148/14 78/142/14 81/147/14
f 78/142/14 76/148/14 77/143/14
f 78/142/7 80/145/7 81/147/7
f 80/145/7 78/142/7 79/144/7
f 101/149/15 107/150/15 106/151/15
f 107/150/15 101/149/15 108/152/15
f 101/149/16 109/153/16 108/152/16
f 109/153/16 101/149/16 102/154/16
f 102/154/17 110/155/17 109/153/17
f 110/155/17 102/154/17 105/156/17
f 105/156/18 107/150/18 110/155/18
f 107/150/18 105/156/18 106/151/18
f 107/150/7 109/153/7 110/155/7
f 109/153/7 107/150/7 108/152/7
usemtl _23
f 49/157/10 50/158/10 51/159/10
f 50/158/10 49/157/10 52/160/10
usemtl _54
f 53/161/5 54/162/5 55/163/5
f 54/162/5 53/161/5 56/164/5
f 57/165/7 54/162/7 56/166/7
f 54/162/7 57/165/7 58/167/7
f 57/168/2 59/169/2 58/167/2
f 59/169/2 57/168/2 60/170/2
f 59/169/1 54/162/1 58/167/1
f 54/162/1 59/169/1 55/163/1
f 82/171/5 83/172/5 84/173/5
f 83/172/5 82/171/5 85/174/5
f 86/175/7 83/172/7 85/176/7
f 83/172/7 86/175/7 87/177/7
f 86/178/2 88/179/2 87/177/2
f 88/179/2 86/178/2 89/180/2
f 88/179/1 83/172/1 87/177/1
f 83/172/1 88/179/1 84/173/1
