# Blender v2.90.0 OBJ File: ''
# www.blender.org
mtllib foodfps.mtl
o foodfps.001
v 0.250000 7.270000 2.879621
v 0.250000 -0.000001 4.538370
v 0.250000 7.269999 4.538371
v 0.250000 1.720000 2.879620
v 1.855970 1.720000 2.879620
v 1.855970 7.270000 2.879621
v 1.647120 7.269999 4.538371
v 1.859620 -0.000001 4.538370
v 1.831980 0.000001 -8.024520
v 1.831980 1.720001 -8.024520
v 0.250000 1.720001 -7.991630
v 0.250000 0.000001 -7.991630
v 0.000000 8.159999 8.008371
v 8.180000 -0.000001 8.008370
v 0.000000 -0.000001 8.008370
v 8.180000 8.159999 8.008371
v 0.090000 8.160001 -7.991629
v -7.820000 8.159999 8.008371
v -7.820000 8.160001 -7.991629
v -7.820000 0.000001 -7.991630
v -7.820000 -0.000001 8.008370
v 0.090000 0.000001 -7.991630
v 8.180000 0.000001 -7.991630
v 8.180000 8.160001 -7.991629
v 0.000000 8.160001 -7.991629
v 0.000000 5.926108 8.008371
v 0.000000 8.159999 8.008371
v 0.000000 5.926111 -7.991629
v 1.915970 5.926111 -7.991629
v 1.915970 5.926108 8.008371
v 1.915970 8.159999 8.008371
v 1.915970 8.160001 -7.991629
v 6.261610 3.563001 -7.991630
v 3.922540 3.563001 -6.497029
v 6.261610 3.563001 -6.497029
v 3.922540 3.563001 -7.991630
v 3.922540 1.680001 -7.991630
v 3.922540 1.680001 -6.497029
v 6.261610 1.680001 -6.497029
v 6.261610 1.680001 -7.991630
v 8.180000 3.562999 5.001040
v 6.685400 3.562999 2.661970
v 6.685400 3.562999 5.001040
v 8.180000 3.562999 2.661970
v 8.180000 1.679999 2.661970
v 6.685400 1.679999 2.661970
v 6.685400 1.679999 5.001040
v 8.180000 1.679999 5.001040
v -7.780000 7.137650 -2.710189
v -7.780000 -0.000000 2.710190
v -7.780000 0.000000 -2.710190
v -7.780000 7.137650 2.710191
v 6.590000 -0.000001 5.865480
v 6.590000 1.680000 0.768372
v 6.590000 -0.000000 0.768372
v 6.590000 1.679999 5.865480
v 3.556890 1.679999 5.865480
v 3.556890 -0.000001 5.865480
v 3.556890 -0.000001 8.008370
v 3.556890 1.679999 8.008370
v 4.284670 1.679999 7.633191
v 6.474670 1.679999 7.633191
v 8.180000 1.679999 8.008370
v 8.180000 1.680000 0.768372
v 8.180000 -0.000000 0.768372
v 6.474670 1.679999 6.223190
v 4.284670 1.679999 6.223190
v 4.722890 0.749999 6.505330
v 4.722890 0.749999 7.393220
v 6.101950 0.749999 7.393220
v 6.101950 0.749999 6.505330
v 6.037110 0.000001 -6.401630
v 0.940000 1.680001 -6.401629
v 0.940000 0.000001 -6.401630
v 6.037110 1.680001 -6.401629
v 6.037110 1.680001 -3.368520
v 6.037110 0.000001 -3.368520
v 8.180000 0.000001 -3.368520
v 8.180000 1.680001 -3.368520
v 7.804820 1.680001 -4.096300
v 7.804820 1.680001 -6.286300
v 8.180000 1.680001 -7.991630
v 0.940000 1.680001 -7.991630
v 0.940000 0.000001 -7.991630
v 6.394820 1.680001 -6.286300
v 6.394820 1.680001 -4.096300
v 6.676960 0.750001 -4.534520
v 7.564840 0.750001 -4.534520
v 7.564840 0.750001 -5.913580
v 6.676960 0.750001 -5.913580
vt -3.000000 1.672950
vt -2.000000 -0.518463
vt -2.000000 1.672950
vt -3.000000 0.000000
vt -3.968180 0.000000
vt -3.968180 1.672950
vt -4.976080 1.672950
vt -4.966250 -0.519393
vt -1.157720 1.672950
vt -1.029620 -0.518463
vt -5.000000 -5.411710
vt -4.000000 -2.241890
vt -5.000000 -1.759700
vt -4.000000 -5.411710
vt -5.000000 1.744190
vt -4.000000 -1.416060
vt -4.000000 1.744190
vt -5.000000 -1.898260
vt -231.182999 -42.310501
vt -229.949997 -47.458500
vt -229.949997 -42.310501
vt -231.182999 -47.458500
vt -90.000000 -0.338382
vt -89.000000 3.242820
vt -90.000000 3.242820
vt -89.000000 -0.338382
vt -5.000000 163.975006
vt -4.023250 165.457001
vt -5.000000 165.457001
vt -4.023250 163.975006
vt -4.999990 164.856995
vt -4.023250 163.975006
vt -4.023250 164.856995
vt -5.000000 163.975006
vt -5.000000 163.352005
vt -4.023250 163.352005
vt -4.999990 165.919006
vt -4.023250 165.919006
vt -5.000000 163.975006
vt -4.023250 165.457001
vt -5.000000 165.457001
vt -4.023250 163.975006
vt -4.999990 164.856995
vt -4.023250 163.975006
vt -4.023250 164.856995
vt -5.000000 163.975006
vt -5.000000 163.352005
vt -4.023250 163.352005
vt -4.999990 165.919006
vt -4.023250 165.919006
vt -0.999994 -3.246170
vt 0.000000 -9.000000
vt -0.014936 -3.228760
vt -1.000000 -9.000000
vt 64.022499 1.020000
vt 63.000000 -0.000000
vt 64.022499 -0.000000
vt 63.000000 1.020000
vt 61.000000 1.020000
vt 61.000000 -0.000000
vt 59.988800 0.000000
vt 59.988800 1.020000
vt 4.000000 -10.000000
vt 3.824920 -9.711320
vt 3.000000 -10.000000
vt 3.824920 -8.842640
vt 4.000000 -8.166210
vt 3.000000 -8.796890
vt 4.000000 -10.145600
vt 3.000000 -6.275150
vt 3.000000 -9.000000
vt 4.000000 -6.275150
vt 3.166930 -8.842640
vt 3.166930 -9.711320
vt 4.000000 -10.000000
vt 3.824920 -9.711320
vt 3.000000 -10.000000
vt 3.824920 -8.842640
vt 4.000000 -8.166210
vt 3.000000 -8.796890
vt 4.000000 -10.145600
vt 3.000000 -6.275150
vt 3.000000 -9.000000
vt 4.000000 -6.275150
vt 3.166930 -8.842640
vt 3.166930 -9.711320
vt -235.007996 -508.144012
vt -231.016006 -508.121002
vt -235.007996 -506.102997
vt -235.007996 -510.095001
vt -231.016006 -510.095001
vt -234.996002 -247.959000
vt -231.003006 -246.007004
vt -234.996002 -246.007004
vt -231.003998 -247.981003
vt -234.996002 -250.000000
vt -231.003998 -250.000000
vt -231.016006 -506.102997
vt -466.500000 2.103930
vt -463.500000 1.000000
vt -463.500000 2.103930
vt -466.500000 1.000000
vt -467.558014 1.000000
vt -467.558014 2.103930
vt 1.539440 2.098330
vt 0.495379 1.021270
vt 1.539440 1.021270
vt 0.495379 2.098330
vt 0.569542 30.071899
vt -0.555639 30.977699
vt -0.555639 30.071899
vt 0.569542 30.977699
vt 0.569542 30.071899
vt -0.555639 30.977699
vt -0.555639 30.071899
vt 0.569542 30.977699
vt -491.000000 1.000000
vt -487.000000 0.004016
vt -487.000000 1.000000
vt -491.000000 0.004014
vt 3.000000 1.000000
vt 2.000000 3.101590
vt 2.000000 1.000000
vt 3.000000 3.101590
vt 3.000000 4.793410
vt 2.000000 4.793410
vt 2.000000 -0.691824
vt 3.000000 -0.691824
vt 3.000000 1.000000
vt 2.000000 3.101590
vt 2.000000 1.000000
vt 3.000000 3.101590
vt 3.000000 4.793410
vt 2.000000 4.793410
vt 2.000000 -0.691824
vt 3.000000 -0.691824
vt 2.889730 6.087830
vt 2.177850 6.364420
vt 1.999770 6.087830
vt 2.738260 6.364420
vt 2.738260 7.234860
vt 2.889730 7.470110
vt 2.177850 7.234860
vt 1.999770 7.470110
vt 2.889730 6.087830
vt 2.177850 6.364420
vt 1.999770 6.087830
vt 2.738260 6.364420
vt 2.738260 7.234860
vt 2.889730 7.470110
vt 2.177850 7.234860
vt 1.999770 7.470110
vt -28.968100 5.000000
vt -31.000000 4.000000
vt -28.968100 4.000000
vt -31.000000 5.000000
vn -1.0000 0.0000 0.0000
vn 0.0000 0.0000 -1.0000
vn 0.9922 0.0000 0.1249
vn 0.9992 0.0292 0.0281
vn 0.0000 -0.0000 1.0000
vn 1.0000 0.0000 -0.0022
vn 0.0000 -1.0000 -0.0000
vn 1.0000 -0.0000 0.0000
vn 0.0000 1.0000 0.0000
vn 0.9046 0.4263 0.0000
vn 0.0000 0.2498 -0.9683
vn -0.9282 0.3720 0.0000
vn 0.0000 0.2903 0.9569
vn 0.0000 0.4263 -0.9046
vn -0.9683 0.2499 0.0000
vn 0.0000 0.3720 0.9282
vn 0.9569 0.2903 0.0000
usemtl _50.001
s 1
f 1/1/1 2/2/1 3/3/1
f 2/2/1 1/1/1 4/4/1
f 1/1/2 5/5/2 4/4/2
f 5/5/2 1/1/2 6/6/2
f 6/6/3 7/7/3 5/5/3
f 5/5/4 7/7/4 8/8/4
f 7/9/5 2/2/5 8/10/5
f 2/2/5 7/9/5 3/3/5
f 9/11/6 5/12/6 8/13/6
f 5/12/6 9/11/6 10/14/6
f 12/15/1 4/16/1 11/17/1
f 4/16/1 12/15/1 2/18/1
f 29/19/7 26/20/7 28/21/7
f 26/20/7 29/19/7 30/22/7
f 29/23/8 31/24/8 30/25/8
f 31/24/8 29/23/8 32/26/8
f 53/27/1 54/28/1 55/29/1
f 54/28/1 53/27/1 56/30/1
f 53/31/2 57/32/2 56/33/2
f 57/32/2 53/31/2 58/34/2
f 59/35/1 57/32/1 58/34/1
f 57/32/1 59/35/1 60/36/1
f 65/37/2 54/28/2 64/38/2
f 54/28/2 65/37/2 55/29/2
f 72/39/5 73/40/5 74/41/5
f 73/40/5 72/39/5 75/42/5
f 72/43/1 76/44/1 75/45/1
f 76/44/1 72/43/1 77/46/1
f 78/47/5 76/44/5 77/46/5
f 76/44/5 78/47/5 79/48/5
f 84/49/1 73/40/1 83/50/1
f 73/40/1 84/49/1 74/41/1
usemtl _60.001
f 11/51/9 5/52/9 10/53/9
f 5/52/9 11/51/9 4/54/9
f 13/55/2 14/56/2 15/57/2
f 14/56/2 13/55/2 16/58/2
f 14/56/1 24/59/1 23/60/1
f 24/59/1 14/56/1 16/58/1
f 22/61/5 24/59/5 17/62/5
f 24/59/5 22/61/5 23/60/5
f 60/63/9 61/64/9 57/65/9
f 60/63/9 62/66/9 61/64/9
f 63/67/9 62/66/9 60/63/9
f 62/66/9 63/67/9 56/68/9
f 63/69/9 54/70/9 56/71/9
f 54/70/9 63/69/9 64/72/9
f 62/66/9 56/68/9 66/73/9
f 57/65/9 66/73/9 56/68/9
f 66/73/9 57/65/9 67/74/9
f 67/74/9 57/65/9 61/64/9
f 79/75/9 80/76/9 76/77/9
f 79/75/9 81/78/9 80/76/9
f 82/79/9 81/78/9 79/75/9
f 81/78/9 82/79/9 75/80/9
f 82/81/9 73/82/9 75/83/9
f 73/82/9 82/81/9 83/84/9
f 81/78/9 75/80/9 85/85/9
f 76/77/9 85/85/9 75/80/9
f 85/85/9 76/77/9 86/86/9
f 86/86/9 76/77/9 80/76/9
usemtl _2.001
f 13/87/7 17/88/7 16/89/7
f 18/90/7 17/88/7 13/87/7
f 17/88/7 18/90/7 19/91/7
f 15/92/9 20/93/9 21/94/9
f 20/93/9 15/92/9 22/95/9
f 22/95/9 15/92/9 14/96/9
f 22/95/9 14/96/9 23/97/9
f 16/89/7 17/88/7 24/98/7
usemtl _29.001
f 18/99/8 20/100/8 19/101/8
f 20/100/8 18/99/8 21/102/8
f 18/99/2 15/103/2 21/102/2
f 15/103/2 18/99/2 13/104/2
f 17/105/5 20/106/5 22/107/5
f 20/106/5 17/105/5 19/108/5
f 39/109/5 34/110/5 38/111/5
f 34/110/5 39/109/5 35/112/5
f 47/113/1 42/114/1 46/115/1
f 42/114/1 47/113/1 43/116/1
usemtl _32.001
f 25/117/1 26/118/1 27/119/1
f 26/118/1 25/117/1 28/120/1
usemtl _52.001
f 33/121/9 34/122/9 35/123/9
f 34/122/9 33/121/9 36/124/9
f 37/125/1 34/122/1 36/124/1
f 34/122/1 37/125/1 38/126/1
f 39/127/8 33/121/8 35/123/8
f 33/121/8 39/127/8 40/128/8
f 41/129/9 42/130/9 43/131/9
f 42/130/9 41/129/9 44/132/9
f 45/133/2 42/130/2 44/132/2
f 42/130/2 45/133/2 46/134/2
f 47/135/5 41/129/5 43/131/5
f 41/129/5 47/135/5 48/136/5
f 61/137/10 68/138/10 67/139/10
f 68/138/10 61/137/10 69/140/10
f 61/137/11 70/141/11 69/140/11
f 70/141/11 61/137/11 62/142/11
f 62/142/12 71/143/12 70/141/12
f 71/143/12 62/142/12 66/144/12
f 66/144/13 68/138/13 71/143/13
f 68/138/13 66/144/13 67/139/13
f 68/138/9 70/141/9 71/143/9
f 70/141/9 68/138/9 69/140/9
f 80/145/14 87/146/14 86/147/14
f 87/146/14 80/145/14 88/148/14
f 80/145/15 89/149/15 88/148/15
f 89/149/15 80/145/15 81/150/15
f 81/150/16 90/151/16 89/149/16
f 90/151/16 81/150/16 85/152/16
f 85/152/17 87/146/17 90/151/17
f 87/146/17 85/152/17 86/147/17
f 87/146/9 89/149/9 90/151/9
f 89/149/9 87/146/9 88/148/9
usemtl _23.001
f 49/153/8 50/154/8 51/155/8
f 50/154/8 49/153/8 52/156/8
