# Blender v2.90.0 OBJ File: ''
# www.blender.org
mtllib fridge1.mtl
o Mesh4_Group4_Model
v -0.720000 -0.000000 0.935000
v -0.935000 4.370000 0.935001
v -0.935000 -0.000000 0.935000
v -0.720000 4.370000 0.935001
v -0.720000 4.370000 -0.934999
v -0.720000 0.000000 -0.935000
v -0.935000 0.000000 -0.935000
v -0.935000 4.370000 -0.934999
v -0.935000 2.005400 0.823607
v -1.135950 2.321740 0.723607
v -0.935000 2.005400 0.623607
v -0.935000 2.568090 0.623607
v -1.135950 2.251740 0.723607
v -0.935000 2.568090 0.823607
vt 1.114970 -0.000000
vt 1.000000 1.016040
vt 1.000000 0.000000
vt 1.114970 1.016040
vt -336.902008 1.304350
vt -336.045990 2.173910
vt -336.902008 2.173910
vt -336.045990 1.304350
vt 0.000000 -0.000000
vt -0.114973 1.016040
vt -0.114973 0.000000
vt 0.000000 1.016040
vt 1.000000 1.066030
vt 0.000000 1.066030
vt 305.907013 -65.277397
vt 305.843994 -65.079002
vt 305.782013 -65.277397
vt 305.907013 -65.277397
vt 305.843994 -65.079002
vt 305.782013 -65.277397
vn 0.0000 -0.0000 1.0000
vn 1.0000 0.0000 0.0000
vn 0.0000 0.0000 -1.0000
vn -1.0000 0.0000 0.0000
vn 0.0000 1.0000 0.0000
vn -0.8441 -0.5362 0.0000
vn -0.8441 0.5362 0.0000
usemtl _54
s 1
f 1/1/1 2/2/1 3/3/1
f 2/2/1 1/1/1 4/4/1
f 1/5/2 5/6/2 4/7/2
f 5/6/2 1/5/2 6/8/2
f 7/9/3 5/10/3 6/11/3
f 5/10/3 7/9/3 8/12/3
f 7/9/4 2/2/4 8/12/4
f 2/2/4 7/9/4 3/3/4
f 4/13/5 8/12/5 2/2/5
f 8/12/5 4/13/5 5/14/5
usemtl _60.002
f 9/15/6 10/16/6 11/17/6
f 12/18/7 13/19/7 14/20/7
o Mesh5_Group5_Model
v -0.720000 -0.000000 0.935000
v -0.720000 0.148729 0.786271
v -0.720000 0.000000 -0.935000
v -0.720000 4.370000 0.935001
v 0.935000 -0.000000 0.935000
v 0.935000 4.370000 0.935001
v -0.720000 4.370000 -0.934999
v 0.935000 4.370000 -0.934999
v 0.935000 0.000000 -0.935000
v -0.720000 0.148729 -0.786271
v 0.645000 0.148729 -0.786271
v 0.645000 0.148729 0.786271
v 0.645000 4.221270 0.786272
v -0.720000 4.221270 0.786272
v -0.720000 4.221270 -0.786270
v 0.645000 4.221270 -0.786270
v 0.645000 1.108730 0.786271
v -0.720000 1.108730 -0.786271
v -0.720000 1.108730 0.786271
v 0.645000 1.108730 -0.786271
v 0.645000 2.258730 0.786271
v -0.720000 2.258730 -0.786271
v -0.720000 2.258730 0.786271
v 0.645000 2.258730 -0.786271
v 0.645000 3.058730 0.786271
v -0.720000 3.058730 -0.786270
v -0.720000 3.058730 0.786271
v 0.645000 3.058730 -0.786270
vt 1.000000 0.049988
vt 0.920466 0.084568
vt 0.000000 0.049988
vt 1.000000 1.066030
vt -0.000000 -0.000000
vt -0.885027 1.016040
vt -0.885027 -0.000000
vt 0.000000 1.016040
vt 1.000000 1.450830
vt 0.000000 1.066030
vt 0.000000 1.450830
vt -1.000000 1.016040
vt -0.114973 0.000000
vt -0.114973 1.016040
vt -1.000000 0.000000
vt 0.079534 0.084569
vt -337.079987 2.223900
vt -337.920013 2.541270
vt -337.920013 2.223900
vt -337.079987 2.541270
vt -0.114973 0.034580
vt -0.844920 0.981463
vt -0.844920 0.034580
vt -0.114973 0.981463
vt 0.920466 1.031450
vt 0.079535 1.031450
vt -0.155080 0.034580
vt -0.885027 0.981463
vt -0.885027 0.034580
vt -0.155080 0.981463
vt 0.685852 0.981463
vt 0.685851 0.034580
vt -337.079987 2.558710
vt -337.920013 2.241340
vt -337.079987 2.241340
vt -337.920013 2.558710
vt 2.000000 1.604070
vt -1.000000 -1.000000
vt 2.000000 -1.000000
vt -1.000000 1.604070
vt 2.000000 1.604070
vt -1.000000 -1.000000
vt 2.000000 -1.000000
vt -1.000000 1.604070
vt 2.000000 1.604070
vt -1.000000 -1.000000
vt 2.000000 -1.000000
vt -1.000000 1.604070
vn -1.0000 0.0000 0.0000
vn 0.0000 -0.0000 1.0000
vn 0.0000 1.0000 0.0000
vn 0.0000 0.0000 -1.0000
vn 0.0000 -1.0000 0.0000
usemtl _54
s 1
f 15/21/8 16/22/8 17/23/8
f 16/22/8 15/21/8 18/24/8
f 19/25/9 18/26/9 15/27/9
f 18/26/9 19/25/9 20/28/9
f 20/29/10 21/30/10 18/24/10
f 21/30/10 20/29/10 22/31/10
f 22/32/11 17/33/11 21/34/11
f 17/33/11 22/32/11 23/35/11
f 17/23/8 24/36/8 21/30/8
f 24/36/8 17/23/8 16/22/8
f 16/37/10 25/38/10 24/39/10
f 25/38/10 16/37/10 26/40/10
f 16/41/11 27/42/11 26/43/11
f 27/42/11 16/41/11 28/44/11
f 16/22/8 18/24/8 28/45/8
f 28/45/8 18/24/8 29/46/8
f 21/30/8 29/46/8 18/24/8
f 21/30/8 24/36/8 29/46/8
f 25/47/9 29/48/9 24/49/9
f 29/48/9 25/47/9 30/50/9
f 25/47/8 27/51/8 30/50/8
f 27/51/8 25/47/8 26/52/8
f 28/53/12 30/54/12 27/55/12
f 30/54/12 28/53/12 29/56/12
usemtl _
f 31/57/10 32/58/10 33/59/10
f 32/58/10 31/57/10 34/60/10
f 35/61/10 36/62/10 37/63/10
f 36/62/10 35/61/10 38/64/10
f 39/65/10 40/66/10 41/67/10
f 40/66/10 39/65/10 42/68/10
