# Blender v2.90.0 OBJ File: ''
# www.blender.org
mtllib gtacar2int.mtl
o gtacar2int
v 0.413785 0.287550 0.747974
v -0.416215 0.287550 -1.014910
v -0.416215 0.287550 0.747974
v -0.238597 0.287550 -1.434910
v 0.235403 0.287550 -1.434910
v 0.413785 0.287550 -1.014910
v 0.413785 1.002710 -1.014910
v 0.235403 0.506980 -1.434910
v -0.238597 0.506980 -1.434910
v -0.416215 1.002710 -1.014910
v 0.413785 0.645131 1.348680
v -0.339328 0.569574 1.234020
v -0.416215 0.645131 1.348680
v 0.336899 0.569574 1.234020
v 0.336899 0.618270 0.822634
v -0.339328 0.618270 0.822634
v -0.416215 1.002710 0.747974
v 0.413785 1.002710 0.747974
v -0.386215 1.204070 -0.285963
v 0.383785 0.702550 -0.285963
v -0.386215 0.702550 -0.285963
v 0.383785 1.204070 -0.285963
v 0.383785 1.204070 -0.176935
v -0.386215 1.204070 -0.176935
v -0.386215 0.287550 -0.176935
v -0.386215 0.287550 -0.634992
v -0.386215 0.702550 -0.634992
v 0.383785 0.702550 -0.634992
v 0.383785 0.287550 -0.634992
v 0.383785 0.287550 -0.176935
v -0.386215 1.204070 0.638945
v 0.383785 0.702550 0.638945
v -0.386215 0.702550 0.638945
v 0.383785 1.204070 0.638945
v 0.383785 1.204070 0.747974
v -0.386215 1.204070 0.747974
v -0.386215 0.287550 0.747974
v -0.386215 0.287550 0.289917
v -0.386215 0.702550 0.289917
v 0.383785 0.702550 0.289917
v 0.383785 0.287550 0.289917
v 0.383785 0.287550 0.747974
v -0.299826 0.792569 -0.928316
v -0.118037 0.687613 -0.928316
v -0.118037 0.897524 -0.872721
v 0.063751 0.792569 -0.928316
v 0.063751 1.002480 -0.928316
v -0.118037 0.897524 -0.983912
v -0.118037 1.107440 -0.928316
v -0.299826 1.002480 -0.928316
vt 1.660000 0.000000
vt 0.000000 3.525780
vt 0.000000 0.000000
vt 0.355235 4.365780
vt 1.303230 4.365780
vt 1.660000 3.525780
vt 1.660000 1.430330
vt 1.303230 0.000000
vt 1.660000 0.000000
vt 1.303230 0.438861
vt 0.355235 0.438861
vt -0.000000 1.430330
vt 0.355235 0.000000
vt -0.000000 0.000000
vt 2.227400 -1.535700
vt -0.000000 -1.225200
vt -0.227399 -1.535700
vt 2.000000 -1.225200
vt 2.000000 0.000000
vt 0.000000 -0.000000
vt -0.227399 0.352939
vt 2.227400 0.352939
vt 1.072290 -1.208480
vt 2.927710 -0.000000
vt 1.072290 -0.000000
vt 2.927710 -1.208480
vt 2.927710 -1.471200
vt 1.072290 -1.471200
vt 0.737280 -1.471200
vt 1.000000 -3.679680
vt 1.000000 -1.471200
vt 0.737280 -2.679680
vt -0.103752 -3.679680
vt -0.103752 -2.679680
vt 1.072290 0.841033
vt 2.927710 0.841033
vt 3.262720 -2.679680
vt 4.103750 -3.679680
vt 4.103750 -2.679680
vt 3.000000 -3.679680
vt 3.000000 -1.471200
vt 3.262720 -1.471200
vt 1.072290 -3.679680
vt 2.927710 -3.679680
vt 2.927710 1.841030
vt 1.072290 1.841030
vt 1.072290 -1.208480
vt 2.927710 -0.000000
vt 1.072290 -0.000000
vt 2.927710 -1.208480
vt 2.927710 -1.471200
vt 1.072290 -1.471200
vt 0.737280 -1.471200
vt 1.000000 -3.679680
vt 1.000000 -1.471200
vt 0.737280 -2.679680
vt -0.103752 -3.679680
vt -0.103752 -2.679680
vt 1.072290 0.841033
vt 2.927710 0.841033
vt 3.262720 -2.679680
vt 4.103750 -3.679680
vt 4.103750 -2.679680
vt 3.000000 -3.679680
vt 3.000000 -1.471200
vt 3.262720 -1.471200
vt 1.072290 -3.679680
vt 2.927710 -3.679680
vt 2.927710 1.841030
vt 1.072290 1.841030
vt -31.250000 -11.000000
vt -31.000000 -10.500000
vt -31.500000 -10.500000
vt -31.250000 -10.000000
vt -31.750000 -10.000000
vt -31.500000 -10.500000
vt -32.000000 -10.500000
vt -31.750000 -11.000000
vn -0.0000 1.0000 0.0000
vn -0.9204 -0.0000 0.3909
vn 0.0000 -0.6464 0.7630
vn 0.9210 -0.0000 0.3895
vn 0.0000 -0.0000 1.0000
vn 0.0000 0.8350 -0.5502
vn -0.7549 0.6512 0.0771
vn 0.0000 0.9931 0.1175
vn 0.0000 0.9931 0.1176
vn 0.7549 0.6512 0.0771
vn 0.9671 0.2187 0.1302
vn 0.0000 0.1906 0.9817
vn -0.9671 0.2187 0.1302
vn 0.0000 0.0000 -1.0000
vn -1.0000 0.0000 0.0000
vn 1.0000 0.0000 0.0000
vn -0.4225 -0.7319 0.5346
vn -0.4226 -0.7318 0.5346
vn 0.4226 -0.7318 0.5346
vn 0.4225 -0.7319 0.5346
vn 0.8451 -0.0000 0.5346
vn 0.8451 0.0000 -0.5346
vn 0.4225 0.7319 -0.5346
vn 0.4226 0.7318 -0.5346
vn -0.4225 0.7319 -0.5346
vn -0.4226 0.7318 -0.5346
vn -0.8451 -0.0000 -0.5346
vn -0.8451 0.0000 0.5346
vn -0.4225 0.7319 0.5346
vn -0.4226 0.7318 0.5346
vn 0.4225 0.7319 0.5346
vn 0.4226 0.7318 0.5346
usemtl floor
s 1
f 1/1/1 2/2/1 3/3/1
f 2/2/1 1/1/1 4/4/1
f 4/4/1 1/1/1 5/5/1
f 5/5/1 1/1/1 6/6/1
f 7/7/2 5/8/2 6/9/2
f 5/8/2 7/7/2 8/10/2
f 7/7/3 9/11/3 8/10/3
f 9/11/3 7/7/3 10/12/3
f 10/12/4 4/13/4 9/11/4
f 4/13/4 10/12/4 2/14/4
f 4/13/5 8/10/5 9/11/5
f 8/10/5 4/13/5 5/8/5
f 11/15/6 12/16/6 13/17/6
f 11/15/6 14/18/6 12/16/6
f 15/19/7 14/18/7 11/15/7
f 16/20/8 14/18/9 15/19/9
f 14/18/9 16/20/8 12/16/8
f 16/20/10 13/17/10 12/16/10
f 17/21/11 13/17/11 16/20/11
f 17/21/12 16/20/12 18/22/12
f 18/22/12 16/20/12 15/19/12
f 18/22/13 15/19/13 11/15/13
usemtl leather
f 19/23/14 20/24/14 21/25/14
f 20/24/14 19/23/14 22/26/14
f 19/23/1 23/27/1 22/26/1
f 23/27/1 19/23/1 24/28/1
f 19/29/15 25/30/15 24/31/15
f 25/30/15 19/29/15 21/32/15
f 25/30/15 21/32/15 26/33/15
f 26/33/15 21/32/15 27/34/15
f 20/24/1 27/35/1 21/25/1
f 27/35/1 20/24/1 28/36/1
f 20/37/16 29/38/16 28/39/16
f 20/37/16 30/40/16 29/38/16
f 30/40/16 20/37/16 23/41/16
f 22/42/16 23/41/16 20/37/16
f 23/27/5 25/43/5 30/44/5
f 25/43/5 23/27/5 24/28/5
f 29/45/14 27/35/14 28/36/14
f 27/35/14 29/45/14 26/46/14
f 31/47/14 32/48/14 33/49/14
f 32/48/14 31/47/14 34/50/14
f 31/47/1 35/51/1 34/50/1
f 35/51/1 31/47/1 36/52/1
f 31/53/15 37/54/15 36/55/15
f 37/54/15 31/53/15 33/56/15
f 37/54/15 33/56/15 38/57/15
f 38/57/15 33/56/15 39/58/15
f 32/48/1 39/59/1 33/49/1
f 39/59/1 32/48/1 40/60/1
f 32/61/16 41/62/16 40/63/16
f 32/61/16 42/64/16 41/62/16
f 42/64/16 32/61/16 35/65/16
f 34/66/16 35/65/16 32/61/16
f 35/51/5 37/67/5 42/68/5
f 37/67/5 35/51/5 36/52/5
f 41/69/14 39/59/14 40/60/14
f 39/59/14 41/69/14 38/70/14
usemtl wheel
f 43/71/17 44/72/18 45/73/17
f 44/72/19 46/74/20 45/73/20
f 45/73/21 46/74/21 47/75/21
f 46/74/22 48/76/22 47/75/22
f 47/75/23 48/76/23 49/77/24
f 48/76/25 50/78/25 49/77/26
f 48/76/27 43/71/27 50/78/27
f 43/71/28 45/73/28 50/78/28
f 50/78/29 45/73/29 49/77/30
f 45/73/31 47/75/31 49/77/32
