# Blender v2.90.0 OBJ File: ''
# www.blender.org
mtllib gtacar2.mtl
o Mesh1_Group2_Group1_Model.001
v 0.413785 1.002710 -0.130083
v 0.413785 1.645430 0.747974
v 0.413785 1.002710 0.747974
v 0.413785 1.645430 -0.130083
v 0.413785 0.287550 -0.130083
v 0.413785 0.287550 0.747974
vt 0.000000 2.000000
vt 1.000000 3.000000
vt 1.000000 2.000000
vt 0.000000 3.000000
vt -0.213922 0.782811
vt 0.664136 2.213140
vt 0.664136 0.782812
vt -0.213921 2.213140
vn 1.0000 0.0000 0.0000
usemtl glass.001
s 1
f 1/1/1 2/2/1 3/3/1
f 2/2/1 1/1/1 4/4/1
usemtl metal.001
f 3/5/1 5/6/1 1/7/1
f 5/6/1 3/5/1 6/8/1
o Mesh2_Group3_Group1_Model.001
v -0.416215 1.002710 0.747974
v -0.416215 1.002710 1.348680
v -0.416215 1.645430 0.747974
v -0.416215 0.645131 1.348680
v 0.413785 1.002710 1.348680
v 0.413785 0.645131 1.348680
v 0.413785 1.002710 0.747974
v 0.413785 1.645430 0.747974
vt 2.000000 2.000000
vt 3.000000 2.000000
vt 3.000000 3.000000
vt 3.000000 3.000000
vt 3.000000 2.000000
vt 2.000000 2.000000
vt 5.000000 1.059920
vt 4.000000 -0.000000
vt 5.000000 -0.000000
vt 4.000000 1.059920
vt -0.332177 0.446787
vt -1.077330 1.333920
vt -1.077330 0.446787
vt -55.404301 -0.531315
vt -54.998001 -0.181203
vt -55.404301 -0.181202
vt -54.998001 -0.531315
vt -0.332177 0.446787
vt -1.077330 0.446787
vt -1.077330 1.333920
vn -1.0000 -0.0000 0.0000
vn 1.0000 -0.0000 0.0000
vn 0.0000 0.6828 0.7306
vn 0.0000 0.0000 1.0000
usemtl glass.001
s 1
f 7/9/2 8/10/2 9/11/2
f 14/12/3 11/13/3 13/14/3
f 14/15/4 8/16/4 11/17/4
f 8/16/4 14/15/4 9/18/4
usemtl metal.001
f 7/19/2 10/20/2 8/21/2
f 10/22/5 11/23/5 8/24/5
f 11/23/5 10/22/5 12/25/5
f 13/26/3 11/27/3 12/28/3
o Mesh3_Group4_Group1_Model.001
v -0.416215 1.645430 -0.130083
v -0.416215 1.002710 0.747974
v -0.416215 1.645430 0.747974
v -0.416215 1.002710 -0.130083
v -0.416215 0.287550 0.747974
v -0.416215 0.287550 -0.130083
vt -0.000000 3.000000
vt 1.000000 2.000000
vt 1.000000 3.000000
vt -0.000000 2.000000
vt 0.664136 0.782812
vt -0.213921 2.213140
vt -0.213922 0.782811
vt 0.664136 2.213140
vn -1.0000 -0.0000 0.0000
usemtl glass.001
s 1
f 15/29/6 16/30/6 17/31/6
f 16/30/6 15/29/6 18/32/6
usemtl metal.001
f 18/33/6 19/34/6 16/35/6
f 19/34/6 18/33/6 20/36/6
o Mesh8_q1_Group1_Model
v -0.450758 0.143775 0.756060
v -0.450758 -0.000000 1.005090
v -0.569756 0.287550 1.005090
v -0.450758 0.143775 1.254110
v -0.450758 0.431325 1.254110
v -0.331761 0.287550 1.005090
v -0.450758 0.575100 1.005090
v -0.450758 0.431325 0.756060
v -0.416215 1.645430 -0.176935
v -0.416215 0.287550 -0.130083
v -0.416215 1.645430 -0.130083
v -0.416215 0.287550 -0.176935
v 0.413785 0.287550 -0.176935
v 0.413785 1.645430 -0.130083
v 0.413785 0.287550 -0.130083
v 0.413785 1.645430 -0.176935
v -0.416215 0.822713 -1.654910
v 0.413785 0.287550 -1.654910
v -0.416215 0.287550 -1.654910
v 0.413785 0.822713 -1.654910
v 0.413785 1.002710 -1.014910
v -0.416215 1.002710 -1.014910
v -0.416215 0.287550 -1.014910
v -0.416215 1.645430 -0.558470
v 0.413785 1.645430 -0.558470
v 0.413785 1.645430 0.747974
v -0.416215 1.645430 0.747974
v 0.413785 0.287550 -1.014910
v 0.413785 0.287550 1.348680
v 0.413785 1.002710 0.747974
v 0.413785 0.645131 1.348680
v 0.413785 0.287550 0.747974
v -0.416215 0.287550 1.348680
v -0.416215 0.645131 1.348680
v -0.416215 1.002710 0.747974
v -0.416215 0.287550 0.747974
v 0.546707 0.287550 -1.284910
v 0.427710 0.000000 -1.284910
v 0.427710 0.143775 -1.533940
v 0.427710 0.143775 -1.035890
v 0.427710 0.431325 -1.035890
v 0.308712 0.287550 -1.284910
v 0.427710 0.575100 -1.284910
v 0.427710 0.431325 -1.533940
v 0.587945 0.287550 1.005090
v 0.468948 -0.000000 1.005090
v 0.468948 0.143775 0.756060
v 0.468948 0.143775 1.254110
v 0.468948 0.431325 1.254110
v 0.349950 0.287550 1.005090
v 0.468948 0.575100 1.005090
v 0.468948 0.431325 0.756060
v -0.450758 0.143775 -1.533940
v -0.450758 0.000000 -1.284910
v -0.569756 0.287550 -1.284910
v -0.450758 0.143775 -1.035890
v -0.450758 0.431325 -1.035890
v -0.331761 0.287550 -1.284910
v -0.450758 0.575100 -1.284910
v -0.450758 0.431325 -1.533940
vt -31.250000 -11.000000
vt -31.000000 -10.500000
vt -31.500000 -10.500000
vt -31.250000 -10.000000
vt -31.750000 -10.000000
vt -31.500000 -10.500000
vt -32.000000 -10.500000
vt -31.750000 -11.000000
vt -31.500000 -10.500000
vt -31.000000 -10.500000
vt -31.250000 -11.000000
vt -31.250000 -10.000000
vt -31.750000 -10.000000
vt -31.500000 -10.500000
vt -32.000000 -10.500000
vt -31.750000 -11.000000
vt -31.500000 -10.500000
vt -31.000000 -10.500000
vt -31.250000 -11.000000
vt -31.250000 -10.000000
vt -31.750000 -10.000000
vt -31.500000 -10.500000
vt -32.000000 -10.500000
vt -31.750000 -11.000000
vt -31.250000 -11.000000
vt -31.000000 -10.500000
vt -31.500000 -10.500000
vt -31.250000 -10.000000
vt -31.750000 -10.000000
vt -31.500000 -10.500000
vt -32.000000 -10.500000
vt -31.750000 -11.000000
vt -0.978292 2.093660
vt -1.001710 2.772420
vt -1.001710 2.093660
vt -0.978292 2.772420
vt -0.978293 1.000000
vt -1.001710 1.678760
vt -1.001710 1.000000
vt -0.978292 1.678760
vt -3.000000 2.000000
vt -4.000000 1.000000
vt -3.000000 1.000000
vt -4.000000 2.000000
vt -55.404301 -0.420959
vt -54.998001 -0.944944
vt -55.404301 -0.944944
vt -54.998001 -0.420959
vt 1.924960 0.390318
vt 2.360360 -0.281141
vt 2.360360 0.390316
vt 1.924960 -0.281140
vt 1.379510 1.340890
vt 0.922380 2.105390
vt 0.922379 1.083750
vt 1.379510 2.105390
vt 1.924960 -0.760020
vt 2.360360 -2.130680
vt 2.360360 -0.760021
vt 1.924960 -2.130680
vt 0.922379 1.083750
vt 1.379510 2.105390
vt 1.379510 1.340890
vt 0.922380 2.105390
vt -1.077330 2.221050
vt -0.332177 0.446787
vt -1.077330 1.333920
vt -0.332176 2.221050
vt -54.998001 -0.531315
vt -55.404301 -0.881427
vt -54.998001 -0.881427
vt -55.404301 -0.531315
vt -0.332177 0.446787
vt -1.077330 2.221050
vt -1.077330 1.333920
vt -0.332176 2.221050
vn -0.7030 -0.6159 -0.3556
vn -0.7030 -0.6159 0.3556
vn -0.7030 -0.0000 0.7111
vn 0.7030 0.0000 0.7112
vn 0.7030 0.6159 0.3556
vn 0.7030 0.6159 -0.3556
vn 0.7030 0.0000 -0.7112
vn -0.7030 0.0000 -0.7112
vn -0.7030 0.6159 -0.3556
vn -0.7030 0.6159 0.3556
vn 0.7030 -0.6159 -0.3556
vn 0.7030 -0.6159 0.3556
vn -0.7030 -0.0000 0.7112
vn -1.0000 -0.0000 0.0000
vn 1.0000 -0.0000 0.0000
vn 0.0000 0.5790 -0.8153
vn 0.0000 0.0000 -1.0000
vn 0.0000 0.9627 -0.2707
vn 0.0000 1.0000 0.0000
vn 0.0000 -0.0000 1.0000
usemtl wheel.002
s 1
f 21/37/7 22/38/7 23/39/7
f 22/38/8 24/40/8 23/39/8
f 23/39/9 24/40/9 25/41/9
f 24/40/10 26/42/10 25/41/10
f 25/41/11 26/42/11 27/43/11
f 26/42/12 28/44/12 27/43/12
f 26/42/13 21/37/13 28/44/13
f 21/37/14 23/39/14 28/44/14
f 28/44/15 23/39/15 27/43/15
f 23/39/16 25/41/16 27/43/16
f 57/45/17 58/46/17 59/47/17
f 57/45/18 60/48/18 58/46/18
f 61/49/10 60/48/10 57/45/10
f 61/49/9 62/50/9 60/48/9
f 63/51/16 62/50/16 61/49/16
f 63/51/15 64/52/15 62/50/15
f 63/51/12 57/45/12 64/52/12
f 63/51/11 61/49/11 57/45/11
f 64/52/13 57/45/13 59/47/13
f 64/52/14 59/47/14 62/50/14
f 65/53/17 66/54/17 67/55/17
f 65/53/18 68/56/18 66/54/18
f 69/57/10 68/56/10 65/53/10
f 69/57/9 70/58/9 68/56/9
f 71/59/16 70/58/16 69/57/16
f 71/59/15 72/60/15 70/58/15
f 71/59/12 65/53/12 72/60/12
f 71/59/11 69/57/11 65/53/11
f 72/60/13 65/53/13 67/55/13
f 72/60/14 67/55/14 70/58/14
f 73/61/7 74/62/7 75/63/7
f 74/62/8 76/64/8 75/63/8
f 75/63/19 76/64/19 77/65/19
f 76/64/10 78/66/10 77/65/10
f 77/65/11 78/66/11 79/67/11
f 78/66/12 80/68/12 79/67/12
f 78/66/13 73/61/13 80/68/13
f 73/61/14 75/63/14 80/68/14
f 80/68/15 75/63/15 79/67/15
f 75/63/16 77/65/16 79/67/16
usemtl glass.001
f 29/69/20 30/70/20 31/71/20
f 30/70/20 29/69/20 32/72/20
f 33/73/21 34/74/21 35/75/21
f 34/74/21 33/73/21 36/76/21
f 44/77/22 41/78/22 42/79/22
f 41/78/22 44/77/22 45/80/22
usemtl metal.001
f 37/81/23 38/82/23 39/83/23
f 38/82/23 37/81/23 40/84/23
f 37/85/24 41/86/24 40/87/24
f 41/86/24 37/85/24 42/88/24
f 37/89/20 43/90/20 42/91/20
f 43/90/20 37/89/20 39/92/20
f 44/93/25 46/94/25 45/95/25
f 46/94/25 44/93/25 47/96/25
f 41/97/21 38/98/21 40/99/21
f 38/98/21 41/97/21 48/100/21
f 49/101/21 50/102/21 51/103/21
f 50/102/21 49/101/21 52/104/21
f 51/105/26 53/106/26 49/107/26
f 53/106/26 51/105/26 54/108/26
f 55/109/20 53/110/20 54/111/20
f 53/110/20 55/109/20 56/112/20
o Mesh12_Component_2_1_Group1_Model
v -0.416215 1.002710 -1.014910
v -0.416215 0.287550 -0.176935
v -0.416215 1.002710 -0.176935
v -0.416215 0.287550 -1.014910
v -0.416215 1.645430 -0.558470
v -0.416215 1.645430 -0.176935
vt 0.643538 0.742943
vt -0.194442 2.173270
vt -0.194443 0.742943
vt 0.643538 2.173270
vt 0.000000 0.000000
vt 0.455304 1.000000
vt 1.000000 0.000000
vt 0.000000 1.000000
vn -1.0000 -0.0000 0.0000
usemtl metal.001
s 1
f 81/113/27 82/114/27 83/115/27
f 82/114/27 81/113/27 84/116/27
usemtl glass1_.001
f 83/117/27 85/118/27 81/119/27
f 85/118/27 83/117/27 86/120/27
o Mesh13_Component_2_2_Group1_Model
v 0.413785 1.002710 -0.176935
v 0.413785 0.287550 -0.176935
v 0.413785 1.002710 -1.014910
v 0.413785 0.287550 -1.014910
v 0.413785 1.645430 -0.558470
v 0.413785 1.645430 -0.176935
vt -0.194443 0.742943
vt -0.194442 2.173270
vt 0.643538 0.742943
vt 0.643538 2.173270
vt 1.000000 0.000000
vt 0.455304 1.000000
vt 0.000000 0.000000
vt 0.000000 1.000000
vn 1.0000 0.0000 0.0000
usemtl metal.001
s 1
f 87/121/28 88/122/28 89/123/28
f 90/124/28 89/123/28 88/122/28
usemtl glass1_.001
f 89/125/28 91/126/28 87/127/28
f 92/128/28 87/127/28 91/126/28
