# Blender v2.90.0 OBJ File: ''
# www.blender.org
mtllib gunshop.mtl
o gunshop.001
v 1.770000 -0.000001 5.440000
v 1.770000 1.719999 8.000000
v 1.770000 -0.000001 8.000000
v 1.770000 1.719999 5.440001
v -8.000000 1.719999 5.440001
v -8.000000 -0.000001 5.440000
v -8.000000 1.719999 8.000000
v 4.480000 1.719999 3.950000
v 1.920000 -0.000001 3.950000
v 4.480000 -0.000001 3.950000
v 1.920000 1.719999 3.950000
v 1.920000 1.720001 -3.950000
v 4.480000 1.720001 -3.950000
v 4.480000 0.000001 -3.950000
v 1.920000 0.000001 -3.950000
v 1.770000 1.720001 -5.440000
v -8.000000 0.000001 -5.440000
v 1.770000 0.000001 -5.440000
v -8.000000 1.720001 -5.440000
v -8.000000 1.720001 -8.000000
v 1.770000 1.720001 -8.000000
v 1.770000 0.000001 -8.000000
v -8.000000 8.159999 8.000001
v 8.000000 -0.000001 8.000000
v -8.000000 -0.000001 8.000000
v 8.000000 8.159999 8.000001
v 8.000000 8.160001 -7.999999
v -8.000000 8.160001 -7.999999
v -8.000000 0.000001 -8.000000
v 8.000000 0.000001 -8.000000
v 7.650000 7.824950 0.260001
v 7.650000 3.484949 8.000001
v 7.650000 7.824949 8.000001
v 7.650000 3.484950 0.260001
v 7.650000 7.824952 -7.817859
v 7.650000 3.484950 -0.077858
v 7.650000 7.824950 -0.077858
v 7.650000 3.484951 -7.817860
v -7.950000 7.018691 -3.594049
v -7.950000 -0.000001 3.320590
v -7.950000 0.000001 -3.594050
v -7.950000 7.018690 3.320591
vt -135.828003 9.000000
vt -134.347000 9.995460
vt -134.347000 9.000000
vt -135.828003 9.995460
vt -137.356003 9.000000
vt -143.011002 9.995460
vt -137.356003 9.995460
vt -143.011002 9.000000
vt -141.529999 9.995460
vt -143.011002 9.000000
vt -141.529999 9.000000
vt -143.011002 9.995460
vt -138.919006 9.995460
vt -134.347000 9.000000
vt -134.347000 9.995460
vt -138.919006 9.000000
vt -135.828003 9.995460
vt -135.828003 9.000000
vt -140.401001 9.000000
vt -140.401001 9.995460
vt -137.356003 9.995460
vt -143.011002 9.000000
vt -137.356003 9.000000
vt -143.011002 9.995460
vt -135.828003 9.995460
vt -134.347000 9.000000
vt -134.347000 9.995460
vt -135.828003 9.000000
vt -154.000000 -65.000000
vt -155.000000 -61.183601
vt -154.000000 -61.183601
vt -155.000000 -65.000000
vt -155.000000 -65.000000
vt -154.000000 -61.914101
vt -154.000000 -65.000000
vt -155.000000 -61.914101
vt -154.000000 -61.183601
vt -155.000000 -65.000000
vt -154.000000 -65.000000
vt -155.000000 -61.183601
vt -22.000000 1.020000
vt -24.000000 0.000000
vt -22.000000 0.000000
vt -24.000000 1.020000
vt -20.000000 -0.000000
vt -20.000000 1.020000
vt -16.000000 -0.000000
vt -18.000000 1.020000
vt -18.000000 -0.000000
vt -16.000000 1.020000
vt 9.994680 200.108002
vt 7.000040 197.113998
vt 9.994680 197.113007
vt 7.000040 200.108002
vt 9.994640 5.000000
vt 7.000000 2.005360
vt 9.994640 2.005360
vt 7.000000 5.000000
vt -483.000000 3.000000
vt -482.000000 2.000000
vt -482.000000 3.000000
vt -483.000000 2.000000
vt -483.000000 3.000000
vt -482.000000 2.000000
vt -482.000000 3.000000
vt -483.000000 2.000000
vt -28.968100 5.000000
vt -31.000000 4.000000
vt -28.968100 4.000000
vt -31.000000 5.000000
vn 1.0000 0.0000 0.0000
vn 0.0000 0.0000 -1.0000
vn 0.0000 -0.0000 1.0000
vn -1.0000 -0.0000 0.0000
vn 0.0000 1.0000 0.0000
vn 0.0000 -1.0000 -0.0000
usemtl _59.002
s 1
f 1/1/1 2/2/1 3/3/1
f 2/2/1 1/1/1 4/4/1
f 1/5/2 5/6/2 4/7/2
f 5/6/2 1/5/2 6/8/2
f 8/9/3 9/10/3 10/11/3
f 9/10/3 8/9/3 11/12/3
f 8/13/1 14/14/1 13/15/1
f 14/14/1 8/13/1 10/16/1
f 14/14/2 12/17/2 13/15/2
f 12/17/2 14/14/2 15/18/2
f 9/19/4 12/17/4 15/18/4
f 12/17/4 9/19/4 11/20/4
f 16/21/3 17/22/3 18/23/3
f 17/22/3 16/21/3 19/24/3
f 16/25/1 22/26/1 21/27/1
f 22/26/1 16/25/1 18/28/1
usemtl _61.001
f 5/29/5 2/30/5 4/31/5
f 2/30/5 5/29/5 7/32/5
f 8/33/5 12/34/5 11/35/5
f 12/34/5 8/33/5 13/36/5
f 16/37/5 20/38/5 19/39/5
f 20/38/5 16/37/5 21/40/5
usemtl _7.001
f 23/41/2 24/42/2 25/43/2
f 24/42/2 23/41/2 26/44/2
f 23/41/1 29/45/1 28/46/1
f 29/45/1 23/41/1 25/43/1
f 24/47/4 27/48/4 30/49/4
f 27/48/4 24/47/4 26/50/4
f 27/48/3 29/45/3 30/49/3
f 29/45/3 27/48/3 28/46/3
usemtl _26.001
f 23/51/6 27/52/6 26/53/6
f 27/52/6 23/51/6 28/54/6
f 24/55/5 29/56/5 25/57/5
f 29/56/5 24/55/5 30/58/5
usemtl _31.001
f 31/59/4 32/60/4 33/61/4
f 32/60/4 31/59/4 34/62/4
f 35/63/4 36/64/4 37/65/4
f 36/64/4 35/63/4 38/66/4
usemtl _23.002
f 39/67/1 40/68/1 41/69/1
f 40/68/1 39/67/1 42/70/1
