# Blender v2.90.0 OBJ File: ''
# www.blender.org
mtllib plane2.mtl
o plane2
v 0.750000 0.306207 0.130280
v -0.750000 0.066303 0.155280
v 0.750000 0.066303 0.155280
v -0.750000 0.306207 0.130280
v -0.750000 0.356207 0.005280
v 0.750000 0.356207 0.005280
v 1.030000 0.229293 0.033780
v 1.030000 0.229293 0.000780
v 0.750000 0.306207 -0.119720
v 0.750000 0.066303 -0.144720
v 1.040000 0.050714 -0.015720
v 1.040000 0.050714 0.050280
v 1.040000 0.022136 0.033780
v 0.750000 -0.063601 0.080280
v -0.750000 -0.063601 0.080280
v -1.100000 -0.000000 0.035640
v -1.100000 0.061730 0.071280
v -1.100000 0.123461 0.035640
v -1.100000 0.123461 -0.035640
v -0.750000 0.306207 -0.119720
v -1.100000 0.061730 -0.071280
v -0.750000 0.066303 -0.144720
v 0.447801 0.306207 -0.119720
v 0.447801 0.066303 -0.144720
v -0.750000 -0.063601 -0.069720
v 0.750000 -0.063601 -0.069720
v 1.040000 0.022136 0.000780
v -1.100000 0.000000 -0.035640
v -0.465356 0.059755 0.577780
v -0.750000 0.106255 0.107780
v -1.050000 0.059755 0.577780
v -0.115356 0.106255 0.107780
v -0.115356 -0.043745 0.081744
v -0.465356 0.016285 0.577780
v -1.050000 0.016285 0.577780
v -0.750000 -0.043745 0.081744
v -0.265246 0.306207 -0.079720
v -0.615246 0.776207 0.010250
v -0.265246 0.306207 0.070280
v -0.615246 0.776207 -0.033220
v -1.050000 0.776207 -0.033220
v -0.750000 0.306207 -0.079720
v -1.050000 0.776207 0.010250
v -0.750000 0.306207 0.070280
v -0.750000 0.106255 -0.117220
v -0.465356 0.046225 -0.587220
v -1.050000 0.046225 -0.587220
v -0.115356 0.106255 -0.117220
v -0.465356 0.002755 -0.587220
v -0.115356 -0.043745 -0.091184
v -0.750000 -0.043745 -0.091184
v -1.050000 0.002755 -0.587220
vt -23.527399 2.808450
vt -18.472601 2.000000
vt -23.527399 2.000000
vt -18.472601 2.808450
vt -23.527399 2.808450
vt -24.471001 2.549260
vt -23.527399 2.000000
vt -24.504700 1.947470
vt -24.471001 2.549260
vt -24.504700 1.947470
vt -18.472601 1.562240
vt -23.527399 1.562240
vt -22.509001 2.808450
vt -18.472601 2.000000
vt -18.472601 2.808450
vt -22.509001 2.000000
vt -18.472601 1.562240
vt -23.527399 1.562240
vt 11.666700 -0.042479
vt 12.500000 6.197530
vt 11.666700 5.930180
vt 12.500000 0.224869
vt 12.310000 -1.568630
vt 12.530000 -1.568630
vt 13.333300 -0.042479
vt 12.640000 -2.563300
vt 12.200000 -2.563300
vt 11.500000 -1.325230
vt 12.310000 -2.716110
vt 12.000000 -2.019820
vt 11.500000 4.647430
vt 12.297600 5.686530
vt 12.000000 3.952840
vt 12.060000 6.016600
vt 12.297600 6.346670
vt 12.772800 6.346670
vt 13.333300 5.930180
vt 13.010400 6.016600
vt 13.500000 4.647430
vt -2.978010 3.412030
vt -6.000000 1.000000
vt -2.978010 1.000000
vt -6.000000 3.412030
vt 13.333300 1.160810
vt 13.500000 -1.325230
vt 12.530000 -2.716110
vt 13.000000 -2.019820
vt 13.000000 3.952840
vt 12.772800 5.686530
vt 8.616670 3.906780
vt 11.750000 5.288810
vt 8.616670 6.234700
vt 11.750000 2.761800
vt 11.923600 2.556580
vt 11.750000 3.358620
vt 8.616670 4.503610
vt 8.616670 4.271180
vt 8.616670 6.002270
vt 8.616670 3.674350
vt 11.923600 4.486760
vt 11.923600 1.959750
vt 13.000000 4.000000
vt 12.400200 7.906690
vt 12.000000 4.000000
vt 12.690000 7.906690
vt 12.690000 9.637780
vt 13.000000 5.930180
vt 12.400200 9.637780
vt 12.000000 5.930180
vt 13.250000 5.288810
vt 16.383301 3.834440
vt 16.383301 6.162360
vt 13.250000 2.761800
vt 16.383301 4.431270
vt 13.250000 3.358620
vt 16.383301 4.198830
vt 13.076400 2.556580
vt 13.076400 4.486760
vt 16.383301 3.602010
vt 13.076400 1.959750
vt 16.383301 5.929930
vn 0.0000 0.1036 0.9946
vn 0.4153 0.0943 -0.9048
vn 0.4147 0.0954 -0.9049
vn 0.4098 0.1049 -0.9061
vn 0.4089 0.1066 -0.9063
vn 0.3476 0.0979 0.9325
vn 0.3442 0.1043 0.9331
vn 0.3435 0.1055 0.9332
vn 0.3480 0.0972 0.9324
vn 0.0000 -0.5000 0.8660
vn 0.0000 0.1036 -0.9946
vn 0.0000 -0.5000 -0.8660
vn 0.0000 0.9285 0.3714
vn 0.3577 0.8670 0.3468
vn 0.4128 0.9108 0.0000
vn 0.3832 0.8576 -0.3430
vn 0.9984 0.0559 0.0000
vn 0.2756 -0.4806 0.8325
vn -0.1974 -0.4902 0.8490
vn -0.2334 0.1008 0.9671
vn -0.4438 0.4481 0.7761
vn -0.4628 0.8864 0.0000
vn -0.4247 0.4527 -0.7840
vn -0.2056 0.1014 -0.9734
vn 0.0000 0.9285 -0.3714
vn 0.3373 -0.4707 -0.8153
vn 1.0000 -0.0000 0.0000
vn 0.2835 -0.9590 -0.0000
vn 0.0000 -1.0000 -0.0000
vn -0.1788 -0.9839 -0.0000
vn -1.0000 -0.0000 0.0000
vn -0.1726 -0.4925 -0.8530
vn 0.0000 0.9951 0.0985
vn 0.8027 -0.1020 0.5876
vn 0.8171 0.0000 0.5765
vn 0.0000 0.0000 1.0000
vn -0.8429 0.0000 -0.5380
vn -0.8472 0.0908 -0.5234
vn 0.0000 -0.9928 0.1201
vn 0.8020 0.5973 0.0000
vn 0.0000 0.0985 -0.9951
vn -0.8429 -0.5380 0.0000
vn 0.0000 0.1267 0.9919
vn 0.0000 1.0000 0.0000
vn 0.0000 0.9919 -0.1267
vn 0.8020 0.0000 -0.5973
vn 0.8085 -0.1007 -0.5799
vn 0.0000 -0.9956 -0.0933
vn -0.8557 0.0000 0.5175
vn -0.8446 0.0916 0.5274
vn 0.0000 0.0000 -1.0000
usemtl _3
s 1
f 1/1/1 2/2/1 3/3/1
f 2/2/1 1/1/1 4/4/1
f 9/5/2 8/6/3 10/7/4
f 8/6/3 11/8/5 10/7/4
f 7/9/6 3/3/7 12/10/8
f 1/1/9 3/3/7 7/9/6
f 3/3/10 15/11/10 14/12/10
f 15/11/10 3/3/10 2/2/10
f 23/13/11 22/14/11 20/15/11
f 22/14/11 23/13/11 24/16/11
f 10/7/12 25/17/12 24/16/12
f 25/17/12 10/7/12 26/18/12
f 22/14/12 24/16/12 25/17/12
usemtl _5
f 1/19/13 5/20/13 4/21/13
f 5/20/13 1/19/13 6/22/13
f 7/23/14 6/22/14 1/19/14
f 8/24/15 6/22/15 7/23/15
f 8/24/16 9/25/16 6/22/16
f 7/23/17 11/26/17 8/24/17
f 11/26/17 7/23/17 12/27/17
f 3/28/18 13/29/18 12/27/18
f 13/29/18 3/28/18 14/30/18
f 2/31/19 16/32/19 15/33/19
f 16/32/19 2/31/19 17/34/19
f 4/21/20 17/34/20 2/31/20
f 4/21/21 18/35/21 17/34/21
f 4/21/22 19/36/22 18/35/22
f 19/36/22 4/21/22 20/37/22
f 20/37/23 21/38/23 19/36/23
f 20/37/24 22/39/24 21/38/24
f 23/40/11 10/41/11 24/42/11
f 10/41/11 23/40/11 9/43/11
f 23/44/25 6/22/25 9/25/25
f 20/37/25 6/22/25 23/44/25
f 6/22/25 20/37/25 5/20/25
f 10/45/26 27/46/26 26/47/26
f 27/46/26 10/45/26 11/26/26
f 11/26/27 13/29/27 27/46/27
f 13/29/27 11/26/27 12/27/27
f 14/30/28 27/46/28 13/29/28
f 27/46/28 14/30/28 26/47/28
f 15/33/29 26/47/29 14/30/29
f 26/47/29 15/33/29 25/48/29
f 16/32/30 25/48/30 15/33/30
f 25/48/30 16/32/30 28/49/30
f 16/32/31 19/36/31 28/49/31
f 16/32/31 18/35/31 19/36/31
f 18/35/31 16/32/31 17/34/31
f 28/49/31 19/36/31 21/38/31
f 22/39/32 28/49/32 21/38/32
f 28/49/32 22/39/32 25/48/32
f 29/50/33 30/51/33 31/52/33
f 30/51/33 29/50/33 32/53/33
f 33/54/34 32/55/34 29/56/34
f 33/54/35 29/56/35 34/57/35
f 29/50/36 35/58/36 34/59/36
f 35/58/36 29/50/36 31/52/36
f 30/51/37 35/58/37 31/52/37
f 36/60/38 35/58/38 30/51/38
f 36/60/39 34/59/39 35/58/39
f 34/59/39 36/60/39 33/61/39
f 37/62/40 38/63/40 39/64/40
f 38/63/40 37/62/40 40/65/40
f 37/62/41 41/66/41 40/65/41
f 41/66/41 37/62/41 42/67/41
f 42/67/42 43/68/42 41/66/42
f 43/68/42 42/67/42 44/69/42
f 44/69/43 38/63/43 43/68/43
f 38/63/43 44/69/43 39/64/43
f 38/63/44 41/66/44 43/68/44
f 41/66/44 38/63/44 40/65/44
f 45/70/45 46/71/45 47/72/45
f 46/71/45 45/70/45 48/73/45
f 46/74/46 48/75/46 49/76/46
f 49/76/47 48/75/47 50/77/47
f 51/78/48 49/79/48 50/80/48
f 49/79/48 51/78/48 52/81/48
f 52/81/49 51/78/49 47/72/49
f 47/72/50 51/78/50 45/70/50
f 46/71/51 52/81/51 47/72/51
f 52/81/51 46/71/51 49/79/51
