# Blender v2.90.0 OBJ File: ''
# www.blender.org
mtllib sisterwork.mtl
o sisterwork
v 9.680000 21.271299 4.698534
v 4.816130 -0.000001 4.698530
v 9.680000 -0.000001 4.698530
v 4.816130 21.271299 4.698534
v 4.816130 21.271297 9.680004
v 9.680000 21.271297 9.680004
v 9.680000 -0.000002 9.680000
v 4.816130 -0.000002 9.680000
v 9.680000 14.074202 -9.679998
v -9.680000 14.074198 9.680002
v -9.680000 14.074202 -9.679998
v 3.660000 14.074199 3.610002
v 9.680000 14.074199 3.610002
v 9.680000 7.197100 3.610001
v 9.680000 7.197102 -9.679999
v -9.680000 7.197102 -9.679999
v -9.680000 7.197099 9.680001
v 3.660000 7.197099 9.680001
v 3.660000 14.074198 9.680002
v 3.660000 7.197100 3.610001
v 9.680000 21.271301 -9.679996
v -9.680000 14.394202 -9.679998
v 9.680000 14.394202 -9.679998
v -9.680000 21.271301 -9.679996
v -9.680000 21.271297 9.680004
v 3.660000 21.271299 3.610003
v 9.680000 21.271299 3.610003
v 9.680000 14.394199 3.610002
v 3.660000 14.394199 3.610002
v 3.660000 14.394198 9.680002
v -9.680000 14.394198 9.680002
v 3.660000 21.271297 9.680004
v 3.660000 -0.000002 9.680000
v -9.680000 0.000002 -9.680000
v -9.680000 -0.000002 9.680000
v 3.660000 -0.000001 3.610000
v 3.660000 6.877100 3.610001
v 3.660000 6.877099 9.680001
v -9.680000 6.877099 9.680001
v -9.680000 6.877101 -9.679999
v 9.680000 6.877101 -9.679999
v 9.680000 0.000002 -9.680000
v 9.680000 -0.000001 3.610000
v 9.680000 6.877100 3.610001
vt 97.461700 3.164000
vt 96.738197 0.000000
vt 97.461700 -0.000000
vt 96.738197 3.164000
vt 98.202698 -0.000000
vt 98.202698 3.164000
vt 95.997299 3.164000
vt 95.997299 0.000000
vt 203.895004 2.093410
vt 204.798004 1.070500
vt 204.798004 2.093410
vt 203.895004 1.070500
vt 203.000000 1.070500
vt 203.000000 2.093410
vt 203.895004 3.163910
vt 204.798004 2.141000
vt 204.798004 3.163910
vt 203.895004 2.141000
vt 203.000000 2.141000
vt 203.000000 3.163910
vt 204.798004 -0.000000
vt 203.895004 1.022900
vt 203.895004 0.000000
vt 204.798004 1.022900
vt 203.000000 -0.000000
vt 203.000000 1.022900
vt -118.485001 -38.270599
vt -119.000000 -38.772999
vt -118.485001 -38.772999
vt -119.000000 -38.270599
vt -117.000000 -38.270599
vt -119.000000 -40.270401
vt -117.000000 -40.270401
vt -118.373001 -38.892502
vt -118.373001 -38.270599
vt -119.000000 -38.892502
vt -117.000000 -38.270599
vt -119.000000 -40.270401
vt -117.000000 -40.270401
vt -118.373001 -38.892502
vt -118.373001 -38.270599
vt -119.000000 -38.892502
vt -118.373001 -38.892502
vt -117.000000 -38.270599
vt -118.373001 -38.270599
vt -119.000000 -40.270401
vt -117.000000 -40.270401
vt -119.000000 -38.892502
vt -810.020020 -351.882996
vt -806.000000 -356.000000
vt -806.000000 -351.882996
vt -810.020020 -356.000000
vt -806.000000 -340.000000
vt -810.974976 -350.983002
vt -806.000000 -350.983002
vt -822.000000 -340.000000
vt -810.974976 -356.000000
vt -822.000000 -356.000000
vt -806.000000 -340.000000
vt -810.974976 -350.983002
vt -806.000000 -350.983002
vt -822.000000 -340.000000
vt -810.974976 -356.000000
vt -822.000000 -356.000000
vt -810.974976 -356.000000
vt -822.000000 -340.000000
vt -822.000000 -356.000000
vt -810.974976 -350.983002
vt -806.000000 -340.000000
vt -806.000000 -350.983002
vt -189.610992 837.453003
vt -381.101990 -0.000000
vt -189.610992 -0.000000
vt -381.101990 837.453003
vt 39.511902 3.057220
vt 41.555000 2.000000
vt 41.555000 3.057220
vt 39.511902 2.000000
vt 36.535702 2.000000
vt 36.535702 3.057220
vt 45.464298 3.057220
vt 48.440498 2.000000
vt 48.440498 3.057220
vt 45.464298 2.000000
vt 43.413502 2.000000
vt 43.413502 3.057220
vt 38.511902 4.057220
vt 35.535702 3.000000
vt 38.511902 3.000000
vt 35.535702 4.057220
vt 40.555000 3.000000
vt 40.555000 4.057220
vt 46.515099 4.057220
vt 43.538799 3.000000
vt 46.515099 3.000000
vt 43.538799 4.057220
vt 41.488098 3.000000
vt 41.488098 4.057220
vt 45.464298 0.999997
vt 43.413502 2.057220
vt 43.413502 0.999999
vt 45.464298 2.057220
vt 48.440498 0.999996
vt 48.440498 2.057220
vt 36.535702 1.000000
vt 39.511902 2.057220
vt 36.535702 2.057220
vt 39.511902 1.000000
vt 41.555000 1.000000
vt 41.555000 2.057220
vn 0.0000 -0.0000 1.0000
vn -1.0000 0.0000 0.0000
vn 1.0000 0.0000 0.0000
vn 0.0000 0.0000 -1.0000
vn 0.0000 -1.0000 -0.0000
vn 0.0000 1.0000 0.0000
usemtl _87
s 1
f 1/1/1 2/2/1 3/3/1
f 2/2/1 1/1/1 4/4/1
f 1/1/2 7/5/2 6/6/2
f 7/5/2 1/1/2 3/3/2
f 2/2/3 5/7/3 8/8/3
f 5/7/3 2/2/3 4/4/3
f 12/9/2 18/10/2 19/11/2
f 18/10/2 12/9/2 20/12/2
f 12/9/4 14/13/4 20/12/4
f 14/13/4 12/9/4 13/14/4
f 26/15/2 30/16/2 32/17/2
f 30/16/2 26/15/2 29/18/2
f 26/15/4 28/19/4 29/18/4
f 28/19/4 26/15/4 27/20/4
f 33/21/2 37/22/2 36/23/2
f 37/22/2 33/21/2 38/24/2
f 37/22/4 43/25/4 36/23/4
f 43/25/4 37/22/4 44/26/4
usemtl _5
f 1/27/5 5/28/5 4/29/5
f 5/28/5 1/27/5 6/30/5
f 9/31/5 10/32/5 11/33/5
f 10/32/5 9/31/5 12/34/5
f 12/34/5 9/31/5 13/35/5
f 19/36/5 10/32/5 12/34/5
f 21/37/5 25/38/5 24/39/5
f 25/38/5 21/37/5 26/40/5
f 26/40/5 21/37/5 27/41/5
f 32/42/5 25/38/5 26/40/5
f 37/43/5 41/44/5 44/45/5
f 39/46/5 41/44/5 37/43/5
f 41/44/5 39/46/5 40/47/5
f 38/48/5 39/46/5 37/43/5
usemtl _521
f 2/49/6 7/50/6 3/51/6
f 7/50/6 2/49/6 8/52/6
f 15/53/6 20/54/6 14/55/6
f 16/56/6 20/54/6 15/53/6
f 16/56/6 18/57/6 20/54/6
f 18/57/6 16/56/6 17/58/6
f 23/59/6 29/60/6 28/61/6
f 22/62/6 29/60/6 23/59/6
f 22/62/6 30/63/6 29/60/6
f 30/63/6 22/62/6 31/64/6
f 33/65/6 34/66/6 35/67/6
f 34/66/6 33/65/6 36/68/6
f 34/66/6 36/68/6 42/69/6
f 42/69/6 36/68/6 43/70/6
usemtl FrontColor
f 5/71/4 7/72/4 8/73/4
f 7/72/4 5/71/4 6/74/4
usemtl _19
f 9/75/2 14/76/2 13/77/2
f 14/76/2 9/75/2 15/78/2
f 9/75/1 16/79/1 15/78/1
f 16/79/1 9/75/1 11/80/1
f 10/81/3 16/82/3 11/83/3
f 16/82/3 10/81/3 17/84/3
f 10/81/4 18/85/4 17/84/4
f 18/85/4 10/81/4 19/86/4
f 21/87/1 22/88/1 23/89/1
f 22/88/1 21/87/1 24/90/1
f 21/87/2 28/91/2 27/92/2
f 28/91/2 21/87/2 23/89/2
f 24/93/3 31/94/3 22/95/3
f 31/94/3 24/93/3 25/96/3
f 25/96/4 30/97/4 31/94/4
f 30/97/4 25/96/4 32/98/4
f 35/99/4 38/100/4 33/101/4
f 38/100/4 35/99/4 39/102/4
f 34/103/3 39/102/3 35/99/3
f 39/102/3 34/103/3 40/104/3
f 34/105/1 41/106/1 40/107/1
f 41/106/1 34/105/1 42/108/1
f 41/106/2 43/109/2 44/110/2
f 43/109/2 41/106/2 42/108/2
