# Blender v2.90.0 OBJ File: ''
# www.blender.org
mtllib obstacle7.mtl
o obstacle7
v 0.970980 0.310000 1.336440
v 0.000000 0.310000 1.445200
v 0.000000 0.310000 1.651930
v 0.849468 0.310000 1.169190
v 1.374470 0.310000 0.446592
v 1.571080 0.310000 0.510475
v 1.374470 0.310000 -0.446592
v 1.571080 0.310000 -0.510475
v 0.970980 0.310000 -1.336440
v 0.849468 0.310000 -1.169190
v 0.000000 0.310000 -1.651930
v 0.000000 0.310000 -1.445200
v -0.849468 0.310000 -1.169190
v -0.970980 0.310000 -1.336440
v -1.374470 0.310000 -0.446592
v -1.571080 0.310000 -0.510475
v -1.571080 0.000000 -0.510475
v -1.374470 0.000000 -0.446592
v -0.849468 0.000000 -1.169190
v 0.000000 0.000000 -1.445200
v 0.849468 0.000000 -1.169190
v 1.374470 0.000000 -0.446592
v 1.374470 -0.000000 0.446592
v 0.849468 -0.000000 1.169190
v 0.000000 -0.000000 1.445200
v 0.000000 -0.000000 1.651930
vt -6.071520 0.567197
vt -5.000000 0.347073
vt -4.928480 0.567197
vt -6.000000 0.347073
vt -5.928480 0.567197
vt -7.000000 0.347073
vt -7.071520 0.567197
vt -6.928480 0.567197
vt -8.000000 0.347073
vt -8.071520 0.567197
vt -9.071520 0.567197
vt -7.928480 0.567197
vt -9.000000 0.347073
vt -0.071523 0.567197
vt 1.000000 0.347073
vt 1.071520 0.567197
vt 0.000000 0.347073
vt 0.071523 0.567197
vt -1.000000 0.347073
vt -1.071520 0.567197
vt -0.928477 0.567197
vt -2.000000 0.347073
vt -2.071520 0.567197
vt -2.231450 0.000000
vt -2.231450 0.347073
vt -2.000000 0.000000
vt -1.000000 0.000000
vt -0.000000 0.000000
vt 1.000000 0.000000
vt -8.000000 0.000000
vt -9.000000 0.000000
vt -7.000000 0.000000
vt -6.000000 0.000000
vt -5.000000 0.000000
vt -4.768550 0.000000
vt -4.768550 0.347073
vn 0.0000 1.0000 0.0000
vn -0.3090 -0.0000 0.9511
vn 0.8090 -0.0000 0.5878
vn 0.3090 0.0000 0.9511
vn -0.8090 0.0000 0.5878
vn -1.0000 0.0000 0.0000
vn -0.8090 -0.0000 -0.5878
vn -0.3090 0.0000 -0.9511
usemtl _.001
s 1
f 1/1/1 2/2/1 3/3/1
f 2/2/1 1/1/1 4/4/1
f 1/5/1 5/6/1 4/4/1
f 5/6/1 1/5/1 6/7/1
f 6/8/1 7/9/1 5/6/1
f 7/9/1 6/8/1 8/10/1
f 9/11/1 7/9/1 8/12/1
f 7/9/1 9/11/1 10/13/1
f 11/14/1 10/15/1 9/16/1
f 10/15/1 11/14/1 12/17/1
f 11/18/1 13/19/1 12/17/1
f 13/19/1 11/18/1 14/20/1
f 14/21/1 15/22/1 13/19/1
f 15/22/1 14/21/1 16/23/1
f 17/24/2 15/22/2 16/25/2
f 15/22/2 17/24/2 18/26/2
f 19/27/3 15/22/3 18/26/3
f 15/22/3 19/27/3 13/19/3
f 19/27/4 12/17/4 13/19/4
f 12/17/4 19/27/4 20/28/4
f 20/28/2 10/15/2 12/17/2
f 10/15/2 20/28/2 21/29/2
f 22/30/5 10/13/5 21/31/5
f 10/13/5 22/30/5 7/9/5
f 23/32/6 7/9/6 22/30/6
f 7/9/6 23/32/6 5/6/6
f 24/33/7 5/6/7 23/32/7
f 5/6/7 24/33/7 4/4/7
f 24/33/8 2/2/8 4/4/8
f 2/2/8 24/33/8 25/34/8
f 26/35/6 2/2/6 25/34/6
f 2/2/6 26/35/6 3/36/6
