# Blender v2.90.0 OBJ File: ''
# www.blender.org
mtllib spaceship1.mtl
o spaceship1
v 0.362573 0.005000 0.040000
v 0.292573 -0.045000 0.040000
v -0.397427 0.005000 -0.515000
v -0.397427 0.005000 0.595000
v 0.284795 0.067222 0.040000
v -0.327427 0.005000 0.040000
v 0.142500 0.150000 0.040000
v 0.267500 0.050000 -0.045000
v -0.080000 0.050000 -0.045000
v 0.267500 0.050000 0.125000
v -0.080000 0.050000 0.125000
v -0.370000 0.012030 0.125000
v -0.370000 0.032030 0.040000
v -0.370000 0.012031 -0.045000
v 0.370000 -0.080000 0.040000
v -0.370000 -0.040000 0.125000
v -0.370000 -0.080000 0.040000
v 0.370000 -0.040000 0.125000
v 0.480000 0.005000 0.040000
v 0.370000 0.005000 0.155000
v 0.370000 0.050000 0.125000
v 0.370000 0.070000 0.040000
v 0.370000 0.050000 -0.045000
v 0.370000 0.005000 -0.075000
v -0.370000 0.050000 -0.045000
v -0.370000 0.005000 -0.075000
v 0.370000 -0.040000 -0.045000
v -0.370000 -0.040000 -0.045000
v -0.370000 0.070000 0.040000
v -0.370000 0.050000 0.125000
v -0.370000 0.005000 0.155000
v -0.350000 0.015231 -0.005000
v -0.420000 -0.013970 0.007500
v -0.420000 0.015231 -0.005000
v -0.350000 -0.013970 0.007500
v -0.350000 -0.033170 0.040000
v -0.420000 -0.033170 0.040000
v -0.350000 -0.013970 0.072500
v -0.420000 -0.013970 0.072500
v -0.420000 0.015230 0.085000
v -0.350000 0.015230 0.085000
v -0.350000 0.032030 0.040000
v -0.420000 0.032030 0.040000
vt 5.445540 0.880652
vt 5.000000 0.880652
vt 5.445540 -4.064890
vt 5.445540 5.826200
vt 6.000000 0.880652
vt 5.445540 0.880652
vt 11.507700 -1.325300
vt 11.996200 -4.270630
vt 11.996200 -2.604000
vt 11.507700 -4.270630
vt 11.019200 -4.270640
vt 11.019200 -2.604010
vt 11.507700 -0.017856
vt 11.996200 -4.270630
vt 11.507700 -4.270630
vt 11.996200 -0.017855
vt 11.507700 0.614314
vt 12.168600 -0.017855
vt 11.996200 -0.017855
vt 11.507700 -0.017856
vt 11.019200 -0.017856
vt 10.846800 -0.017856
vt 11.019200 -4.270640
vt 10.846800 -4.270640
vt 11.019200 -0.017856
vt 11.019200 -4.270640
vt 11.507700 -4.270630
vt 11.996200 -4.270630
vt 12.168600 -4.270630
vt 7.500000 4.687600
vt 8.000000 3.952310
vt 8.000000 5.996420
vt 8.000000 3.702310
vt 7.500000 4.437600
vt 7.000000 3.702310
vt 7.000000 5.996420
vt 7.000000 3.952310
vt -4.895670 -0.000000
vt -3.919930 0.020877
vt -3.919930 -0.000000
vt -4.895670 0.020877
vt -4.895670 0.351682
vt -3.919930 0.351682
vt -4.895670 0.869699
vt -3.919930 0.869698
vt -3.919930 1.175290
vt -4.895670 1.175290
vt -4.895670 0.669551
vt -3.919930 0.669550
vn 0.4548 -0.6367 -0.6228
vn 0.4548 -0.6367 0.6228
vn 0.4747 0.5934 0.6500
vn -0.1011 0.9948 -0.0128
vn -0.1011 0.9948 0.0128
vn 0.4747 0.5934 -0.6500
vn -0.0804 -0.9967 0.0101
vn -0.0804 -0.9967 -0.0101
vn -0.1001 0.7642 0.6372
vn -0.2186 0.9499 0.2235
vn -0.2186 0.9499 -0.2235
vn -0.1001 0.7642 -0.6372
vn 0.0000 -0.9048 0.4258
vn 0.5730 -0.7415 0.3490
vn 0.6563 -0.4185 0.6278
vn 0.6563 0.4185 0.6278
vn 0.4986 0.8438 0.1985
vn 0.4986 0.8438 -0.1985
vn 0.6563 0.4185 -0.6278
vn 0.0000 0.5547 -0.8321
vn 0.0000 -0.5547 -0.8321
vn 0.0000 -0.9048 -0.4258
vn -1.0000 0.0000 0.0000
vn 0.0000 -0.5547 0.8321
vn 0.0000 0.5547 0.8321
vn 0.0000 0.9734 0.2290
vn 0.0000 0.9734 -0.2290
vn 0.5730 -0.7415 -0.3490
vn 0.6563 -0.4185 -0.6278
vn 0.0000 0.6476 -0.7619
vn 0.6247 0.7809 0.0000
vn 0.0000 0.6476 0.7619
vn 0.0000 -0.3935 -0.9193
vn 0.0000 -0.8610 -0.5086
vn 0.0000 -0.8610 0.5086
vn 0.0000 -0.3935 0.9193
vn 0.0000 0.9368 0.3498
vn 0.0000 0.9368 -0.3498
usemtl _10
s 1
f 1/1/1 2/2/1 3/3/1
f 1/1/2 4/4/2 2/2/2
f 5/5/3 4/4/3 1/1/3
f 5/5/4 6/6/4 4/4/4
f 5/5/5 3/3/5 6/6/5
f 5/5/6 1/1/6 3/3/6
f 2/2/7 6/6/7 3/3/7
f 2/2/8 4/4/8 6/6/8
f 7/7/9 12/8/9 11/9/9
f 7/7/10 13/10/10 12/8/10
f 7/7/11 14/11/11 13/10/11
f 7/7/12 9/12/12 14/11/12
f 15/13/13 16/14/13 17/15/13
f 16/14/13 15/13/13 18/16/13
f 19/17/14 18/16/14 15/13/14
f 19/17/15 20/18/15 18/16/15
f 19/17/16 21/19/16 20/18/16
f 19/17/17 22/20/17 21/19/17
f 19/17/18 23/21/18 22/20/18
f 24/22/19 23/21/19 19/17/19
f 24/22/20 25/23/20 23/21/20
f 25/23/20 24/22/20 26/24/20
f 27/25/21 26/24/21 24/22/21
f 26/24/21 27/25/21 28/26/21
f 15/13/22 28/26/22 27/25/22
f 28/26/22 15/13/22 17/15/22
f 28/26/23 17/15/23 25/23/23
f 25/23/23 17/15/23 29/27/23
f 17/15/23 30/28/23 29/27/23
f 17/15/23 16/14/23 30/28/23
f 16/14/23 31/29/23 30/28/23
f 16/14/24 20/18/24 31/29/24
f 20/18/24 16/14/24 18/16/24
f 21/19/25 31/29/25 20/18/25
f 31/29/25 21/19/25 30/28/25
f 21/19/26 29/27/26 30/28/26
f 29/27/26 21/19/26 22/20/26
f 22/20/27 25/23/27 29/27/27
f 25/23/27 22/20/27 23/21/27
f 26/24/23 28/26/23 25/23/23
f 19/17/28 15/13/28 27/25/28
f 24/22/29 19/17/29 27/25/29
usemtl _4
f 7/30/30 8/31/30 9/32/30
f 8/33/31 7/34/31 10/35/31
f 7/30/32 11/36/32 10/37/32
usemtl _1
f 32/38/33 33/39/33 34/40/33
f 33/39/33 32/38/33 35/41/33
f 36/42/34 33/39/34 35/41/34
f 33/39/34 36/42/34 37/43/34
f 38/44/35 37/43/35 36/42/35
f 37/43/35 38/44/35 39/45/35
f 38/44/36 40/46/36 39/45/36
f 40/46/36 38/44/36 41/47/36
f 42/48/37 40/46/37 41/47/37
f 40/46/37 42/48/37 43/49/37
f 32/38/38 43/49/38 42/48/38
f 43/49/38 32/38/38 34/40/38
f 43/49/23 34/40/23 33/39/23
f 43/49/23 33/39/23 37/43/23
f 43/49/23 37/43/23 39/45/23
f 43/49/23 39/45/23 40/46/23
