# Blender v2.90.0 OBJ File: ''
# www.blender.org
mtllib bed2.mtl
o bed2
v -2.052540 1.435690 -1.218280
v -2.052540 1.435690 1.200920
v -1.782540 1.906890 -0.008676
v -1.032540 1.435690 1.200920
v -1.032540 1.435690 -1.218280
v -2.164000 1.435690 1.291770
v -2.164000 1.133250 -1.301770
v -2.164000 1.133250 1.291770
v -2.164000 1.435690 -1.301770
v 2.184000 1.435690 1.291770
v 2.184000 1.435690 -1.301770
v 2.184000 1.133250 -1.301770
v 2.184000 1.133250 1.291770
v -2.294000 1.133250 1.291770
v -2.294000 2.960590 -1.301769
v -2.294000 1.133250 -1.301770
v -2.294000 2.960590 1.291770
v 2.214000 1.133250 -1.301770
v 2.214000 2.182170 1.291770
v 2.214000 1.133250 1.291770
v 2.214000 2.182170 -1.301770
v -2.294000 1.133250 -1.411770
v 2.294000 0.000000 -1.411770
v -2.294000 0.000000 -1.411770
v 2.294000 1.133250 -1.411770
v 2.294000 1.133250 1.411770
v -2.294000 1.133250 1.411770
v -2.294000 -0.000000 1.411770
v 2.294000 -0.000000 1.411770
vt -783.000000 4.000000
vt -783.000000 3.000000
vt -782.734985 3.500000
vt -782.000000 3.000000
vt -782.000000 4.000000
vt -779.406006 1.000000
vt -779.163025 -0.296769
vt -779.163025 1.000000
vt -779.406006 -0.296769
vt -779.406006 3.174000
vt -782.000000 1.000000
vt -782.000000 3.174000
vt -779.163025 4.470770
vt -779.406006 4.470770
vt -779.163025 3.174000
vt -779.406006 6.644770
vt -779.163025 6.644770
vt 4.000000 289.000000
vt 3.000000 289.648010
vt 3.000000 289.000000
vt 4.000000 289.648010
vt 4.000000 289.000000
vt 3.000000 289.648010
vt 3.000000 289.000000
vt 4.000000 289.648010
vt 3.000000 105.889999
vt 2.000000 110.910004
vt 2.000000 105.889999
vt 3.000000 110.910004
vt 6.089520 119.019997
vt 3.000000 114.000000
vt 6.089520 114.000000
vt 3.000000 119.019997
vt 2.000000 122.110001
vt 3.000000 122.110001
vt 2.000000 119.019997
vt 2.000000 114.000000
vn -0.7503 0.6611 0.0000
vn -0.0000 0.9694 0.2456
vn 0.3782 0.9257 0.0000
vn -0.0000 0.9694 -0.2456
vn -1.0000 0.0000 0.0000
vn 0.0000 1.0000 0.0000
vn 1.0000 0.0000 0.0000
vn 0.0000 0.0000 1.0000
vn 0.0000 0.0000 -1.0000
usemtl _54
s 1
f 1/1/1 2/2/1 3/3/1
f 4/4/2 3/3/2 2/2/2
f 5/5/3 3/3/3 4/4/3
f 5/5/4 1/1/4 3/3/4
usemtl _77
f 6/6/5 7/7/5 8/8/5
f 7/7/5 6/6/5 9/9/5
f 10/10/6 9/11/6 6/6/6
f 9/11/6 10/10/6 11/12/6
f 10/10/7 12/13/7 11/14/7
f 12/13/7 10/10/7 13/15/7
f 6/6/8 13/15/8 10/10/8
f 13/15/8 6/6/8 8/8/8
f 12/13/9 9/16/9 11/14/9
f 9/16/9 12/13/9 7/17/9
usemtl _76
f 14/18/5 15/19/5 16/20/5
f 15/19/5 14/18/5 17/21/5
f 18/22/7 19/23/7 20/24/7
f 19/23/7 18/22/7 21/25/7
usemtl _78
f 22/26/9 23/27/9 24/28/9
f 23/27/9 22/26/9 25/29/9
f 22/30/6 26/31/6 25/32/6
f 26/31/6 22/30/6 27/33/6
f 24/34/5 27/33/5 22/35/5
f 27/33/5 24/34/5 28/36/5
f 29/37/8 27/33/8 28/36/8
f 27/33/8 29/37/8 26/31/8
f 23/27/7 26/31/7 29/37/7
f 26/31/7 23/27/7 25/29/7
