# Blender v2.90.0 OBJ File: ''
# www.blender.org
mtllib chair1.mtl
o chair1
v 0.482800 0.000000 -0.482800
v 0.482800 1.456210 0.482800
v 0.482800 -0.000000 0.482800
v 0.482800 1.456210 -0.482800
v -0.482800 1.456210 -0.482800
v -0.482800 0.000000 -0.482800
v -0.482800 -0.000000 0.482800
v -0.482800 1.456210 0.482800
vt 70.000000 1.026600
vt 69.000000 1.780650
vt 69.000000 1.026600
vt 70.000000 1.780650
vt 71.000000 1.780650
vt 71.000000 1.026600
vt 72.000000 1.026600
vt 72.000000 1.780650
vt 73.000000 1.780650
vt 73.000000 1.026600
vt 72.000000 1.974210
vt 71.134499 1.780650
vt 71.134499 1.974210
vn 1.0000 -0.0000 0.0000
vn 0.0000 0.0000 -1.0000
vn -1.0000 -0.0000 0.0000
vn 0.0000 -0.0000 1.0000
vn 0.0000 1.0000 0.0000
usemtl _56
s 1
f 1/1/1 2/2/1 3/3/1
f 2/2/1 1/1/1 4/4/1
f 1/1/2 5/5/2 4/4/2
f 5/5/2 1/1/2 6/6/2
f 7/7/3 5/5/3 6/6/3
f 5/5/3 7/7/3 8/8/3
f 7/7/4 2/9/4 8/8/4
f 2/9/4 7/7/4 3/10/4
f 2/11/5 5/12/5 8/8/5
f 5/12/5 2/11/5 4/13/5
