# Blender v2.90.0 OBJ File: ''
# www.blender.org
mtllib evier1.mtl
o evier1
v 1.550000 0.000001 -5.177110
v 1.550000 1.500000 0.000000
v 1.550000 0.000000 0.000000
v 1.550000 1.500001 -5.177110
v 4.663110 1.500001 -5.177110
v 4.663110 0.000001 -5.177110
v 4.663110 0.000001 -7.240000
v 4.663110 1.500001 -7.239999
v 4.125330 1.500001 -6.714819
v 2.065330 1.500001 -6.714819
v 0.000000 1.500001 -7.239999
v 0.000000 1.500000 0.000000
v 0.000000 0.000000 0.000000
v 2.065330 1.500001 -5.684820
v 4.125330 1.500001 -5.684820
v 3.811220 0.750001 -5.966960
v 3.811220 0.750001 -6.474840
v 2.377920 0.750001 -6.474840
v 2.377920 0.750001 -5.966960
vt 3.000000 -1.324040
vt 4.000000 2.127370
vt 3.000000 2.127370
vt 4.000000 -1.324040
vt 3.000000 -1.244040
vt 4.000000 -3.319450
vt 4.000000 -1.244040
vt 3.000000 -3.319450
vt 3.000000 -4.721370
vt 4.000000 -3.346110
vt 3.000000 -3.346110
vt 4.000000 -4.721370
vt 3.000000 3.187370
vt 4.000000 2.154030
vt 4.000000 3.187370
vt 3.000000 2.154030
vt -509.000000 -400.016998
vt -510.015015 -398.976990
vt -512.989014 -400.016998
vt -510.015015 -394.993988
vt -509.000000 -391.000000
vt -512.989014 -393.997009
vt -523.000000 -393.997009
vt -523.000000 -391.000000
vt -512.007019 -394.993988
vt -512.007019 -398.976990
vt 2.859510 5.414280
vt 2.350100 5.628230
vt 2.157910 5.414280
vt 2.696050 5.628230
vt 2.696050 6.604540
vt 2.859510 6.817460
vt 2.350100 6.604540
vt 2.157910 6.817460
vn 1.0000 0.0000 0.0000
vn 0.0000 -0.0000 1.0000
vn -0.0000 1.0000 0.0000
vn -0.9224 0.3863 0.0000
vn 0.0000 0.3048 0.9524
vn 0.9230 0.3847 0.0000
vn 0.0000 0.3521 -0.9360
usemtl _26
s 1
f 1/1/1 2/2/1 3/3/1
f 2/2/1 1/1/1 4/4/1
f 1/5/2 5/6/2 4/7/2
f 5/6/2 1/5/2 6/8/2
f 7/9/1 5/10/1 6/11/1
f 5/10/1 7/9/1 8/12/1
f 13/13/2 2/14/2 12/15/2
f 2/14/2 13/13/2 3/16/2
usemtl _521.002
f 8/17/3 9/18/3 5/19/3
f 8/17/3 10/20/3 9/18/3
f 11/21/3 10/20/3 8/17/3
f 11/21/3 4/22/3 10/20/3
f 11/21/3 2/23/3 4/22/3
f 2/23/3 11/21/3 12/24/3
f 10/20/3 4/22/3 14/25/3
f 5/19/3 14/25/3 4/22/3
f 14/25/3 5/19/3 15/26/3
f 15/26/3 5/19/3 9/18/3
usemtl _67
f 9/27/4 16/28/4 15/29/4
f 16/28/4 9/27/4 17/30/4
f 9/27/5 18/31/5 17/30/5
f 18/31/5 9/27/5 10/32/5
f 10/32/6 19/33/6 18/31/6
f 19/33/6 10/32/6 14/34/6
f 14/34/7 16/28/7 19/33/7
f 16/28/7 14/34/7 15/29/7
f 16/28/3 18/31/3 19/33/3
f 18/31/3 16/28/3 17/30/3
