# Blender v2.90.0 OBJ File: ''
# www.blender.org
mtllib hospitalprops3.mtl
o hospitalprops3
v -2.243710 1.751390 0.912295
v -2.243710 1.495880 -0.825376
v -2.243710 1.495880 0.912295
v -2.243710 1.751390 -0.825376
v 2.104290 1.751390 0.912295
v 2.104290 1.751390 -0.825376
v 2.104290 1.495880 -0.825376
v 2.104290 1.495880 0.912295
v -1.695770 1.495880 -0.534055
v 1.695770 0.000000 -0.534055
v -1.695770 0.000000 -0.534055
v 1.695770 1.495880 -0.534055
v 1.695770 1.495880 0.534055
v 1.695770 -0.000000 0.534055
v -1.695770 1.495880 0.534055
v -1.695770 -0.000000 0.534055
vt -779.406006 1.000000
vt -779.163025 -0.296769
vt -779.163025 1.000000
vt -779.406006 -0.296769
vt -779.406006 3.174000
vt -782.000000 1.000000
vt -782.000000 3.174000
vt -779.163025 4.470770
vt -779.406006 4.470770
vt -779.163025 3.174000
vt -779.406006 6.644770
vt -779.163025 6.644770
vt 3.000000 105.889999
vt 2.000000 110.910004
vt 2.000000 105.889999
vt 3.000000 110.910004
vt 3.000000 114.000000
vt 2.000000 114.000000
vt 3.000000 119.019997
vt 2.000000 119.019997
vt 2.000000 122.110001
vt 3.000000 122.110001
vn -1.0000 0.0000 0.0000
vn 0.0000 1.0000 0.0000
vn 1.0000 0.0000 0.0000
vn 0.0000 -0.0000 1.0000
vn 0.0000 0.0000 -1.0000
usemtl _77.001
s 1
f 1/1/1 2/2/1 3/3/1
f 2/2/1 1/1/1 4/4/1
f 5/5/2 4/6/2 1/1/2
f 4/6/2 5/5/2 6/7/2
f 5/5/3 7/8/3 6/9/3
f 7/8/3 5/5/3 8/10/3
f 1/1/4 8/10/4 5/5/4
f 8/10/4 1/1/4 3/3/4
f 7/8/5 4/11/5 6/9/5
f 4/11/5 7/8/5 2/12/5
usemtl _78.001
f 9/13/5 10/14/5 11/15/5
f 10/14/5 9/13/5 12/16/5
f 13/17/3 10/14/3 12/16/3
f 10/14/3 13/17/3 14/18/3
f 15/19/4 14/18/4 13/17/4
f 14/18/4 15/19/4 16/20/4
f 15/19/1 11/21/1 16/20/1
f 11/21/1 15/19/1 9/22/1
