# Blender v2.90.0 OBJ File: ''
# www.blender.org
mtllib hospitalprops1.mtl
o hospitalprops1
v -0.006900 3.934670 0.231479
v -0.021900 3.254770 0.141479
v 0.373585 3.404770 0.011478
v -0.387385 3.404770 0.011478
v -0.587385 4.074670 0.011479
v -0.006900 3.934670 -0.208521
v 0.573585 4.074670 0.011479
v 0.008100 3.254770 -0.118521
v -0.073800 0.000000 -0.030000
v 0.060000 4.192940 -0.029999
v 0.060000 0.000000 -0.030000
v -0.073800 4.192940 -0.029999
v -0.006900 4.192940 0.085874
v -0.006900 -0.000000 0.085874
v -0.048811 -0.000000 0.566764
v -0.007333 0.118269 -0.594206
v -0.048811 0.000000 -0.594206
v -0.007333 0.118269 0.566764
v 0.034145 0.000000 -0.594206
v 0.034145 -0.000000 0.566764
v -0.563871 0.000000 -0.031252
v 0.597099 0.118269 0.010226
v 0.597099 0.000000 -0.031252
v -0.563871 0.118269 0.010226
v 0.597099 -0.000000 0.051704
v -0.563871 -0.000000 0.051704
v 0.573585 4.192940 -0.029999
v -0.587385 4.074670 0.011479
v -0.587385 4.192940 -0.029999
v 0.573585 4.074670 0.011479
v -0.587385 4.192940 0.052956
v 0.573585 4.192940 0.052956
vt 1.520520 3.650660
vt 1.500000 2.815820
vt 2.041040 3.000000
vt 1.000000 3.000000
vt 0.726391 3.822560
vt 2.314650 3.822560
vt 1.520520 3.650660
vt 2.041040 3.000000
vt 2.314650 3.822560
vt 0.726391 3.822560
vt 1.000000 3.000000
vt 1.500000 2.815820
vt 1.541040 2.815820
vt -786.570007 116.954002
vt -786.429993 115.000000
vt -786.429993 116.954002
vt -786.570007 115.000000
vt -786.708984 115.000000
vt -786.708984 116.954002
vt -786.291016 116.954002
vt -786.291016 115.000000
vt -786.570007 116.954002
vt -786.708984 115.000000
vt -786.570007 115.000000
vt -786.708984 116.954002
vt -786.291016 116.954002
vt -786.429993 115.000000
vt -786.291016 115.000000
vt -786.429993 116.954002
vt -786.570007 116.954002
vt -786.708984 115.000000
vt -786.570007 115.000000
vt -786.708984 116.954002
vt -786.291016 116.954002
vt -786.429993 115.000000
vt -786.291016 115.000000
vt -786.429993 116.954002
vt -786.570007 116.954002
vt -786.708984 115.000000
vt -786.570007 115.000000
vt -786.708984 116.954002
vt -786.291016 116.954002
vt -786.429993 115.000000
vt -786.291016 115.000000
vt -786.429993 116.954002
vn 0.3539 -0.1304 0.9261
vn -0.3742 -0.1134 0.9204
vn -0.3756 -0.1123 0.9200
vn -0.3740 -0.1136 0.9204
vn -0.3757 -0.1122 0.9199
vn -0.3757 -0.1122 -0.9199
vn 0.2345 0.9721 0.0000
vn -0.2345 0.9721 0.0000
vn 0.3757 -0.1122 -0.9199
vn 0.3756 -0.1123 -0.9200
vn 0.3742 -0.1134 -0.9204
vn 0.3757 -0.1122 0.9199
vn 0.3740 -0.1136 -0.9204
vn 0.3664 -0.9295 0.0423
vn -0.3664 -0.9295 -0.0423
vn -0.3539 -0.1304 -0.9261
vn 0.0000 0.0000 -1.0000
vn -0.8660 -0.0000 0.5000
vn 0.8660 -0.0000 0.5000
vn -0.7248 0.6889 0.0000
vn 0.7248 0.6889 -0.0000
vn 0.0000 0.6889 -0.7248
vn -0.0002 0.6889 -0.7248
vn 0.0000 0.6889 0.7248
vn 0.0000 -0.6889 -0.7248
vn -0.0000 -0.6889 0.7248
usemtl _86
s 1
f 1/1/1 2/2/1 3/3/1
f 1/1/2 4/4/3 2/2/4
f 5/5/5 4/4/3 1/1/2
f 5/6/6 6/7/6 4/8/6
f 1/1/7 6/7/7 5/5/7
f 7/9/8 6/7/8 1/1/8
f 7/10/9 3/11/10 6/7/11
f 7/9/12 1/1/12 3/3/12
f 6/7/11 3/11/10 8/12/13
f 3/3/14 2/2/14 8/13/14
f 8/13/15 2/2/15 4/4/15
f 6/7/16 8/12/16 4/8/16
usemtl _66
f 9/14/17 10/15/17 11/16/17
f 10/15/17 9/14/17 12/17/17
f 9/14/18 13/18/18 12/17/18
f 13/18/18 9/14/18 14/19/18
f 14/20/19 10/15/19 13/21/19
f 10/15/19 14/20/19 11/16/19
f 15/22/20 16/23/20 17/24/20
f 16/23/20 15/22/20 18/25/20
f 18/26/21 19/27/21 16/28/21
f 19/27/21 18/26/21 20/29/21
f 21/30/22 22/31/23 23/32/22
f 22/31/23 21/30/22 24/33/22
f 24/34/24 25/35/24 22/36/24
f 25/35/24 24/34/24 26/37/24
f 27/38/25 28/39/25 29/40/25
f 28/39/25 27/38/25 30/41/25
f 30/42/26 31/43/26 28/44/26
f 31/43/26 30/42/26 32/45/26
