# Blender v2.90.0 OBJ File: ''
# www.blender.org
mtllib shelf1.mtl
o shelf1
v -0.553659 4.894519 1.629161
v -0.553659 1.579440 0.159125
v -0.553659 1.579440 1.651570
v -0.553659 4.894520 0.159126
v -0.553659 1.579440 -0.159125
v -0.553659 4.894520 -1.673989
v -0.553659 1.579440 -1.651570
v -0.553659 4.893670 -0.159124
v 0.556015 4.894519 1.629161
v -0.683659 4.894520 0.159126
v 0.556015 4.894520 0.159126
v -0.683659 4.894519 1.629161
v -0.683659 1.579440 1.651570
v 0.556015 1.579440 1.651570
v 0.556015 1.579440 0.159125
v -0.683659 1.579440 0.159125
v -0.683659 1.579440 -0.159125
v -0.683659 4.893670 -0.159124
v -0.683659 4.894520 -1.673989
v -0.683659 5.292040 -2.072679
v -0.683659 5.292039 1.968981
v -0.683659 -0.000000 1.651570
v -0.683659 -0.000000 1.968980
v 0.683659 5.292039 1.968981
v 0.683659 -0.000000 1.968980
v 0.683659 5.292040 -2.072679
v -0.683659 0.000000 -2.072680
v 0.683659 0.000000 -2.072680
v -0.683659 1.579440 -1.651570
v -0.683659 0.000000 -1.651570
v 0.556015 1.579440 -0.159125
v 0.556015 1.579440 -1.651570
v 0.556015 4.893670 -0.159124
v 0.556015 4.894520 -1.673989
v -0.503659 3.336980 1.641961
v -0.503659 3.201940 -1.662780
v -0.503659 3.201940 1.641961
v -0.503659 3.336980 -1.662779
v 0.556015 3.336980 1.641961
v 0.556015 3.336980 -1.662779
v 0.556015 3.201940 1.641961
v 0.556015 3.201940 -1.662780
vt -23.014999 2.000000
vt -24.000000 -0.000000
vt -23.000000 -0.000000
vt -24.000000 2.000000
vt -23.992500 -0.000000
vt -25.007500 2.000000
vt -24.992500 -0.000000
vt -23.992500 1.999480
vt 0.999999 -4.196010
vt -0.014794 -5.399370
vt 0.999998 -5.399370
vt -0.014794 -4.196010
vt -0.000000 -8.826280
vt 1.000000 -4.955900
vt -0.000000 -4.955900
vt 1.000000 -8.826280
vt 0.000000 -2.000000
vt 1.000000 -2.000000
vt -0.000000 1.870380
vt 1.000000 1.870380
vt 786.000000 715.908020
vt 787.000000 718.000000
vt 786.000000 718.000000
vt 787.000000 715.908020
vt 787.000000 717.054993
vt 787.000000 716.853027
vt 1.000000 -1.482230
vt -0.014792 -0.260518
vt -0.014793 -1.482230
vt 1.000000 -0.260518
vt 1.000000 -0.000000
vt -0.014791 1.221710
vt -0.014792 0.000000
vt 1.000000 1.221710
vt 1.000000 5.175550
vt -0.014790 3.935490
vt 1.000000 3.935490
vt -0.014790 5.175550
vt 788.049988 1210.650024
vt 787.965027 1212.739990
vt 787.965027 1210.650024
vt 788.049988 1212.739990
vt 788.835999 1210.650024
vt 788.164001 1212.739990
vt 788.164001 1210.650024
vt 788.835999 1212.739990
vt 787.294006 1210.650024
vt 787.294006 1212.739990
vt -0.923844 132.753998
vt 3.010510 122.445999
vt 2.940630 132.779999
vt -0.853962 122.418999
vt -5.506530 132.753998
vt -5.506530 122.418999
vt 4.895280 127.417000
vt 1.000000 117.000000
vt 4.895280 117.000000
vt 1.000000 127.417000
vt -0.000000 117.000000
vt 0.000002 127.414001
vt 2.000000 126.227997
vt 2.000000 121.616997
vt 2.002150 125.427002
vt 2.000000 129.925995
vt 0.999999 120.613998
vt 1.000000 130.781006
vt 4.000000 134.018997
vt 3.010510 117.522003
vt 4.000000 117.522003
vt -6.000000 119.000000
vt -5.000000 122.750999
vt -6.000000 131.567001
vt -5.000000 119.000000
vt 1.487950 130.641006
vt -2.056190 122.771004
vt 1.487950 122.771004
vt -2.109430 130.643005
vt -3.895280 127.414001
vt -3.895280 117.000000
vt -5.053230 130.623001
vn -1.0000 0.0000 0.0000
vn 0.0000 -1.0000 -0.0000
vn 0.0000 -0.0000 1.0000
vn 0.0000 1.0000 0.0000
vn 0.0000 0.0000 -1.0000
vn 0.2623 0.0000 -0.9650
vn -0.9817 0.1905 0.0000
vn 0.0000 -1.0000 -0.0006
vn 0.0000 -0.0068 -1.0000
vn 0.5726 -0.7100 0.4100
vn 0.0000 0.0068 1.0000
usemtl _84
s 1
f 1/1/1 2/2/1 3/3/1
f 2/2/1 1/1/1 4/4/1
f 5/5/1 6/6/1 7/7/1
f 6/6/1 5/5/1 8/8/1
usemtl _78.002
f 9/9/2 10/10/2 11/11/2
f 10/10/2 9/9/2 12/12/2
f 23/13/3 24/14/3 21/15/3
f 24/14/3 23/13/3 25/16/3
f 24/14/4 20/17/4 21/15/4
f 20/17/4 24/14/4 26/18/4
f 26/18/5 27/19/5 20/17/5
f 27/19/5 26/18/5 28/20/5
f 22/21/1 29/22/1 30/23/1
f 29/22/1 22/21/1 13/24/1
f 29/22/1 13/24/1 17/25/6
f 17/25/6 13/24/1 16/26/7
f 14/27/4 16/28/4 13/29/4
f 16/28/4 14/27/4 15/30/4
f 31/31/4 29/32/4 17/33/4
f 29/32/4 31/31/4 32/34/4
f 33/35/8 19/36/8 34/37/8
f 19/36/8 33/35/8 18/38/8
f 35/39/1 36/40/1 37/41/1
f 36/40/1 35/39/1 38/42/1
f 39/43/4 38/44/4 35/45/4
f 38/44/4 39/43/4 40/46/4
f 36/40/2 41/47/2 37/41/2
f 41/47/2 36/40/2 42/48/2
usemtl _66.002
f 9/49/9 13/50/9 12/51/9
f 13/50/9 9/49/9 14/52/9
f 11/53/1 14/52/1 9/49/1
f 14/52/1 11/53/1 15/54/1
f 11/55/3 16/56/3 15/57/3
f 16/56/3 11/55/3 10/58/3
f 10/58/10 17/59/6 16/56/7
f 17/59/6 10/58/10 18/60/1
f 10/61/10 19/62/1 18/63/1
f 19/62/1 10/61/10 12/64/1
f 19/62/1 12/64/1 20/65/1
f 20/65/1 12/64/1 21/66/1
f 13/50/1 21/67/1 12/51/1
f 22/68/1 21/67/1 13/50/1
f 21/67/1 22/68/1 23/69/1
f 27/70/1 29/71/1 20/72/1
f 29/71/1 27/70/1 30/73/1
f 33/74/1 32/75/1 31/76/1
f 32/75/1 33/74/1 34/77/1
f 33/78/5 17/59/5 18/60/5
f 17/59/5 33/78/5 31/79/5
f 29/71/11 34/77/11 19/80/11
f 34/77/11 29/71/11 32/75/11
f 20/72/1 29/71/1 19/80/1
