# Blender v2.90.0 OBJ File: ''
# www.blender.org
mtllib shower1.mtl
o shower1
v -0.815902 1.393870 -0.857848
v -0.555362 -0.000000 0.650447
v -0.815902 1.393870 0.988178
v -0.555362 0.000000 -0.650447
v 0.000000 0.000000 -1.300890
v -0.027819 1.393870 -1.780860
v -0.027819 0.543872 -0.857848
v -0.027819 0.543872 0.988178
v -0.027819 1.393870 1.911190
v 0.000000 -0.000000 1.300890
v 0.760264 1.393870 0.988178
v 0.555362 -0.000000 0.650447
v 0.760264 1.393870 -0.857848
v 0.555362 0.000000 -0.650447
vt -5.265430 8.943550
vt -5.500000 7.585610
vt -5.265430 7.281540
vt -5.500000 8.756820
vt -6.000000 9.342430
vt -5.974950 9.774550
vt -5.974950 8.943550
vt -5.974950 7.281540
vt -5.974950 6.450540
vt -6.000000 7.000000
vt -6.684480 7.281540
vt -6.500000 7.585610
vt -6.684480 8.943550
vt -6.500000 8.756820
vn -0.9830 -0.1837 -0.0000
vn -0.7397 -0.2322 -0.6316
vn 0.6215 0.5763 0.5307
vn 0.7333 0.6799 0.0000
vn 0.6215 0.5763 -0.5307
vn -0.7285 -0.2869 0.6220
vn 0.7344 -0.2599 0.6270
vn 0.9894 -0.1454 -0.0000
vn 0.7445 -0.2040 -0.6357
vn -0.6215 0.5763 0.5307
vn -0.7333 0.6799 0.0000
vn -0.6215 0.5763 -0.5307
usemtl _67.001
s 1
f 1/1/1 2/2/1 3/3/1
f 2/2/1 1/1/1 4/4/1
f 1/1/2 5/5/2 4/4/2
f 5/5/2 1/1/2 6/6/2
f 6/6/3 1/1/3 7/7/3
f 3/3/4 7/7/4 1/1/4
f 7/7/4 3/3/4 8/8/4
f 3/3/5 9/9/5 8/8/5
f 3/3/6 10/10/6 9/9/6
f 10/10/6 3/3/6 2/2/6
f 10/10/7 11/11/7 9/9/7
f 11/11/7 10/10/7 12/12/7
f 12/12/8 13/13/8 11/11/8
f 13/13/8 12/12/8 14/14/8
f 5/5/9 13/13/9 14/14/9
f 13/13/9 5/5/9 6/6/9
f 6/6/10 7/7/10 13/13/10
f 8/8/11 13/13/11 7/7/11
f 13/13/11 8/8/11 11/11/11
f 8/8/12 9/9/12 11/11/12
