# Blender v2.90.0 OBJ File: ''
# www.blender.org
mtllib statue1.mtl
o statue1
v -0.000000 4.490000 0.000001
v -1.105000 2.220000 1.105000
v 1.105000 2.220000 1.105000
v -1.105000 2.220000 -1.105000
v -1.105000 -0.000000 1.105000
v -1.105000 0.000000 -1.105000
v 1.105000 0.000000 -1.105000
v 1.105000 2.220000 -1.105000
v 1.105000 -0.000000 1.105000
vt -20.500000 2.146910
vt -21.000000 1.004520
vt -20.000000 1.004520
vt -22.000000 1.004520
vt -21.500000 2.146910
vt -21.000000 0.000000
vt -22.000000 0.000000
vt -23.000000 0.000000
vt -23.000000 1.004520
vt -22.500000 2.146910
vt -23.500000 2.146910
vt -24.000000 1.004530
vt -24.000000 0.000000
vt -20.000000 -0.000000
vn 0.0000 0.4377 0.8991
vn -0.8991 0.4377 0.0000
vn -1.0000 -0.0000 0.0000
vn 0.0000 0.0000 -1.0000
vn 0.0000 0.4377 -0.8991
vn 0.8991 0.4377 0.0000
vn 1.0000 0.0000 0.0000
vn 0.0000 -0.0000 1.0000
usemtl _55
s 1
f 1/1/1 2/2/1 3/3/1
f 4/4/2 2/2/2 1/5/2
f 4/4/3 5/6/3 2/2/3
f 5/6/3 4/4/3 6/7/3
f 4/4/4 7/8/4 6/7/4
f 7/8/4 4/4/4 8/9/4
f 1/10/5 8/9/5 4/4/5
f 8/9/6 1/11/6 3/12/6
f 3/12/7 7/8/7 8/9/7
f 7/8/7 3/12/7 9/13/7
f 3/3/8 5/6/8 9/14/8
f 5/6/8 3/3/8 2/2/8
