# Blender v2.90.0 OBJ File: ''
# www.blender.org
mtllib streetlight.mtl
o streetlight
v 0.610000 9.780000 0.597560
v -0.425000 -0.000000 0.000000
v 0.610000 -0.000000 0.597558
v -0.425000 9.780000 0.000002
v 0.610000 0.000000 -0.597558
v 0.610000 9.780000 -0.597556
v 1.121620 10.220800 2.380922
v 0.011110 12.023299 3.144152
v 0.116834 10.220799 4.487502
v -1.205120 10.220800 2.564042
v -0.425000 12.288500 1.870992
v 0.610000 9.780000 -0.597556
v -0.425000 9.780000 0.000002
v 0.230000 12.321000 1.838452
v 0.610000 9.780000 0.597560
v 0.040000 11.766000 2.013522
v 0.055000 11.473199 5.785652
v 0.116834 10.220801 -4.487499
v 0.011110 12.023301 -3.144148
v 1.121620 10.220800 -2.380918
v -1.205120 10.220800 -2.564038
v 0.610000 9.780000 0.597560
v -0.425000 12.288500 -1.870988
v 0.230000 12.321000 -1.838448
v 0.610000 9.780000 -0.597556
v 0.040000 11.766000 -2.013518
v 0.055000 11.473201 -5.785648
vt 0.000000 8.183310
vt 0.500000 0.000000
vt 0.000000 0.000000
vt 0.500000 8.183310
vt 1.000000 0.000000
vt 1.000000 8.183310
vt 0.165322 4.287560
vt 0.999999 6.278320
vt 0.165322 5.796420
vt 0.693548 4.313800
vt 0.999999 5.314520
vt 0.540322 4.172610
vt 0.552419 1.130570
vt 0.999999 6.278320
vt 0.165322 4.287560
vt 0.693548 4.313800
vt 0.999999 5.314520
vt 0.540322 4.172610
vt 0.552419 1.130570
vt 34.673801 -10.548800
vt 34.782101 -10.370300
vt 34.782101 -10.483200
vt 34.890400 -10.548800
vt 34.782101 -10.483200
vt 34.782101 -10.370300
vt 34.673801 -10.548800
vt 34.890400 -10.548800
vn -0.5000 -0.0000 0.8660
vn -0.5000 0.0000 -0.8660
vn 1.0000 0.0000 0.0000
vn -0.4200 0.5426 -0.7275
vn -0.0700 0.6849 -0.7253
vn 0.9890 0.1479 0.0000
vn 0.8461 -0.1263 0.5178
vn 0.9428 -0.3321 -0.0295
vn -0.0381 0.9773 0.2082
vn -0.7394 -0.6715 -0.0492
vn -0.6761 -0.4405 0.5906
vn -0.3979 -0.6056 0.6892
vn -0.4200 0.5426 0.7275
vn -0.0700 0.6849 0.7253
vn 0.8461 -0.1263 -0.5178
vn 0.9428 -0.3321 0.0295
vn -0.7394 -0.6715 0.0492
vn -0.6761 -0.4405 -0.5906
vn -0.3979 -0.6056 -0.6892
vn -0.0381 0.9773 -0.2082
vn 0.8455 0.3501 0.4033
vn -0.0735 0.3501 -0.9338
vn -0.0000 -1.0000 0.0000
vn -0.7720 0.3501 0.5306
vn 0.8455 0.3501 -0.4033
vn -0.7720 0.3501 -0.5306
vn -0.0735 0.3501 0.9338
usemtl _21
s 1
f 1/1/1 2/2/1 3/3/1
f 2/2/1 1/1/1 4/4/1
f 4/4/2 5/5/2 2/2/2
f 5/5/2 4/4/2 6/6/2
f 1/1/3 5/5/3 6/6/3
f 5/5/3 1/1/3 3/3/3
f 11/7/4 12/8/4 13/9/4
f 14/10/5 12/8/5 11/7/5
f 12/8/6 14/10/6 15/11/6
f 15/11/7 14/10/7 16/12/7
f 14/10/8 17/13/8 16/12/8
f 14/10/9 11/7/9 17/13/9
f 11/7/10 16/12/10 17/13/10
f 13/9/11 16/12/11 11/7/11
f 16/12/12 13/9/12 15/11/12
f 13/9/13 22/14/13 23/15/13
f 23/15/14 22/14/14 24/16/14
f 25/17/6 24/16/6 22/14/6
f 26/18/15 24/16/15 25/17/15
f 26/18/16 27/19/16 24/16/16
f 27/19/17 26/18/17 23/15/17
f 23/15/18 26/18/18 13/9/18
f 25/17/19 13/9/19 26/18/19
f 27/19/20 23/15/20 24/16/20
usemtl _19
f 7/20/21 8/21/21 9/22/21
f 8/21/22 7/20/22 10/23/22
f 7/20/23 9/22/23 10/23/23
f 8/21/24 10/23/24 9/22/24
f 18/24/25 19/25/25 20/26/25
f 18/24/26 21/27/26 19/25/26
f 21/27/23 18/24/23 20/26/23
f 21/27/27 20/26/27 19/25/27
