# Blender v2.90.0 OBJ File: ''
# www.blender.org
mtllib trash1.mtl
o trash1
v 0.000000 1.912600 -0.836930
v -0.608065 0.000000 0.000000
v -0.608065 1.912600 0.000000
v 0.000000 0.000000 -0.836930
v 0.983870 0.000000 -0.517251
v 0.983870 1.912600 -0.517251
v 0.983870 1.912600 0.517251
v 0.000000 1.912600 0.836930
v 0.000000 -0.000000 0.836930
v 0.983870 -0.000000 0.517251
vt -52.000000 1.848810
vt -51.000000 -0.000000
vt -51.000000 1.848810
vt -52.000000 -0.000000
vt -53.000000 -0.000000
vt -53.000000 1.848810
vt -56.000000 1.848810
vt -55.000000 0.000000
vt -55.000000 1.848810
vt -56.000000 0.000000
vt -54.000000 1.848810
vt -54.000000 -0.000000
vt -480.006012 -146.149002
vt -480.653015 -145.938995
vt -480.006012 -146.830002
vt -480.653015 -147.039993
vt -481.053009 -146.488998
vn -0.8090 0.0000 -0.5878
vn 0.3090 0.0000 -0.9511
vn -0.8090 -0.0000 0.5878
vn 0.3090 -0.0000 0.9511
vn 1.0000 0.0000 0.0000
vn -0.0000 1.0000 0.0000
usemtl _36
s 1
f 1/1/1 2/2/1 3/3/1
f 2/2/1 1/1/1 4/4/1
f 1/1/2 5/5/2 4/4/2
f 5/5/2 1/1/2 6/6/2
f 3/7/3 9/8/3 8/9/3
f 9/8/3 3/7/3 2/10/3
f 9/8/4 7/11/4 8/9/4
f 7/11/4 9/8/4 10/12/4
f 5/5/5 7/11/5 10/12/5
f 7/11/5 5/5/5 6/6/5
usemtl _57
f 6/13/6 1/14/6 7/15/6
f 7/15/6 1/14/6 8/16/6
f 1/14/6 3/17/6 8/16/6
