# Blender v2.90.0 OBJ File: ''
# www.blender.org
mtllib wc1.mtl
o wc1
v -0.261555 1.125000 -0.472500
v -0.186210 0.000000 -0.996822
v -0.111722 0.000000 -0.722328
v -0.423205 1.125000 -1.068190
v 0.000000 0.665000 -0.903544
v 0.261555 1.125000 -0.472500
v 0.423205 1.125000 -1.068190
v 0.129327 0.000000 -0.722328
v 0.203816 0.000000 -0.996822
v 0.008803 0.000000 -1.166470
v 0.000000 1.125000 -1.436340
v -0.423205 2.100000 0.000000
v 0.423205 2.100000 -0.472500
v -0.423205 2.100000 -0.472500
v 0.423205 2.100000 0.000000
v 0.261555 1.050000 0.000000
v 0.261555 1.050000 -0.472500
v 0.423205 0.000000 -0.000000
v 0.423205 0.000000 -0.472500
v -0.261555 1.050000 -0.472500
v -0.423205 0.000000 -0.472500
v -0.261555 1.050000 0.000000
v -0.423205 0.000000 -0.000000
vt -2.560950 2.045350
vt -1.902570 1.000000
vt -2.247250 1.000000
vt -1.812960 2.045350
vt -382.191010 -28.000000
vt -382.500000 -28.509300
vt -382.000000 -28.703800
vt -382.808990 -28.000000
vt -383.000000 -28.703800
vt -2.247250 1.000000
vt -1.812960 2.045350
vt -2.560950 2.045350
vt -1.902570 1.000000
vt -1.689550 1.000000
vt -1.350670 2.045350
vt -382.500000 -29.138700
vt -382.000000 -27.441799
vt -383.000000 -28.000000
vt -382.000000 -28.000000
vt -383.000000 -27.441799
vt -382.808990 -27.441799
vt -382.808990 -28.000000
vt -383.000000 -27.441799
vt -383.000000 -28.000000
vt -382.191010 -28.000000
vt -382.000000 -28.000000
vt -382.191010 -27.441799
vt -382.000000 -27.441799
vn -0.8428 -0.4268 0.3279
vn 0.4155 0.8951 -0.1616
vn 0.0000 0.8634 -0.5046
vn -0.4155 0.8951 -0.1616
vn 0.8550 -0.3980 0.3326
vn 0.4875 -0.3420 -0.8034
vn -0.4841 -0.3594 -0.7978
vn 0.2511 0.8751 0.4137
vn -0.2511 0.8751 0.4137
vn 0.0000 1.0000 0.0000
vn 0.9884 -0.1522 0.0000
vn 0.9884 0.1522 0.0000
vn 0.0000 0.0000 -1.0000
vn -0.9884 0.1522 0.0000
vn -0.9884 -0.1522 -0.0000
usemtl _54
s 1
f 1/1/1 2/2/1 3/3/1
f 2/2/1 1/1/1 4/4/1
f 1/5/2 5/6/2 4/7/2
f 6/8/3 5/6/3 1/5/3
f 6/8/4 7/9/4 5/6/4
f 8/10/5 7/11/5 6/12/5
f 7/11/5 8/10/5 9/13/5
f 10/14/6 7/11/6 9/13/6
f 7/11/6 10/14/6 11/15/6
f 2/2/7 11/15/7 10/14/7
f 11/15/7 2/2/7 4/4/7
f 5/6/8 11/16/8 4/7/8
f 5/6/9 7/9/9 11/16/9
f 12/17/10 13/18/10 14/19/10
f 13/18/10 12/17/10 15/20/10
f 16/21/11 13/18/11 15/20/11
f 13/18/11 16/21/11 17/22/11
f 18/23/12 17/22/12 16/21/12
f 17/22/12 18/23/12 19/24/12
f 19/24/13 20/25/13 17/22/13
f 20/25/13 19/24/13 21/26/13
f 21/26/14 22/27/14 20/25/14
f 22/27/14 21/26/14 23/28/14
f 12/17/15 20/25/15 22/27/15
f 20/25/15 12/17/15 14/19/15
f 13/18/13 20/25/13 14/19/13
f 20/25/13 13/18/13 17/22/13
