# Blender v2.90.0 OBJ File: ''
# www.blender.org
mtllib barel1.mtl
o barel1
v -0.023030 0.123200 0.026505
v -0.023030 0.123200 -0.029439
v -0.039179 0.123200 -0.001467
v 0.009270 0.123200 0.026505
v -0.032021 0.061600 0.042078
v 0.018261 0.061600 0.042078
v -0.023030 -0.000000 0.026505
v 0.009270 -0.000000 0.026505
v 0.043402 0.061600 -0.001467
v 0.025420 0.000000 -0.001467
v 0.009270 0.000000 -0.029439
v 0.018261 0.061600 -0.045012
v -0.032021 0.061600 -0.045012
v -0.023030 0.000000 -0.029439
v -0.039179 0.000000 -0.001467
v -0.057161 0.061600 -0.001467
v 0.009270 0.123200 -0.029439
v 0.025420 0.123200 -0.001467
vt 118.245003 -11.953700
vt 118.245003 -11.050500
vt 117.985001 -11.502100
vt 118.766998 -11.953700
vt 118.766998 -11.050500
vt 119.028000 -11.502100
vt 116.108002 0.497684
vt 116.775002 0.995368
vt 116.252998 0.995368
vt 116.919998 0.497684
vt 116.252998 0.000000
vt 116.775002 0.000000
vt 117.327003 0.497684
vt 117.036003 0.000000
vt 116.775002 0.000000
vt 116.919998 0.497684
vt 116.108002 0.497684
vt 116.252998 0.000000
vt 115.991997 0.000000
vt 115.702003 0.497684
vt 115.991997 0.995368
vt 116.252998 0.995368
vt 116.775002 0.995368
vt 117.036003 0.995368
vn 0.0000 1.0000 0.0000
vn 0.0000 0.2451 0.9695
vn 0.0000 -0.2451 0.9695
vn 0.8396 -0.2451 0.4847
vn 0.8396 -0.2451 -0.4847
vn 0.0000 -0.2451 -0.9695
vn -0.8396 -0.2451 -0.4847
vn -0.8396 -0.2451 0.4847
vn -0.8396 -0.2451 0.4848
vn -0.8396 0.2451 0.4847
vn -0.8396 0.2451 0.4848
vn -0.8396 0.2451 -0.4847
vn -0.8396 0.2451 -0.4848
vn 0.0000 0.2451 -0.9695
vn 0.8396 0.2451 0.4847
vn 0.8396 0.2451 -0.4847
usemtl _179
s 1
f 1/1/1 2/2/1 3/3/1
f 2/2/1 1/1/1 4/4/1
f 2/2/1 4/4/1 17/5/1
f 17/5/1 4/4/1 18/6/1
usemtl _178
f 5/7/2 4/8/2 1/9/2
f 4/8/2 5/7/2 6/10/2
f 7/11/3 6/10/3 5/7/3
f 6/10/3 7/11/3 8/12/3
f 8/12/4 9/13/4 6/10/4
f 9/13/4 8/12/4 10/14/4
f 11/15/5 9/13/5 10/14/5
f 9/13/5 11/15/5 12/16/5
f 11/15/6 13/17/6 12/16/6
f 13/17/6 11/15/6 14/18/6
f 15/19/7 13/17/7 14/18/7
f 13/17/7 15/19/7 16/20/7
f 7/11/8 16/20/8 15/19/8
f 16/20/9 7/11/9 5/7/9
f 1/9/10 16/20/10 5/7/11
f 16/20/10 1/9/10 3/21/10
f 2/22/12 16/20/12 3/21/12
f 16/20/12 2/22/12 13/17/13
f 2/22/14 12/16/14 13/17/14
f 12/16/14 2/22/14 17/23/14
f 4/8/15 9/13/15 18/24/15
f 9/13/15 4/8/15 6/10/15
f 9/13/16 17/23/16 18/24/16
f 17/23/16 9/13/16 12/16/16
