# Blender v2.90.0 OBJ File: ''
# www.blender.org
mtllib beachgrass.mtl
o beachgrass
v -0.684285 -0.170000 0.447589
v -1.263870 0.060000 -3.023040
v -2.685470 -0.170000 -0.978814
v 1.947860 -0.080000 -1.633320
v 2.044150 -0.134274 -3.706840
v -1.659490 -0.189999 -5.178200
v -2.291010 0.060300 -4.240950
v -3.508150 0.060599 -4.088860
v -4.090340 -0.208297 -5.120080
v -5.433720 0.180600 -4.921940
v -7.921180 -0.199999 -6.702270
v -0.378091 -0.042858 2.086390
v -2.528760 -0.044700 -1.789220
v -2.958970 -0.086658 -1.556720
v -4.953650 -0.149401 -1.205400
v 8.247650 0.926218 -4.424400
v 6.432270 0.822474 -5.254680
v 7.063140 1.046350 -2.463100
v 4.909450 0.796779 -1.718970
v 4.186040 0.696780 -4.099850
v 5.353590 0.416780 -5.337610
v 4.244710 0.023390 -5.119570
v 9.216830 1.405921 -3.567230
v 9.957740 0.926708 -5.106520
v 11.674200 1.345921 -5.977630
v 10.909500 1.009681 -6.423570
v 11.775200 1.391351 -7.663430
v 10.231000 0.937006 -8.922560
v 10.286300 1.226782 -9.249240
v 8.171910 1.362181 -9.106150
v 8.194570 0.937189 -8.265890
v 6.068850 0.750034 -6.534610
v 5.387620 0.882182 -8.073920
v 4.103340 0.262182 -7.481690
v 4.082950 0.040521 -5.778990
v 2.624580 0.230001 -6.801210
v 2.540020 -0.259999 -5.405900
v -0.460504 0.000001 -6.364760
v 1.410250 0.340001 -8.040600
v -0.577724 -0.249999 -8.953060
v 2.832520 0.400002 -9.569890
v 3.272700 0.180002 -11.189300
v 7.170880 1.010002 -13.147500
v -0.998742 -0.149999 -5.856890
v 2.096790 0.001349 3.779850
v 1.547330 -0.055097 3.331370
v 1.401880 0.176710 5.487710
v 0.575265 0.136531 5.694690
v 1.075180 0.380002 -11.197900
v -2.466220 0.270002 -10.531200
v -0.840816 -0.119998 -10.015800
v 1.268040 -0.007679 -10.549900
v 2.621450 0.170002 -11.720800
v 4.910180 0.780002 -13.854600
v -4.202770 -0.249999 -5.815380
v -5.244140 -0.069999 -6.545660
v -7.921180 -0.204999 -7.229160
v -3.607080 0.280001 -6.940850
v -1.720710 -0.189999 -6.491530
v -3.420710 0.280001 -8.837340
v -2.260710 -0.239999 -8.837340
v -6.024420 1.075430 -1.514030
v -8.384840 0.753805 -0.569765
v -8.156610 0.399132 1.818410
v -10.295100 0.346436 1.353880
v -4.953650 0.981736 -0.925397
v -2.923450 1.013230 -2.819040
v -3.508150 0.990600 -4.088860
v -2.301230 0.661282 -4.479810
v -0.934091 0.620981 -3.011900
v -1.528760 0.715868 -2.229220
v -2.762030 0.816723 -1.490670
v -5.433720 0.811737 -4.921940
v 7.453260 1.549181 -2.698700
v 5.887920 1.310720 -2.014070
v 6.775180 1.341850 -1.461130
v 5.413450 1.308800 -1.920010
v 5.631890 1.447340 -1.559760
v 4.909450 0.300000 -1.718970
v 4.288670 0.000000 -1.301600
v 2.571570 -0.010000 -0.348886
v 3.091910 -0.229999 -3.953880
vt -8.209120 40.979599
vt -11.724900 39.348598
vt -9.170660 38.604099
vt -11.135800 42.860401
vt -13.359400 42.289799
vt -13.901400 38.257301
vt -12.733100 37.975498
vt -12.237700 36.853802
vt -13.172400 35.937099
vt -12.590500 34.752399
vt -13.796500 31.754400
vt -6.556050 41.807598
vt -10.071300 38.512001
vt -9.707130 38.167400
vt -8.787620 36.354401
vt -15.814900 48.144699
vt -16.196800 46.125000
vt -13.410900 47.641201
vt -12.033000 45.778702
vt -14.357400 44.317699
vt -15.991600 45.016102
vt -15.459200 43.974998
vt -15.169200 49.402000
vt -17.007200 49.572399
vt -18.398199 50.993401
vt -18.663200 50.079201
vt -20.211500 50.561401
vt -21.124901 48.626900
vt -21.483900 48.609200
vt -20.750601 46.637402
vt -19.870001 46.877602
vt -17.453501 45.361900
vt -18.896099 44.234200
vt -17.920900 43.117500
vt -16.113199 43.612499
vt -16.794100 41.908199
vt -15.296600 42.213799
vt -15.486300 39.055099
vt -17.772800 40.360600
vt -18.198099 38.094101
vt -19.783100 41.249802
vt -21.621300 41.134998
vt -24.759800 44.354900
vt -14.801600 38.681801
vt -5.441330 44.728100
vt -5.765990 44.051498
vt -3.439790 44.621101
vt -2.993800 43.887600
vt -21.025299 39.042500
vt -19.347200 35.837399
vt -19.250700 37.519100
vt -20.394800 39.389599
vt -22.005600 40.339401
vt -24.889900 41.931900
vt -13.878500 35.604000
vt -14.364700 34.391899
vt -14.354700 31.586901
vt -15.230200 35.879601
vt -15.276000 37.782200
vt -17.290600 35.457802
vt -17.613300 36.514198
vt -8.810850 35.365398
vt -7.164770 33.359501
vt -4.700200 34.295700
vt -4.605430 32.087002
vt -8.482060 36.570599
vt -11.045500 37.925499
vt -12.230400 36.958500
vt -12.978600 37.957699
vt -11.799300 39.732399
vt -10.806000 39.419498
vt -9.684110 38.479500
vt -12.585500 34.823502
vt -13.763600 47.998199
vt -12.610300 46.683601
vt -12.267900 47.715199
vt -12.380400 46.257198
vt -12.057600 46.596901
vt -12.036900 45.722801
vt -11.426600 45.224499
vt -9.945830 43.874802
vt -13.909600 43.207802
vn -0.0534 0.9958 0.0749
vn 0.0160 0.9979 0.0634
vn 0.0537 0.9983 -0.0236
vn 0.0332 0.9921 -0.1212
vn 0.1717 0.9745 -0.1446
vn -0.0347 0.9595 -0.2796
vn -0.0132 0.9693 -0.2453
vn 0.2109 0.9102 -0.3564
vn 0.1870 0.8742 -0.4481
vn -0.0828 0.9947 -0.0617
vn 0.0824 0.9824 0.1678
vn -0.0154 0.9886 0.1499
vn -0.0055 0.9894 0.1453
vn -0.0228 0.9969 -0.0748
vn -0.1319 0.9900 -0.0496
vn -0.0669 0.9975 -0.0216
vn -0.2821 0.8436 -0.4570
vn -0.3744 0.7637 -0.5259
vn -0.2694 0.9375 -0.2201
vn -0.1423 0.9236 -0.3560
vn -0.4201 0.7893 -0.4479
vn -0.3133 0.9348 -0.1675
vn -0.4028 0.9153 0.0005
vn -0.3276 0.9428 0.0615
vn -0.5844 0.6536 0.4809
vn 0.0925 0.7371 0.6695
vn 0.1431 0.8847 0.4436
vn 0.2730 0.8614 0.4283
vn -0.1188 0.9834 0.1370
vn -0.3364 0.9139 0.2273
vn -0.2932 0.9485 0.1200
vn 0.0380 0.9909 0.1294
vn -0.1048 0.9403 0.3239
vn -0.0237 0.9437 0.3300
vn -0.0538 0.9886 0.1405
vn -0.2488 0.9651 -0.0819
vn -0.2127 0.9639 -0.1600
vn -0.2167 0.9578 -0.1890
vn -0.3028 0.9299 -0.2086
vn -0.3333 0.9398 -0.0757
vn -0.0055 0.9606 0.2778
vn -0.0141 0.9941 -0.1078
vn -0.0761 0.9908 -0.1116
vn 0.0615 0.8796 0.4717
vn 0.0791 0.8657 0.4944
vn 0.2643 0.8603 0.4360
vn 0.2892 0.7926 0.5368
vn -0.1574 0.8830 0.4421
vn -0.1056 0.9200 0.3774
vn 0.1066 0.8766 0.4692
vn 0.2365 0.9714 0.0232
vn 0.4064 0.9067 -0.1129
vn -0.0729 0.9855 0.1533
vn -0.0573 0.9867 0.1520
vn -0.0175 0.9820 0.1881
vn 0.0491 0.9964 0.0692
vn 0.0105 0.9997 -0.0227
vn 0.2247 0.9669 -0.1207
vn 0.1785 0.9740 -0.1395
vn 0.1962 0.9801 0.0302
vn 0.1556 0.9797 0.1260
vn 0.1084 0.9852 0.1326
vn -0.0550 0.9947 -0.0865
vn -0.1028 0.9887 0.1093
vn -0.0115 0.9992 -0.0378
vn 0.1192 0.9004 -0.4185
vn -0.4294 0.9031 0.0105
vn -0.0024 1.0000 0.0062
vn -0.3114 0.9447 -0.1026
usemtl grass1.001
s 1
f 1/1/1 2/2/1 3/3/1
f 4/4/2 2/2/2 1/1/2
f 5/5/3 2/2/3 4/4/3
f 5/5/4 6/6/4 2/2/4
f 2/2/5 6/6/5 7/7/5
f 6/6/6 8/8/6 7/7/6
f 6/6/7 9/9/7 8/8/7
f 8/8/8 9/9/8 10/10/8
f 9/9/9 11/11/9 10/10/9
f 4/4/10 1/1/10 12/12/10
f 2/2/11 13/13/11 3/3/11
f 13/13/12 14/14/12 3/3/12
f 3/3/13 14/14/13 15/15/13
f 16/16/14 17/17/14 18/18/14
f 18/18/15 17/17/15 19/19/15
f 17/17/16 20/20/16 19/19/16
f 17/17/17 21/21/17 20/20/17
f 21/21/18 22/22/18 20/20/18
f 23/23/19 16/16/19 18/18/19
f 24/24/20 16/16/20 23/23/20
f 25/25/21 24/24/21 23/23/21
f 25/25/22 26/26/22 24/24/22
f 27/27/23 26/26/23 25/25/23
f 27/27/24 28/28/24 26/26/24
f 27/27/25 29/29/25 28/28/25
f 29/29/26 30/30/26 28/28/26
f 28/28/27 30/30/27 31/31/27
f 31/31/28 30/30/28 32/32/28
f 30/30/29 33/33/29 32/32/29
f 32/32/30 33/33/30 34/34/30
f 32/32/31 34/34/31 35/35/31
f 34/34/32 36/36/32 35/35/32
f 35/35/33 36/36/33 37/37/33
f 36/36/34 38/38/34 37/37/34
f 36/36/35 39/39/35 38/38/35
f 39/39/36 40/40/36 38/38/36
f 41/41/37 40/40/37 39/39/37
f 42/42/38 40/40/38 41/41/38
f 43/43/39 42/42/39 41/41/39
f 38/38/40 40/40/40 44/44/40
f 37/37/41 38/38/41 44/44/41
f 45/45/42 46/46/42 47/47/42
f 46/46/43 48/48/43 47/47/43
f 49/49/44 50/50/44 51/51/44
f 52/52/45 49/49/45 51/51/45
f 53/53/46 49/49/46 52/52/46
f 54/54/47 49/49/47 53/53/47
f 55/55/48 56/56/48 57/57/48
f 58/58/49 56/56/49 55/55/49
f 59/59/50 58/58/50 55/55/50
f 59/59/51 60/60/51 58/58/51
f 59/59/52 61/61/52 60/60/52
f 62/62/53 63/63/53 64/64/53
f 64/64/54 63/63/54 65/65/54
f 66/66/55 62/62/55 64/64/55
f 67/67/56 62/62/56 66/66/56
f 67/67/57 68/68/57 62/62/57
f 69/69/58 68/68/58 67/67/58
f 70/70/59 69/69/59 67/67/59
f 70/70/60 67/67/60 71/71/60
f 71/71/61 67/67/61 72/72/61
f 72/72/62 67/67/62 66/66/62
f 68/68/63 73/73/63 62/62/63
f 74/74/64 75/75/64 76/76/64
f 76/76/65 75/75/65 77/77/65
f 76/76/66 77/77/66 78/78/66
f 79/79/67 22/22/67 80/80/67
f 80/80/68 22/22/68 81/81/68
f 22/22/69 82/82/69 81/81/69
