# Blender v2.90.0 OBJ File: ''
# www.blender.org
mtllib bed2.mtl
o bed2
v -0.038712 0.032100 -0.045372
v -0.041113 0.032100 0.040604
v 0.003963 0.022269 -0.044180
v 0.001562 0.022268 0.041796
v 0.044237 0.047832 0.042988
v 0.010470 0.065937 0.085066
v -0.009748 0.065937 0.084502
v 0.046638 0.047832 -0.042988
v 0.015622 0.065937 -0.086876
v -0.004596 0.065937 -0.087440
v -0.000000 -0.000000 0.097706
v -0.009748 0.097678 0.084502
v -0.009748 -0.000000 0.084501
v -0.000000 0.097678 0.097706
v 0.010470 0.097678 0.085066
v 0.010470 -0.000000 0.085066
v 0.005874 0.000000 -0.100081
v 0.015622 0.097678 -0.086876
v 0.015622 0.000000 -0.086876
v 0.005874 0.097678 -0.100081
v -0.004596 0.097678 -0.087440
v -0.004596 0.000000 -0.087440
vt 31.712400 -10.266700
vt 34.579300 -10.266700
vt 31.712400 -8.843670
vt 34.579300 -8.843670
vt 34.579300 -7.420620
vt 36.012798 -8.506560
vt 36.012798 -9.180790
vt 31.712400 -7.420620
vt 30.278900 -8.494920
vt 30.278900 -9.169150
vt 14.500000 -5.906730
vt 15.000000 -1.000000
vt 15.000000 -5.906730
vt 14.500000 -1.000000
vt 14.000000 -1.000000
vt 14.000000 -5.906730
vt 14.500000 -5.906730
vt 15.000000 -1.000000
vt 15.000000 -5.906730
vt 14.500000 -1.000000
vt 14.000000 -1.000000
vt 14.000000 -5.906730
vn 0.2243 0.9745 0.0063
vn -0.5135 0.8579 -0.0143
vn -0.3940 0.6862 -0.6114
vn 0.0199 0.7017 -0.7122
vn 0.1828 0.7112 -0.6788
vn -0.4283 0.6876 0.5863
vn -0.0199 0.7017 0.7122
vn 0.1445 0.7105 0.6887
vn -0.9306 -0.0000 0.3661
vn 0.9087 -0.0000 0.4175
vn 0.0279 0.0000 -0.9996
vn 0.0000 1.0000 0.0000
vn 0.9306 0.0000 -0.3661
vn -0.9087 0.0000 -0.4175
vn -0.0279 -0.0000 0.9996
usemtl ds__Material
s 1
f 1/1/1 2/2/1 3/3/1
f 4/4/1 3/3/1 2/2/1
f 4/4/2 5/5/2 3/3/2
f 4/4/3 6/6/3 5/5/3
f 4/4/4 7/7/4 6/6/4
f 2/2/5 7/7/5 4/4/5
f 8/8/2 3/3/2 5/5/2
f 9/9/6 3/3/6 8/8/6
f 3/3/7 9/9/7 10/10/7
f 10/10/8 1/1/8 3/3/8
usemtl _130
f 11/11/9 12/12/9 13/13/9
f 12/12/9 11/11/9 14/14/9
f 11/11/10 15/15/10 14/14/10
f 15/15/10 11/11/10 16/16/10
f 13/13/11 15/15/11 16/16/11
f 15/15/11 13/13/11 12/12/11
f 12/12/12 14/14/12 15/15/12
f 17/17/13 18/18/13 19/19/13
f 18/18/13 17/17/13 20/20/13
f 17/17/14 21/21/14 20/20/14
f 21/21/14 17/17/14 22/22/14
f 19/19/15 21/21/15 22/22/15
f 21/21/15 19/19/15 18/18/15
f 18/18/12 20/20/12 21/21/12
