# Blender v2.90.0 OBJ File: ''
# www.blender.org
mtllib bow.mtl
o bow
v 1.068160 4.822850 -0.242679
v 1.166830 4.217120 -0.242679
v 0.969495 4.822850 -0.413581
v 1.026720 4.217120 0.000001
v 0.969495 4.822850 -0.071778
v 0.746501 4.217120 0.000001
v 0.772155 3.611390 -0.071778
v 0.606389 4.217120 -0.242679
v 0.673485 3.611390 -0.242679
v 0.746501 4.217120 -0.485359
v 0.772155 3.611390 -0.413581
v 1.026720 4.217120 -0.485359
v 0.772155 4.822850 -0.413581
v 0.673485 4.822850 -0.242679
v 0.772155 4.822850 -0.071778
v 1.068160 3.611390 -0.242679
v 0.969495 3.611390 -0.071778
v 0.969495 3.611390 -0.413581
v -0.625469 0.000000 -0.258986
v -0.557792 8.252200 -0.258985
v -0.557792 0.000000 -0.258986
v -0.625469 8.252200 -0.258985
v -0.591631 8.252200 -0.189555
v -0.591631 0.000000 -0.189556
v 0.284497 6.615720 -0.413581
v 0.969495 4.979240 -0.413581
v 0.772155 4.979240 -0.413581
v 0.481837 6.615720 -0.413581
v -0.681330 8.252200 -0.413581
v -0.483990 8.252200 -0.413581
v -0.483990 8.252200 -0.071777
v -0.681330 8.252200 -0.071777
v -0.780000 8.252200 -0.242679
v 0.185827 6.615720 -0.242679
v 0.673485 4.979240 -0.242679
v 0.673485 3.272960 -0.242679
v 0.772155 3.272960 -0.413581
v 0.969495 3.272960 -0.413581
v 1.068160 4.979240 -0.242679
v 1.068160 3.272960 -0.242679
v 0.969495 4.979240 -0.071778
v 0.969495 3.272960 -0.071778
v 0.772155 3.272960 -0.071778
v 0.772155 4.979240 -0.071778
v 0.481837 6.615720 -0.071778
v 0.284497 6.615720 -0.071778
v 0.284497 1.636480 -0.071778
v 0.185827 1.636480 -0.242680
v 0.284497 1.636480 -0.413582
v 0.481837 1.636480 -0.413582
v 0.580507 1.636480 -0.242680
v 0.481837 1.636480 -0.071778
v -0.681330 0.000000 -0.071779
v -0.483990 0.000000 -0.071779
v -0.483990 0.000000 -0.413582
v -0.681330 0.000000 -0.413582
v -0.780000 0.000000 -0.242680
v -0.385320 0.000000 -0.242680
v 0.580507 6.615720 -0.242679
v -0.385320 8.252200 -0.242679
v -0.660650 0.079629 -0.055769
v -0.432192 0.079629 -0.055769
v -0.609732 0.168105 -0.012246
v -0.317963 0.079629 -0.238948
v -0.774879 0.079629 -0.238948
v -0.432192 0.079629 -0.422127
v -0.335857 0.168105 -0.451436
v -0.609732 0.168105 -0.451436
v -0.660650 0.079629 -0.422127
v -0.746670 0.168105 -0.231841
v -0.548000 0.336210 -0.451436
v -0.684937 0.336210 -0.231841
v -0.601414 0.415838 -0.238948
v -0.487185 0.415838 -0.055769
v -0.548000 0.336210 -0.012246
v -0.274124 0.336210 -0.012246
v -0.335857 0.168105 -0.012246
v -0.198919 0.168105 -0.231841
v -0.137187 0.336210 -0.231841
v -0.274124 0.336210 -0.451436
v -0.144498 0.415838 -0.238948
v -0.258727 0.415838 -0.422127
v -0.487185 0.415838 -0.422127
v -0.258727 0.415838 -0.055769
v -0.285016 7.920410 -0.015939
v -0.462556 7.831940 -0.059462
v -0.234098 7.831940 -0.059462
v -0.558891 7.920410 -0.015939
v -0.346748 8.088520 -0.015939
v -0.620624 8.088520 -0.015939
v -0.407563 8.168150 -0.059462
v -0.636021 8.168150 -0.059462
v -0.293334 8.168150 -0.242641
v -0.750250 8.168150 -0.242641
v -0.636021 8.168150 -0.425820
v -0.407563 8.168150 -0.425820
v -0.346748 8.088520 -0.455129
v -0.209811 8.088520 -0.235534
v -0.148078 7.920410 -0.235534
v -0.119869 7.831940 -0.242641
v -0.576785 7.831940 -0.242641
v -0.695829 7.920410 -0.235534
v -0.757561 8.088520 -0.235534
v -0.620624 8.088520 -0.455129
v -0.558891 7.920410 -0.455129
v -0.285016 7.920410 -0.455129
v -0.234098 7.831940 -0.425820
v -0.462556 7.831940 -0.425820
vt 393.500000 4.396760
vt 393.500000 3.069240
vt 393.851990 4.396760
vt 393.000000 3.069240
vt 393.148010 4.396760
vt 393.000000 3.069240
vt 393.148010 1.741720
vt 393.500000 3.069240
vt 393.500000 1.741720
vt 394.000000 3.069240
vt 393.851990 1.741720
vt 394.000000 3.069240
vt 393.851990 4.396760
vt 393.500000 4.396760
vt 393.148010 4.396760
vt 393.500000 1.741720
vt 393.148010 1.741720
vt 393.851990 1.741720
vt 393.122986 10.991500
vt 393.122986 10.991500
vt 393.032990 11.185400
vt 393.500000 10.991500
vt 393.500000 10.991500
vt 393.877014 10.991500
vt 393.937988 11.185400
vt 393.937988 11.185400
vt 393.877014 10.991500
vt 393.484985 11.185400
vt 393.937988 11.553800
vt 393.484985 11.553800
vt 393.500000 11.728300
vt 393.122986 11.728300
vt 393.032990 11.553800
vt 393.032990 11.553800
vt 393.032990 11.185400
vt 393.484985 11.185400
vt 393.484985 11.553800
vt 393.937988 11.553800
vt 393.500000 11.728300
vt 393.877014 11.728300
vt 393.877014 11.728300
vt 393.122986 11.728300
vt 393.032990 11.185400
vt 393.122986 10.991500
vt 393.122986 10.991500
vt 393.032990 11.185400
vt 393.032990 11.553800
vt 393.032990 11.553800
vt 393.122986 11.728300
vt 393.122986 11.728300
vt 393.500000 11.728300
vt 393.500000 11.728300
vt 393.877014 11.728300
vt 393.877014 11.728300
vt 393.937988 11.553800
vt 393.484985 11.553800
vt 393.484985 11.185400
vt 393.500000 10.991500
vt 393.500000 10.991500
vt 393.484985 11.185400
vt 393.484985 11.553800
vt 393.937988 11.553800
vt 393.937988 11.185400
vt 393.937988 11.185400
vt 393.877014 10.991500
vt 393.877014 10.991500
vt -1.660410 132.031998
vt -1.751790 140.210999
vt -1.751800 132.031998
vt -1.660410 140.210999
vt -1.556110 140.210999
vt -1.556120 132.031998
vt -1.451820 140.210999
vt -1.451820 132.031998
vt 5.000000 47.619701
vt 5.000000 45.073299
vt 5.000000 45.073299
vt 5.000000 47.619701
vt 5.000000 50.166100
vt 5.000000 50.166100
vt 4.000000 50.166100
vt 4.000000 50.166100
vt 4.500000 50.166100
vt 4.500000 47.619701
vt 4.500000 45.073299
vt 4.500000 42.418301
vt 5.000000 42.418301
vt 5.000000 42.418301
vt 4.500000 45.073299
vt 4.500000 42.418301
vt 4.000000 45.073299
vt 4.000000 42.418301
vt 4.000000 42.418301
vt 4.000000 45.073299
vt 4.000000 47.619701
vt 4.000000 47.619701
vt 4.000000 39.871799
vt 4.500000 39.871799
vt 5.000000 39.871799
vt 5.000000 39.871799
vt 4.500000 39.871799
vt 4.000000 39.871799
vt 4.000000 37.325401
vt 4.000000 37.325401
vt 5.000000 37.325401
vt 5.000000 37.325401
vt 4.500000 37.325401
vt 4.500000 37.325401
vt 4.500000 47.619701
vt 4.500000 50.166100
vn 0.8594 0.1237 -0.4962
vn 0.8594 0.1237 0.4962
vn -0.0000 0.1041 0.9946
vn -0.0000 -0.1041 0.9946
vn -0.8629 -0.0845 0.4982
vn -0.8629 -0.0845 -0.4982
vn -0.0000 -0.1041 -0.9946
vn 0.0000 0.1041 -0.9946
vn -0.8629 0.0845 -0.4982
vn -0.8629 0.0845 0.4982
vn 0.8594 -0.1237 -0.4962
vn 0.8594 -0.1237 0.4962
vn -0.0000 -0.6743 0.7384
vn 0.0000 -1.0000 -0.0000
vn 0.3734 -0.8980 -0.2329
vn -0.0000 -0.5238 -0.8518
vn -0.7336 0.5025 -0.4575
vn -0.7339 0.5019 -0.4577
vn -0.7342 0.5013 -0.4579
vn -0.7345 0.5007 -0.4580
vn -0.4570 0.8426 -0.2850
vn -0.4228 0.8670 0.2637
vn 0.0000 0.7122 0.7020
vn 0.0000 -0.0000 1.0000
vn 0.3513 -0.9102 0.2191
vn 0.3734 -0.8980 -0.2328
vn 0.7345 -0.5007 -0.4580
vn 0.8472 0.0569 -0.5283
vn 0.0000 1.0000 0.0000
vn -0.0000 0.5641 -0.8257
vn 0.0000 0.0000 -1.0000
vn 0.8265 0.2263 0.5154
vn 0.7345 -0.5007 0.4580
vn -0.7345 0.5007 0.4580
vn -0.7814 0.3898 0.4873
vn -0.0000 -0.6743 0.7385
vn 0.4570 0.8426 -0.2850
vn 0.4228 0.8670 0.2637
vn 0.7345 0.5007 0.4580
vn 0.7814 0.3898 0.4873
vn -0.3514 -0.9102 0.2191
vn -0.3513 -0.9102 0.2191
vn -0.7345 -0.5007 0.4580
vn -0.8265 0.2263 0.5154
vn -0.8472 0.0569 -0.5283
vn -0.0000 0.5642 -0.8257
vn 0.7345 0.5007 -0.4580
vn 0.7342 0.5013 -0.4579
vn 0.7339 0.5019 -0.4577
vn 0.7337 0.5024 -0.4575
vn -0.3734 -0.8980 -0.2329
vn -0.7345 -0.5007 -0.4580
vn -0.8989 -0.0000 0.4381
vn 0.8989 -0.0000 0.4381
vn -0.7711 -0.4551 -0.4452
vn -0.8386 -0.2499 -0.4841
vn -0.8660 0.0000 -0.5000
vn 0.8660 0.0000 -0.5000
vn 0.8660 -0.0000 0.5000
vn -0.7711 -0.4551 0.4452
vn -0.8386 -0.2499 0.4841
vn -0.8660 -0.0000 0.5000
vn -0.8386 0.2499 0.4841
vn -0.8386 0.2499 -0.4841
vn 0.8386 -0.2499 -0.4841
vn 0.8386 -0.2499 0.4841
vn -0.7711 0.4551 0.4452
vn -0.7711 0.4551 -0.4452
vn 0.7711 -0.4551 -0.4452
vn 0.7711 -0.4551 0.4452
vn 0.7711 0.4551 0.4452
vn 0.7711 0.4551 -0.4452
vn 0.8386 0.2499 -0.4841
vn 0.8386 0.2499 0.4841
usemtl _47
s 1
f 1/1/1 2/2/1 3/3/1
f 1/1/2 4/4/2 2/2/2
f 5/5/2 4/4/2 1/1/2
f 6/6/3 4/4/3 5/5/3
f 6/6/4 7/7/4 4/4/4
f 8/8/5 7/7/5 6/6/5
f 8/8/5 9/9/5 7/7/5
f 10/10/6 9/9/6 8/8/6
f 10/10/6 11/11/6 9/9/6
f 10/10/7 12/12/7 11/11/7
f 10/10/8 3/3/8 12/12/8
f 10/10/8 13/13/8 3/3/8
f 13/13/9 10/10/9 8/8/9
f 13/13/9 8/8/9 14/14/9
f 14/14/10 8/8/10 15/15/10
f 15/15/10 8/8/10 6/6/10
f 6/6/3 5/5/3 15/15/3
f 3/3/1 2/2/1 12/12/1
f 2/2/11 16/16/11 12/12/11
f 2/2/12 17/17/12 16/16/12
f 4/4/12 17/17/12 2/2/12
f 7/7/4 17/17/4 4/4/4
f 12/12/11 16/16/11 18/18/11
f 11/11/7 12/12/7 18/18/7
f 61/19/13 62/20/13 63/21/13
f 62/20/14 61/19/14 64/22/14
f 65/23/14 64/22/14 61/19/14
f 66/24/14 64/22/14 65/23/14
f 66/24/15 67/25/15 64/22/15
f 67/25/16 66/24/16 68/26/16
f 69/27/16 68/26/16 66/24/16
f 69/27/17 65/23/17 68/26/18
f 69/27/14 66/24/14 65/23/14
f 70/28/19 68/26/18 65/23/17
f 68/26/18 70/28/19 71/29/20
f 72/30/20 71/29/20 70/28/19
f 72/30/21 73/31/21 71/29/21
f 73/31/22 72/30/22 74/32/22
f 75/33/22 74/32/22 72/30/22
f 75/33/23 76/34/23 74/32/23
f 76/34/24 75/33/24 77/35/24
f 63/21/24 77/35/24 75/33/24
f 77/35/13 63/21/13 62/20/13
f 77/35/25 62/20/25 78/36/25
f 64/22/25 78/36/25 62/20/25
f 78/36/26 64/22/15 67/25/15
f 78/36/27 67/25/27 79/37/27
f 80/38/27 79/37/27 67/25/27
f 79/37/28 80/38/28 81/39/28
f 82/40/28 81/39/28 80/38/28
f 82/40/29 73/31/29 81/39/29
f 83/41/29 73/31/29 82/40/29
f 83/41/21 71/29/21 73/31/21
f 71/29/30 83/41/30 80/38/30
f 82/40/30 80/38/30 83/41/30
f 80/38/31 67/25/31 71/29/31
f 68/26/31 71/29/31 67/25/31
f 81/39/29 73/31/29 84/42/29
f 74/32/29 84/42/29 73/31/29
f 84/42/23 74/32/23 76/34/23
f 76/34/32 79/37/32 84/42/32
f 79/37/33 76/34/33 78/36/33
f 77/35/33 78/36/33 76/34/33
f 81/39/32 84/42/32 79/37/32
f 75/33/34 72/30/34 63/21/34
f 70/28/34 63/21/34 72/30/34
f 63/21/35 70/28/35 61/19/35
f 65/23/35 61/19/35 70/28/35
f 85/43/36 86/44/36 87/45/36
f 86/44/36 85/43/36 88/46/36
f 89/47/24 88/46/24 85/43/24
f 88/46/24 89/47/24 90/48/24
f 91/49/23 90/48/23 89/47/23
f 90/48/23 91/49/23 92/50/23
f 93/51/29 92/50/29 91/49/29
f 92/50/29 93/51/29 94/52/29
f 94/52/29 93/51/29 95/53/29
f 95/53/29 93/51/29 96/54/29
f 93/51/37 97/55/37 96/54/37
f 97/55/37 93/51/37 98/56/37
f 91/49/38 98/56/38 93/51/38
f 98/56/38 91/49/38 89/47/38
f 85/43/39 98/56/39 89/47/39
f 98/56/39 85/43/39 99/57/39
f 87/45/40 99/57/40 85/43/40
f 99/57/40 87/45/40 100/58/40
f 87/45/14 101/59/14 100/58/14
f 101/59/14 87/45/14 86/44/14
f 86/44/41 102/60/42 101/59/41
f 102/60/42 86/44/41 88/46/41
f 90/48/43 102/60/43 88/46/43
f 102/60/43 90/48/43 103/61/43
f 92/50/44 103/61/44 90/48/44
f 103/61/44 92/50/44 94/52/44
f 94/52/45 104/62/45 103/61/45
f 104/62/45 94/52/45 95/53/45
f 96/54/30 104/62/46 95/53/46
f 104/62/46 96/54/30 97/55/30
f 97/55/31 105/63/31 104/62/31
f 105/63/31 97/55/31 106/64/31
f 97/55/47 99/57/48 106/64/49
f 99/57/48 97/55/47 98/56/47
f 100/58/50 106/64/49 99/57/48
f 106/64/49 100/58/50 107/65/50
f 100/58/14 108/66/14 107/65/14
f 100/58/14 101/59/14 108/66/14
f 101/59/51 105/63/51 108/66/51
f 105/63/51 101/59/51 102/60/51
f 103/61/52 105/63/52 102/60/52
f 105/63/52 103/61/52 104/62/52
f 106/64/16 108/66/16 105/63/16
f 108/66/16 106/64/16 107/65/16
usemtl _3
f 19/67/31 20/68/31 21/69/31
f 20/68/31 19/67/31 22/70/31
f 19/67/53 23/71/53 22/70/53
f 23/71/53 19/67/53 24/72/53
f 24/72/54 20/73/54 23/71/54
f 20/73/54 24/72/54 21/74/54
usemtl Material4ljh
f 25/75/31 26/76/31 27/77/31
f 26/76/31 25/75/31 28/78/31
f 29/79/31 28/78/31 25/75/31
f 28/78/31 29/79/31 30/80/31
f 29/79/29 31/81/29 30/80/29
f 29/79/29 32/82/29 31/81/29
f 32/82/29 29/79/29 33/83/29
f 25/75/55 33/83/55 29/79/55
f 33/83/55 25/75/55 34/84/55
f 25/75/56 35/85/56 34/84/56
f 35/85/56 25/75/56 27/77/56
f 27/77/57 36/86/57 35/85/57
f 36/86/57 27/77/57 37/87/57
f 27/77/31 38/88/31 37/87/31
f 38/88/31 27/77/31 26/76/31
f 39/89/58 38/88/58 26/76/58
f 38/88/58 39/89/58 40/90/58
f 41/91/59 40/90/59 39/89/59
f 40/90/59 41/91/59 42/92/59
f 41/91/24 43/93/24 42/92/24
f 43/93/24 41/91/24 44/94/24
f 45/95/24 44/94/24 41/91/24
f 44/94/24 45/95/24 46/96/24
f 31/81/24 46/96/24 45/95/24
f 46/96/24 31/81/24 32/82/24
f 32/82/60 34/84/60 46/96/60
f 34/84/60 32/82/60 33/83/60
f 35/85/61 46/96/61 34/84/61
f 46/96/61 35/85/61 44/94/61
f 35/85/62 43/93/62 44/94/62
f 43/93/62 35/85/62 36/86/62
f 36/86/63 47/97/63 43/93/63
f 47/97/63 36/86/63 48/98/63
f 37/87/64 48/98/64 36/86/64
f 48/98/64 37/87/64 49/99/64
f 37/87/31 50/100/31 49/99/31
f 50/100/31 37/87/31 38/88/31
f 38/88/65 51/101/65 50/100/65
f 51/101/65 38/88/65 40/90/65
f 40/90/66 52/102/66 51/101/66
f 52/102/66 40/90/66 42/92/66
f 42/92/24 47/97/24 52/102/24
f 47/97/24 42/92/24 43/93/24
f 53/103/24 52/102/24 47/97/24
f 52/102/24 53/103/24 54/104/24
f 53/103/14 55/105/14 54/104/14
f 53/103/14 56/106/14 55/105/14
f 56/106/14 53/103/14 57/107/14
f 53/103/67 48/98/67 57/107/67
f 48/98/67 53/103/67 47/97/67
f 49/99/68 57/107/68 48/98/68
f 57/107/68 49/99/68 56/106/68
f 49/99/31 55/105/31 56/106/31
f 55/105/31 49/99/31 50/100/31
f 50/100/69 58/108/69 55/105/69
f 58/108/69 50/100/69 51/101/69
f 51/101/70 54/104/70 58/108/70
f 54/104/70 51/101/70 52/102/70
f 54/104/14 55/105/14 58/108/14
f 59/109/71 31/81/71 45/95/71
f 31/81/71 59/109/71 60/110/71
f 28/78/72 60/110/72 59/109/72
f 60/110/72 28/78/72 30/80/72
f 30/80/29 31/81/29 60/110/29
f 59/109/73 26/76/73 28/78/73
f 26/76/73 59/109/73 39/89/73
f 45/95/74 39/89/74 59/109/74
f 39/89/74 45/95/74 41/91/74
