# Blender v2.90.0 OBJ File: ''
# www.blender.org
mtllib candler1.mtl
o candler1.001
v -0.000000 0.152719 -0.024139
v -0.024139 0.152719 -0.015518
v -0.000000 0.141360 0.000000
v -0.000000 0.130000 0.000000
v -0.024139 0.152719 0.015518
v -0.000000 0.152719 0.024140
v 0.024139 0.152719 0.015518
v 0.024139 0.152719 -0.015518
v -0.024139 0.000000 -0.015518
v -0.024139 -0.000000 0.015518
v -0.000000 0.022719 0.000000
v -0.000000 -0.000000 0.024139
v 0.024139 -0.000000 0.015518
v 0.024139 0.000000 -0.015518
v -0.000000 0.000000 -0.024139
v 0.005142 0.141360 0.000000
v -0.005142 0.001447 0.005937
v 0.005142 0.001447 0.000000
v -0.005142 0.141360 0.005937
v -0.005142 0.141360 -0.005937
v -0.005142 0.001447 -0.005937
vt 1.015000 0.497706
vt 0.831338 1.011950
vt 0.500754 0.497706
vt 0.500754 0.497706
vt 0.170171 1.011950
vt -0.013487 0.497706
vt 0.170170 -0.016536
vt 0.831338 -0.016536
vt 0.831338 1.011950
vt 0.170171 1.011950
vt 0.500754 0.497706
vt -0.013487 0.497706
vt 0.170170 -0.016536
vt 0.831338 -0.016536
vt 1.015000 0.497706
vt 0.500000 1.000000
vt 1.000000 0.000000
vt 0.500000 0.000000
vt 1.000000 1.000000
vt -0.000000 1.000000
vt -0.000000 0.000000
vn 0.0586 0.9847 0.1640
vn -0.1122 -0.9427 -0.3141
vn -0.3161 -0.9487 0.0000
vn -0.1122 -0.9427 0.3141
vn 0.0586 0.9847 -0.1640
vn 0.1643 0.9864 -0.0000
vn -0.0586 0.9847 -0.1640
vn -0.1643 0.9864 0.0000
vn -0.0586 0.9847 0.1640
vn 0.1122 -0.9427 -0.3141
vn 0.3161 -0.9487 0.0000
vn 0.1122 -0.9427 0.3141
vn -0.3161 0.9487 -0.0000
vn -0.1122 0.9427 0.3141
vn 0.1122 0.9427 0.3141
vn 0.3161 0.9487 -0.0000
vn 0.1122 0.9427 -0.3141
vn -0.1122 0.9427 -0.3141
vn 0.5000 -0.0000 0.8660
vn -1.0000 -0.0000 0.0000
vn 0.5000 0.0000 -0.8660
usemtl _213.001
s 1
f 1/1/1 2/2/1 3/3/1
f 4/4/2 2/2/2 1/1/2
f 4/4/3 5/5/3 2/2/3
f 6/6/4 5/5/4 4/4/4
f 3/3/5 5/5/5 6/6/5
f 3/3/6 2/2/6 5/5/6
f 7/7/7 3/3/7 6/6/7
f 8/8/8 3/3/8 7/7/8
f 8/8/9 1/1/9 3/3/9
f 8/8/10 4/4/10 1/1/10
f 7/7/11 4/4/11 8/8/11
f 7/7/12 6/6/12 4/4/12
f 9/9/13 10/10/13 11/11/13
f 11/11/14 10/10/14 12/12/14
f 11/11/15 12/12/15 13/13/15
f 14/14/16 11/11/16 13/13/16
f 15/15/17 11/11/17 14/14/17
f 15/15/18 9/9/18 11/11/18
usemtl _213_1_.001
f 16/16/19 17/17/19 18/18/19
f 17/17/19 16/16/19 19/19/19
f 20/20/20 17/17/20 19/19/20
f 17/17/20 20/20/20 21/21/20
f 20/20/21 18/18/21 21/21/21
f 18/18/21 20/20/21 16/16/21
