# Blender v2.90.0 OBJ File: ''
# www.blender.org
mtllib chair1.mtl
o chair1
v -0.065000 0.080960 -0.050000
v 0.065000 0.000000 -0.050000
v -0.065000 0.000000 -0.050000
v 0.065000 0.080960 -0.050000
v 0.065000 0.080960 0.049892
v -0.065000 0.080960 0.049892
v -0.065000 -0.000000 0.049892
v -0.065000 0.230960 0.049892
v -0.065000 -0.000000 0.080000
v -0.065000 0.230960 0.080000
v 0.065000 0.230960 0.080000
v 0.065000 -0.000000 0.080000
v 0.065000 -0.000000 0.049892
v 0.065000 0.230960 0.049892
v 0.000000 0.270960 0.049892
v 0.000000 0.270960 0.080000
vt -16.605700 48.000000
vt -15.000000 49.000000
vt -16.605700 49.000000
vt -15.000000 48.000000
vt -10.182800 48.000000
vt -11.416700 49.000000
vt -11.416700 48.000000
vt -10.182800 49.000000
vt -6.935380 47.762001
vt -10.586800 47.762001
vt -8.215330 47.762001
vt -6.935380 48.237999
vt -10.586800 48.237999
vt -11.788500 49.000000
vt -13.394300 46.147202
vt -11.788500 46.147202
vt -13.394300 49.000000
vt -16.651400 47.762001
vt -13.000000 48.237999
vt -16.651400 48.237999
vt -13.000000 47.762001
vt -15.371400 47.762001
vt -13.766200 48.000000
vt -13.766200 49.000000
vt -15.371900 46.147202
vt -13.766200 46.147202
vt -15.371900 48.000000
vt -14.569000 45.653198
vt -11.793400 48.237999
vt -11.793400 47.762001
vt -12.591400 45.653198
vt -53.000000 9.000000
vt -52.000000 8.000000
vt -52.000000 9.000000
vt -53.000000 8.000000
vn 0.0000 0.0000 -1.0000
vn -1.0000 -0.0000 0.0000
vn 0.0000 -0.0000 1.0000
vn 1.0000 0.0000 0.0000
vn -0.5241 0.8517 0.0000
vn 0.5241 0.8517 0.0000
vn 0.0000 1.0000 0.0000
usemtl _66.002
s 1
f 1/1/1 2/2/1 3/3/1
f 2/2/1 1/1/1 4/4/1
f 1/5/2 7/6/2 6/7/2
f 7/6/2 1/5/2 3/8/2
f 7/9/2 8/10/2 6/11/2
f 9/12/2 8/10/2 7/9/2
f 8/10/2 9/12/2 10/13/2
f 9/14/3 11/15/3 10/16/3
f 11/15/3 9/14/3 12/17/3
f 13/18/4 11/19/4 12/20/4
f 11/19/4 13/18/4 14/21/4
f 14/21/4 13/18/4 5/22/4
f 2/2/4 5/23/4 13/24/4
f 5/23/4 2/2/4 4/4/4
f 5/23/1 8/25/1 14/26/1
f 8/25/1 5/23/1 6/27/1
f 14/26/1 8/25/1 15/28/1
f 8/10/5 16/29/5 15/30/5
f 16/29/5 8/10/5 10/13/5
f 10/16/3 11/15/3 16/31/3
f 11/19/6 15/30/6 16/29/6
f 15/30/6 11/19/6 14/21/6
usemtl _4
f 1/32/7 5/33/7 4/34/7
f 5/33/7 1/32/7 6/35/7
