# Blender v2.90.0 OBJ File: ''
# www.blender.org
mtllib chim.mtl
o chim
v 0.189423 0.246446 -0.123941
v 0.109824 0.246446 -0.023941
v 0.109824 0.246446 -0.123941
v 0.189423 0.246446 0.150000
v -0.070176 0.246446 -0.023941
v -0.189423 0.246446 0.150000
v -0.070176 0.246446 -0.123941
v -0.189423 0.246446 -0.123941
v -0.189423 0.030000 -0.123941
v -0.189423 -0.000000 0.150000
v -0.295288 0.246446 0.150000
v -0.295288 -0.000000 0.150000
v -0.295288 0.246446 -0.146372
v -0.295288 0.000000 -0.146372
v -0.295288 0.329959 -0.146372
v -0.295288 0.329959 0.150000
v 0.284163 0.329959 0.150000
v 0.284163 0.246446 0.150000
v 0.284163 -0.000000 0.150000
v 0.189423 -0.000000 0.150000
v 0.189423 0.030000 -0.123941
v -0.000176 0.508203 -0.123941
v 0.284163 0.246446 -0.146372
v 0.284163 0.000000 -0.146372
v 0.284163 0.329959 -0.146372
v 0.139301 0.329959 -0.146372
v 0.139301 0.329959 -0.001509
v -0.150425 0.329959 -0.001509
v -0.150425 0.329959 -0.146372
v -0.150425 0.508203 -0.146372
v -0.150425 0.508203 -0.001509
v 0.139301 0.508203 -0.001509
v 0.139301 0.508203 -0.146372
vt 2.159660 0.694097
vt 1.495790 1.111110
vt 1.495780 0.694101
vt 2.159680 1.836470
vt -0.005456 1.111120
vt -0.999992 1.836480
vt -0.005465 0.694109
vt -1.000020 0.694114
vt -2.867770 0.902614
vt -0.582981 0.000001
vt -0.582993 0.902622
vt -2.867750 -0.125112
vt 1.742650 0.902609
vt 4.027330 -0.125128
vt 4.027380 0.902579
vt 1.742600 0.000005
vt 2.254370 0.694096
vt 0.578337 -0.057386
vt -0.872275 0.694113
vt -1.000000 0.211484
vt 2.159620 -0.937694
vt 2.159620 0.211484
vt -1.000000 -0.937694
vt -4.000000 1.033550
vt -3.556020 -0.000000
vt -3.556020 1.033550
vt -4.000000 -0.000000
vt -5.242930 1.033550
vt -5.242930 -0.000000
vt -1.967210 1.033550
vt -1.569880 -0.000000
vt -1.569880 1.033550
vt -1.967210 -0.000000
vt -0.326948 1.033550
vt -0.326948 0.000000
vt -3.392470 1.383790
vt -4.000000 2.131310
vt -4.000000 1.383790
vt -3.392470 2.131310
vt -2.177410 2.131310
vt -2.177410 1.383790
vt -1.569880 1.383790
vt -1.569880 2.131310
vt -5.846020 -0.786994
vt -7.890090 -0.211007
vt -7.890090 -0.786993
vt -5.846020 -0.211007
vt -1.849570 -0.211007
vt -5.115880 -0.786993
vt -2.502990 -0.786993
vt -1.849570 -0.786993
vt 0.194499 -0.786993
vt 0.194500 -0.211008
vt 1.000000 0.452624
vt 0.000000 0.000000
vt 1.000000 0.000000
vt 0.000000 0.452624
vt 0.789891 0.452624
vt 0.314764 0.452624
vt 0.499535 1.000000
vt 0.500000 1.022940
vt 0.999999 0.000000
vt 1.000000 1.022940
vt 0.500000 0.522941
vt -0.500000 0.522941
vt -1.000000 0.000000
vt -0.500000 1.022940
vt -1.000000 1.022940
vn -0.0000 -1.0000 -0.0000
vn 1.0000 0.0000 0.0000
vn -1.0000 0.0000 0.0000
vn 0.9661 -0.2583 0.0000
vn 0.0000 -0.3569 -0.9342
vn -0.9219 -0.3874 0.0000
vn 0.0000 0.9941 0.1089
vn 0.0000 -0.0000 1.0000
vn 0.0000 0.0000 -1.0000
vn 0.0000 1.0000 0.0000
usemtl _3.001
s 1
f 1/1/1 2/2/1 3/3/1
f 4/4/1 2/2/1 1/1/1
f 4/4/1 5/5/1 2/2/1
f 6/6/1 5/5/1 4/4/1
f 6/6/1 7/7/1 5/5/1
f 7/7/1 6/6/1 8/8/1
f 6/9/2 9/10/2 8/11/2
f 9/10/2 6/9/2 10/12/2
f 1/13/3 20/14/3 4/15/3
f 20/14/3 1/13/3 21/16/3
f 7/7/4 22/17/4 5/5/4
f 22/18/5 2/2/5 5/5/5
f 3/3/6 2/2/6 22/19/6
f 9/20/7 20/21/7 21/22/7
f 20/21/7 9/20/7 10/23/7
usemtl wallforest2.001
f 11/24/8 10/25/8 6/26/8
f 10/25/8 11/24/8 12/27/8
f 13/28/3 12/27/3 11/24/3
f 12/27/3 13/28/3 14/29/3
f 4/30/8 19/31/8 18/32/8
f 19/31/8 4/30/8 20/33/8
f 19/31/2 23/34/2 18/32/2
f 23/34/2 19/31/2 24/35/2
f 28/36/3 30/37/3 29/38/3
f 30/37/3 28/36/3 31/39/3
f 28/36/8 32/40/8 31/39/8
f 32/40/8 28/36/8 27/41/8
f 26/42/2 32/40/2 27/41/2
f 32/40/2 26/42/2 33/43/2
usemtl _2.001
f 11/44/3 15/45/3 13/46/3
f 15/45/3 11/44/3 16/47/3
f 11/44/8 17/48/8 16/47/8
f 6/49/8 17/48/8 11/44/8
f 4/50/8 17/48/8 6/49/8
f 17/48/8 4/50/8 18/51/8
f 23/52/2 17/48/2 18/51/2
f 17/48/2 23/52/2 25/53/2
usemtl _3_1_.001
f 1/54/8 9/55/8 21/56/8
f 9/55/8 1/54/8 8/57/8
f 8/57/8 1/54/8 3/58/9
f 8/57/8 3/58/9 7/59/8
f 22/60/8 7/59/8 3/58/9
usemtl templefloor.001
f 26/61/10 17/62/10 25/63/10
f 27/64/10 17/62/10 26/61/10
f 28/65/10 17/62/10 27/64/10
f 17/62/10 28/65/10 16/66/10
f 29/67/10 16/66/10 28/65/10
f 16/66/10 29/67/10 15/68/10
