# Blender v2.90.0 OBJ File: ''
# www.blender.org
mtllib forest1grass.mtl
o forest1grass
v 1.482520 0.953163 -1.681780
v 1.003540 0.890152 -1.978310
v 1.065620 0.867893 -1.591850
v 1.214530 0.894865 -1.321420
v 0.626428 0.813456 -1.790750
v -0.089134 0.478120 -1.191080
v 0.391004 0.698689 -1.798880
v -0.132719 0.443377 -1.972680
v -0.327289 0.446071 -0.702873
v -1.151550 0.443377 -1.512590
v -0.977508 0.445700 -2.043720
v -0.724503 0.445700 -2.210660
v -0.487945 0.439897 -0.620626
v -1.013920 0.417195 -0.882006
v -1.282550 0.427174 -1.008650
v -1.622090 0.453902 -0.358358
v -0.700611 0.451399 -0.393885
v -2.328300 0.496527 0.249702
v -2.911520 0.417195 -0.083347
v -3.305620 0.417195 0.351167
v -2.505790 0.496527 0.555540
v -2.576520 0.496627 0.826876
v -3.308260 0.496527 1.374350
v -2.524730 0.496527 0.925703
v -1.716730 0.496527 0.307642
v -0.916699 0.471936 0.084797
v -1.249970 0.531397 0.533495
v -1.642680 0.496527 0.511391
v -0.493709 0.494866 0.519273
v 0.093677 0.504875 0.574570
v -0.886466 0.550345 0.877832
v -0.111425 0.480777 -0.612519
v 1.761920 1.205190 -1.069280
v 2.444360 1.205190 -1.023300
v 2.444360 1.205190 0.087991
v 1.761920 1.205190 0.087991
v 0.979413 1.083470 1.825600
v 2.444360 0.990687 1.857990
v -0.388936 0.857425 0.870960
v -0.886466 0.774600 0.877832
v -0.637167 0.851207 1.625150
v -0.493709 0.855657 0.519273
v 0.093677 0.864875 0.574570
v -0.439473 1.007110 1.277690
v -1.226650 0.781815 1.333740
v -2.462460 1.704680 -0.879959
v -2.199000 1.724980 -1.800810
v -2.511490 1.712880 -1.098340
v -2.305520 1.694810 -0.713821
v -2.193660 1.693040 -0.766837
v -2.041910 1.693040 -1.460080
v 0.638133 1.545600 -2.255400
v 0.101957 1.479051 -2.862260
v 0.216179 1.484800 -2.447770
v -0.482095 1.489890 -2.577200
v -1.887520 1.331580 2.836510
v -2.415220 1.302380 2.009610
v -2.860580 1.479970 1.917080
v -1.438760 1.358440 1.623300
v -1.960400 1.302380 1.129470
v -1.794100 1.366710 1.083760
v -1.291330 1.360630 1.301770
v -1.747600 1.360030 0.871583
v -1.751610 1.360030 0.651525
v -0.637167 1.111720 1.625150
v -0.938361 1.365870 2.413300
vt -8.873250 -13.749800
vt -7.706430 -13.210100
vt -8.520580 -12.842600
vt -9.222850 -12.786400
vt -7.589730 -12.256000
vt -7.832650 -10.139400
vt -7.278360 -11.817800
vt -6.289080 -11.038700
vt -8.463270 -9.072120
vt -5.884970 -8.519730
vt -5.092010 -9.518790
vt -5.092010 -10.210500
vt -8.418020 -8.662740
vt -7.259080 -7.989360
vt -6.680230 -7.636860
vt -7.492170 -6.172780
vt -8.582630 -7.972680
vt -7.762830 -4.063360
vt -6.395440 -3.371040
vt -6.727780 -2.074240
vt -8.122320 -3.340900
vt -8.550270 -2.865150
vt -8.673430 -0.783247
vt -8.803600 -2.839590
vt -8.641830 -5.155480
vt -9.222850 -6.959450
vt -9.658660 -5.760700
vt -9.122990 -5.040440
vt -10.582100 -7.219110
vt -11.425600 -8.268470
vt -10.771400 -6.020340
vt -8.906680 -9.369740
vt -10.391100 -13.512200
vt -11.336400 -14.754300
vt -13.453200 -13.357600
vt -12.595500 -12.057700
vt -14.921800 -8.383300
vt -16.824699 -11.133000
vt -11.383600 -6.976670
vt -10.771400 -6.020340
vt -12.508200 -5.555960
vt -10.582100 -7.219110
vt -11.425600 -8.268470
vt -12.094900 -6.369220
vt -11.212300 -4.799360
vt -5.442420 -5.227590
vt -4.019500 -6.886790
vt -4.964830 -5.408670
vt -5.956140 -5.317740
vt -5.995740 -5.597450
vt -4.865980 -6.757770
vt -6.719380 -12.862300
vt -4.889540 -12.603700
vt -5.822630 -12.300300
vt -4.698480 -11.132900
vt -13.244200 -1.651820
vt -11.005900 -1.685910
vt -10.269900 -0.953875
vt -11.497300 -4.031400
vt -9.901000 -3.658440
vt -10.022900 -4.032660
vt -11.070100 -4.716340
vt -9.677220 -4.387890
vt -9.253030 -4.656840
vt -12.508200 -5.555960
vt -13.631000 -3.991680
vn -0.1819 0.9796 0.0856
vn -0.1980 0.9801 0.0113
vn -0.1043 0.9937 -0.0417
vn -0.2817 0.9405 0.1898
vn -0.4376 0.8990 -0.0194
vn -0.4344 0.9006 -0.0164
vn -0.4368 0.8994 -0.0187
vn -0.4339 0.9008 -0.0158
vn -0.1984 0.9796 -0.0325
vn -0.0010 1.0000 -0.0023
vn 0.0024 1.0000 0.0039
vn 0.0024 1.0000 0.0040
vn 0.0023 1.0000 0.0051
vn 0.0024 1.0000 0.0037
vn -0.0264 0.9994 0.0235
vn -0.0713 0.9958 0.0569
vn 0.0196 0.9991 0.0372
vn 0.0453 0.9988 -0.0174
vn 0.0000 0.9976 -0.0699
vn -0.0571 0.9891 -0.1356
vn -0.0890 0.9928 -0.0807
vn -0.0859 0.9951 -0.0499
vn -0.0925 0.9954 -0.0245
vn -0.0580 0.9953 -0.0773
vn 0.0004 1.0000 0.0008
vn 0.0054 0.9984 -0.0565
vn 0.0215 0.9992 -0.0332
vn -0.0077 0.9905 -0.1370
vn -0.0902 0.9954 0.0328
vn 0.0462 0.9942 -0.0974
vn -0.0133 0.9991 -0.0398
vn 0.0461 0.9936 -0.1033
vn -0.3059 0.9519 -0.0162
vn -0.4247 0.8889 -0.1720
vn 0.0263 0.9202 -0.3906
vn -0.0000 1.0000 0.0000
vn 0.0000 0.9976 0.0699
vn 0.0601 0.9909 0.1201
vn -0.1647 0.9853 -0.0461
vn -0.1635 0.9856 0.0437
vn -0.0157 0.9999 -0.0004
vn -0.2358 0.9021 -0.3613
vn -0.0798 0.9940 -0.0753
vn -0.3444 0.8988 -0.2712
vn 0.0303 0.9991 0.0307
vn 0.0304 0.9991 0.0307
vn 0.1365 0.9902 0.0299
vn -0.1556 0.9874 0.0292
vn 0.0104 0.9998 -0.0167
vn 0.4058 0.8669 -0.2896
vn -0.0569 0.9984 0.0011
vn -0.0719 0.9967 -0.0372
vn -0.3012 0.9296 0.2126
vn 0.0076 0.9999 0.0103
vn 0.0235 0.9994 -0.0263
vn -0.0013 1.0000 0.0000
vn 0.2910 0.9464 0.1399
vn 0.2891 0.9379 -0.1919
vn -0.0314 0.9995 0.0105
usemtl grassforest.001
s 1
f 1/1/1 2/2/1 3/3/1
f 1/1/2 3/3/2 4/4/2
f 4/4/3 3/3/3 5/5/3
f 4/4/4 5/5/4 6/6/4
f 5/5/5 7/7/6 6/6/7
f 7/7/6 8/8/8 6/6/7
f 6/6/9 8/8/9 9/9/9
f 8/8/10 10/10/10 9/9/10
f 8/8/11 11/11/12 10/10/13
f 8/8/11 12/12/14 11/11/12
f 9/9/15 10/10/15 13/13/15
f 13/13/16 10/10/16 14/14/16
f 14/14/17 10/10/17 15/15/17
f 14/14/18 15/15/18 16/16/18
f 17/17/19 14/14/19 16/16/19
f 17/17/19 16/16/19 18/18/19
f 16/16/20 19/19/20 18/18/20
f 18/18/21 19/19/21 20/20/21
f 18/18/22 20/20/22 21/21/22
f 21/21/23 20/20/23 22/22/23
f 22/22/24 20/20/24 23/23/24
f 24/24/25 22/22/25 23/23/25
f 17/17/26 18/18/26 25/25/26
f 17/17/27 25/25/27 26/26/27
f 26/26/28 25/25/28 27/27/28
f 27/27/29 25/25/29 28/28/29
f 29/29/30 26/26/30 27/27/30
f 30/30/31 26/26/31 29/29/31
f 29/29/32 27/27/32 31/31/32
f 4/4/33 6/6/33 32/32/33
f 33/33/34 1/1/34 4/4/34
f 34/34/35 1/1/35 33/33/35
f 34/34/36 33/33/36 35/35/36
f 35/35/36 33/33/36 36/36/36
f 35/35/37 36/36/37 37/37/37
f 35/35/38 37/37/38 38/38/38
f 39/39/39 40/40/39 41/41/39
f 39/39/40 42/42/40 40/40/40
f 43/43/41 42/42/41 39/39/41
f 43/43/42 39/39/42 44/44/42
f 41/41/43 40/40/43 45/45/43
f 40/40/44 27/27/44 45/45/44
f 46/46/45 47/47/45 48/48/45
f 47/47/45 46/46/45 49/49/45
f 47/47/45 49/49/45 50/50/46
f 51/51/47 47/47/47 50/50/47
f 52/52/48 53/53/48 54/54/48
f 54/54/49 53/53/49 55/55/49
f 56/56/50 57/57/50 58/58/50
f 59/59/51 57/57/51 56/56/51
f 59/59/52 60/60/52 57/57/52
f 59/59/53 61/61/53 60/60/53
f 62/62/54 61/61/54 59/59/54
f 62/62/55 63/63/55 61/61/55
f 62/62/56 64/64/56 63/63/56
f 65/65/57 62/62/57 59/59/57
f 65/65/58 59/59/58 66/66/58
f 66/66/59 59/59/59 56/56/59
