# Blender v2.90.0 OBJ File: ''
# www.blender.org
mtllib leaf1.mtl
o leaf1.001
v 0.025000 0.000000 -0.040000
v 0.000000 0.000000 -0.070000
v -0.025000 0.000000 -0.040000
v 0.025000 -0.000000 0.040000
v -0.025000 -0.000000 0.040000
v 0.000000 -0.000000 0.060000
vt 0.867763 -0.144482
vt 0.470385 0.093944
vt 0.073007 -0.144482
vt 0.867762 -0.780287
vt 0.073006 -0.780287
vt 0.470383 -0.939238
vn 0.0000 1.0000 0.0000
usemtl _.002
s 1
f 1/1/1 2/2/1 3/3/1
f 1/1/1 3/3/1 4/4/1
f 4/4/1 3/3/1 5/5/1
f 4/4/1 5/5/1 6/6/1
