# Alias OBJ Model File
# Exported from SketchUp, (c) 2000-2012 Trimble Navigation Limited
# File units = meters

mtllib mushroomenemy.mtl

g Mesh1 Group1 Model

usemtl _132
v 31.8484 80.4158 -3.06535
vt -5.18065 -23.9481
vn 0.212623 0.973112 0.0885679
v -1.2687 87.5481 -1.92593
vt -5.10134 -23.4115
v 22.2893 80.3018 21.1346
vt -5.54845 -23.7216
f 1/1/1 2/2/1 3/3/1

vn 0.206715 0.974237 -0.0901741
v 21.4861 80.3992 -26.9989
vt -4.73481 -23.8621
f 1/1/2 4/4/2 2/2/2

vt -4.7635 -23.8511
vn 0.812054 0.465541 -0.35191
vt -5.20934 -23.9371
v 46.1295 55.2953 -3.34269
vt -5.1311 -24.2125
f 4/5/3 1/6/3 5/7/3

vn 0.823008 0.46427 0.327277
vt -5.57714 -23.7106
f 5/7/4 1/6/4 3/8/4

vn 0.822711 0.466821 0.324382
v 32.267 55.2953 31.8159
vt -5.66643 -23.8835
f 5/7/5 3/8/5 6/9/5

vn 0.344414 0.481637 0.805857
v -1.58773 80.1403 31.436
vt -5.65173 -23.3043
f 3/8/6 7/10/6 6/9/6

vn 0.0869274 0.972352 0.216736
vt -5.62304 -23.3154
f 3/3/7 2/2/7 7/11/7

vn -0.0905395 0.972397 0.215049
v -25.798 80.0174 21.7986
vt -5.36058 -22.9672
f 2/2/8 8/12/8 7/11/8

vn -0.211192 0.973239 0.0905715
v -36.16 79.9963 -2.1364
vt -4.91469 -22.8813
f 2/2/9 9/13/9 8/12/9

vn -0.21042 0.974405 -0.0791022
v -26.6034 80.0947 -26.3455
vt -4.54665 -23.1078
f 2/2/10 10/14/10 9/13/10

vn -0.0934484 0.975186 -0.200696
v -2.7254 80.2637 -36.6427
vt -4.47217 -23.5141
f 2/2/11 11/15/11 10/14/11

vn 0.0773298 0.975101 -0.207844
f 4/4/12 11/15/12 2/2/12

vn 0.321612 0.483325 -0.814225
v 31.1163 55.3955 -38.0373
vt -4.48549 -24.0877
vt -4.50086 -23.503
f 4/5/13 12/16/13 11/17/13

vn 0.81192 0.46722 -0.349988
f 12/16/14 4/5/14 5/7/14

vn -0.160671 -0.984753 0.0666839
v -1.38221 63.2823 0.127436
vt -5.03641 -23.4414
f 5/7/15 13/18/15 12/16/15

vn -0.170169 -0.983128 -0.0670948
f 5/7/16 6/9/16 13/18/16

vn -0.0754028 -0.982954 -0.16768
v -2.49068 55.3933 46.8717
vt -5.77777 -23.2912
f 6/9/17 14/19/17 13/18/17

vn 0.348333 0.486903 0.800993
f 7/10/18 14/19/18 6/9/18

vn -0.320425 0.509716 0.798447
vt -5.38927 -22.9562
f 7/10/19 8/20/19 14/19/19

vn -0.314501 0.514559 0.797696
v -37.8012 55.5353 32.8585
vt -5.39738 -22.7827
f 8/20/20 15/21/20 14/19/20

vt -4.94338 -22.8702
vn -0.776868 0.532613 0.335856
f 9/22/21 15/21/21 8/20/21

vn -0.776413 0.533064 0.336192
v -52.8413 55.641 -2.0431
vt -4.7482 -22.6582
f 9/22/22 16/23/22 15/21/22

v -38.7823 55.6445 -37.2436
vt -4.213 -22.9904
vn -0.784108 0.535847 -0.313117
f 17/24/23 16/23/23 9/22/23

vn 0.144263 -0.987866 0.05752
f 13/18/24 16/23/24 17/24/24

vn 0.149326 -0.986492 -0.0673374
f 13/18/25 15/21/25 16/23/25

vn 0.0613974 -0.984433 -0.164686
f 13/18/26 14/19/26 15/21/26

vn 0.0580072 -0.987898 0.14385
v -4.00104 55.5253 -52.0881
vt -4.1052 -23.5824
f 13/18/27 17/24/27 18/25/27

vt -4.57534 -23.0967
vn -0.334364 0.517598 -0.787587
f 10/26/28 18/25/28 17/24/28

vn -0.343651 0.510035 -0.788523
f 11/17/29 18/25/29 10/26/29

vn 0.325677 0.488589 -0.809454
f 11/17/30 12/16/30 18/25/30

vn -0.06357 -0.986676 0.149766
f 12/16/31 13/18/31 18/25/31

vn -0.788993 0.530871 -0.3093
f 17/24/32 9/22/32 10/26/32

g Mesh2 Group2 Model

usemtl earthforest
v 10.016 64.1203 6.90107
vt 37.0884 -67.0793
vn 0.614644 -0.22295 0.756641
v 2.76193 35.123 4.2495
vt 38.2917 -67.5659
v 20.032 64.1203 -1.23525
vt 36.8688 -67.4556
f 19/27/33 20/28/33 21/29/33

vn -1.65472e-17 -0.0910621 0.995845
v -3.63598 35.123 4.2495
vt 38.4546 -67.342
f 19/27/34 22/30/34 20/28/34

v -10.016 64.1203 6.90107
vt 37.5982 -66.378
f 22/30/34 19/27/34 23/31/34

vn -4.71941e-18 0.717008 0.697064
v 2.16716e-13 72.0303 -1.23525
vt 37.1038 -66.5546
f 19/27/35 24/32/35 23/31/35

vn 0.334657 0.847516 0.411971
f 21/29/36 24/32/36 19/27/36

vn 0.334657 0.847516 -0.411971
v 10.016 64.1203 -9.37156
vt 37.159 -67.1306
f 21/29/37 25/33/37 24/32/37

vn 0.615042 -0.22017 -0.757132
v 2.76193 35.123 -6.83202
vt 38.3399 -67.6009
f 21/29/38 26/34/38 25/33/38

vn 0.798665 -0.386667 -0.46111
v 5.96089 35.123 -1.29126
vt 38.2344 -67.6954
f 26/34/39 21/29/39 27/35/39

vn 0.798115 -0.38818 0.460792
f 27/35/40 21/29/40 20/28/40

vn 0.557705 -0.765041 0.321991
v -0.437024 30.459 -1.29126
vt 38.5592 -67.5892
f 27/35/41 20/28/41 28/36/41

vn 0 -0.765041 0.643982
f 20/28/42 22/30/42 28/36/42

vn -0.557705 -0.765041 0.321991
v -6.83494 35.123 -1.29126
vt 38.56 -67.2475
f 28/36/43 22/30/43 29/37/43

vn -0.805436 -0.367464 0.465019
v -20.032 64.1203 -1.23525
vt 37.8884 -66.0531
f 29/37/44 22/30/44 30/38/44

vn -0.617092 -0.205238 0.759655
f 30/38/45 22/30/45 23/31/45

vn -0.334657 0.847516 0.411971
f 24/32/46 30/38/46 23/31/46

vn -0.334657 0.847516 -0.411971
v -10.016 64.1203 -9.37156
vt 37.6688 -66.4294
f 24/32/47 31/39/47 30/38/47

vn -1.57314e-18 0.717008 -0.697064
f 25/33/48 31/39/48 24/32/48

vn -8.71202e-18 -0.0872449 -0.996187
f 26/34/49 31/39/49 25/33/49

v -3.63598 35.123 -6.83202
vt 38.5027 -67.377
f 31/39/49 26/34/49 32/40/49

vn 9.46374e-28 -0.765041 -0.643982
f 26/34/50 28/36/50 32/40/50

vn 0.557705 -0.765041 -0.321991
f 27/35/51 28/36/51 26/34/51

vn -0.557705 -0.765041 -0.321991
f 28/36/52 29/37/52 32/40/52

vn -0.805967 -0.365908 -0.465325
f 32/40/53 29/37/53 30/38/53

vn -0.617461 -0.202424 -0.760109
f 31/39/54 32/40/54 30/38/54

g Mesh3 Group3 Model

v 5.96089 35.123 -1.29126
vn 0.580449 0.74214 -0.335123
v 2.76193 35.123 -6.83202
v -0.437024 40.127 -1.29126
vt 38.2234 -67.3451
f 33/35/55 34/34/55 35/41/55

vn 0.82262 0.312617 -0.47494
v 10.016 0 -17.3864
vt 39.4211 -68.7751
f 33/35/56 36/42/56 34/34/56

v 20.032 0 -0.0382209
vt 39.0909 -69.071
f 36/42/56 33/35/56 37/43/56

v 2.76193 35.123 4.2495
vn 0.813584 0.342699 0.469723
f 38/28/57 37/43/57 33/35/57

v 10.016 0 17.31
vt 39.2705 -68.6656
f 37/43/57 38/28/57 39/44/57

vn 2.6818e-17 0.348534 0.937296
v -10.016 0 17.31
vt 39.7802 -67.9643
f 38/28/58 40/45/58 39/44/58

v -3.63598 35.123 4.2495
f 40/45/58 38/28/58 41/30/58

vn -2.72343e-17 0.74214 0.670245
f 38/28/59 35/41/59 41/30/59

vn 0.580449 0.74214 0.335123
f 33/35/60 35/41/60 38/28/60

vn -0.580449 0.74214 0.335123
v -6.83494 35.123 -1.29126
f 35/41/61 42/37/61 41/30/61

vn -0.580449 0.74214 -0.335123
v -3.63598 35.123 -6.83202
f 35/41/62 43/40/62 42/37/62

vn 0 0.74214 -0.670245
f 34/34/63 43/40/63 35/41/63

vn -4.56695e-18 0.287786 -0.957695
f 36/42/64 43/40/64 34/34/64

v -10.016 0 -17.3864
vt 39.9309 -68.0739
f 43/40/64 36/42/64 44/46/64

vn -0.827759 0.293971 -0.477907
f 44/46/65 42/37/65 43/40/65

v -20.032 0 -0.0382209
vt 40.1105 -67.6685
f 42/37/65 44/46/65 45/47/65

vn -0.819118 0.324646 0.472918
f 45/47/66 41/30/66 42/37/66

f 41/30/66 45/47/66 40/45/66

g Mesh4 Group4 Model

usemtl _20
v 8.0517 56.2682 -8.28389
vt 2.09806 -0.413681
vn 0.492577 -0.197454 -0.847573
v 2.76193 35.123 -6.43202
vt 2.36212 -1
v -0.389583 51.3486 -12.0436
vt 2.51945 -0.550092
f 46/48/67 47/49/67 48/50/67

vn -1.60411e-17 -0.326849 -0.945077
v -3.63598 35.123 -6.43202
vt 2.68151 -1
f 48/50/68 47/49/68 49/51/68

v -8.34529 56.5269 -8.30654
vt 2.9166 -0.40651
vn -0.514529 -0.186506 -0.836944
f 50/52/69 48/50/69 49/51/69

v -2.69661 64.1203 -8.97156
vt 2.63462 -0.195958
vn -0.329928 0.164013 -0.929649
f 51/53/70 48/50/70 50/52/70

v 2.60539 64.1203 -8.97156
vt 2.36994 -0.195958
vn -1.29283e-17 0.233862 -0.97227
f 52/54/71 48/50/71 51/53/71

vn 0.329687 0.147003 -0.932575
f 52/54/72 46/48/72 48/50/72

