# Alias OBJ Model File
# Exported from SketchUp, (c) 2000-2012 Trimble Navigation Limited
# File units = meters

mtllib rat1.mtl

g Mesh1 Component_15_1 Model

usemtl _19
v -17.1946 48.3262 18.7002
vt -317.571 3.72782
vn -0.816244 0.424228 0.392144
v -28.2666 35.3672 9.67313
vt -317.523 3.52946
v -18.6049 34.4953 30.7271
vt -317.636 3.51612
f 1/1/1 2/2/1 3/3/1

v -13.8054 49.5226 -4.35626
vt -317.448 3.74613
vn -0.732744 0.67662 -0.0726009
f 4/4/2 2/2/2 1/1/2

vn -0.788504 0.247535 -0.563017
v -13.4796 33.5502 -11.8349
vt -317.408 3.50165
f 4/4/3 5/5/3 2/2/3

vn 0.987245 0.0835811 -0.135502
v -8.46944 13.9687 12.5901
vt -317.539 3.20193
f 5/5/4 4/4/4 6/6/4

vn 0.963974 0.217595 0.152992
f 6/6/5 4/4/5 1/1/5

vn 0.931323 0.18023 0.316474
f 6/6/6 1/1/6 3/3/6

v -15.7302 23.6581 30.2835
vt -317.633 3.35024
vn 0.937352 0.238241 0.254189
f 7/7/7 6/6/7 3/3/7

v -14.7971 13.2196 24.9729
vt -317.605 3.19047
vn 0.884443 -0.146367 0.443099
f 8/8/8 6/6/8 7/7/8

vn 0.560115 -0.793422 0.238227
v -19.3485 6.09602 11.9487
vt -317.535 3.08143
f 8/8/9 9/9/9 6/6/9

vn -0.871734 -0.232044 0.43155
f 2/2/10 9/9/10 8/8/10

vn -0.919722 -0.257154 0.296618
v -21.2769 0.776085 1.3572
vt -317.479 3
f 2/2/11 10/10/11 9/9/11

v -17.1624 6.39303 0.422374
vt -317.474 3.08597
vn -0.395293 0.138429 -0.908064
f 11/11/12 10/10/12 2/2/12

v -16.6365 0.776085 2.36991
vt -317.484 3
vn 0.203145 -0.303728 -0.93085
f 12/12/13 10/10/13 11/11/13

v -22.5833 0.783743 25.7447
vt -317.609 3.00012
vn -6.77341e-05 -1 0.000310371
f 13/13/14 10/10/14 12/12/14

vn -0.904157 0.424432 -0.048565
f 9/9/15 10/10/15 13/13/15

vn -0.579652 0.796745 0.170884
v -16.8847 3.97386 30.2008
vt -317.633 3.04895
f 9/9/16 13/13/16 14/14/16

vn -0.587871 0.786659 0.188616
v -20.0364 0.783742 33.6827
vt -317.652 3.00012
f 13/13/17 15/15/17 14/14/17

vn -0.000157698 -1 5.04338e-05
v -13.6864 0.782704 32.9526
vt -317.648 3.0001
f 15/15/18 13/13/18 16/16/18

vn -0.000200298 -1 0.000103016
v -13.092 0.781926 26.559
vt -317.613 3.00009
f 16/16/19 13/13/19 17/17/19

vn -0.000214877 -1 0.000272937
f 13/13/20 12/12/20 17/17/20

vn 0.988545 0.0423282 -0.144867
f 12/12/21 11/11/21 17/17/21

vn 0.672652 0.738009 0.053681
f 11/11/22 14/14/22 17/17/22

vn 0.26776 0.96052 0.0755342
f 11/11/23 9/9/23 14/14/23

vn 0.580454 -0.809389 0.0892334
f 9/9/24 11/11/24 6/6/24

vn 0.853509 -0.324287 -0.407873
v -14.8418 20.8118 -6.1853
vt -317.438 3.30667
f 11/11/25 18/18/25 6/6/25

vn -0.812345 -0.129803 -0.568548
f 18/18/26 11/11/26 2/2/26

vn -0.820008 -0.156487 -0.550544
f 5/5/27 18/18/27 2/2/27

vn 0.877731 -0.269551 -0.396144
f 18/18/28 5/5/28 6/6/28

vn 0.677289 0.733026 0.0628773
f 14/14/29 16/16/29 17/17/29

vn 0.082045 0.696738 0.712618
f 15/15/30 16/16/30 14/14/30

vn -0.882928 -0.273187 0.381847
f 2/2/31 8/8/31 7/7/31

vn -0.883758 -0.250606 0.39518
f 2/2/32 7/7/32 3/3/32

g Mesh2 Component_17_1 Model

v 16.9702 44.3128 38.8515
vt -317.679 3.66639
vn 0.942032 0.267346 0.202735
v 21.5048 34.4953 30.7271
v 20.168 48.3262 18.7002
f 19/19/33 20/3/33 21/1/33

v 16.8686 38.6895 56.3012
vt -317.773 3.58032
vn 0.934491 0.337204 0.11411
f 22/20/34 20/3/34 19/19/34

vn 0.963553 -0.173984 0.203214
v 14.4531 20.4474 52.1358
vt -317.75 3.3011
f 22/20/35 23/21/35 20/3/35

v 8.94431 21.3693 65.0422
vt -317.819 3.31521
vn 0.893956 -0.208901 0.396489
f 24/22/36 23/21/36 22/20/36

v 1.44994 9.36743 44.5553
vt -317.71 3.1315
vn 0.52252 -0.805153 0.28054
f 25/23/37 23/21/37 24/22/37

vn 0.629313 -0.775294 0.0537103
v 18.8553 22.8479 35.2075
vt -317.66 3.33784
f 25/23/38 26/24/38 23/21/38

vn 0.639164 -0.763976 0.0883736
v 11.3693 13.9687 12.5901
f 25/23/39 27/6/39 26/24/39

v 1.44929 5.5542 4.6873
vt -317.496 3.07314
vn 0.609365 -0.789289 0.0754828
f 28/25/40 27/6/40 25/23/40

vn 0.66637 -0.744325 -0.0439482
v 17.7955 20.8237 -6.07261
vt -317.439 3.30686
f 28/25/41 29/26/41 27/6/41

vn 0.704088 -0.707011 0.0663054
v 9.83468 10.8934 -27.4244
vt -317.325 3.15486
f 28/25/42 30/27/42 29/26/42

vn 0.663968 -0.746132 0.0493243
v 1.45293 3.341 -28.841
vt -317.317 3.03926
f 28/25/43 31/28/43 30/27/43

v 1.45098 0 -64.1113
vt -317.128 2.98812
vn 0.661098 -0.746959 0.0707196
f 32/29/44 30/27/44 31/28/44

vn 0.725661 -0.686994 0.0381602
v 6.04726 4.8412 -64.3593
vt -317.127 3.06222
f 30/27/45 32/29/45 33/30/45

vn 0.723229 -0.689031 -0.0466563
v 4.43682 4.74918 -87.9642
vt -317.001 3.06081
f 32/29/46 34/31/46 33/30/46

v 1.44631 2.07705 -88.2975
vt -316.999 3.01991
vn 0.668884 -0.74063 -0.0637327
f 35/32/47 34/31/47 32/29/47

v 1.44436 4.78344 -98.252
vt -316.946 3.06134
vn 0.665434 -0.720277 -0.195955
f 36/33/48 34/31/48 35/32/48

vn 0.638161 0.747805 -0.183133
v 1.44501 7.27413 -88.0793
vt -317 3.09946
f 36/33/49 37/34/49 34/31/49

vn 0.644669 0.760184 -0.0807579
v 1.4515 9.74599 -64.7596
vt -317.125 3.1373
f 37/34/50 38/35/50 34/31/50

vn 0.73085 0.680515 -0.0525148
f 33/30/51 34/31/51 38/35/51

v 1.44839 9.74599 -64.7596
vn -4.93981e-11 0.0813383 0.996687
f 39/35/52 33/30/52 38/35/52

v 1.4502 18.1078 -30.1746
vt -317.31 3.26528
vn 0.726454 0.667961 -0.161534
f 40/36/53 33/30/53 39/35/53

vn 0.675206 0.713743 -0.186193
f 40/36/54 30/27/54 33/30/54

v 16.453 33.5502 -11.8349
vn 0.553491 0.356296 -0.752795
f 41/5/55 30/27/55 40/36/55

vn 0.943146 -0.0493368 -0.328696
f 29/26/56 30/27/56 41/5/56

v 16.7788 49.5226 -4.35626
vn 0.989865 0.0431594 -0.135296
f 42/4/57 29/26/57 41/5/57

vn 0.988751 0.0435855 -0.143082
f 21/1/58 29/26/58 42/4/58

vn 0.934982 -0.278502 0.219646
f 21/1/59 27/6/59 29/26/59

vn 0.931729 -0.182803 -0.313789
f 20/3/60 27/6/60 21/1/60

vn 0.936954 -0.288814 -0.196731
f 26/24/61 27/6/61 20/3/61

vn 0.96394 -0.129941 0.232241
f 23/21/62 26/24/62 20/3/62

v 11.9166 60.9719 21.5298
vt -317.587 3.92138
vn 0.824349 0.558523 -0.0921948
f 43/37/63 21/1/63 42/4/63

vn 0.837633 0.494769 0.231463
f 19/19/64 21/1/64 43/37/64

v 1.44994 53.576 58.1847
vt -317.783 3.80817
vn 0.751734 0.571035 0.329872
f 44/38/65 19/19/65 43/37/65

vn 0.690819 0.686992 0.225413
f 44/38/66 22/20/66 19/19/66

vn 0.374264 0.275614 0.885417
f 44/38/67 24/22/67 22/20/67

vn 0.259918 0.258577 0.930366
v 1.45111 17.526 68.2038
vt -317.836 3.25638
f 44/38/68 45/39/68 24/22/68

vn 0.528451 -0.802555 0.276848
f 25/23/69 24/22/69 45/39/69

vn 0.383473 0.877943 0.286642
v 1.45033 66.1085 19.799
vt -317.577 4
f 44/38/70 43/37/70 46/40/70

vn 0.459874 0.840831 -0.285517
f 46/40/71 43/37/71 42/4/71

v 1.44813 55.8354 -9.07597
vt -317.423 3.84276
vn 0.440849 0.845644 -0.300895
f 47/41/72 46/40/72 42/4/72

vn 0.42513 0.441808 -0.789981
f 47/41/73 42/4/73 40/36/73

vn 0.567372 0.339664 -0.750145
f 42/4/74 41/5/74 40/36/74

g Mesh3 Component_15_2 Model

v 21.5783 34.4953 30.7271
vn 0.816244 0.424228 0.392144
v 31.24 35.3672 9.67313
v 20.168 48.3262 18.7002
f 48/3/75 49/2/75 50/1/75

vn 0.883758 -0.250606 0.39518
v 18.7035 23.6581 30.2835
f 48/3/76 51/7/76 49/2/76

vn -0.937352 0.238241 0.254189
v 11.4428 13.9687 12.5901
f 48/3/77 52/6/77 51/7/77

vn -0.931323 0.18023 0.316474
f 48/3/78 50/1/78 52/6/78

vn -0.963974 0.217595 0.152992
v 16.7788 49.5226 -4.35626
f 50/1/79 53/4/79 52/6/79

vn 0.732744 0.67662 -0.0726009
f 50/1/80 49/2/80 53/4/80

vn 0.788504 0.247535 -0.563017
v 16.453 33.5502 -11.8349
f 49/2/81 54/5/81 53/4/81

vn 0.820008 -0.156487 -0.550544
v 17.8151 20.8118 -6.1853
f 49/2/82 55/18/82 54/5/82

vn 0.812345 -0.129803 -0.568548
v 20.1358 6.39303 0.422374
f 49/2/83 56/11/83 55/18/83

vn 0.395293 0.138429 -0.908064
v 24.2503 0.776085 1.3572
f 49/2/84 57/10/84 56/11/84

v 22.3219 6.09602 11.9487
vn 0.919722 -0.257154 0.296618
f 58/9/85 57/10/85 49/2/85

v 25.5566 0.783743 25.7447
vn 0.904157 0.424432 -0.048565
f 59/13/86 57/10/86 58/9/86

v 19.6099 0.776085 2.36991
vn 6.77341e-05 -1 0.000310371
f 60/12/87 57/10/87 59/13/87

vn -0.203145 -0.303728 -0.93085
f 56/11/88 57/10/88 60/12/88

v 16.0653 0.781926 26.559
vn -0.988545 0.0423282 -0.144867
f 61/17/89 56/11/89 60/12/89

vn -0.672652 0.738009 0.053681
v 19.858 3.97386 30.2008
f 61/17/90 62/14/90 56/11/90

vn -0.677289 0.733026 0.0628773
v 16.6597 0.782704 32.9526
f 61/17/91 63/16/91 62/14/91

vn 0.000200298 -1 0.000103016
f 61/17/92 59/13/92 63/16/92

vn 0.000214877 -1 0.000272937
f 61/17/93 60/12/93 59/13/93

vn 0.000157698 -1 5.04338e-05
v 23.0097 0.783742 33.6827
f 63/16/94 59/13/94 64/15/94

vn 0.587871 0.786659 0.188616
f 62/14/95 64/15/95 59/13/95

vn -0.082045 0.696738 0.712618
f 62/14/96 63/16/96 64/15/96

vn 0.579652 0.796745 0.170884
f 62/14/97 59/13/97 58/9/97

vn -0.26776 0.96052 0.0755342
f 62/14/98 58/9/98 56/11/98

vn -0.580454 -0.809389 0.0892334
f 52/6/99 56/11/99 58/9/99

vn -0.853509 -0.324287 -0.407873
f 52/6/100 55/18/100 56/11/100

vn -0.877731 -0.269551 -0.396144
f 52/6/101 54/5/101 55/18/101

vn -0.987245 0.0835811 -0.135502
f 52/6/102 53/4/102 54/5/102

vn -0.560115 -0.793422 0.238227
v 17.7705 13.2196 24.9729
f 52/6/103 58/9/103 65/8/103

vn 0.871734 -0.232044 0.43155
f 65/8/104 58/9/104 49/2/104

vn 0.882928 -0.273187 0.381847
f 51/7/105 65/8/105 49/2/105

vn -0.884443 -0.146367 0.443099
f 51/7/106 52/6/106 65/8/106

g Mesh4 Component_16_1 Model

v -15.9554 22.8479 35.2075
vn -0.937939 -0.0122021 -0.346585
v -18.1557 19.0096 41.2972
vt -317.692 3.27909
v -18.4366 27.3751 41.7628
vt -317.695 3.40713
f 66/24/107 67/42/107 68/43/107

vn -0.865603 -0.218561 -0.450515
v -14.075 0.776085 42.3023
vt -317.698 3
f 67/42/108 66/24/108 69/44/108

v -10.0284 19.4881 38.3291
vt -317.676 3.28641
vn 0.328296 -0.263597 -0.907049
f 70/45/109 69/44/109 66/24/109

vn 0.954675 -0.242965 -0.171943
v -12.2593 5.80418 45.2783
vt -317.714 3.07696
f 69/44/110 70/45/110 71/46/110

v -14.0929 6.89545 46.4611
vt -317.72 3.09367
vn 0.629727 0.26767 0.729244
f 72/47/111 71/46/111 70/45/111

vn 0.620967 0.727745 0.291183
v -14.9899 3.66677 56.4433
vt -317.773 3.04425
f 72/47/112 73/48/112 71/46/112

v -16.2505 5.79133 44.2384
vt -317.708 3.07676
vn -0.599765 0.775558 0.196955
f 74/49/113 73/48/113 72/47/113

vn -0.561511 0.803465 0.197862
v -20.0978 0.78296 53.658
vt -317.759 3.00011
f 74/49/114 75/50/114 73/48/114

vn -0.865926 -0.198378 -0.45915
f 74/49/115 69/44/115 75/50/115

vn -0.880768 -0.22023 -0.419222
f 67/42/116 69/44/116 74/49/116

vn -0.65345 0.0734568 0.753397
v -14.4829 17.8292 44.5979
vt -317.71 3.26102
f 74/49/117 76/51/117 67/42/117

vn -0.736248 0.0880762 0.670956
f 76/51/118 74/49/118 72/47/118

vn 0.791678 0.129969 0.596955
f 70/45/119 76/51/119 72/47/119

v -11.5533 20.4474 52.1358
vn 0.483275 -0.868056 0.113687
f 77/21/120 76/51/120 70/45/120

vn -0.618911 -0.635695 0.461346
f 67/42/121 76/51/121 77/21/121

vn -0.849177 -0.0577291 0.524943
f 68/43/122 67/42/122 77/21/122

vn -0.87379 -0.215267 0.436063
v -13.9687 38.6895 56.3012
f 68/43/123 77/21/123 78/20/123

vn 0.988962 0.107715 0.101743
f 77/21/124 70/45/124 78/20/124

vn 0.986124 0.159599 0.0456882
v -14.0703 44.3128 38.8515
f 70/45/125 79/19/125 78/20/125

vn 0.782759 0.140208 -0.606325
v -18.6049 34.4953 30.7271
f 70/45/126 80/3/126 79/19/126

vn 0.32104 -0.275518 -0.906103
f 70/45/127 66/24/127 80/3/127

vn -0.945972 -0.278844 -0.165479
f 80/3/128 66/24/128 68/43/128

vn -0.941767 0.275832 0.192332
f 79/19/129 80/3/129 68/43/129

vn -0.960513 0.263143 0.0903947
f 79/19/130 68/43/130 78/20/130

vn -2.15853e-05 -1 0.000593921
v -9.83588 0.78309 54.2493
vt -317.762 3.00011
f 75/50/131 69/44/131 81/52/131

vn 0.93304 -0.141021 -0.330984
f 69/44/132 71/46/132 81/52/132

vn 0.55765 0.779402 0.285587
f 71/46/133 73/48/133 81/52/133

vn 0.533037 0.830779 0.16024
v -11.4619 0.783997 59.6536
vt -317.791 3.00012
f 73/48/134 82/53/134 81/52/134

vn 0.0232439 0.756399 0.653697
v -17.6161 0.783997 59.8724
vt -317.792 3.00012
f 73/48/135 83/54/135 82/53/135

vn -0.56984 0.789655 0.227435
f 75/50/136 83/54/136 73/48/136

vn 3.09097e-06 -1 0.000165687
f 83/54/137 75/50/137 81/52/137

vn 6.04244e-06 -1 0.000169771
f 82/53/138 83/54/138 81/52/138

g Mesh5 Component_16_2 Model

v 21.3365 27.3751 41.7628
vn 0.937939 -0.0122021 -0.346585
v 21.0556 19.0096 41.2972
v 18.8553 22.8479 35.2075
f 84/43/139 85/42/139 86/24/139

v 14.4531 20.4474 52.1358
vn 0.849177 -0.0577291 0.524943
f 87/21/140 85/42/140 84/43/140

vn 0.618911 -0.635695 0.461346
v 17.3828 17.8292 44.5979
f 87/21/141 88/51/141 85/42/141

v 12.9282 19.4881 38.3291
vn -0.483275 -0.868056 0.113687
f 89/45/142 88/51/142 87/21/142

v 16.9928 6.89545 46.4611
vn -0.791678 0.129969 0.596955
f 90/47/143 88/51/143 89/45/143

vn 0.736248 0.0880762 0.670956
v 19.1504 5.79133 44.2384
f 90/47/144 91/49/144 88/51/144

vn 0.599765 0.775558 0.196955
v 17.8898 3.66677 56.4433
f 90/47/145 92/48/145 91/49/145

v 15.1592 5.80418 45.2783
vn -0.620967 0.727745 0.291183
f 93/46/146 92/48/146 90/47/146

v 12.7358 0.78309 54.2493
vn -0.55765 0.779402 0.285587
f 94/52/147 92/48/147 93/46/147

vn -0.533037 0.830779 0.16024
v 14.3618 0.783997 59.6536
f 94/52/148 95/53/148 92/48/148

vn -6.04244e-06 -1 0.000169771
v 20.5159 0.783997 59.8724
f 94/52/149 96/54/149 95/53/149

vn -3.09097e-06 -1 0.000165687
v 22.9977 0.78296 53.658
f 94/52/150 97/50/150 96/54/150

vn 2.15853e-05 -1 0.000593921
v 16.9749 0.776085 42.3023
f 94/52/151 98/44/151 97/50/151

vn -0.93304 -0.141021 -0.330984
f 94/52/152 93/46/152 98/44/152

vn -0.954675 -0.242965 -0.171943
f 93/46/153 89/45/153 98/44/153

vn -0.629727 0.26767 0.729244
f 89/45/154 93/46/154 90/47/154

vn -0.328296 -0.263597 -0.907049
f 86/24/155 98/44/155 89/45/155

vn 0.865603 -0.218561 -0.450515
f 98/44/156 86/24/156 85/42/156

vn 0.880768 -0.22023 -0.419222
f 91/49/157 98/44/157 85/42/157

vn 0.865926 -0.198378 -0.45915
f 97/50/158 98/44/158 91/49/158

vn 0.561511 0.803465 0.197862
f 92/48/159 97/50/159 91/49/159

vn 0.56984 0.789655 0.227435
f 92/48/160 96/54/160 97/50/160

vn -0.0232439 0.756399 0.653697
f 95/53/161 96/54/161 92/48/161

vn 0.65345 0.0734568 0.753397
f 85/42/162 88/51/162 91/49/162

v 21.5048 34.4953 30.7271
vn -0.32104 -0.275518 -0.906103
f 99/3/163 86/24/163 89/45/163

vn 0.945972 -0.278844 -0.165479
f 84/43/164 86/24/164 99/3/164

vn 0.941767 0.275832 0.192332
v 16.9702 44.3128 38.8515
f 84/43/165 99/3/165 100/19/165

vn -0.782759 0.140208 -0.606325
f 100/19/166 99/3/166 89/45/166

v 16.8686 38.6895 56.3012
vn -0.986124 0.159599 0.0456882
f 101/20/167 100/19/167 89/45/167

vn 0.960513 0.263143 0.0903947
f 101/20/168 84/43/168 100/19/168

vn 0.87379 -0.215267 0.436063
f 101/20/169 87/21/169 84/43/169

vn -0.988962 0.107715 0.101743
f 101/20/170 89/45/170 87/21/170

g Mesh6 Component_17_2 Model

v -17.2681 48.3262 18.7002
vn -0.942032 0.267346 0.202735
v -18.6049 34.4953 30.7271
v -14.0703 44.3128 38.8515
f 102/1/171 103/3/171 104/19/171

vn -0.931729 -0.182803 -0.313789
v -8.46944 13.9687 12.5901
f 102/1/172 105/6/172 103/3/172

v -14.8956 20.8237 -6.07261
vn -0.934982 -0.278502 0.219646
f 106/26/173 105/6/173 102/1/173

vn -0.66637 -0.744325 -0.0439482
v 1.45059 5.5542 4.6873
f 105/6/174 106/26/174 107/25/174

vn -0.704088 -0.707011 0.0663054
v -6.93479 10.8934 -27.4244
f 106/26/175 108/27/175 107/25/175

v -13.5531 33.5502 -11.8349
vn -0.943146 -0.0493368 -0.328696
f 109/5/176 108/27/176 106/26/176

v 1.44968 18.1078 -30.1746
vn -0.553491 0.356296 -0.752795
f 110/36/177 108/27/177 109/5/177

v -3.14737 4.8412 -64.3593
vn -0.675206 0.713743 -0.186193
f 111/30/178 108/27/178 110/36/178

vn -0.725661 -0.686994 0.0381602
v 1.4489 0 -64.1113
f 111/30/179 112/29/179 108/27/179

vn -0.723229 -0.689031 -0.0466563
v -1.53693 4.74918 -87.9642
f 111/30/180 113/31/180 112/29/180

v 1.44839 9.74599 -64.7596
vn -0.73085 0.680515 -0.0525148
f 114/35/181 113/31/181 111/30/181

vn -0.644669 0.760184 -0.0807579
v 1.45488 7.27413 -88.0793
f 113/31/182 114/35/182 115/34/182

vn -0.638161 0.747805 -0.183133
v 1.45552 4.78344 -98.252
f 113/31/183 115/34/183 116/33/183

v 1.45358 2.07705 -88.2975
vn -0.665434 -0.720277 -0.195955
f 117/32/184 113/31/184 116/33/184

vn -0.668884 -0.74063 -0.0637327
f 112/29/185 113/31/185 117/32/185

vn 4.93978e-11 0.0813383 0.996687
v 1.4515 9.74599 -64.7596
f 114/35/186 111/30/186 118/35/186

vn -0.726454 0.667961 -0.161534
f 118/35/187 111/30/187 110/36/187

v 1.44696 3.341 -28.841
vn -0.661098 -0.746959 0.0707196
f 119/28/188 108/27/188 112/29/188

vn -0.663968 -0.746132 0.0493243
f 108/27/189 119/28/189 107/25/189

vn -0.567372 0.339664 -0.750145
v -13.8789 49.5226 -4.35626
f 110/36/190 109/5/190 120/4/190

vn -0.989865 0.0431594 -0.135296
f 109/5/191 106/26/191 120/4/191

vn -0.988751 0.0435855 -0.143082
f 120/4/192 106/26/192 102/1/192

vn -0.824349 0.558523 -0.0921948
v -9.01672 60.9719 21.5298
f 120/4/193 102/1/193 121/37/193

vn -0.837633 0.494769 0.231463
f 121/37/194 102/1/194 104/19/194

vn -0.751734 0.571035 0.329872
v 1.44994 53.576 58.1847
f 121/37/195 104/19/195 122/38/195

vn -0.690819 0.686992 0.225413
v -13.9687 38.6895 56.3012
f 104/19/196 123/20/196 122/38/196

vn -0.934491 0.337204 0.11411
f 104/19/197 103/3/197 123/20/197

vn -0.963553 -0.173984 0.203214
v -11.5533 20.4474 52.1358
f 103/3/198 124/21/198 123/20/198

vn -0.96394 -0.129941 0.232241
v -15.9554 22.8479 35.2075
f 103/3/199 125/24/199 124/21/199

vn -0.936954 -0.288814 -0.196731
f 103/3/200 105/6/200 125/24/200

vn -0.639164 -0.763976 0.0883736
v 1.44994 9.36743 44.5553
f 125/24/201 105/6/201 126/23/201

vn -0.609365 -0.789289 0.0754828
f 126/23/202 105/6/202 107/25/202

vn -0.629313 -0.775294 0.0537103
f 124/21/203 125/24/203 126/23/203

v -6.04443 21.3693 65.0422
vn -0.52252 -0.805153 0.28054
f 127/22/204 124/21/204 126/23/204

vn -0.893956 -0.208901 0.396489
f 123/20/205 124/21/205 127/22/205

vn -0.374264 0.275614 0.885417
f 123/20/206 127/22/206 122/38/206

vn -0.259918 0.258577 0.930366
v 1.44878 17.526 68.2038
f 127/22/207 128/39/207 122/38/207

vn -0.528451 -0.802555 0.276848
f 128/39/208 127/22/208 126/23/208

v 1.44955 66.1085 19.799
vn -0.383473 0.877943 0.286642
f 129/40/209 121/37/209 122/38/209

vn -0.459874 0.840831 -0.285517
f 120/4/210 121/37/210 129/40/210

vn -0.440849 0.845644 -0.300895
v 1.45176 55.8354 -9.07597
f 120/4/211 129/40/211 130/41/211

vn -0.42513 0.441808 -0.789981
f 110/36/212 120/4/212 130/41/212

g Mesh7 Model

vt -317.778 3.59313
vn -0.795928 0.523985 0.303213
v 1.45033 40.1687 94.2195
vt -317.981 3.61577
v 1.45033 50.35 76.6252
vt -317.887 3.77161
f 78/55/213 131/56/213 132/57/213

vn -0.91669 0.159118 0.366553
v 1.45033 29.6549 98.7835
vt -318.006 3.45484
f 78/55/214 133/58/214 131/56/214

vn -0.876719 -0.423451 0.228152
v -2.03843 23.4856 73.9269
vt -317.873 3.36041
f 78/55/215 134/59/215 133/58/215

vn -0.879793 -0.18061 0.439709
v -6.04443 21.3693 65.0422
vt -317.825 3.32802
f 78/55/216 135/60/216 134/59/216

v 1.45033 53.576 58.1847
vt -317.788 3.82099
vn 0.374258 -0.275618 -0.885419
f 136/61/217 135/60/217 78/55/217

vn 0.25985 -0.258569 -0.930387
v 1.45033 17.5264 68.2035
vt -317.842 3.2692
f 136/61/218 137/62/218 135/60/218

v 1.45111 17.526 68.2038
vt -317.842 3.26919
f 137/62/218 136/61/218 138/63/218

vn -0.25985 -0.258569 -0.930387
v 1.44955 17.526 68.2038
f 136/61/219 137/62/219 139/63/219

v 8.94509 21.3693 65.0422
f 137/62/219 136/61/219 140/60/219

vn -0.374258 -0.275618 -0.885419
v 16.8693 38.6895 56.3012
f 136/61/220 141/55/220 140/60/220

v 18.7861 63.5937 62.7125
vt -317.813 3.97432
vn 0.113442 0.239503 -0.964245
f 142/64/221 141/55/221 136/61/221

vn 0.709005 -0.226496 0.667841
f 141/55/222 142/64/222 132/57/222

vn -0.523381 0.839352 0.146837
f 142/64/223 136/61/223 132/57/223

vn 0.523381 0.839352 0.146837
v -15.8854 63.5937 62.7125
f 136/61/224 143/64/224 132/57/224

vn -0.113442 0.239503 -0.964245
f 143/64/225 136/61/225 78/55/225

vn -0.709005 -0.226496 0.667841
f 78/55/226 132/57/226 143/64/226

vn 0.795928 0.523985 0.303213
f 141/55/227 132/57/227 131/56/227

vn 0.91669 0.159118 0.366553
f 141/55/228 131/56/228 133/58/228

vn 0.876719 -0.423451 0.228152
v 4.93909 23.4856 73.9269
f 141/55/229 133/58/229 144/59/229

vn -1.53692e-16 -0.970553 0.240889
v 1.45033 23.4856 73.9269
f 144/59/230 133/58/230 145/59/230

vn 1.53692e-16 -0.970553 0.240889
f 145/59/231 133/58/231 134/59/231

vn -6.08434e-17 0.989819 0.14233
v 1.45033 20.6172 93.8748
vt -317.979 3.31651
f 145/59/232 134/59/232 146/65/232

vn -0.790626 0.57125 0.220417
f 135/60/233 146/65/233 134/59/233

vn -0.488269 -0.866436 0.104319
f 137/62/234 146/65/234 135/60/234

f 146/65/234 137/62/234 138/63/234

vn 0.488269 -0.866436 0.104319
f 137/62/235 146/65/235 139/63/235

f 146/65/235 137/62/235 140/60/235

v 1.45033 17.5273 68.2051
vt -317.842 3.26921
vn 0.548007 -0.723695 0.419468
f 147/66/236 137/62/236 140/60/236

vn -0.548007 -0.723695 0.419468
f 134/59/237 137/62/237 147/66/237

f 137/62/237 134/59/237 135/60/237

f 147/66/237 137/62/237 138/63/237

f 137/62/236 147/66/236 139/63/236

vn 0.831984 -0.550824 0.0663032
f 144/59/238 139/63/238 147/66/238

f 139/63/238 144/59/238 146/65/238

vn 0.790626 0.57125 0.220417
f 140/60/239 144/59/239 146/65/239

f 147/66/236 140/60/236 144/59/236

vn 0.879793 -0.18061 0.439709
f 141/55/240 144/59/240 140/60/240

vn 3.25405e-33 0.989819 0.14233
f 144/59/241 145/59/241 146/65/241

vn -0.831984 -0.550824 0.0663032
f 138/63/242 134/59/242 147/66/242

f 134/59/242 138/63/242 146/65/242

