# Blender v2.90.0 OBJ File: ''
# www.blender.org
mtllib rihousegrass.mtl
o rihousegrass
v 2.407740 0.104798 -1.677390
v 2.206740 0.105598 -2.012500
v 1.927530 0.105400 -0.928811
v 3.152300 0.105598 -2.207990
v 2.608730 0.103998 -1.342280
v 1.927530 0.546153 -0.928811
v 2.120820 0.546225 -0.813826
v 1.637830 0.545558 -0.290706
v 2.334470 0.626540 -0.459883
v 2.608730 0.546899 -1.342280
v 3.288350 0.547477 -1.676670
v 3.850810 0.547808 -1.600860
v 3.288350 0.104028 -1.676670
v 3.850810 0.104045 -1.600860
v 4.322310 0.054703 -2.073100
v 1.767040 0.093402 -0.998755
v 1.637830 0.105598 -0.290706
v 1.949170 0.155598 -2.218310
v 1.767280 0.187922 -2.303940
v 1.329060 0.207554 -1.486090
v 2.705200 0.148285 -2.764610
v 3.068580 0.025599 -2.714880
v 3.224590 0.072699 -3.517840
v 2.217670 0.252511 -2.786590
v 1.767280 0.297535 -2.303940
v 1.435890 0.431856 -2.547430
v 1.329060 0.334987 -1.486090
v 1.052700 0.384987 -1.452330
v 1.128300 0.330634 -0.498810
v 0.725502 0.397811 -0.885571
v 1.128300 0.105598 -0.498810
v 4.839190 0.908873 -2.745780
v 4.273750 0.763406 -2.090560
v 4.563650 0.790970 -2.140560
v 4.342000 0.877773 -2.706710
v 4.384680 0.966776 -3.091950
vt -20.779800 2.904840
vt -19.625900 2.855220
vt -21.844900 5.307980
vt -20.682800 0.204387
vt -21.933701 2.954460
vt -21.844900 5.307980
vt -22.443100 5.018310
vt -22.947500 7.061310
vt -23.664101 5.067370
vt -21.933701 2.954460
vt -22.215000 0.733602
vt -23.317499 -0.530560
vt -22.215000 0.733602
vt -23.317499 -0.530560
vt -22.920000 -2.462420
vt -21.411100 5.590050
vt -22.947500 7.061310
vt -18.698999 3.155630
vt -18.191700 3.464970
vt -19.495899 5.877280
vt -18.581900 0.401307
vt -19.296000 -0.414162
vt -17.569099 -2.106030
vt -17.734100 1.568270
vt -18.191700 3.464970
vt -17.051600 3.886150
vt -19.495899 5.877280
vt -19.129400 6.613980
vt -21.604700 7.979550
vt -19.995001 8.343700
vt -21.604700 7.979550
vt -22.101900 -4.832460
vt -22.797899 -2.371050
vt -23.146400 -3.167590
vt -21.389000 -3.542330
vt -20.508101 -4.274670
vn 0.0026 1.0000 0.0008
vn 0.0005 1.0000 0.0026
vn 0.0004 1.0000 0.0021
vn 0.0007 1.0000 0.0023
vn 0.4170 0.8744 -0.2480
vn 0.2718 0.8466 -0.4575
vn -0.0007 1.0000 0.0006
vn -0.1465 0.9801 -0.1340
vn -0.0531 0.9929 -0.1061
vn 0.0074 0.9982 -0.0591
vn 0.0004 1.0000 0.0029
vn -0.0004 1.0000 0.0031
vn 0.0497 0.9973 -0.0546
vn -0.0671 0.9976 -0.0171
vn -0.0622 0.9977 -0.0285
vn 0.1490 0.9872 0.0561
vn 0.1097 0.9843 0.1386
vn 0.2576 0.9027 0.3445
vn 0.3037 0.9459 0.1145
vn 0.2069 0.9773 0.0446
vn 0.2037 0.9740 0.0993
vn 0.2671 0.9502 0.1606
vn 0.2984 0.9473 0.1165
vn 0.1898 0.9759 0.1082
vn 0.1828 0.9823 0.0415
vn 0.1203 0.9916 0.0470
vn 0.2583 0.9542 0.1511
vn -0.0657 0.9846 0.1619
vn -0.0476 0.9830 0.1772
vn -0.0436 0.9745 0.2203
usemtl grassforest.002
s 1
f 1/1/1 2/2/1 3/3/1
f 4/4/2 2/2/3 1/1/3
f 4/4/2 1/1/3 5/5/4
f 5/5/5 1/1/5 6/6/5
f 5/5/6 6/6/6 7/7/6
f 7/7/7 6/6/7 8/8/7
f 9/9/8 7/7/8 8/8/8
f 10/10/8 7/7/8 9/9/8
f 11/11/9 10/10/9 9/9/9
f 12/12/10 11/11/10 9/9/10
f 13/13/11 4/4/2 5/5/4
f 14/14/12 4/4/2 13/13/11
f 15/15/13 4/4/13 14/14/13
f 2/2/14 16/16/14 3/3/14
f 3/3/15 16/16/15 17/17/15
f 18/18/16 19/19/16 20/20/16
f 21/21/17 19/19/17 18/18/17
f 22/22/18 21/21/18 18/18/18
f 23/23/19 21/21/19 22/22/19
f 23/23/20 24/24/20 21/21/20
f 21/21/21 24/24/21 25/25/21
f 24/24/22 26/26/22 25/25/22
f 25/25/23 26/26/23 27/27/23
f 26/26/24 28/28/24 27/27/24
f 27/27/25 28/28/25 29/29/25
f 29/29/26 28/28/26 30/30/26
f 18/18/27 20/20/27 31/31/27
f 32/32/28 33/33/28 34/34/28
f 32/32/29 35/35/29 33/33/29
f 32/32/30 36/36/30 35/35/30
