# Blender v2.90.0 OBJ File: ''
# www.blender.org
mtllib shellfish.mtl
o shellfish
v 0.187146 -0.000000 0.077231
v -0.000000 0.060000 0.000000
v 0.113372 -0.000000 0.145631
v 0.105000 0.050000 -0.065000
v 0.125630 0.000000 -0.082711
v -0.000000 0.060000 -0.125000
v -0.105000 0.050000 -0.065000
v -0.126501 0.000000 -0.082213
v -0.000000 0.000000 -0.154499
v -0.175603 -0.000000 0.077368
v -0.108003 -0.000000 0.155699
v -0.000402 -0.000000 0.174030
vt 5.820420 -15.270800
vt 6.540300 -15.567900
vt 6.104200 -15.007700
vt 6.136400 -15.817900
vt 6.057050 -15.886000
vt 6.540300 -16.048700
vt 6.944200 -15.817900
vt 7.026910 -15.884100
vt 6.540300 -16.162201
vt 7.215790 -15.270200
vt 6.955750 -14.968900
vt 6.541850 -14.898400
vn 0.2109 0.9507 0.2275
vn 0.2197 0.9531 0.2082
vn 0.8307 0.4559 -0.3195
vn 0.4729 0.4611 -0.7508
vn 0.0948 0.9955 0.0000
vn -0.0948 0.9955 0.0000
vn -0.4728 0.4617 -0.7505
vn -0.4563 0.3926 -0.7985
vn 0.4563 0.3926 -0.7985
vn -0.8507 0.4559 -0.2617
vn -0.2269 0.9486 0.2206
vn -0.2353 0.9505 0.2031
vn -0.0554 0.9440 0.3253
vn 0.0811 0.9422 0.3250
usemtl _308
s 1
f 1/1/1 2/2/1 3/3/1
f 1/1/2 4/4/2 2/2/2
f 5/5/3 4/4/3 1/1/3
f 6/6/4 4/4/4 5/5/4
f 4/4/5 6/6/5 2/2/5
f 6/6/6 7/7/6 2/2/6
f 6/6/7 8/8/7 7/7/7
f 6/6/8 9/9/8 8/8/8
f 6/6/9 5/5/9 9/9/9
f 8/8/10 10/10/10 7/7/10
f 2/2/11 7/7/11 10/10/11
f 2/2/12 10/10/12 11/11/12
f 2/2/13 11/11/13 12/12/13
f 3/3/14 2/2/14 12/12/14
