# Blender v2.90.0 OBJ File: ''
# www.blender.org
mtllib shelf1.mtl
o shelf1
v 0.000000 0.109184 0.011000
v 0.085696 0.338349 0.011000
v -0.000000 0.338349 0.011000
v 0.085696 0.109184 0.011000
v 0.085696 0.109184 0.114170
v 0.000000 0.109184 0.114170
v 0.000000 0.109184 -0.011000
v -0.000000 0.109184 -0.114170
v 0.000000 -0.000000 0.114170
v -0.000000 0.000000 -0.114170
v -0.000000 0.365829 -0.143280
v -0.000000 0.000000 -0.143280
v 0.094520 0.365829 -0.143280
v 0.094520 0.000000 -0.143280
v 0.094520 0.365829 0.136112
v -0.000000 0.365829 0.136112
v -0.000000 0.338349 -0.115720
v -0.000000 0.338349 0.112621
v -0.000000 0.338290 -0.011000
v 0.085696 0.338290 -0.011000
v 0.085696 0.338349 -0.115720
v 0.085696 0.109184 -0.114170
v 0.085696 0.109184 -0.011000
v 0.085696 0.338349 0.112621
v 0.000000 -0.000000 0.136112
v 0.094520 -0.000000 0.136112
vt -170.610992 18.330799
vt -174.190994 19.669201
vt -174.190994 18.330799
vt -170.610992 19.669201
vt -169.000000 19.669201
vt -169.000000 18.330799
vt -304.609985 14.646000
vt -303.128998 14.646000
vt -304.348999 14.646000
vt -305.829987 14.646000
vt -303.128998 13.354500
vt -305.829987 13.354500
vt -166.095993 19.633499
vt -171.000000 18.366501
vt -166.095993 18.366501
vt -171.000000 19.633499
vt -165.800995 18.366501
vt -162.056000 19.633499
vt -165.800995 19.633499
vt -162.056000 18.366501
vt -166.712006 17.356300
vt -163.733002 17.681299
vt -167.037994 17.681299
vt -164.011002 17.356300
vt -165.212997 17.356300
vt -165.473007 17.355600
vt -176.145996 18.330799
vt -177.781006 19.669201
vt -177.781006 18.330799
vt -176.145996 19.669201
vt -172.565994 18.330799
vt -172.565994 19.669201
vt -170.955002 19.669201
vt -170.955002 18.330799
vt -167.376999 19.669201
vt -167.376999 18.330799
vt -178.125000 18.330799
vt -179.712006 19.669201
vt -179.712006 18.330799
vt -178.125000 19.669201
vt -165.421005 19.669201
vt -165.421005 18.330799
vt -156.858002 18.366501
vt -161.761993 19.633499
vt -161.761993 18.366501
vt -156.858002 19.633499
vt -8.048910 0.266040
vt -15.000400 -0.276542
vt -12.925900 -0.279676
vt -14.999600 0.276542
vt -12.999700 -1.791000
vt -8.646220 -2.215580
vt -8.646710 -1.797580
vt -13.000300 -2.209000
vt -11.397600 -0.131008
vt -13.000500 -0.860580
vt -11.399100 -0.863000
vt -12.999500 -0.139420
vt -8.571810 -0.256813
vt -11.397600 -1.141840
vt -13.000500 -1.860580
vt -11.398700 -1.852170
vt -12.999500 -1.139420
vt -12.997200 -4.805560
vt -8.121650 -5.229810
vt -8.643080 -4.782690
vt -15.072300 -5.219310
vt -15.071700 -4.802420
vn 0.0000 -0.0000 1.0000
vn 0.0000 1.0000 0.0000
vn 0.0315 0.4997 -0.8656
vn -1.0000 -0.0000 0.0000
vn -0.6244 0.7811 0.0000
vn 0.0000 0.0000 -1.0000
vn 0.0308 -0.4997 0.8656
vn 0.0000 -1.0000 -0.0006
vn 0.0000 0.0068 1.0000
vn 0.0000 -1.0000 -0.0000
vn 0.0000 -0.0068 -1.0000
usemtl _42
s 1
f 1/1/1 2/2/1 3/3/1
f 2/2/1 1/1/1 4/4/1
f 1/1/2 5/5/2 4/4/2
f 5/5/2 1/1/2 6/6/2
f 7/7/3 6/8/4 1/9/5
f 8/10/4 6/8/4 7/7/3
f 8/10/4 9/11/4 6/8/4
f 9/11/4 8/10/4 10/12/4
f 13/13/6 12/14/6 11/15/6
f 12/14/6 13/13/6 14/16/6
f 11/17/2 15/18/2 13/19/2
f 15/18/2 11/17/2 16/20/2
f 17/21/4 16/22/4 11/23/4
f 17/21/4 18/24/4 16/22/4
f 17/21/4 3/25/7 18/24/4
f 3/25/7 17/21/4 19/26/4
f 17/27/8 20/28/8 19/29/8
f 20/28/8 17/27/8 21/30/8
f 8/31/9 21/30/9 17/27/9
f 21/30/9 8/31/9 22/32/9
f 8/31/2 23/33/2 22/32/2
f 23/33/2 8/31/2 7/34/2
f 7/34/6 20/35/6 23/33/6
f 20/35/6 7/34/6 19/36/6
f 3/37/10 24/38/10 18/39/10
f 24/38/10 3/37/10 2/40/10
f 6/6/11 24/41/11 5/5/11
f 24/41/11 6/6/11 18/42/11
f 25/43/1 15/44/1 16/45/1
f 15/44/1 25/43/1 26/46/1
usemtl _66
f 11/47/4 10/48/4 8/49/4
f 10/48/4 11/47/4 12/50/4
f 7/51/3 3/52/7 19/53/4
f 3/52/7 7/51/3 1/54/5
f 21/55/4 23/56/4 20/57/4
f 23/56/4 21/55/4 22/58/4
f 11/47/4 8/49/4 17/59/4
f 2/60/4 5/61/4 24/62/4
f 5/61/4 2/60/4 4/63/4
f 6/64/4 16/65/4 18/66/4
f 6/64/4 25/67/4 16/65/4
f 25/67/4 6/64/4 9/68/4
