# Blender v2.90.0 OBJ File: ''
# www.blender.org
mtllib table2.mtl
o table2
v 0.099636 0.110000 0.193130
v 0.099636 0.110000 -0.219315
v -0.126524 0.110000 0.193130
v 0.099636 0.080696 -0.219315
v 0.099636 0.080696 0.193130
v 0.043096 0.110000 0.334353
v 0.043096 0.080696 0.334353
v -0.069984 0.110000 0.334353
v -0.069984 0.080696 0.334353
v -0.126524 0.080696 0.193130
v -0.126524 0.110000 -0.219315
v -0.126524 0.080696 -0.219315
v -0.069984 0.110000 -0.360537
v -0.069984 0.080696 -0.360537
v 0.043096 0.080696 -0.360537
v 0.043096 0.110000 -0.360537
v 0.008556 0.088000 0.238908
v -0.035444 -0.000000 0.238908
v 0.008556 -0.000000 0.238908
v -0.035444 0.088000 0.238908
v -0.035444 0.000000 -0.265092
v -0.035444 0.088000 -0.265092
v 0.008556 0.000000 -0.265092
v 0.008556 0.088000 -0.265092
vt -5.000000 -25.061199
vt -5.000000 -23.237499
vt -6.000000 -25.061199
vt -4.870430 -23.237499
vt -4.870430 -25.061199
vt -5.000000 -24.672600
vt -4.870430 -24.000000
vt -5.000000 -24.000000
vt -4.870430 -24.672600
vt -5.000000 -25.172600
vt -4.870430 -25.172600
vt -5.000000 -25.845200
vt -4.870430 -25.845200
vt -5.000000 -26.607700
vt -4.870430 -24.784000
vt -5.000000 -24.784000
vt -4.870430 -26.607700
vt -5.000000 -27.280399
vt -4.870430 -27.280399
vt -4.870430 -27.780399
vt -5.000000 -27.780399
vt -5.250000 -22.613100
vt -5.750000 -22.613100
vt -6.000000 -23.237499
vt -4.870430 -22.564899
vt -5.000000 -22.564899
vt -6.000000 -24.000000
vt -5.750000 -24.624399
vt -5.250000 -24.624399
vt -4.902720 -21.478701
vt -4.513620 -21.673201
vt -4.513620 -21.478701
vt -4.902720 -21.673201
vt -4.902720 -20.612000
vt -4.513620 -22.840500
vt -4.513620 -20.612000
vt -4.902720 -22.840500
vt -4.513620 -23.035101
vt -4.902720 -23.035101
vt -4.513620 -25.263599
vt -4.902720 -25.263599
vn 0.0000 1.0000 0.0000
vn 1.0000 0.0000 0.0000
vn 0.9284 0.0000 0.3717
vn 0.0000 -0.0000 1.0000
vn -0.9284 -0.0000 0.3717
vn -1.0000 0.0000 0.0000
vn -0.9284 0.0000 -0.3717
vn 0.0000 0.0000 -1.0000
vn 0.9284 0.0000 -0.3717
usemtl _299
s 1
f 1/1/1 2/2/1 3/3/1
f 1/1/2 4/4/2 2/2/2
f 4/4/2 1/1/2 5/5/2
f 6/6/3 5/7/3 1/8/3
f 5/7/3 6/6/3 7/9/3
f 8/10/4 7/9/4 6/6/4
f 7/9/4 8/10/4 9/11/4
f 3/12/5 9/11/5 8/10/5
f 9/11/5 3/12/5 10/13/5
f 11/14/6 10/15/6 3/16/6
f 10/15/6 11/14/6 12/17/6
f 13/18/7 12/17/7 11/14/7
f 12/17/7 13/18/7 14/19/7
f 13/18/8 15/20/8 14/19/8
f 15/20/8 13/18/8 16/21/8
f 16/22/1 13/23/1 3/3/1
f 13/23/1 11/24/1 3/3/1
f 2/2/1 16/22/1 3/3/1
f 2/2/9 15/25/9 16/26/9
f 15/25/9 2/2/9 4/4/9
f 1/8/1 3/27/1 8/28/1
f 1/8/1 8/28/1 6/29/1
f 17/30/4 18/31/4 19/32/4
f 18/31/4 17/30/4 20/33/4
f 20/34/6 21/35/6 18/36/6
f 21/35/6 20/34/6 22/37/6
f 22/37/8 23/38/8 21/35/8
f 23/38/8 22/37/8 24/39/8
f 24/39/2 19/40/2 23/38/2
f 19/40/2 24/39/2 17/41/2
