# Blender v2.90.0 OBJ File: ''
# www.blender.org
mtllib templedec1.mtl
o templedec1
v -0.186694 0.922971 0.033023
v 0.000000 0.922971 -0.033023
v -0.186694 -0.000000 0.033023
v -0.000000 0.000000 -0.033023
v 0.193090 -0.000000 0.033023
v 0.193090 0.922971 0.033023
vt 1.015640 0.796694
vt 1.015640 0.013418
vt 4.887980 0.796693
vt 4.887980 0.013418
vt 4.887980 -0.796693
vt 1.015640 -0.796694
vn -0.3335 0.0000 -0.9427
vn 0.3236 0.0000 -0.9462
usemtl templedeco
s 1
f 1/1/1 2/2/1 3/3/1
f 2/2/1 4/4/1 3/3/1
f 2/2/2 5/5/2 4/4/2
f 6/6/2 5/5/2 2/2/2
