# Blender v2.90.0 OBJ File: ''
# www.blender.org
mtllib variouscaves.mtl
o variouscaves.001
v -0.681843 1.780000 -1.668880
v -0.074506 -0.260080 -1.179950
v -0.970346 1.780000 -0.689636
v -0.064542 1.780000 -1.945160
v 0.484256 1.780000 -1.602190
v 0.725753 1.780000 -0.772947
v -0.243045 1.890000 -1.145910
v -0.141548 1.780000 -0.516670
v 0.648436 1.450000 0.426323
v 0.731027 0.333456 0.927262
v 0.085567 1.450000 0.870779
v 1.066590 1.450000 0.499933
v 1.183940 1.450000 0.896912
v 0.942396 1.450000 1.453690
v 0.634754 1.530000 0.883846
v 0.411901 1.450000 1.275980
v 3.166470 2.087260 0.803683
v 2.922940 2.333990 1.428330
v 1.634850 2.949370 0.315448
v 0.502938 2.333990 1.887740
v 0.230874 2.949370 -0.024552
v -0.955260 2.517030 1.361530
v -1.822840 2.351380 0.755444
v -2.107480 2.297030 0.556593
v -2.905840 2.517030 -1.033310
v -2.717060 2.333990 -1.647430
v -0.833134 2.143991 -2.200410
v 1.336750 2.333990 -1.047430
v 2.606750 1.936510 -0.557430
v 4.292940 1.936510 0.068911
v 0.892691 1.853990 -2.257430
v 1.506110 1.450000 -1.617730
v 1.588700 0.333456 -1.116790
v 0.943237 1.450000 -1.173280
v 1.269570 1.450000 -0.768079
v 1.800070 1.450000 -0.590368
v 2.041610 1.450000 -1.147140
v 1.492420 1.530000 -1.160210
v 2.826480 1.244640 1.086260
v 2.602600 0.686371 0.966619
v 2.561330 1.154640 0.733900
v 2.329420 1.154640 0.890314
v 2.476840 1.244640 1.155560
v 2.505420 1.244640 0.907706
v 4.416750 1.315320 -0.447430
v 5.961020 1.026510 -0.140088
v 5.961020 1.315320 -0.140088
v 4.416750 1.026510 -0.447430
v 2.606750 1.936510 -0.557430
v 2.846750 1.026510 -0.557430
v 1.506750 1.680250 -1.347430
v 1.336750 2.333990 -1.047430
v 0.892691 1.853990 -2.257430
v 0.892691 1.023990 -2.257430
v 1.536750 1.026510 -1.227430
v 0.166759 0.819730 -0.438448
v -0.200254 1.014750 -2.635390
v -1.121380 1.671860 -2.223400
v -0.833134 2.143991 -2.200410
v -2.717060 2.333990 -1.647430
v -2.717060 1.781860 -1.647430
v -2.905840 2.517030 -1.033310
v -3.027840 1.781860 -0.636427
v -2.107480 2.297030 0.556593
v -2.112530 1.771860 0.403735
v -2.211970 1.736770 0.679440
v -2.012600 1.747290 0.803568
v -1.845430 1.687790 0.740607
v -0.955260 2.517030 1.361530
v -1.077260 1.637790 1.758410
v 0.502938 2.333990 1.887740
v 0.221669 1.630130 1.960230
v 0.502938 1.399440 2.137740
v 2.922940 2.333990 1.428330
v 3.112940 1.917640 1.558330
v 3.166470 2.087260 0.803683
v 3.296470 1.712100 0.973683
v 4.532940 1.235730 0.068910
v 3.166470 1.336940 0.803683
v 4.532940 1.009730 0.068910
v 5.472940 1.009730 0.068910
v 5.472940 1.285730 0.068910
v 5.613770 1.423970 0.008604
v 6.888440 2.103850 1.705680
v 6.596670 1.649730 1.658320
v 6.806670 1.379730 1.658320
v 7.236880 1.421690 1.425820
v 7.156880 1.963690 1.425820
v 4.474850 1.390520 -0.189260
v 4.292940 1.936510 0.068911
v 5.025970 0.976833 -0.149600
v 4.474850 0.978122 -0.189260
v 3.271830 0.957034 0.071033
v 2.050030 1.069730 0.134942
v 0.750946 1.009730 1.693100
v 0.048529 0.913254 1.336160
v -0.997364 1.009730 0.754789
v -1.845430 1.009730 0.850607
v -2.143110 1.009730 -0.044948
v -1.258860 1.009730 -1.669260
v -1.361380 1.009730 -2.383400
v -1.047090 1.671860 -1.439590
v -2.059810 1.671860 -1.357930
v -1.474220 1.671860 0.201929
v -1.881190 1.417480 0.127084
v -2.212530 1.009730 0.443735
v -0.997364 1.547790 0.644789
v 0.048529 1.543650 1.226160
v 0.502938 1.009730 2.107740
v 0.750946 1.299440 1.563100
v 3.166470 1.009730 0.803683
v 3.142940 1.436940 1.428330
v -2.250400 1.009730 -1.672270
vt -35.385700 -1.789510
vt -36.990898 -6.004790
vt -36.561501 -1.783190
vt -35.763901 -1.787480
vt -37.036598 -1.780630
vt -38.675900 -1.771810
vt -37.934700 -1.775800
vt -39.713001 -2.449480
vt -40.768600 -4.755560
vt -40.586102 -2.444780
vt -39.899799 -2.448470
vt -40.730701 -2.444000
vt -41.862598 -2.437910
vt -41.451199 -2.440120
vt -39.713001 -2.449480
vt -40.768600 -4.755560
vt -40.586102 -2.444780
vt -41.451199 -2.440120
vt -41.862598 -2.437910
vt -40.730701 -2.444000
vt -39.713001 -2.449480
vt -40.768600 -4.755560
vt -41.453300 -2.812790
vt -41.864601 -2.810580
vt -40.730701 -2.444000
vt -43.086899 -2.710180
vt -45.625000 -3.294470
vt -45.621700 -2.696530
vt -43.090099 -3.308110
vt -40.507099 -1.437890
vt -40.835201 -3.320250
vt -37.795700 -1.983070
vt -38.040501 -0.628217
vt -35.532398 -1.635540
vt -35.541599 -3.353980
vt -38.033699 -3.335330
vt -33.492401 -3.384120
vt -32.920300 -2.026690
vt -33.333500 -1.046940
vt -31.715401 -0.662261
vt -31.721500 -1.805390
vt -32.440300 -0.279376
vt -32.918400 -1.798950
vt -36.030102 -0.715557
vt -35.786098 -1.804220
vt -36.093399 -1.875210
vt -36.554901 -1.850960
vt -36.723000 -0.599300
vt -36.676800 -1.973490
vt -38.834801 -0.244958
vt -39.314499 -2.062820
vt -41.605900 -0.609026
vt -41.356499 -2.067680
vt -42.014099 -2.541770
vt -44.081001 -0.595704
vt -44.544201 -1.455250
vt -43.412498 -1.110150
vt -43.859402 -1.884500
vt -44.063202 -2.869700
vt -43.420898 -2.663620
vt -44.065701 -3.337610
vt -45.311100 -3.330910
vt -45.307999 -2.759480
vt -49.778301 -1.041530
vt -49.321499 -1.984230
vt -49.602699 -2.541740
vt -49.802299 -2.453790
vt -49.690300 -1.332190
vt -43.573799 -2.551840
vt -43.737499 -1.420510
vt -32.355202 -3.400640
vt -33.627201 -3.393800
vt -34.265800 -2.019450
vt -36.311699 -2.008430
vt -35.656300 -2.538640
vt -33.054100 -2.025970
vt -35.040199 -3.386190
vt -35.725700 -3.382500
vt -36.859402 -3.376400
vt -37.830502 -3.371170
vt -37.649502 -2.258120
vt -39.960098 -2.254240
vt -40.142101 -3.558480
vt -41.970699 -3.348890
vt -41.639500 -3.350670
vt -41.429501 -2.751960
vt -43.424500 -3.341060
vt -44.382401 -2.451390
vt -32.308899 -3.400890
vt -21.385300 -38.615501
vt -19.758200 -39.727901
vt -19.136700 -37.869701
vt -18.293699 -39.537601
vt -17.605400 -38.156200
vt -18.515200 -36.011501
vt -20.227200 -36.907200
vt -24.822100 -38.206902
vt -23.709400 -39.031700
vt -23.396400 -37.817699
vt -22.766399 -38.976101
vt -22.386499 -38.084702
vt -23.083401 -36.603802
vt -24.152800 -37.119598
vt -27.053499 -40.742100
vt -27.528900 -39.287800
vt -23.645500 -39.384201
vt -23.927200 -34.972000
vt -20.677299 -37.949902
vt -20.593599 -33.787498
vt -18.185801 -33.599400
vt -17.395800 -33.537701
vt -13.684900 -35.184700
vt -13.128100 -36.541100
vt -15.649000 -40.245300
vt -21.145500 -41.355598
vt -24.094801 -42.331299
vt -27.975401 -43.669601
vt -18.609600 -42.846001
vt -24.822100 -38.206902
vt -23.709400 -39.031700
vt -23.396400 -37.817699
vt -22.386499 -38.084702
vt -23.083401 -36.603802
vt -24.152800 -37.119598
vt -24.822100 -38.206902
vt -23.709400 -39.031700
vt -24.057699 -37.947498
vt -22.386499 -38.084702
vt -24.152800 -37.119598
vt -21.237400 -41.962700
vt -18.609600 -42.846001
vt -19.964600 -38.586899
vt -16.134899 -41.929100
vt -30.217100 -45.689301
vt -30.056101 -45.379002
vt -28.398600 -44.017200
vt -34.923199 -44.543301
vt -34.710400 -44.508400
vt -30.614000 -46.454498
vt -30.056101 -45.379002
vt -35.132198 -45.541599
vt -34.991199 -45.425701
vt -30.614000 -46.454498
vt -27.445700 -44.759399
vt -27.922199 -44.388302
vt -28.951401 -45.116798
vt -27.445700 -44.759399
vt -27.922199 -44.388302
vt -26.177900 -42.186600
vt -24.518000 -42.679001
vt -24.116100 -40.304001
vt -24.082600 -35.674500
vt -22.326900 -35.286400
vt -19.640400 -34.796398
vt -18.283800 -33.398899
vt -16.461599 -34.546799
vt -15.667800 -38.692001
vt -14.452500 -39.802700
vt -16.373899 -38.593800
vt -15.107400 -39.868301
vt -14.706400 -36.982700
vt -13.128100 -36.541100
vt -17.165501 -33.799999
vt -14.044700 -34.308201
vt -17.998699 -35.080502
vt -18.124500 -33.592899
vt -17.389500 -33.169701
vt -17.920900 -33.239700
vt -19.481100 -34.990398
vt -20.953400 -32.910900
vt -23.536301 -34.436699
vt -22.167500 -35.480301
vt -24.245899 -34.584099
vt -28.398600 -44.017200
vt -27.053499 -40.742100
vt -27.053499 -40.742100
vt -23.894199 -35.903801
vt -24.289400 -34.531200
vt -27.916901 -39.606499
vt -17.047100 -33.584599
vt -13.915000 -37.260899
vn -0.9044 -0.3331 -0.2665
vn -0.3867 -0.3222 -0.8641
vn 0.5047 -0.3054 -0.8075
vn 0.9142 -0.3055 -0.2662
vn 0.2712 -0.2895 0.9179
vn -0.1943 -0.3091 0.9310
vn -0.5758 -0.3698 -0.7292
vn 0.1593 -0.3943 -0.9051
vn 0.8914 -0.3687 -0.2635
vn 0.8628 -0.3398 0.3743
vn -0.2962 -0.3609 0.8843
vn -0.7184 -0.3861 0.5786
vn -0.7185 -0.3861 0.5786
vn 0.8065 -0.2046 -0.5547
vn -0.5077 -0.4189 -0.7528
vn -0.7607 -0.3552 0.5433
vn -0.1952 -0.0000 0.9808
vn -0.0607 -0.0000 0.9982
vn -0.0699 -0.0184 0.9974
vn -0.5544 -0.1462 0.8193
vn -0.4417 -0.4665 0.7663
vn -0.7894 -0.4135 0.4537
vn -0.8289 0.0000 0.5594
vn -0.8465 0.0583 0.5292
vn -0.3268 0.0000 0.9451
vn 0.0575 -0.4712 0.8801
vn 0.0225 -0.0623 0.9978
vn 0.2569 -0.2029 0.9449
vn 0.3395 -0.0000 0.9406
vn 0.9559 0.0000 0.2938
vn 0.8045 -0.3800 -0.4565
vn 0.7391 0.1817 -0.6486
vn 0.9397 -0.1038 0.3257
vn 0.5187 -0.2743 -0.8098
vn 0.5862 -0.2457 -0.7720
vn -0.3421 0.0326 -0.9391
vn 0.5728 -0.0012 -0.8197
vn 0.7358 -0.3608 -0.5731
vn 0.2590 -0.4270 -0.8664
vn 0.1506 -0.1606 -0.9755
vn 0.3696 -0.2401 -0.8976
vn -0.1804 -0.2542 -0.9502
vn -0.1359 -0.3513 -0.9264
vn -0.8772 -0.4514 -0.1637
vn -0.9109 -0.3840 -0.1509
vn -0.6297 -0.4910 -0.6020
vn -0.3850 0.4883 -0.7832
vn -0.4736 -0.0000 -0.8807
vn 0.0000 0.0000 -1.0000
vn 0.7742 -0.4511 -0.4440
vn 0.8165 0.0000 -0.5773
vn 0.6148 0.4782 -0.6272
vn -0.7753 0.0000 0.6317
vn -0.7665 -0.1131 0.6322
vn -0.9459 -0.3239 0.0186
vn -0.5541 -0.1898 -0.8105
vn -0.8453 -0.4309 0.3158
vn -0.2655 -0.6470 0.7148
vn -0.4508 0.1411 0.8814
vn 0.2036 -0.2991 0.9323
vn 0.9415 -0.3086 -0.1352
vn 0.9572 -0.2747 -0.0907
vn 0.5456 -0.8126 -0.2048
vn 0.1790 -0.5302 0.8288
vn 0.2311 -0.5005 0.8343
vn 0.9827 -0.1216 0.1396
vn 0.7602 -0.1331 -0.6359
vn 0.7381 -0.1080 -0.6660
vn -0.1108 -0.1591 -0.9810
vn -0.1423 -0.1983 -0.9698
vn 0.9736 -0.0393 -0.2250
vn 0.8204 0.2496 -0.5144
vn 0.5691 0.0631 -0.8198
vn -0.8575 0.0395 -0.5129
vn -0.9157 -0.1645 -0.3666
vn -0.2701 -0.3942 -0.8785
vn -0.3455 0.0000 -0.9384
vn -0.2552 0.2375 -0.9372
vn -0.9981 -0.0545 -0.0289
vn -0.7889 0.4587 -0.4089
vn 0.4798 -0.1508 -0.8643
vn 0.4656 -0.1773 -0.8671
vn 0.8605 -0.4748 -0.1848
vn 0.9667 -0.2480 -0.0637
vn 0.0720 -0.4446 0.8928
vn -0.0029 -0.3269 0.9451
vn 0.1268 0.9912 -0.0369
vn 0.0747 0.9900 -0.1196
vn -0.0675 0.9863 -0.1508
vn -0.1822 0.9818 -0.0537
vn -0.0371 0.9833 0.1779
vn 0.0486 0.9852 0.1644
vn 0.1424 0.9879 0.0618
vn 0.1450 0.9885 -0.0429
vn 0.0302 0.9848 -0.1713
vn -0.1379 0.9749 -0.1746
vn -0.1459 0.9823 0.1175
vn -0.0565 0.9841 0.1687
vn -0.5178 -0.8452 0.1320
vn -0.0781 -0.9080 -0.4116
vn 0.0763 -0.9459 -0.3153
vn -0.0094 -0.9523 -0.3051
vn 0.2469 -0.9649 -0.0897
vn 0.2065 -0.9498 -0.2351
vn 0.0365 -0.9546 0.2957
vn 0.0064 -0.9388 0.3444
vn -0.1336 -0.9064 0.4008
vn -0.1037 -0.8978 0.4281
vn -0.4199 -0.7892 0.4482
vn -0.2294 -0.7523 0.6176
vn -0.3601 -0.8533 -0.3770
vn -0.1381 -0.9022 0.4086
vn 0.1460 0.9752 -0.1662
vn -0.4506 0.8912 -0.0520
vn -0.0000 1.0000 0.0000
vn 0.2183 0.8935 -0.3925
vn -0.3487 0.7818 -0.5170
vn -0.1111 0.9916 0.0670
vn -0.0413 0.9946 0.0952
vn 0.0223 -0.4187 -0.9078
vn 0.6457 -0.7400 -0.1885
vn -0.0971 0.9843 -0.1477
vn -0.1592 0.9802 -0.1177
vn -0.0458 -0.9101 0.4118
vn -0.0959 -0.8970 0.4314
vn -0.0885 -0.8913 0.4446
vn -0.0212 -0.9586 0.2840
vn 0.1167 -0.8400 -0.5299
vn -0.0526 0.9977 -0.0427
vn -0.0538 0.9612 0.2704
vn -0.0111 0.9824 0.1866
vn 0.0216 0.9835 0.1795
vn -0.0081 0.9933 0.1153
vn -0.0849 0.9825 0.1661
vn 0.0883 0.9940 -0.0640
vn 0.0883 0.9940 -0.0648
vn 0.0886 0.9943 -0.0600
vn -0.1377 0.9903 0.0205
vn -0.1143 0.9918 -0.0571
vn -0.1077 0.9924 -0.0589
vn -0.1114 0.9921 -0.0569
vn -0.1049 0.9926 -0.0619
vn 0.1163 0.9922 -0.0445
vn -0.0199 0.9842 -0.1761
vn 0.0776 0.9967 -0.0258
vn 0.0902 0.9947 0.0491
vn 0.1504 0.9884 -0.0216
vn 0.0144 0.9962 0.0860
vn 0.1117 0.9863 0.1211
vn 0.1863 0.9812 -0.0501
vn 0.0081 1.0000 0.0025
vn 0.1385 0.9890 -0.0520
vn 0.1040 0.9812 0.1624
vn 0.1837 0.9098 -0.3721
vn 0.1550 0.9855 -0.0685
vn 0.0182 0.9967 -0.0792
vn 0.0789 0.9877 -0.1350
vn -0.1045 0.9926 -0.0625
vn -0.0418 0.9961 -0.0776
vn -0.0417 0.9928 -0.1122
vn 0.0112 0.9922 -0.1240
vn 0.0000 0.9889 -0.1489
vn 0.0886 0.9943 -0.0588
vn 0.0204 0.9983 0.0555
vn -0.0793 0.9757 -0.2040
vn -0.0570 0.9855 -0.1599
usemtl cliffcave.001
s 1
f 1/1/1 2/2/1 3/3/1
f 4/4/2 2/2/2 1/1/2
f 5/5/3 2/2/3 4/4/3
f 5/5/4 6/6/4 2/2/4
f 8/7/5 2/2/5 6/6/5
f 3/3/6 2/2/6 8/7/6
f 9/8/7 10/9/7 11/10/7
f 12/11/8 10/9/8 9/8/8
f 13/12/9 10/9/9 12/11/9
f 13/12/10 14/13/10 10/9/10
f 16/14/11 10/9/11 14/13/11
f 11/10/12 10/9/12 16/14/12
f 32/15/7 33/16/7 34/17/7
f 34/17/13 33/16/13 35/18/13
f 35/18/11 33/16/11 36/19/11
f 37/20/10 36/19/10 33/16/10
f 39/21/14 40/22/14 41/23/14
f 41/23/15 40/22/15 42/24/15
f 43/25/16 42/24/16 40/22/16
f 45/26/17 46/27/17 47/28/17
f 45/26/17 48/29/17 46/27/17
f 49/30/18 48/29/18 45/26/18
f 49/30/19 50/31/19 48/29/19
f 49/30/20 51/32/20 50/31/20
f 52/33/21 51/32/21 49/30/21
f 53/34/22 51/32/22 52/33/22
f 54/35/23 51/32/23 53/34/23
f 54/35/24 55/36/24 51/32/24
f 53/34/25 57/37/25 54/35/25
f 53/34/26 58/38/26 57/37/26
f 59/39/27 58/38/27 53/34/27
f 60/40/28 58/38/28 59/39/28
f 60/40/29 61/41/29 58/38/29
f 60/40/30 62/42/30 61/41/30
f 61/41/30 62/42/30 63/43/30
f 62/42/31 64/44/31 63/43/31
f 63/43/32 64/44/32 65/45/32
f 65/45/33 64/44/33 66/46/33
f 64/44/34 67/47/34 66/46/34
f 23/48/35 67/47/35 64/44/35
f 23/48/36 68/49/36 67/47/36
f 69/50/37 68/49/37 23/48/37
f 68/49/38 69/50/38 70/51/38
f 69/50/39 71/52/39 70/51/39
f 71/52/40 72/53/40 70/51/40
f 71/52/41 73/54/41 72/53/41
f 74/55/42 73/54/42 71/52/42
f 74/55/43 75/56/43 73/54/43
f 76/57/44 75/56/44 74/55/44
f 76/57/45 77/58/45 75/56/45
f 78/59/46 77/58/46 76/57/46
f 77/58/47 78/59/47 79/60/47
f 79/60/48 78/59/48 80/61/48
f 78/59/49 81/62/49 80/61/49
f 81/62/49 78/59/49 82/63/49
f 82/63/50 84/64/50 85/65/50
f 82/63/51 85/65/51 81/62/51
f 85/65/52 86/66/52 81/62/52
f 46/27/53 87/67/53 47/28/53
f 47/28/54 87/67/54 88/68/54
f 89/69/55 78/59/55 90/70/55
f 76/57/56 90/70/56 78/59/56
f 45/26/57 89/69/57 90/70/57
f 90/70/58 49/30/58 45/26/58
f 51/32/59 55/36/59 50/31/59
f 58/38/60 101/71/60 57/37/60
f 101/71/61 58/38/61 100/72/61
f 58/38/62 102/73/62 100/72/62
f 104/74/63 105/75/63 103/76/63
f 65/45/64 105/75/64 104/74/64
f 65/45/65 99/77/65 105/75/65
f 99/77/66 65/45/66 106/78/66
f 65/45/67 68/49/67 106/78/67
f 106/78/68 68/49/68 98/79/68
f 68/49/69 97/80/69 98/79/69
f 68/49/70 107/81/70 97/80/70
f 108/82/71 72/53/71 96/83/71
f 96/83/72 72/53/72 109/84/72
f 72/53/73 73/54/73 109/84/73
f 95/85/74 109/84/74 73/54/74
f 110/86/75 95/85/75 73/54/75
f 79/60/76 95/85/76 110/86/76
f 79/60/77 111/87/77 95/85/77
f 79/60/48 80/61/48 111/87/48
f 75/56/78 112/88/78 73/54/78
f 79/60/79 112/88/79 75/56/79
f 79/60/80 75/56/80 77/58/80
f 107/81/81 108/82/81 96/83/81
f 107/81/82 96/83/82 97/80/82
f 103/76/83 105/75/83 99/77/83
f 113/89/84 103/76/84 99/77/84
f 103/76/85 113/89/85 102/73/85
f 102/73/86 113/89/86 100/72/86
usemtl earthcave.001
f 6/90/87 5/91/87 7/92/87
f 5/91/88 4/93/88 7/92/88
f 4/93/89 1/94/89 7/92/89
f 7/92/90 1/94/90 3/95/90
f 8/96/91 7/92/91 3/95/91
f 6/90/92 7/92/92 8/96/92
f 14/97/93 13/98/93 15/99/93
f 13/98/94 12/100/94 15/99/94
f 12/100/95 9/101/95 15/99/95
f 15/99/96 9/101/96 11/102/96
f 16/103/97 15/99/97 11/102/97
f 14/97/98 15/99/98 16/103/98
f 17/104/99 18/105/99 19/106/99
f 18/105/100 20/107/100 19/106/100
f 19/106/101 20/107/101 21/108/101
f 20/107/102 22/109/102 21/108/102
f 21/108/103 22/109/103 23/110/103
f 21/108/103 23/110/103 24/111/103
f 21/108/104 24/111/104 25/112/104
f 21/108/105 25/112/105 26/113/105
f 21/108/106 26/113/106 27/114/106
f 28/115/107 21/108/107 27/114/107
f 19/106/108 21/108/108 28/115/108
f 29/116/109 19/106/109 28/115/109
f 30/117/110 19/106/110 29/116/110
f 30/117/111 17/104/111 19/106/111
f 28/115/112 27/114/112 31/118/112
f 36/119/93 37/120/93 38/121/93
f 37/120/113 32/122/113 38/121/113
f 38/121/96 32/122/96 34/123/96
f 35/124/97 38/121/97 34/123/97
f 36/119/98 38/121/98 35/124/98
f 42/125/114 43/126/114 44/127/114
f 43/126/115 39/128/115 44/127/115
f 44/127/116 39/128/116 41/129/116
f 42/125/117 44/127/117 41/129/117
f 55/130/118 54/131/118 56/132/118
f 54/131/119 57/133/119 56/132/119
f 83/134/120 82/135/120 78/136/120
f 84/137/121 82/135/121 83/134/121
f 86/138/122 46/139/122 81/140/122
f 87/141/123 46/139/123 86/138/123
f 88/142/124 84/137/124 47/143/124
f 84/137/125 83/134/125 47/143/125
f 47/143/126 83/134/126 45/144/126
f 83/134/127 89/145/127 45/144/127
f 83/134/128 78/136/128 89/145/128
f 46/139/129 91/146/129 81/140/129
f 46/139/130 48/147/130 91/146/130
f 91/146/131 48/147/131 92/148/131
f 92/148/132 48/147/132 93/149/132
f 48/147/133 50/150/133 93/149/133
f 93/149/134 50/150/134 55/130/134
f 93/149/135 55/130/136 94/151/137
f 94/151/138 55/130/138 56/132/138
f 94/151/139 56/132/140 95/152/141
f 95/152/141 56/132/140 96/153/142
f 56/132/143 97/154/143 96/153/143
f 56/132/144 98/155/144 97/154/144
f 56/132/145 99/156/145 98/155/145
f 56/132/146 100/157/146 99/156/146
f 56/132/147 101/158/147 100/157/147
f 56/132/148 57/133/148 101/158/148
f 102/159/115 58/160/115 103/161/115
f 58/160/149 61/162/149 103/161/149
f 103/161/150 61/162/150 65/163/150
f 65/163/151 61/162/151 63/164/151
f 104/165/152 103/161/152 65/163/152
f 68/166/153 65/163/153 66/167/153
f 68/166/154 66/167/154 67/168/154
f 107/169/155 68/166/155 70/170/155
f 72/171/156 107/169/156 70/170/156
f 72/171/157 108/172/157 107/169/157
f 95/152/141 96/153/142 109/173/158
f 80/174/159 93/149/159 111/175/159
f 80/174/160 92/148/160 93/149/160
f 91/146/161 92/148/161 80/174/161
f 81/140/162 91/146/162 80/174/162
f 93/149/135 94/151/137 111/175/163
f 111/175/164 94/151/164 95/152/164
f 79/176/165 110/177/165 73/178/165
f 79/176/166 73/178/166 112/179/166
f 98/155/115 99/156/115 106/180/115
f 100/157/115 113/181/115 99/156/115
