# Blender v2.90.0 OBJ File: ''
# www.blender.org
mtllib wall1.mtl
o wall1
v 0.075000 0.312779 0.225000
v -0.015000 -0.000000 0.276962
v 0.075000 -0.000000 0.225000
v -0.015000 0.212766 0.276962
v -0.015000 0.212766 0.173038
v -0.015000 -0.000000 0.173038
v 0.075000 0.312779 0.000000
v -0.015000 -0.000000 0.051962
v 0.075000 0.000000 -0.000000
v -0.015000 0.212766 0.051962
v -0.015000 0.212766 -0.051961
v -0.015000 0.000000 -0.051962
v 0.075000 0.312779 -0.225000
v -0.015000 0.000000 -0.173038
v 0.075000 0.000000 -0.225000
v -0.015000 0.212766 -0.173038
v -0.015000 0.212766 -0.276962
v -0.015000 0.000000 -0.276962
v 0.025000 0.000000 -0.276962
v 0.025000 0.212766 0.276962
v 0.025000 -0.000000 0.276962
v 0.025000 0.212766 -0.276962
v -0.025000 0.212766 -0.276962
v -0.025000 0.000000 -0.276962
v -0.025000 -0.000000 0.276962
v -0.025000 0.212766 0.276962
vt -0.480385 2.000130
vt 0.039230 -1.127660
vt -0.480385 -1.127660
vt 0.039230 1.000000
vt -1.000000 1.000000
vt -1.000000 -1.127660
vt -0.480385 2.000130
vt 0.039230 -1.127660
vt -0.480385 -1.127660
vt 0.039230 1.000000
vt -1.000000 1.000000
vt -1.000000 -1.127660
vt -0.480385 2.000130
vt 0.039230 -1.127660
vt -0.480385 -1.127660
vt 0.039230 1.000000
vt -1.000000 1.000000
vt -1.000000 -1.127660
vt -2.000000 -1.805760
vt -0.470092 2.177270
vt -2.000000 2.177270
vt -0.470094 -1.805760
vt -0.470093 -2.165290
vt -2.000000 -2.165290
vt -2.000000 -6.148310
vt -0.470088 -6.148310
vt -2.000000 2.536800
vt -0.470092 2.536800
vt -0.110559 -6.148310
vt -0.110565 -2.165280
vn 0.5000 -0.0000 0.8660
vn -0.7433 0.6689 0.0000
vn 0.5000 0.0000 -0.8660
vn 1.0000 -0.0000 0.0000
vn 0.0000 0.0000 -1.0000
vn -1.0000 0.0000 0.0000
vn 0.0000 -0.0000 1.0000
vn 0.0000 1.0000 0.0000
usemtl _1
s 1
f 1/1/1 2/2/1 3/3/1
f 2/2/1 1/1/1 4/4/1
f 5/5/2 4/4/2 1/1/2
f 3/3/3 5/5/3 1/1/3
f 5/5/3 3/3/3 6/6/3
f 7/7/1 8/8/1 9/9/1
f 8/8/1 7/7/1 10/10/1
f 11/11/2 10/10/2 7/7/2
f 9/9/3 11/11/3 7/7/3
f 11/11/3 9/9/3 12/12/3
f 13/13/1 14/14/1 15/15/1
f 14/14/1 13/13/1 16/16/1
f 17/17/2 16/16/2 13/13/2
f 15/15/3 17/17/3 13/13/3
f 17/17/3 15/15/3 18/18/3
usemtl _
f 19/19/4 20/20/4 21/21/4
f 20/20/4 19/19/4 22/22/4
f 19/19/5 23/23/5 22/22/5
f 23/23/5 19/19/5 24/24/5
f 25/25/6 23/23/6 24/24/6
f 23/23/6 25/25/6 26/26/6
f 25/27/7 20/20/7 26/28/7
f 20/20/7 25/27/7 21/21/7
f 20/29/8 23/23/8 26/26/8
f 23/23/8 20/29/8 22/30/8
