# Blender v2.90.0 OBJ File: ''
# www.blender.org
mtllib deadtree.mtl
o deadtree
v 0.130330 0.363081 -0.157359
v -0.015380 0.257494 -0.118263
v 0.011503 0.220026 -0.099557
v -0.002835 0.205868 -0.117182
v -0.001010 0.090950 -0.031148
v 0.023445 0.118541 -0.003558
v -0.026851 0.136959 0.014861
v -0.004938 0.354582 0.065056
v 0.006770 0.318590 -0.004357
v 0.001335 0.384266 0.065656
v -0.005850 0.288503 0.017308
v -0.012106 0.362722 0.055274
v -0.018078 0.304368 0.001995
v -0.071520 0.444979 0.087354
v -0.170885 0.467026 0.087398
v -0.110934 0.327735 0.053608
v -0.121685 0.309534 0.036334
v -0.127405 0.297601 0.049784
v -0.025676 0.188102 0.012514
v 0.003851 0.251030 0.021361
v -0.013570 0.210958 -0.014731
v 0.047199 0.217248 0.066428
v 0.021883 0.189112 -0.002986
v 0.076043 0.226658 0.067028
v -0.010482 0.184999 0.018679
v 0.050665 0.227527 0.056646
v -0.002857 0.203520 0.003366
v 0.092195 0.260108 0.088726
v -0.018078 0.412709 0.010454
v -0.038681 0.000000 -0.022574
v -0.038681 -0.000000 0.020804
v -0.018078 0.412709 -0.006041
v -0.005435 0.569045 -0.033417
v -0.003792 0.412709 -0.014289
v 0.010493 0.412709 0.000549
v 0.002798 0.412709 0.018701
v 0.016215 -0.000000 0.042493
v 0.036451 0.000000 -0.005244
v -0.001115 0.000000 -0.044263
vt 1.936210 1.660450
vt 1.296750 1.602320
vt 1.308050 1.408180
vt 1.213350 1.411840
vt 1.039460 0.961138
vt 1.206470 0.968169
vt 1.120380 1.115910
vt 1.752110 1.704100
vt 1.627950 1.634360
vt 1.841360 1.783460
vt 1.542670 1.545330
vt 1.739620 1.754790
vt 1.527490 1.636670
vt 1.791610 2.109500
vt 1.548960 2.392190
vt 1.362240 1.858520
vt 1.269020 1.841410
vt 1.238250 1.802830
vt 1.241980 1.276660
vt 1.487380 1.402560
vt 1.302740 1.349550
vt 1.584310 1.158580
vt 1.368880 1.193060
vt 1.692690 1.125680
vt 1.286290 1.228170
vt 1.608400 1.193170
vt 1.336260 1.285240
vt 1.842600 1.174810
vt 1.792020 1.969270
vt 0.722390 0.747302
vt 0.768633 0.704388
vt 1.774430 1.985590
vt 2.151440 2.477550
vt 1.808000 1.963070
vt 1.866190 1.917720
vt 1.862720 1.916290
vt 0.954560 0.565064
vt 0.963685 0.568841
vt 0.810678 0.688100
vn -0.0559 0.4136 0.9087
vn -0.2099 -0.0714 -0.9751
vn 0.7499 -0.6563 -0.0828
vn 0.8441 -0.3127 -0.4355
vn 0.4598 0.6382 0.6175
vn -0.9286 -0.2317 -0.2898
vn 0.9423 -0.2045 0.2650
vn -0.8704 -0.2804 0.4046
vn -0.8705 -0.2804 0.4046
vn -0.5051 0.6096 -0.6110
vn 0.0624 0.4014 -0.9138
vn 0.2318 -0.0686 0.9703
vn -0.7933 -0.6037 0.0789
vn 0.5200 0.4061 -0.7515
vn 0.1155 -0.1869 0.9756
vn -0.8717 -0.1181 -0.4755
vn -0.6617 -0.3986 -0.6350
vn 0.1385 -0.2013 0.9697
vn 0.1394 -0.1993 0.9700
vn 0.1941 0.6126 -0.7662
vn 0.1936 0.6117 -0.7670
vn 0.1927 0.6101 -0.7686
vn 0.1922 0.6093 -0.7693
vn -0.6638 -0.4010 -0.6313
vn 0.2941 -0.9183 0.2650
vn -0.6780 0.6136 0.4046
vn -0.6780 0.6137 0.4046
vn 0.2754 0.7422 -0.6110
vn 0.3616 0.3782 -0.8522
vn 0.1776 -0.5945 0.7842
vn -0.7311 0.5833 0.3540
vn -0.9988 0.0499 0.0000
vn -0.9967 0.0806 0.0000
vn -0.4969 -0.1105 -0.8607
vn 0.7182 -0.0771 -0.6915
vn 0.9063 0.1758 0.3842
vn -0.3528 0.2791 0.8931
vn -0.3671 0.0416 0.9292
vn 0.9194 0.0524 0.3898
vn 0.7193 0.0550 -0.6925
vn -0.4991 0.0595 -0.8645
usemtl _117
s 1
f 1/1/1 2/2/1 3/3/1
f 1/1/2 4/4/2 2/2/2
f 1/1/3 3/3/3 4/4/3
f 3/3/4 5/5/4 4/4/4
f 5/5/4 3/3/4 6/6/4
f 2/2/5 6/6/5 3/3/5
f 6/6/5 2/2/5 7/7/5
f 2/2/6 5/5/6 7/7/6
f 5/5/6 2/2/6 4/4/6
f 8/8/7 9/9/7 10/10/7
f 9/9/7 8/8/7 11/11/7
f 12/12/8 11/11/8 8/8/8
f 11/11/9 12/12/9 13/13/9
f 12/12/10 9/9/10 13/13/10
f 9/9/10 12/12/10 10/10/10
f 14/14/11 10/10/11 12/12/11
f 14/14/12 8/8/12 10/10/12
f 12/12/13 8/8/13 14/14/13
f 15/15/14 16/16/14 17/17/14
f 15/15/15 18/18/15 16/16/15
f 17/17/16 18/18/16 15/15/16
f 19/19/17 18/18/17 17/17/17
f 18/18/18 19/19/18 20/20/18
f 16/16/19 18/18/19 20/20/19
f 16/16/20 20/20/21 17/17/22
f 17/17/22 20/20/21 21/21/23
f 21/21/24 19/19/24 17/17/24
f 22/22/25 23/23/25 24/24/25
f 23/23/25 22/22/25 25/25/25
f 26/26/26 25/25/26 22/22/26
f 25/25/27 26/26/27 27/27/27
f 26/26/28 23/23/28 27/27/28
f 23/23/28 26/26/28 24/24/28
f 28/28/29 24/24/29 26/26/29
f 28/28/30 22/22/30 24/24/30
f 26/26/31 22/22/31 28/28/31
f 29/29/32 30/30/32 31/31/32
f 30/30/32 29/29/32 32/32/32
f 33/33/33 32/32/33 29/29/33
f 33/33/34 34/34/34 32/32/34
f 33/33/35 35/35/35 34/34/35
f 33/33/36 36/36/36 35/35/36
f 33/33/37 29/29/37 36/36/37
f 31/31/38 36/36/38 29/29/38
f 36/36/38 31/31/38 37/37/38
f 38/38/39 36/36/39 37/37/39
f 36/36/39 38/38/39 35/35/39
f 38/38/40 34/34/40 35/35/40
f 34/34/40 38/38/40 39/39/40
f 30/30/41 34/34/41 39/39/41
f 34/34/41 30/30/41 32/32/41
