# Blender v2.90.0 OBJ File: ''
# www.blender.org
mtllib flowers1.mtl
o flowers1
v -0.027919 0.012961 0.025365
v -0.011478 0.014982 0.027076
v -0.017281 0.010069 0.014310
v -0.000897 0.014943 0.014508
v -0.009761 0.012564 0.000424
v -0.024328 0.010854 -0.000269
v -0.035059 0.010765 0.011163
v -0.030351 0.012192 -0.020782
v -0.027148 0.013771 -0.007251
v -0.018829 0.009113 -0.015314
v -0.014302 0.013016 -0.002251
v -0.005643 0.010457 -0.013116
v -0.009130 0.009164 -0.024881
v -0.021122 0.009760 -0.030308
v 0.016371 0.011465 -0.001422
v 0.022869 0.011712 -0.010074
v 0.014450 0.006986 -0.010323
v 0.019833 0.008765 -0.019879
v 0.009378 0.005642 -0.019293
v 0.004055 0.005610 -0.011371
v 0.006441 0.008300 -0.001835
vt 95.949699 -24.507500
vt 95.652100 -24.100201
vt 95.485397 -24.508499
vt 95.154800 -24.120199
vt 95.020897 -24.611500
vt 95.303001 -24.955400
vt 95.777901 -24.962200
vt 95.949699 -24.507500
vt 95.652100 -24.100201
vt 95.485397 -24.508499
vt 95.154800 -24.120199
vt 95.020897 -24.611500
vt 95.303001 -24.955400
vt 95.777901 -24.962200
vt 95.949699 -24.507500
vt 95.652100 -24.100201
vt 95.485397 -24.508499
vt 95.154800 -24.120199
vt 95.020897 -24.611500
vt 95.303001 -24.955400
vt 95.777901 -24.962200
vn -0.0819 0.9421 -0.3253
vn -0.2746 0.9326 -0.2341
vn -0.2853 0.9583 0.0177
vn -0.1211 0.9863 0.1117
vn 0.0324 0.9987 0.0382
vn 0.0716 0.9797 -0.1875
vn 0.3355 0.9233 -0.1872
vn 0.1866 0.9217 -0.3400
vn -0.0532 0.9617 -0.2688
vn -0.0873 0.9927 -0.0832
vn 0.2571 0.9664 0.0024
vn -0.4566 0.8304 -0.3193
vn -0.4839 0.8680 -0.1110
vn -0.1230 0.9893 -0.0787
vn -0.1027 0.9638 -0.2461
vn -0.2653 0.8831 -0.3871
usemtl _266
s 1
f 1/1/1 2/2/1 3/3/1
f 2/2/2 4/4/2 3/3/2
f 3/3/3 4/4/3 5/5/3
f 6/6/4 3/3/4 5/5/4
f 7/7/5 3/3/5 6/6/5
f 7/7/6 1/1/6 3/3/6
f 8/8/7 9/9/7 10/10/7
f 9/9/8 11/11/8 10/10/8
f 10/10/9 11/11/9 12/12/9
f 13/13/10 10/10/10 12/12/10
f 14/14/5 10/10/5 13/13/5
f 14/14/11 8/8/11 10/10/11
f 15/15/12 16/16/12 17/17/12
f 16/16/13 18/18/13 17/17/13
f 17/17/3 18/18/3 19/19/3
f 20/20/14 17/17/14 19/19/14
f 21/21/15 17/17/15 20/20/15
f 21/21/16 15/15/16 17/17/16
