# Blender v2.90.0 OBJ File: ''
# www.blender.org
mtllib mushrooms1.mtl
o mushrooms1
v -0.009468 0.025868 0.007435
v -0.009966 -0.000000 0.011375
v -0.002856 -0.000000 0.009983
v -0.010316 -0.000000 0.004320
v -0.003427 -0.000000 0.002761
v -0.006723 0.012301 0.000117
v -0.001249 0.012301 0.007805
v -0.009553 0.021498 0.007123
v -0.009468 0.025868 0.007435
v -0.015726 0.012301 0.002948
v -0.015816 0.012301 0.012385
v -0.006868 0.012301 0.015387
v 0.007028 0.037555 -0.007904
v 0.002034 0.000000 -0.005021
v 0.009885 -0.000000 0.001979
v 0.009885 0.000000 -0.011618
v 0.017735 0.000000 -0.005021
v 0.017899 0.017858 -0.011152
v 0.013815 0.017858 0.001926
v 0.007313 0.031211 -0.008275
v 0.007028 0.037555 -0.007904
v 0.006723 0.017858 -0.019078
v -0.004268 0.017858 -0.010898
v 0.000114 0.017858 0.002083
vt 70.389900 13.334100
vt 70.145599 11.432900
vt 70.630302 11.286100
vt 70.511703 11.634400
vt 70.992798 11.497900
vt 70.389900 13.334100
vt 70.145599 11.432900
vt 70.630302 11.286100
vt 70.511703 11.634400
vt 70.992798 11.497900
vt 1.334950 -2.932800
vt 1.019530 -3.942700
vt 0.517499 -3.154950
vt 0.495449 -3.183620
vt 0.471944 -2.320740
vt -0.376842 -2.952370
vt -0.038417 -3.954800
vt 1.334950 -2.932800
vt 1.019530 -3.942700
vt 0.517499 -3.154950
vt 0.495449 -3.183620
vt 0.471944 -2.320740
vt -0.376842 -2.952370
vt -0.038417 -3.954800
vn 0.1901 0.1443 0.9711
vn -0.9984 0.0268 0.0496
vn -0.2191 0.1237 -0.9678
vn 0.9678 0.2398 -0.0765
vn -0.6586 0.1443 0.7386
vn -0.6431 0.0268 -0.7653
vn 0.6384 0.1237 -0.7597
vn 0.6461 0.2398 0.7246
vn -0.6697 -0.5693 0.4769
vn 0.7350 0.4310 -0.5234
vn -0.2731 0.4132 -0.8687
vn 0.2533 -0.5357 0.8055
vn 0.8287 -0.5597 0.0079
vn 0.2534 -0.6045 -0.7552
vn -0.6367 -0.6098 -0.4719
vn 0.7177 0.4493 0.5320
vn -0.2851 0.4434 0.8498
vn -0.9069 0.4212 -0.0086
vn -0.7847 -0.5693 -0.2451
vn 0.8613 0.4310 0.2690
vn 0.5268 0.4132 -0.7428
vn -0.4885 -0.5357 0.6888
vn 0.4947 -0.5597 0.6648
vn 0.7547 -0.6045 -0.2548
vn -0.0091 -0.6098 -0.7925
vn 0.0102 0.4493 0.8933
vn -0.8492 0.4434 0.2867
vn -0.5415 0.4212 -0.7276
usemtl carrot
s 1
f 1/1/1 2/2/1 3/3/1
f 1/1/2 4/4/2 2/2/2
f 1/1/3 5/5/3 4/4/3
f 1/1/4 3/3/4 5/5/4
f 13/6/5 14/7/5 15/8/5
f 13/6/6 16/9/6 14/7/6
f 13/6/7 17/10/7 16/9/7
f 13/6/8 15/8/8 17/10/8
usemtl _217
f 6/11/9 7/12/9 8/13/9
f 6/11/10 9/14/10 7/12/10
f 9/14/11 6/11/11 10/15/11
f 8/13/12 10/15/12 6/11/12
f 8/13/13 11/16/13 10/15/13
f 11/16/14 8/13/14 12/17/14
f 8/13/15 7/12/15 12/17/15
f 9/14/16 12/17/16 7/12/16
f 11/16/17 12/17/17 9/14/17
f 9/14/18 10/15/18 11/16/18
f 18/18/19 19/19/19 20/20/19
f 18/18/20 21/21/20 19/19/20
f 21/21/21 18/18/21 22/22/21
f 20/20/22 22/22/22 18/18/22
f 20/20/23 23/23/23 22/22/23
f 23/23/24 20/20/24 24/24/24
f 20/20/25 19/19/25 24/24/25
f 21/21/26 24/24/26 19/19/26
f 23/23/27 24/24/27 21/21/27
f 21/21/28 22/22/28 23/23/28
