# Blender v2.90.0 OBJ File: ''
# www.blender.org
mtllib pinetree.mtl
o pinetree
v -0.011111 0.451592 -0.002136
v -0.011111 0.202609 0.073974
v 0.054802 0.202609 0.035919
v -0.071666 0.202609 0.033778
v -0.077024 0.202609 -0.040191
v -0.011111 0.251734 -0.002136
v 0.054802 0.202609 -0.040191
v -0.011111 0.202609 -0.078246
v -0.011111 0.511592 -0.002136
v -0.053424 0.262609 0.061129
v 0.022521 0.262609 0.066140
v -0.081411 0.262609 -0.005949
v -0.044743 0.262609 -0.070412
v -0.011111 0.311734 -0.002136
v 0.064834 0.262609 0.002876
v 0.031202 0.262609 -0.065400
v -0.009097 0.000000 -0.024687
v -0.011111 0.406761 -0.002136
v 0.008419 0.000000 -0.006494
v -0.026612 0.000000 -0.014574
v -0.026612 -0.000000 0.005651
v -0.001016 -0.000000 0.015764
vt 23.486900 0.888773
vt 24.000000 1.777550
vt 22.973700 1.777550
vt 24.436100 0.899887
vt 24.000000 0.000000
vt 23.486900 0.888773
vt 22.460600 0.888773
vt 22.973700 0.000000
vt 23.486900 0.888773
vt 24.000000 1.777550
vt 22.973700 1.777550
vt 24.436100 0.899887
vt 24.000000 0.000000
vt 23.486900 0.888773
vt 22.460600 0.888773
vt 22.973700 0.000000
vt 0.545120 -14.271400
vt 0.194198 -12.514700
vt 0.708790 -14.287300
vt 0.194206 54.936199
vt 0.545128 53.179501
vt 0.000006 53.179501
vt 0.000090 751.942993
vt -0.272471 751.932007
vt 0.194290 753.700012
vt 0.194152 -402.065002
vt -0.272609 -403.834015
vt 0.188557 -403.847992
vt 0.708878 722.060974
vt 0.194286 723.833008
vt 0.188691 722.051025
vn 0.4833 0.2559 0.8372
vn -0.5359 0.2468 0.8074
vn -0.9669 0.2453 0.0700
vn 0.6134 -0.7886 -0.0444
vn 0.3387 -0.7905 -0.5102
vn -0.2988 -0.8018 -0.5175
vn -0.5976 -0.8018 0.0000
vn 0.9667 0.2559 0.0000
vn 0.4834 0.2559 -0.8372
vn -0.2988 -0.8018 0.5175
vn 0.2988 -0.8018 0.5175
vn -0.4834 0.2559 -0.8372
vn -0.0637 0.2559 0.9646
vn -0.8943 0.2468 0.3732
vn -0.8427 0.2453 -0.4793
vn 0.5345 -0.7886 0.3041
vn 0.5652 -0.7905 -0.2358
vn 0.0393 -0.8018 -0.5963
vn -0.4967 -0.8018 -0.3322
vn 0.8035 0.2559 0.5374
vn 0.8672 0.2559 -0.4272
vn -0.5361 -0.8018 0.2641
vn -0.0394 -0.8018 0.5963
vn 0.0637 0.2559 -0.9646
vn 0.7198 0.0420 -0.6930
vn -0.4995 0.0455 -0.8651
vn -0.9993 0.0381 0.0000
vn -0.3673 0.0318 0.9296
vn 0.9200 0.0400 0.3900
usemtl _117
s 1
f 1/1/1 2/2/1 3/3/1
f 1/1/2 4/4/2 2/2/2
f 5/5/3 4/4/3 1/1/3
f 6/6/4 4/4/4 5/5/4
f 2/2/5 4/4/5 6/6/5
f 3/3/6 2/2/6 6/6/6
f 7/7/7 3/3/7 6/6/7
f 7/7/8 1/1/8 3/3/8
f 1/1/9 7/7/9 8/8/9
f 7/7/10 6/6/10 8/8/10
f 6/6/11 5/5/11 8/8/11
f 1/1/12 8/8/12 5/5/12
f 9/9/13 10/10/13 11/11/13
f 9/9/14 12/12/14 10/10/14
f 13/13/15 12/12/15 9/9/15
f 14/14/16 12/12/16 13/13/16
f 10/10/17 12/12/17 14/14/17
f 11/11/18 10/10/18 14/14/18
f 15/15/19 11/11/19 14/14/19
f 15/15/20 9/9/20 11/11/20
f 9/9/21 15/15/21 16/16/21
f 15/15/22 14/14/22 16/16/22
f 14/14/23 13/13/23 16/16/23
f 9/9/24 16/16/24 13/13/24
usemtl _38
f 17/17/25 18/18/25 19/19/25
f 18/20/26 17/21/26 20/22/26
f 20/23/27 21/24/27 18/25/27
f 18/26/28 21/27/28 22/28/28
f 19/29/29 18/30/29 22/31/29
