# Blender v2.90.0 OBJ File: ''
# www.blender.org
mtllib plant3.mtl
o plant3
v 0.047275 0.034200 0.016395
v 0.069688 0.024200 0.103277
v 0.109070 0.024200 0.055928
v 0.020682 0.034200 0.048367
v 0.000000 0.000000 -0.000000
v 0.112928 -0.000000 0.098634
v -0.047275 0.034200 -0.015739
v -0.069688 0.024200 -0.099146
v -0.109070 0.024200 -0.053691
v -0.020682 0.034200 -0.046432
v -0.000000 -0.000000 -0.000000
v -0.112928 0.000000 -0.094688
v 0.035982 0.015905 -0.008671
v 0.087735 0.011254 0.025916
v 0.090955 0.011254 -0.011097
v 0.033808 0.015905 0.016322
v -0.000000 0.000000 -0.000043
v 0.112033 -0.000000 0.008424
v 0.020293 0.034200 -0.045737
v 0.108746 0.024200 -0.060802
v 0.064859 0.024200 -0.104007
v 0.049928 0.034200 -0.016563
v -0.000000 0.000000 -0.000000
v 0.107737 0.000000 -0.104279
v 0.014442 0.022401 0.036796
v -0.026193 0.015851 0.094877
v 0.022455 0.015851 0.094194
v -0.018407 0.022401 0.037258
v 0.000000 0.000000 0.000000
v -0.001196 -0.000000 0.118445
v -0.022728 0.034200 0.042993
v -0.121796 0.024200 0.057154
v -0.072642 0.024200 0.097767
v -0.055919 0.034200 0.015569
v -0.000000 0.000000 0.000000
v -0.120666 -0.000000 0.098022
v -0.037876 0.022401 0.011313
v -0.092352 0.015851 -0.034041
v -0.095742 0.015851 0.014494
v -0.035587 0.022401 -0.021460
v -0.000000 0.000000 -0.000000
v -0.117930 0.000000 -0.011103
v -0.015453 0.023969 -0.039372
v 0.028027 0.016961 -0.101518
v -0.024027 0.016961 -0.100787
v 0.019696 0.023969 -0.039866
v -0.000000 0.000000 -0.000000
v 0.001280 0.000000 -0.126736
vt 68.268600 28.290100
vt 68.917000 28.740999
vt 68.142899 28.740999
vt 68.791298 28.290100
vt 68.497200 28.000000
vt 68.519897 28.928600
vt 68.268600 28.290100
vt 68.917000 28.740999
vt 68.142899 28.740999
vt 68.791298 28.290100
vt 68.497200 28.000000
vt 68.519897 28.928600
vt 68.268600 28.290100
vt 68.917000 28.740999
vt 68.142899 28.740999
vt 68.791298 28.290100
vt 68.497200 28.000000
vt 68.519897 28.928600
vt 68.268600 28.290100
vt 68.917000 28.740999
vt 68.142899 28.740999
vt 68.791298 28.290100
vt 68.497200 28.000000
vt 68.519897 28.928600
vt 68.268600 28.290100
vt 68.917000 28.740999
vt 68.142899 28.740999
vt 68.791298 28.290100
vt 68.497200 28.000000
vt 68.519897 28.928600
vt 68.268600 28.290100
vt 68.917000 28.740999
vt 68.142899 28.740999
vt 68.791298 28.290100
vt 68.497200 28.000000
vt 68.519897 28.928600
vt 68.268600 28.290100
vt 68.917000 28.740999
vt 68.142899 28.740999
vt 68.791298 28.290100
vt 68.497200 28.000000
vt 68.519897 28.928600
vt 68.268600 28.290100
vt 68.917000 28.740999
vt 68.142899 28.740999
vt 68.791298 28.290100
vt 68.497200 28.000000
vt 68.519897 28.928600
vn 0.0474 0.9981 0.0404
vn -0.2398 0.9490 -0.2044
vn -0.2399 0.9490 -0.2044
vn 0.2600 0.9399 0.2216
vn -0.0474 0.9981 -0.0388
vn 0.2402 0.9506 0.1966
vn -0.2605 0.9417 -0.2131
vn -0.2605 0.9417 -0.2132
vn 0.1000 0.9950 0.0066
vn -0.4709 0.8817 -0.0310
vn 0.5044 0.8628 0.0332
vn 0.0443 0.9981 -0.0439
vn -0.2238 0.9490 0.2219
vn 0.2426 0.9399 -0.2405
vn 0.0001 0.9972 0.0752
vn 0.0001 0.9972 0.0751
vn -0.0007 0.9283 -0.3718
vn 0.0008 0.9159 0.4015
vn -0.0496 0.9979 0.0413
vn 0.2498 0.9457 -0.2078
vn -0.2706 0.9360 0.2252
vn -0.0749 0.9972 -0.0061
vn 0.3705 0.9283 0.0304
vn -0.4001 0.9159 -0.0328
vn -0.0001 0.9972 -0.0751
vn -0.0002 0.9972 -0.0752
vn -0.0001 0.9972 -0.0752
vn 0.0007 0.9283 0.3718
vn -0.0008 0.9159 -0.4015
usemtl leaf1
s 1
f 1/1/1 2/2/1 3/3/1
f 2/2/1 1/1/1 4/4/1
f 5/5/2 4/4/2 1/1/3
f 2/2/4 6/6/4 3/3/4
f 7/7/5 8/8/5 9/9/5
f 8/8/5 7/7/5 10/10/5
f 11/11/6 10/10/6 7/7/6
f 8/8/7 12/12/7 9/9/8
f 13/13/9 14/14/9 15/15/9
f 14/14/9 13/13/9 16/16/9
f 17/17/10 16/16/10 13/13/10
f 14/14/11 18/18/11 15/15/11
f 19/19/12 20/20/12 21/21/12
f 20/20/12 19/19/12 22/22/12
f 23/23/13 22/22/13 19/19/13
f 20/20/14 24/24/14 21/21/14
f 25/25/15 26/26/15 27/27/15
f 26/26/16 25/25/16 28/28/16
f 29/29/17 28/28/17 25/25/17
f 26/26/18 30/30/18 27/27/18
f 31/31/19 32/32/19 33/33/19
f 32/32/19 31/31/19 34/34/19
f 35/35/20 34/34/20 31/31/20
f 32/32/21 36/36/21 33/33/21
f 37/37/22 38/38/22 39/39/22
f 38/38/22 37/37/22 40/40/22
f 41/41/23 40/40/23 37/37/23
f 38/38/24 42/42/24 39/39/24
f 43/43/25 44/44/25 45/45/25
f 44/44/26 43/43/27 46/46/26
f 47/47/28 46/46/28 43/43/28
f 44/44/29 48/48/29 45/45/29
